M48
; DRILL file {KiCad (6.0.11)} date Wed Mar 22 17:50:04 2023
; FORMAT={-:-/ absolute / metric / decimal}
; #@! TF.CreationDate,2023-03-22T17:50:04+01:00
; #@! TF.GenerationSoftware,Kicad,Pcbnew,(6.0.11)
; #@! TF.FileFunction,Plated,1,2,PTH
FMAT,2
METRIC
; #@! TA.AperFunction,Plated,PTH,ComponentDrill
T1C1.000
; #@! TA.AperFunction,Plated,PTH,ComponentDrill
T2C1.500
%
G90
G05
T1
X126.35Y-93.9
X126.35Y-119.3
X128.89Y-93.9
X128.89Y-119.3
X131.43Y-93.9
X131.43Y-119.3
X133.97Y-93.9
X133.97Y-119.3
X136.51Y-93.9
X136.51Y-119.3
X139.05Y-93.9
X139.05Y-119.3
X141.59Y-93.9
X141.59Y-119.3
X144.13Y-93.9
X144.13Y-119.3
X146.67Y-93.9
X146.67Y-119.3
X149.21Y-93.9
X149.21Y-119.3
X151.75Y-93.9
X151.75Y-119.3
X154.29Y-93.9
X154.29Y-119.3
X156.83Y-93.9
X156.83Y-119.3
X159.37Y-93.9
X159.37Y-119.3
X161.91Y-93.9
X161.91Y-119.3
T2
X119.3Y-85.395
X124.3Y-85.395
X131.1Y-85.195
X136.1Y-85.195
X145.5Y-82.06
X150.5Y-82.06
X158.5Y-85.795
X163.5Y-85.795
T0
M30
