%TF.GenerationSoftware,KiCad,Pcbnew,(6.0.11)*%
%TF.CreationDate,2023-03-07T15:10:14+01:00*%
%TF.ProjectId,ultrasonic speaker,756c7472-6173-46f6-9e69-632073706561,rev?*%
%TF.SameCoordinates,Original*%
%TF.FileFunction,Soldermask,Top*%
%TF.FilePolarity,Negative*%
%FSLAX46Y46*%
G04 Gerber Fmt 4.6, Leading zero omitted, Abs format (unit mm)*
G04 Created by KiCad (PCBNEW (6.0.11)) date 2023-03-07 15:10:14*
%MOMM*%
%LPD*%
G01*
G04 APERTURE LIST*
G04 Aperture macros list*
%AMRoundRect*
0 Rectangle with rounded corners*
0 $1 Rounding radius*
0 $2 $3 $4 $5 $6 $7 $8 $9 X,Y pos of 4 corners*
0 Add a 4 corners polygon primitive as box body*
4,1,4,$2,$3,$4,$5,$6,$7,$8,$9,$2,$3,0*
0 Add four circle primitives for the rounded corners*
1,1,$1+$1,$2,$3*
1,1,$1+$1,$4,$5*
1,1,$1+$1,$6,$7*
1,1,$1+$1,$8,$9*
0 Add four rect primitives between the rounded corners*
20,1,$1+$1,$2,$3,$4,$5,0*
20,1,$1+$1,$4,$5,$6,$7,0*
20,1,$1+$1,$6,$7,$8,$9,0*
20,1,$1+$1,$8,$9,$2,$3,0*%
%AMFreePoly0*
4,1,10,3.862500,-0.866500,1.250843,-0.866500,1.250861,-0.861585,0.725074,-0.450000,-0.737500,-0.450000,-0.737500,0.450000,0.725074,0.450000,1.257139,0.866500,3.862500,0.866500,3.862500,-0.866500,3.862500,-0.866500,$1*%
G04 Aperture macros list end*
%ADD10RoundRect,0.150000X-0.825000X-0.150000X0.825000X-0.150000X0.825000X0.150000X-0.825000X0.150000X0*%
%ADD11R,2.290000X3.000000*%
%ADD12C,2.000000*%
%ADD13R,2.100000X2.100000*%
%ADD14C,2.100000*%
%ADD15R,1.300000X0.900000*%
%ADD16FreePoly0,0.000000*%
%ADD17R,1.524000X1.524000*%
%ADD18C,1.524000*%
%ADD19RoundRect,0.237500X-0.250000X-0.237500X0.250000X-0.237500X0.250000X0.237500X-0.250000X0.237500X0*%
%ADD20RoundRect,0.250000X-0.325000X-0.450000X0.325000X-0.450000X0.325000X0.450000X-0.325000X0.450000X0*%
%ADD21RoundRect,0.237500X-0.287500X-0.237500X0.287500X-0.237500X0.287500X0.237500X-0.287500X0.237500X0*%
%ADD22RoundRect,0.237500X-0.300000X-0.237500X0.300000X-0.237500X0.300000X0.237500X-0.300000X0.237500X0*%
G04 APERTURE END LIST*
D10*
%TO.C,U2*%
X147385000Y-81915000D03*
X147385000Y-83185000D03*
D11*
X149860000Y-83820000D03*
D10*
X147385000Y-84455000D03*
X147385000Y-85725000D03*
X152335000Y-85725000D03*
X152335000Y-84455000D03*
X152335000Y-83185000D03*
X152335000Y-81915000D03*
%TD*%
D12*
%TO.C,LS1*%
X244030000Y-45140000D03*
X251530000Y-45140000D03*
%TD*%
D13*
%TO.C,J3*%
X246380000Y-30480000D03*
D14*
X248920000Y-30480000D03*
%TD*%
D15*
%TO.C,U3*%
X165990000Y-76200000D03*
D16*
X166077500Y-77700000D03*
D15*
X165990000Y-79200000D03*
%TD*%
D17*
%TO.C,U1*%
X113395527Y-62173929D03*
D18*
X113395527Y-64713929D03*
X113395527Y-67253929D03*
X113395527Y-69793929D03*
X113395527Y-72333929D03*
X113395527Y-74873929D03*
X113395527Y-77413929D03*
X113395527Y-79953929D03*
X113395527Y-82493929D03*
X113395527Y-85033929D03*
X113395527Y-87573929D03*
X113395527Y-90113929D03*
X113395527Y-92653929D03*
X113395527Y-95193929D03*
X113395527Y-97733929D03*
X138795527Y-97733929D03*
X138795527Y-95193929D03*
X138795527Y-92653929D03*
X138795527Y-90113929D03*
X138795527Y-87573929D03*
X138795527Y-85033929D03*
X138795527Y-82493929D03*
X138795527Y-79953929D03*
X138795527Y-77413929D03*
X138795527Y-74873929D03*
X138795527Y-72333929D03*
X138795527Y-69793929D03*
X138795527Y-67253929D03*
X138795527Y-64713929D03*
X138795527Y-62173929D03*
%TD*%
D19*
%TO.C,R3*%
X175442500Y-63500000D03*
X173617500Y-63500000D03*
%TD*%
%TO.C,R2*%
X164917500Y-63500000D03*
X166742500Y-63500000D03*
%TD*%
%TO.C,R1*%
X169267500Y-66010000D03*
X171092500Y-66010000D03*
%TD*%
D13*
%TO.C,J2*%
X175260000Y-104140000D03*
D14*
X177800000Y-104140000D03*
%TD*%
D13*
%TO.C,J1*%
X144780000Y-58420000D03*
D14*
X147320000Y-58420000D03*
%TD*%
D20*
%TO.C,D2*%
X155870000Y-63765000D03*
X157920000Y-63765000D03*
%TD*%
D21*
%TO.C,D1*%
X162360000Y-63540000D03*
X160610000Y-63540000D03*
%TD*%
D22*
%TO.C,C2*%
X164967500Y-66010000D03*
X166692500Y-66010000D03*
%TD*%
%TO.C,C1*%
X169317500Y-63500000D03*
X171042500Y-63500000D03*
%TD*%
M02*
