%TF.GenerationSoftware,KiCad,Pcbnew,(6.0.11)*%
%TF.CreationDate,2023-03-22T17:50:02+01:00*%
%TF.ProjectId,ultrasonic speaker,756c7472-6173-46f6-9e69-632073706561,rev?*%
%TF.SameCoordinates,Original*%
%TF.FileFunction,Copper,L1,Top*%
%TF.FilePolarity,Positive*%
%FSLAX46Y46*%
G04 Gerber Fmt 4.6, Leading zero omitted, Abs format (unit mm)*
G04 Created by KiCad (PCBNEW (6.0.11)) date 2023-03-22 17:50:02*
%MOMM*%
%LPD*%
G01*
G04 APERTURE LIST*
G04 Aperture macros list*
%AMRoundRect*
0 Rectangle with rounded corners*
0 $1 Rounding radius*
0 $2 $3 $4 $5 $6 $7 $8 $9 X,Y pos of 4 corners*
0 Add a 4 corners polygon primitive as box body*
4,1,4,$2,$3,$4,$5,$6,$7,$8,$9,$2,$3,0*
0 Add four circle primitives for the rounded corners*
1,1,$1+$1,$2,$3*
1,1,$1+$1,$4,$5*
1,1,$1+$1,$6,$7*
1,1,$1+$1,$8,$9*
0 Add four rect primitives between the rounded corners*
20,1,$1+$1,$2,$3,$4,$5,0*
20,1,$1+$1,$4,$5,$6,$7,0*
20,1,$1+$1,$6,$7,$8,$9,0*
20,1,$1+$1,$8,$9,$2,$3,0*%
G04 Aperture macros list end*
%TA.AperFunction,ComponentPad*%
%ADD10R,3.000000X3.000000*%
%TD*%
%TA.AperFunction,ComponentPad*%
%ADD11C,3.000000*%
%TD*%
%TA.AperFunction,ComponentPad*%
%ADD12C,2.000000*%
%TD*%
%TA.AperFunction,SMDPad,CuDef*%
%ADD13RoundRect,0.150000X0.150000X-0.825000X0.150000X0.825000X-0.150000X0.825000X-0.150000X-0.825000X0*%
%TD*%
%TA.AperFunction,SMDPad,CuDef*%
%ADD14R,3.000000X2.290000*%
%TD*%
%TA.AperFunction,Conductor*%
%ADD15C,0.500000*%
%TD*%
%TA.AperFunction,Conductor*%
%ADD16C,1.000000*%
%TD*%
G04 APERTURE END LIST*
D10*
%TO.P,J4,1,Pin_1*%
%TO.N,+24V*%
X158500000Y-85795000D03*
D11*
%TO.P,J4,2,Pin_2*%
%TO.N,GND*%
X163500000Y-85795000D03*
%TD*%
D12*
%TO.P,U1,1,EN*%
%TO.N,unconnected-(U1-Pad1)*%
X161910000Y-119300000D03*
%TO.P,U1,2,SENSOR_VP*%
%TO.N,unconnected-(U1-Pad2)*%
X159370000Y-119300000D03*
%TO.P,U1,3,SENSOR_VN*%
%TO.N,unconnected-(U1-Pad3)*%
X156830000Y-119300000D03*
%TO.P,U1,4,IO34*%
%TO.N,unconnected-(U1-Pad4)*%
X154290000Y-119300000D03*
%TO.P,U1,5,IO35*%
%TO.N,unconnected-(U1-Pad5)*%
X151750000Y-119300000D03*
%TO.P,U1,6,IO32*%
%TO.N,unconnected-(U1-Pad6)*%
X149210000Y-119300000D03*
%TO.P,U1,7,IO33*%
%TO.N,unconnected-(U1-Pad7)*%
X146670000Y-119300000D03*
%TO.P,U1,8,IO25*%
%TO.N,unconnected-(U1-Pad8)*%
X144130000Y-119300000D03*
%TO.P,U1,9,IO26*%
%TO.N,unconnected-(U1-Pad9)*%
X141590000Y-119300000D03*
%TO.P,U1,10,IO27*%
%TO.N,unconnected-(U1-Pad10)*%
X139050000Y-119300000D03*
%TO.P,U1,11,IO14*%
%TO.N,unconnected-(U1-Pad11)*%
X136510000Y-119300000D03*
%TO.P,U1,12,IO12*%
%TO.N,unconnected-(U1-Pad12)*%
X133970000Y-119300000D03*
%TO.P,U1,13,IO13*%
%TO.N,unconnected-(U1-Pad13)*%
X131430000Y-119300000D03*
%TO.P,U1,14,GND*%
%TO.N,GND*%
X128890000Y-119300000D03*
%TO.P,U1,15,VIN*%
%TO.N,+12V*%
X126350000Y-119300000D03*
%TO.P,U1,16,3V3*%
%TO.N,unconnected-(U1-Pad16)*%
X126350000Y-93900000D03*
%TO.P,U1,17,GND*%
%TO.N,GND*%
X128890000Y-93900000D03*
%TO.P,U1,18,IO15*%
%TO.N,unconnected-(U1-Pad18)*%
X131430000Y-93900000D03*
%TO.P,U1,19,IO2*%
%TO.N,unconnected-(U1-Pad19)*%
X133970000Y-93900000D03*
%TO.P,U1,20,IO4*%
%TO.N,unconnected-(U1-Pad20)*%
X136510000Y-93900000D03*
%TO.P,U1,21,IO16*%
%TO.N,unconnected-(U1-Pad21)*%
X139050000Y-93900000D03*
%TO.P,U1,22,IO17*%
%TO.N,unconnected-(U1-Pad22)*%
X141590000Y-93900000D03*
%TO.P,U1,23,IO5*%
%TO.N,unconnected-(U1-Pad23)*%
X144130000Y-93900000D03*
%TO.P,U1,24,IO18*%
%TO.N,/pwm1*%
X146670000Y-93900000D03*
%TO.P,U1,25,IO19*%
%TO.N,/pwm2*%
X149210000Y-93900000D03*
%TO.P,U1,26,IO21*%
%TO.N,unconnected-(U1-Pad26)*%
X151750000Y-93900000D03*
%TO.P,U1,27,RXD0/IO3*%
%TO.N,unconnected-(U1-Pad27)*%
X154290000Y-93900000D03*
%TO.P,U1,28,TXD0/IO1*%
%TO.N,unconnected-(U1-Pad28)*%
X156830000Y-93900000D03*
%TO.P,U1,29,IO22*%
%TO.N,unconnected-(U1-Pad29)*%
X159370000Y-93900000D03*
%TO.P,U1,30,IO23*%
%TO.N,unconnected-(U1-Pad30)*%
X161910000Y-93900000D03*
%TD*%
D10*
%TO.P,J1,1,Pin_1*%
%TO.N,+12V*%
X119300000Y-85395000D03*
D11*
%TO.P,J1,2,Pin_2*%
%TO.N,GND*%
X124300000Y-85395000D03*
%TD*%
D10*
%TO.P,J3,1,Pin_1*%
%TO.N,Net-(J3-Pad1)*%
X145500000Y-82060000D03*
D11*
%TO.P,J3,2,Pin_2*%
%TO.N,Net-(J3-Pad2)*%
X150500000Y-82060000D03*
%TD*%
D10*
%TO.P,J2,1,Pin_1*%
%TO.N,+12V*%
X131100000Y-85195000D03*
D11*
%TO.P,J2,2,Pin_2*%
%TO.N,GND*%
X136100000Y-85195000D03*
%TD*%
D13*
%TO.P,U2,1,NC*%
%TO.N,unconnected-(U2-Pad1)*%
X145453020Y-90723908D03*
%TO.P,U2,2,IN_A*%
%TO.N,/pwm1*%
X146723020Y-90723908D03*
D14*
%TO.P,U2,3,GND*%
%TO.N,GND*%
X147358020Y-88248908D03*
D13*
X147993020Y-90723908D03*
%TO.P,U2,4,IN_B*%
%TO.N,/pwm2*%
X149263020Y-90723908D03*
%TO.P,U2,5,OUT_B*%
%TO.N,Net-(J3-Pad2)*%
X149263020Y-85773908D03*
%TO.P,U2,6,V+*%
%TO.N,+24V*%
X147993020Y-85773908D03*
%TO.P,U2,7,OUT_A*%
%TO.N,Net-(J3-Pad1)*%
X146723020Y-85773908D03*
%TO.P,U2,8,NC*%
%TO.N,unconnected-(U2-Pad8)*%
X145453020Y-85773908D03*
%TD*%
D15*
%TO.N,Net-(J3-Pad2)*%
X150700000Y-84336928D02*
X149263020Y-85773908D01*
%TO.N,Net-(J3-Pad1)*%
X146723020Y-83623020D02*
X146723020Y-85773908D01*
X145600000Y-82500000D02*
X146723020Y-83623020D01*
%TO.N,Net-(J3-Pad2)*%
X150700000Y-82260000D02*
X150700000Y-84336928D01*
%TO.N,Net-(J3-Pad1)*%
X145600000Y-82160000D02*
X145600000Y-82500000D01*
X145500000Y-82060000D02*
X145600000Y-82160000D01*
%TO.N,Net-(J3-Pad2)*%
X150500000Y-82060000D02*
X150700000Y-82260000D01*
%TO.N,+24V*%
X148035000Y-85731928D02*
X147993020Y-85773908D01*
X149035000Y-79060000D02*
X148035000Y-80060000D01*
X155200000Y-79060000D02*
X149035000Y-79060000D01*
X158500000Y-82360000D02*
X155200000Y-79060000D01*
X148035000Y-80060000D02*
X148035000Y-85731928D01*
X158500000Y-85795000D02*
X158500000Y-82360000D01*
%TO.N,/pwm2*%
X149263020Y-93846980D02*
X149210000Y-93900000D01*
X149263020Y-90723908D02*
X149263020Y-93846980D01*
%TO.N,/pwm1*%
X146723020Y-93846980D02*
X146670000Y-93900000D01*
X146723020Y-90723908D02*
X146723020Y-93846980D01*
D16*
%TO.N,+12V*%
X131100000Y-85195000D02*
X130305000Y-85195000D01*
X130305000Y-85195000D02*
X122700000Y-92800000D01*
X119300000Y-85395000D02*
X119300000Y-89400000D01*
X119300000Y-89400000D02*
X122700000Y-92800000D01*
X122700000Y-92800000D02*
X122700000Y-115650000D01*
X122700000Y-115650000D02*
X126350000Y-119300000D01*
%TD*%
%TA.AperFunction,Conductor*%
%TO.N,GND*%
G36*
X168509252Y-77169585D02*
G01*
X168525149Y-77180207D01*
X168535771Y-77196104D01*
X168539501Y-77214855D01*
X168539500Y-96350500D01*
X168535770Y-96369251D01*
X168525148Y-96385148D01*
X168509251Y-96395770D01*
X168490500Y-96399500D01*
X160831347Y-96399500D01*
X160829839Y-96399457D01*
X160828909Y-96399344D01*
X160798874Y-96399499D01*
X160798621Y-96399500D01*
X160784263Y-96399500D01*
X160783486Y-96399549D01*
X160783009Y-96399564D01*
X160781742Y-96399587D01*
X160767695Y-96399660D01*
X160767480Y-96399661D01*
X160765932Y-96399669D01*
X160753236Y-96401339D01*
X160749940Y-96401659D01*
X160737147Y-96402464D01*
X160721755Y-96405400D01*
X160718992Y-96405845D01*
X160703492Y-96407884D01*
X160702002Y-96408275D01*
X160701996Y-96408276D01*
X160691112Y-96411131D01*
X160687862Y-96411866D01*
X160676799Y-96413976D01*
X160676796Y-96413977D01*
X160675285Y-96414265D01*
X160673824Y-96414740D01*
X160673815Y-96414742D01*
X160660405Y-96419099D01*
X160657695Y-96419894D01*
X160642575Y-96423860D01*
X160641150Y-96424433D01*
X160641137Y-96424437D01*
X160630705Y-96428630D01*
X160627573Y-96429767D01*
X160616862Y-96433247D01*
X160616857Y-96433249D01*
X160615389Y-96433726D01*
X160613984Y-96434387D01*
X160613982Y-96434388D01*
X160601237Y-96440385D01*
X160598647Y-96441514D01*
X160585573Y-96446768D01*
X160585558Y-96446775D01*
X160584140Y-96447345D01*
X160582793Y-96448094D01*
X160582792Y-96448095D01*
X160572961Y-96453565D01*
X160570003Y-96455082D01*
X160559803Y-96459883D01*
X160558405Y-96460541D01*
X160557109Y-96461364D01*
X160557099Y-96461369D01*
X160545199Y-96468921D01*
X160542772Y-96470365D01*
X160530455Y-96477219D01*
X160530444Y-96477226D01*
X160529109Y-96477969D01*
X160527876Y-96478875D01*
X160527866Y-96478881D01*
X160518779Y-96485555D01*
X160516038Y-96487428D01*
X160505232Y-96494286D01*
X160498795Y-96499611D01*
X160493187Y-96504250D01*
X160490960Y-96505986D01*
X160479592Y-96514335D01*
X160479584Y-96514342D01*
X160478350Y-96515248D01*
X160477238Y-96516303D01*
X160477237Y-96516304D01*
X160469057Y-96524066D01*
X160466561Y-96526277D01*
X160457896Y-96533445D01*
X160457891Y-96533450D01*
X160456706Y-96534430D01*
X160455655Y-96535549D01*
X160455653Y-96535551D01*
X160446009Y-96545821D01*
X160444019Y-96547822D01*
X160432665Y-96558595D01*
X160424565Y-96568490D01*
X160422370Y-96570992D01*
X160414652Y-96579212D01*
X160413595Y-96580338D01*
X160412693Y-96581580D01*
X160412691Y-96581582D01*
X160404398Y-96592997D01*
X160402672Y-96595234D01*
X160392772Y-96607327D01*
X160385960Y-96618183D01*
X160384119Y-96620908D01*
X160376578Y-96631288D01*
X160375835Y-96632639D01*
X160375834Y-96632641D01*
X160369044Y-96644992D01*
X160367612Y-96647428D01*
X160359302Y-96660673D01*
X160358657Y-96662063D01*
X160358656Y-96662064D01*
X160353912Y-96672281D01*
X160352409Y-96675249D01*
X160346982Y-96685121D01*
X160346977Y-96685132D01*
X160346238Y-96686476D01*
X160340483Y-96701013D01*
X160339368Y-96703608D01*
X160332781Y-96717795D01*
X160332312Y-96719265D01*
X160332307Y-96719277D01*
X160328884Y-96729998D01*
X160327766Y-96733129D01*
X160323626Y-96743588D01*
X160323055Y-96745031D01*
X160319315Y-96759597D01*
X160319167Y-96760173D01*
X160318391Y-96762874D01*
X160313629Y-96777790D01*
X160313348Y-96779306D01*
X160311296Y-96790373D01*
X160310577Y-96793628D01*
X160307775Y-96804540D01*
X160307773Y-96804549D01*
X160307393Y-96806030D01*
X160307201Y-96807552D01*
X160305434Y-96821534D01*
X160305000Y-96824323D01*
X160302147Y-96839712D01*
X160302059Y-96841238D01*
X160301409Y-96852498D01*
X160301105Y-96855810D01*
X160299500Y-96868511D01*
X160299500Y-96884288D01*
X160299483Y-96885561D01*
X160299469Y-96886096D01*
X160299426Y-96886843D01*
X160299500Y-96901199D01*
X160299500Y-96931489D01*
X160299617Y-96932418D01*
X160299669Y-96933935D01*
X160399500Y-116301245D01*
X160399500Y-116331489D01*
X160399691Y-116332998D01*
X160399691Y-116333004D01*
X160401459Y-116346997D01*
X160401732Y-116349808D01*
X160402795Y-116365417D01*
X160403539Y-116369209D01*
X160405258Y-116377977D01*
X160405786Y-116381260D01*
X160407198Y-116392434D01*
X160407201Y-116392449D01*
X160407393Y-116393970D01*
X160411281Y-116409112D01*
X160411904Y-116411869D01*
X160414914Y-116427217D01*
X160415398Y-116428679D01*
X160415399Y-116428685D01*
X160418934Y-116439375D01*
X160419872Y-116442572D01*
X160423055Y-116454969D01*
X160428807Y-116469497D01*
X160429770Y-116472150D01*
X160434684Y-116487012D01*
X160435342Y-116488392D01*
X160435347Y-116488404D01*
X160440196Y-116498571D01*
X160441526Y-116501621D01*
X160446238Y-116513524D01*
X160453786Y-116527254D01*
X160455049Y-116529716D01*
X160461792Y-116543857D01*
X160462633Y-116545167D01*
X160468705Y-116554627D01*
X160470407Y-116557487D01*
X160476578Y-116568712D01*
X160477487Y-116569963D01*
X160477490Y-116569968D01*
X160485768Y-116581363D01*
X160487360Y-116583691D01*
X160495811Y-116596856D01*
X160504034Y-116606691D01*
X160506065Y-116609298D01*
X160513595Y-116619662D01*
X160514647Y-116620783D01*
X160514651Y-116620787D01*
X160524309Y-116631072D01*
X160526173Y-116633175D01*
X160536204Y-116645174D01*
X160545588Y-116653896D01*
X160547932Y-116656227D01*
X160556706Y-116665570D01*
X160557891Y-116666550D01*
X160568750Y-116675534D01*
X160570874Y-116677397D01*
X160581208Y-116687002D01*
X160581213Y-116687006D01*
X160582334Y-116688048D01*
X160583581Y-116688944D01*
X160592740Y-116695526D01*
X160595381Y-116697563D01*
X160605232Y-116705714D01*
X160606523Y-116706533D01*
X160606535Y-116706542D01*
X160618420Y-116714083D01*
X160620763Y-116715666D01*
X160633474Y-116724802D01*
X160634813Y-116725529D01*
X160634824Y-116725536D01*
X160644733Y-116730916D01*
X160647610Y-116732608D01*
X160657106Y-116738635D01*
X160657111Y-116738638D01*
X160658405Y-116739459D01*
X160659789Y-116740110D01*
X160659794Y-116740113D01*
X160672558Y-116746119D01*
X160675056Y-116747383D01*
X160688818Y-116754857D01*
X160700743Y-116759508D01*
X160703793Y-116760818D01*
X160714007Y-116765624D01*
X160714011Y-116765626D01*
X160715389Y-116766274D01*
X160716842Y-116766746D01*
X160730266Y-116771108D01*
X160732927Y-116772058D01*
X160747492Y-116777738D01*
X160759912Y-116780859D01*
X160763095Y-116781775D01*
X160775285Y-116785735D01*
X160786989Y-116787968D01*
X160790635Y-116788663D01*
X160793394Y-116789272D01*
X160807077Y-116792710D01*
X160807080Y-116792710D01*
X160808570Y-116793085D01*
X160810096Y-116793270D01*
X160810097Y-116793270D01*
X160813475Y-116793679D01*
X160821285Y-116794625D01*
X160824557Y-116795134D01*
X160837147Y-116797536D01*
X160838687Y-116797633D01*
X160838688Y-116797633D01*
X160852750Y-116798518D01*
X160855561Y-116798776D01*
X160869560Y-116800471D01*
X160869566Y-116800471D01*
X160871091Y-116800656D01*
X160901127Y-116800501D01*
X160901379Y-116800500D01*
X168490500Y-116800500D01*
X168509251Y-116804230D01*
X168525148Y-116814852D01*
X168535770Y-116830749D01*
X168539500Y-116849500D01*
X168539500Y-120975853D01*
X168535770Y-120994604D01*
X168525148Y-121010501D01*
X168509251Y-121021123D01*
X168490500Y-121024853D01*
X115749500Y-121024853D01*
X115730749Y-121021123D01*
X115714852Y-121010501D01*
X115704230Y-120994604D01*
X115700500Y-120975853D01*
X115700501Y-83874011D01*
X117299500Y-83874011D01*
X117299501Y-86915988D01*
X117300736Y-86942194D01*
X117310588Y-87004397D01*
X117328158Y-87064874D01*
X117353169Y-87122672D01*
X117385227Y-87176879D01*
X117386170Y-87178095D01*
X117386175Y-87178102D01*
X117421437Y-87223560D01*
X117423827Y-87226641D01*
X117468359Y-87271173D01*
X117469574Y-87272115D01*
X117469578Y-87272119D01*
X117516898Y-87308825D01*
X117516905Y-87308830D01*
X117518121Y-87309773D01*
X117572328Y-87341831D01*
X117630126Y-87366842D01*
X117631599Y-87367270D01*
X117631602Y-87367271D01*
X117666668Y-87377458D01*
X117690603Y-87384412D01*
X117692128Y-87384653D01*
X117692130Y-87384654D01*
X117740939Y-87392384D01*
X117752806Y-87394264D01*
X117767549Y-87394959D01*
X117778431Y-87395473D01*
X117778446Y-87395473D01*
X117779011Y-87395500D01*
X118250500Y-87395500D01*
X118269251Y-87399230D01*
X118285148Y-87409852D01*
X118295770Y-87425749D01*
X118299500Y-87444500D01*
X118299500Y-89355095D01*
X118299460Y-89357026D01*
X118299370Y-89358061D01*
X118299500Y-89407570D01*
X118299500Y-89422633D01*
X118299522Y-89423131D01*
X118299532Y-89423583D01*
X118299544Y-89424521D01*
X118299604Y-89447177D01*
X118299702Y-89448249D01*
X118299703Y-89448260D01*
X118301419Y-89466938D01*
X118301575Y-89469238D01*
X118302457Y-89489028D01*
X118302603Y-89490115D01*
X118305462Y-89511396D01*
X118305691Y-89513424D01*
X118307758Y-89535920D01*
X118307954Y-89536992D01*
X118311321Y-89555427D01*
X118311682Y-89557708D01*
X118314320Y-89577352D01*
X118314557Y-89578399D01*
X118319305Y-89599381D01*
X118319716Y-89601393D01*
X118323572Y-89622510D01*
X118323574Y-89622521D01*
X118323769Y-89623586D01*
X118324062Y-89624646D01*
X118324064Y-89624655D01*
X118329053Y-89642708D01*
X118329603Y-89644893D01*
X118333988Y-89664271D01*
X118334322Y-89665307D01*
X118340908Y-89685759D01*
X118341496Y-89687726D01*
X118347509Y-89709483D01*
X118347888Y-89710495D01*
X118347891Y-89710503D01*
X118354474Y-89728063D01*
X118355233Y-89730243D01*
X118361305Y-89749098D01*
X118361740Y-89750125D01*
X118370105Y-89769881D01*
X118370862Y-89771777D01*
X118378792Y-89792929D01*
X118379272Y-89793928D01*
X118379273Y-89793931D01*
X118387370Y-89810794D01*
X118388320Y-89812897D01*
X118395628Y-89830155D01*
X118396054Y-89831160D01*
X118396561Y-89832112D01*
X118396566Y-89832122D01*
X118406667Y-89851079D01*
X118407576Y-89852874D01*
X118417367Y-89873263D01*
X118417927Y-89874204D01*
X118427498Y-89890291D01*
X118428625Y-89892288D01*
X118437960Y-89909809D01*
X118438556Y-89910721D01*
X118438561Y-89910730D01*
X118450321Y-89928736D01*
X118451406Y-89930476D01*
X118462933Y-89949850D01*
X118463576Y-89950740D01*
X118463580Y-89950746D01*
X118474542Y-89965918D01*
X118475846Y-89967814D01*
X118486692Y-89984421D01*
X118487366Y-89985275D01*
X118487366Y-89985276D01*
X118500670Y-90002152D01*
X118501906Y-90003790D01*
X118514483Y-90021197D01*
X118515125Y-90022085D01*
X118515833Y-90022901D01*
X118515841Y-90022911D01*
X118522574Y-90030669D01*
X118528125Y-90037066D01*
X118529567Y-90038808D01*
X118541863Y-90054406D01*
X118542609Y-90055196D01*
X118557360Y-90070821D01*
X118558727Y-90072331D01*
X118567361Y-90082282D01*
X118581467Y-90096388D01*
X118582450Y-90097400D01*
X118603038Y-90119209D01*
X118603853Y-90119931D01*
X118612933Y-90127978D01*
X118615082Y-90130002D01*
X121685148Y-93200068D01*
X121695770Y-93215965D01*
X121699500Y-93234716D01*
X121699500Y-115605095D01*
X121699460Y-115607026D01*
X121699370Y-115608061D01*
X121699500Y-115657570D01*
X121699500Y-115672633D01*
X121699522Y-115673131D01*
X121699532Y-115673583D01*
X121699544Y-115674521D01*
X121699604Y-115697177D01*
X121699702Y-115698249D01*
X121699703Y-115698260D01*
X121701419Y-115716938D01*
X121701575Y-115719238D01*
X121702457Y-115739028D01*
X121702603Y-115740115D01*
X121705462Y-115761396D01*
X121705691Y-115763424D01*
X121707758Y-115785920D01*
X121707954Y-115786992D01*
X121711321Y-115805427D01*
X121711682Y-115807708D01*
X121714320Y-115827352D01*
X121714557Y-115828399D01*
X121719305Y-115849381D01*
X121719716Y-115851393D01*
X121723572Y-115872510D01*
X121723574Y-115872521D01*
X121723769Y-115873586D01*
X121724062Y-115874646D01*
X121724064Y-115874655D01*
X121729053Y-115892708D01*
X121729603Y-115894893D01*
X121733988Y-115914271D01*
X121734322Y-115915307D01*
X121740908Y-115935759D01*
X121741496Y-115937726D01*
X121747509Y-115959483D01*
X121747888Y-115960495D01*
X121747891Y-115960503D01*
X121754474Y-115978063D01*
X121755233Y-115980243D01*
X121761305Y-115999098D01*
X121761740Y-116000125D01*
X121770105Y-116019881D01*
X121770862Y-116021777D01*
X121778792Y-116042929D01*
X121779272Y-116043928D01*
X121779273Y-116043931D01*
X121787370Y-116060794D01*
X121788320Y-116062897D01*
X121795628Y-116080155D01*
X121796054Y-116081160D01*
X121796561Y-116082112D01*
X121796566Y-116082122D01*
X121806667Y-116101079D01*
X121807576Y-116102874D01*
X121817367Y-116123263D01*
X121817927Y-116124204D01*
X121827498Y-116140291D01*
X121828625Y-116142288D01*
X121837960Y-116159809D01*
X121838556Y-116160721D01*
X121838561Y-116160730D01*
X121850321Y-116178736D01*
X121851406Y-116180476D01*
X121862933Y-116199850D01*
X121863576Y-116200740D01*
X121863580Y-116200746D01*
X121874542Y-116215918D01*
X121875846Y-116217814D01*
X121886692Y-116234421D01*
X121887366Y-116235275D01*
X121887366Y-116235276D01*
X121900670Y-116252152D01*
X121901906Y-116253790D01*
X121914483Y-116271197D01*
X121915125Y-116272085D01*
X121915833Y-116272901D01*
X121915841Y-116272911D01*
X121922574Y-116280669D01*
X121928125Y-116287066D01*
X121929567Y-116288808D01*
X121941863Y-116304406D01*
X121942609Y-116305196D01*
X121957360Y-116320821D01*
X121958727Y-116322331D01*
X121967361Y-116332282D01*
X121981467Y-116346388D01*
X121982450Y-116347400D01*
X122003038Y-116369209D01*
X122003852Y-116369931D01*
X122003866Y-116369944D01*
X122012931Y-116377978D01*
X122015079Y-116380000D01*
X124836312Y-119201233D01*
X124846934Y-119217130D01*
X124850644Y-119237290D01*
X124848535Y-119310482D01*
X124853127Y-119417806D01*
X124865380Y-119524528D01*
X124865541Y-119525386D01*
X124865543Y-119525397D01*
X124879612Y-119600210D01*
X124885233Y-119630100D01*
X124912583Y-119733982D01*
X124947290Y-119835643D01*
X124989177Y-119934562D01*
X124989572Y-119935336D01*
X124989575Y-119935342D01*
X125024297Y-120003342D01*
X125038029Y-120030234D01*
X125065813Y-120076200D01*
X125093148Y-120121425D01*
X125093155Y-120121435D01*
X125093597Y-120122167D01*
X125094092Y-120122867D01*
X125094095Y-120122872D01*
X125155087Y-120209175D01*
X125155095Y-120209185D01*
X125155595Y-120209893D01*
X125223707Y-120292961D01*
X125297583Y-120370947D01*
X125298227Y-120371536D01*
X125298230Y-120371539D01*
X125376196Y-120442856D01*
X125376203Y-120442862D01*
X125376847Y-120443451D01*
X125461091Y-120510103D01*
X125461807Y-120510590D01*
X125461809Y-120510592D01*
X125549166Y-120570072D01*
X125549177Y-120570079D01*
X125549885Y-120570561D01*
X125642775Y-120624515D01*
X125711683Y-120658198D01*
X125738502Y-120671308D01*
X125738508Y-120671311D01*
X125739284Y-120671690D01*
X125740094Y-120672016D01*
X125740093Y-120672016D01*
X125838114Y-120711521D01*
X125838124Y-120711525D01*
X125838919Y-120711845D01*
X125941171Y-120744772D01*
X125942024Y-120744981D01*
X125942025Y-120744981D01*
X126044667Y-120770098D01*
X126044674Y-120770099D01*
X126045514Y-120770305D01*
X126151417Y-120788312D01*
X126152287Y-120788397D01*
X126152298Y-120788398D01*
X126203052Y-120793329D01*
X126258335Y-120798701D01*
X126259221Y-120798723D01*
X126259230Y-120798724D01*
X126358212Y-120801230D01*
X126365723Y-120801420D01*
X126429593Y-120798464D01*
X126472171Y-120796493D01*
X126472176Y-120796493D01*
X126473031Y-120796453D01*
X126579709Y-120783827D01*
X126580561Y-120783664D01*
X126580572Y-120783662D01*
X126632460Y-120773716D01*
X126685210Y-120763606D01*
X126686057Y-120763380D01*
X126686065Y-120763378D01*
X126755747Y-120744772D01*
X126788997Y-120735894D01*
X126890536Y-120700832D01*
X126989308Y-120658600D01*
X127084809Y-120609414D01*
X127176548Y-120553526D01*
X127238302Y-120509559D01*
X127263347Y-120491728D01*
X127263356Y-120491721D01*
X127264057Y-120491222D01*
X127264725Y-120490671D01*
X127264732Y-120490665D01*
X127346215Y-120423375D01*
X127346216Y-120423374D01*
X127346887Y-120422820D01*
X127424614Y-120348672D01*
X127425186Y-120348042D01*
X127425196Y-120348032D01*
X127496254Y-120269802D01*
X127496841Y-120269156D01*
X127563198Y-120184680D01*
X127604967Y-120122872D01*
X127622852Y-120096407D01*
X127622860Y-120096394D01*
X127623346Y-120095675D01*
X127676976Y-120002598D01*
X127723814Y-119905924D01*
X127763620Y-119806149D01*
X127796191Y-119703784D01*
X127813747Y-119630939D01*
X127821152Y-119600210D01*
X127821359Y-119599351D01*
X127838996Y-119493387D01*
X127849012Y-119386433D01*
X127851200Y-119310482D01*
X129928535Y-119310482D01*
X129933127Y-119417806D01*
X129945380Y-119524528D01*
X129945541Y-119525386D01*
X129945543Y-119525397D01*
X129959612Y-119600210D01*
X129965233Y-119630100D01*
X129992583Y-119733982D01*
X130027290Y-119835643D01*
X130069177Y-119934562D01*
X130069572Y-119935336D01*
X130069575Y-119935342D01*
X130104297Y-120003342D01*
X130118029Y-120030234D01*
X130145813Y-120076200D01*
X130173148Y-120121425D01*
X130173155Y-120121435D01*
X130173597Y-120122167D01*
X130174092Y-120122867D01*
X130174095Y-120122872D01*
X130235087Y-120209175D01*
X130235095Y-120209185D01*
X130235595Y-120209893D01*
X130303707Y-120292961D01*
X130377583Y-120370947D01*
X130378227Y-120371536D01*
X130378230Y-120371539D01*
X130456196Y-120442856D01*
X130456203Y-120442862D01*
X130456847Y-120443451D01*
X130541091Y-120510103D01*
X130541807Y-120510590D01*
X130541809Y-120510592D01*
X130629166Y-120570072D01*
X130629177Y-120570079D01*
X130629885Y-120570561D01*
X130722775Y-120624515D01*
X130791683Y-120658198D01*
X130818502Y-120671308D01*
X130818508Y-120671311D01*
X130819284Y-120671690D01*
X130820094Y-120672016D01*
X130820093Y-120672016D01*
X130918114Y-120711521D01*
X130918124Y-120711525D01*
X130918919Y-120711845D01*
X131021171Y-120744772D01*
X131022024Y-120744981D01*
X131022025Y-120744981D01*
X131124667Y-120770098D01*
X131124674Y-120770099D01*
X131125514Y-120770305D01*
X131231417Y-120788312D01*
X131232287Y-120788397D01*
X131232298Y-120788398D01*
X131283052Y-120793329D01*
X131338335Y-120798701D01*
X131339221Y-120798723D01*
X131339230Y-120798724D01*
X131438212Y-120801230D01*
X131445723Y-120801420D01*
X131509593Y-120798464D01*
X131552171Y-120796493D01*
X131552176Y-120796493D01*
X131553031Y-120796453D01*
X131659709Y-120783827D01*
X131660561Y-120783664D01*
X131660572Y-120783662D01*
X131712460Y-120773716D01*
X131765210Y-120763606D01*
X131766057Y-120763380D01*
X131766065Y-120763378D01*
X131835747Y-120744772D01*
X131868997Y-120735894D01*
X131970536Y-120700832D01*
X132069308Y-120658600D01*
X132164809Y-120609414D01*
X132256548Y-120553526D01*
X132318302Y-120509559D01*
X132343347Y-120491728D01*
X132343356Y-120491721D01*
X132344057Y-120491222D01*
X132344725Y-120490671D01*
X132344732Y-120490665D01*
X132426215Y-120423375D01*
X132426216Y-120423374D01*
X132426887Y-120422820D01*
X132504614Y-120348672D01*
X132505186Y-120348042D01*
X132505196Y-120348032D01*
X132576254Y-120269802D01*
X132576841Y-120269156D01*
X132643198Y-120184680D01*
X132659509Y-120160544D01*
X132673098Y-120147097D01*
X132690799Y-120139873D01*
X132709918Y-120139973D01*
X132727543Y-120147382D01*
X132740123Y-120159701D01*
X132775087Y-120209175D01*
X132775095Y-120209185D01*
X132775595Y-120209893D01*
X132843707Y-120292961D01*
X132917583Y-120370947D01*
X132918227Y-120371536D01*
X132918230Y-120371539D01*
X132996196Y-120442856D01*
X132996203Y-120442862D01*
X132996847Y-120443451D01*
X133081091Y-120510103D01*
X133081807Y-120510590D01*
X133081809Y-120510592D01*
X133169166Y-120570072D01*
X133169177Y-120570079D01*
X133169885Y-120570561D01*
X133262775Y-120624515D01*
X133331683Y-120658198D01*
X133358502Y-120671308D01*
X133358508Y-120671311D01*
X133359284Y-120671690D01*
X133360094Y-120672016D01*
X133360093Y-120672016D01*
X133458114Y-120711521D01*
X133458124Y-120711525D01*
X133458919Y-120711845D01*
X133561171Y-120744772D01*
X133562024Y-120744981D01*
X133562025Y-120744981D01*
X133664667Y-120770098D01*
X133664674Y-120770099D01*
X133665514Y-120770305D01*
X133771417Y-120788312D01*
X133772287Y-120788397D01*
X133772298Y-120788398D01*
X133823052Y-120793329D01*
X133878335Y-120798701D01*
X133879221Y-120798723D01*
X133879230Y-120798724D01*
X133978212Y-120801230D01*
X133985723Y-120801420D01*
X134049593Y-120798464D01*
X134092171Y-120796493D01*
X134092176Y-120796493D01*
X134093031Y-120796453D01*
X134199709Y-120783827D01*
X134200561Y-120783664D01*
X134200572Y-120783662D01*
X134252460Y-120773716D01*
X134305210Y-120763606D01*
X134306057Y-120763380D01*
X134306065Y-120763378D01*
X134375747Y-120744772D01*
X134408997Y-120735894D01*
X134510536Y-120700832D01*
X134609308Y-120658600D01*
X134704809Y-120609414D01*
X134796548Y-120553526D01*
X134858302Y-120509559D01*
X134883347Y-120491728D01*
X134883356Y-120491721D01*
X134884057Y-120491222D01*
X134884725Y-120490671D01*
X134884732Y-120490665D01*
X134966215Y-120423375D01*
X134966216Y-120423374D01*
X134966887Y-120422820D01*
X135044614Y-120348672D01*
X135045186Y-120348042D01*
X135045196Y-120348032D01*
X135116254Y-120269802D01*
X135116841Y-120269156D01*
X135183198Y-120184680D01*
X135199509Y-120160544D01*
X135213098Y-120147097D01*
X135230799Y-120139873D01*
X135249918Y-120139973D01*
X135267543Y-120147382D01*
X135280123Y-120159701D01*
X135315087Y-120209175D01*
X135315095Y-120209185D01*
X135315595Y-120209893D01*
X135383707Y-120292961D01*
X135457583Y-120370947D01*
X135458227Y-120371536D01*
X135458230Y-120371539D01*
X135536196Y-120442856D01*
X135536203Y-120442862D01*
X135536847Y-120443451D01*
X135621091Y-120510103D01*
X135621807Y-120510590D01*
X135621809Y-120510592D01*
X135709166Y-120570072D01*
X135709177Y-120570079D01*
X135709885Y-120570561D01*
X135802775Y-120624515D01*
X135871683Y-120658198D01*
X135898502Y-120671308D01*
X135898508Y-120671311D01*
X135899284Y-120671690D01*
X135900094Y-120672016D01*
X135900093Y-120672016D01*
X135998114Y-120711521D01*
X135998124Y-120711525D01*
X135998919Y-120711845D01*
X136101171Y-120744772D01*
X136102024Y-120744981D01*
X136102025Y-120744981D01*
X136204667Y-120770098D01*
X136204674Y-120770099D01*
X136205514Y-120770305D01*
X136311417Y-120788312D01*
X136312287Y-120788397D01*
X136312298Y-120788398D01*
X136363052Y-120793329D01*
X136418335Y-120798701D01*
X136419221Y-120798723D01*
X136419230Y-120798724D01*
X136518212Y-120801230D01*
X136525723Y-120801420D01*
X136589593Y-120798464D01*
X136632171Y-120796493D01*
X136632176Y-120796493D01*
X136633031Y-120796453D01*
X136739709Y-120783827D01*
X136740561Y-120783664D01*
X136740572Y-120783662D01*
X136792460Y-120773716D01*
X136845210Y-120763606D01*
X136846057Y-120763380D01*
X136846065Y-120763378D01*
X136915747Y-120744772D01*
X136948997Y-120735894D01*
X137050536Y-120700832D01*
X137149308Y-120658600D01*
X137244809Y-120609414D01*
X137336548Y-120553526D01*
X137398302Y-120509559D01*
X137423347Y-120491728D01*
X137423356Y-120491721D01*
X137424057Y-120491222D01*
X137424725Y-120490671D01*
X137424732Y-120490665D01*
X137506215Y-120423375D01*
X137506216Y-120423374D01*
X137506887Y-120422820D01*
X137584614Y-120348672D01*
X137585186Y-120348042D01*
X137585196Y-120348032D01*
X137656254Y-120269802D01*
X137656841Y-120269156D01*
X137723198Y-120184680D01*
X137739509Y-120160544D01*
X137753098Y-120147097D01*
X137770799Y-120139873D01*
X137789918Y-120139973D01*
X137807543Y-120147382D01*
X137820123Y-120159701D01*
X137855087Y-120209175D01*
X137855095Y-120209185D01*
X137855595Y-120209893D01*
X137923707Y-120292961D01*
X137997583Y-120370947D01*
X137998227Y-120371536D01*
X137998230Y-120371539D01*
X138076196Y-120442856D01*
X138076203Y-120442862D01*
X138076847Y-120443451D01*
X138161091Y-120510103D01*
X138161807Y-120510590D01*
X138161809Y-120510592D01*
X138249166Y-120570072D01*
X138249177Y-120570079D01*
X138249885Y-120570561D01*
X138342775Y-120624515D01*
X138411683Y-120658198D01*
X138438502Y-120671308D01*
X138438508Y-120671311D01*
X138439284Y-120671690D01*
X138440094Y-120672016D01*
X138440093Y-120672016D01*
X138538114Y-120711521D01*
X138538124Y-120711525D01*
X138538919Y-120711845D01*
X138641171Y-120744772D01*
X138642024Y-120744981D01*
X138642025Y-120744981D01*
X138744667Y-120770098D01*
X138744674Y-120770099D01*
X138745514Y-120770305D01*
X138851417Y-120788312D01*
X138852287Y-120788397D01*
X138852298Y-120788398D01*
X138903052Y-120793329D01*
X138958335Y-120798701D01*
X138959221Y-120798723D01*
X138959230Y-120798724D01*
X139058212Y-120801230D01*
X139065723Y-120801420D01*
X139129593Y-120798464D01*
X139172171Y-120796493D01*
X139172176Y-120796493D01*
X139173031Y-120796453D01*
X139279709Y-120783827D01*
X139280561Y-120783664D01*
X139280572Y-120783662D01*
X139332460Y-120773716D01*
X139385210Y-120763606D01*
X139386057Y-120763380D01*
X139386065Y-120763378D01*
X139455747Y-120744772D01*
X139488997Y-120735894D01*
X139590536Y-120700832D01*
X139689308Y-120658600D01*
X139784809Y-120609414D01*
X139876548Y-120553526D01*
X139938302Y-120509559D01*
X139963347Y-120491728D01*
X139963356Y-120491721D01*
X139964057Y-120491222D01*
X139964725Y-120490671D01*
X139964732Y-120490665D01*
X140046215Y-120423375D01*
X140046216Y-120423374D01*
X140046887Y-120422820D01*
X140124614Y-120348672D01*
X140125186Y-120348042D01*
X140125196Y-120348032D01*
X140196254Y-120269802D01*
X140196841Y-120269156D01*
X140263198Y-120184680D01*
X140279509Y-120160544D01*
X140293098Y-120147097D01*
X140310799Y-120139873D01*
X140329918Y-120139973D01*
X140347543Y-120147382D01*
X140360123Y-120159701D01*
X140395087Y-120209175D01*
X140395095Y-120209185D01*
X140395595Y-120209893D01*
X140463707Y-120292961D01*
X140537583Y-120370947D01*
X140538227Y-120371536D01*
X140538230Y-120371539D01*
X140616196Y-120442856D01*
X140616203Y-120442862D01*
X140616847Y-120443451D01*
X140701091Y-120510103D01*
X140701807Y-120510590D01*
X140701809Y-120510592D01*
X140789166Y-120570072D01*
X140789177Y-120570079D01*
X140789885Y-120570561D01*
X140882775Y-120624515D01*
X140951683Y-120658198D01*
X140978502Y-120671308D01*
X140978508Y-120671311D01*
X140979284Y-120671690D01*
X140980094Y-120672016D01*
X140980093Y-120672016D01*
X141078114Y-120711521D01*
X141078124Y-120711525D01*
X141078919Y-120711845D01*
X141181171Y-120744772D01*
X141182024Y-120744981D01*
X141182025Y-120744981D01*
X141284667Y-120770098D01*
X141284674Y-120770099D01*
X141285514Y-120770305D01*
X141391417Y-120788312D01*
X141392287Y-120788397D01*
X141392298Y-120788398D01*
X141443052Y-120793329D01*
X141498335Y-120798701D01*
X141499221Y-120798723D01*
X141499230Y-120798724D01*
X141598212Y-120801230D01*
X141605723Y-120801420D01*
X141669593Y-120798464D01*
X141712171Y-120796493D01*
X141712176Y-120796493D01*
X141713031Y-120796453D01*
X141819709Y-120783827D01*
X141820561Y-120783664D01*
X141820572Y-120783662D01*
X141872460Y-120773716D01*
X141925210Y-120763606D01*
X141926057Y-120763380D01*
X141926065Y-120763378D01*
X141995747Y-120744772D01*
X142028997Y-120735894D01*
X142130536Y-120700832D01*
X142229308Y-120658600D01*
X142324809Y-120609414D01*
X142416548Y-120553526D01*
X142478302Y-120509559D01*
X142503347Y-120491728D01*
X142503356Y-120491721D01*
X142504057Y-120491222D01*
X142504725Y-120490671D01*
X142504732Y-120490665D01*
X142586215Y-120423375D01*
X142586216Y-120423374D01*
X142586887Y-120422820D01*
X142664614Y-120348672D01*
X142665186Y-120348042D01*
X142665196Y-120348032D01*
X142736254Y-120269802D01*
X142736841Y-120269156D01*
X142803198Y-120184680D01*
X142819509Y-120160544D01*
X142833098Y-120147097D01*
X142850799Y-120139873D01*
X142869918Y-120139973D01*
X142887543Y-120147382D01*
X142900123Y-120159701D01*
X142935087Y-120209175D01*
X142935095Y-120209185D01*
X142935595Y-120209893D01*
X143003707Y-120292961D01*
X143077583Y-120370947D01*
X143078227Y-120371536D01*
X143078230Y-120371539D01*
X143156196Y-120442856D01*
X143156203Y-120442862D01*
X143156847Y-120443451D01*
X143241091Y-120510103D01*
X143241807Y-120510590D01*
X143241809Y-120510592D01*
X143329166Y-120570072D01*
X143329177Y-120570079D01*
X143329885Y-120570561D01*
X143422775Y-120624515D01*
X143491683Y-120658198D01*
X143518502Y-120671308D01*
X143518508Y-120671311D01*
X143519284Y-120671690D01*
X143520094Y-120672016D01*
X143520093Y-120672016D01*
X143618114Y-120711521D01*
X143618124Y-120711525D01*
X143618919Y-120711845D01*
X143721171Y-120744772D01*
X143722024Y-120744981D01*
X143722025Y-120744981D01*
X143824667Y-120770098D01*
X143824674Y-120770099D01*
X143825514Y-120770305D01*
X143931417Y-120788312D01*
X143932287Y-120788397D01*
X143932298Y-120788398D01*
X143983052Y-120793329D01*
X144038335Y-120798701D01*
X144039221Y-120798723D01*
X144039230Y-120798724D01*
X144138212Y-120801230D01*
X144145723Y-120801420D01*
X144209593Y-120798464D01*
X144252171Y-120796493D01*
X144252176Y-120796493D01*
X144253031Y-120796453D01*
X144359709Y-120783827D01*
X144360561Y-120783664D01*
X144360572Y-120783662D01*
X144412460Y-120773716D01*
X144465210Y-120763606D01*
X144466057Y-120763380D01*
X144466065Y-120763378D01*
X144535747Y-120744772D01*
X144568997Y-120735894D01*
X144670536Y-120700832D01*
X144769308Y-120658600D01*
X144864809Y-120609414D01*
X144956548Y-120553526D01*
X145018302Y-120509559D01*
X145043347Y-120491728D01*
X145043356Y-120491721D01*
X145044057Y-120491222D01*
X145044725Y-120490671D01*
X145044732Y-120490665D01*
X145126215Y-120423375D01*
X145126216Y-120423374D01*
X145126887Y-120422820D01*
X145204614Y-120348672D01*
X145205186Y-120348042D01*
X145205196Y-120348032D01*
X145276254Y-120269802D01*
X145276841Y-120269156D01*
X145343198Y-120184680D01*
X145359509Y-120160544D01*
X145373098Y-120147097D01*
X145390799Y-120139873D01*
X145409918Y-120139973D01*
X145427543Y-120147382D01*
X145440123Y-120159701D01*
X145475087Y-120209175D01*
X145475095Y-120209185D01*
X145475595Y-120209893D01*
X145543707Y-120292961D01*
X145617583Y-120370947D01*
X145618227Y-120371536D01*
X145618230Y-120371539D01*
X145696196Y-120442856D01*
X145696203Y-120442862D01*
X145696847Y-120443451D01*
X145781091Y-120510103D01*
X145781807Y-120510590D01*
X145781809Y-120510592D01*
X145869166Y-120570072D01*
X145869177Y-120570079D01*
X145869885Y-120570561D01*
X145962775Y-120624515D01*
X146031683Y-120658198D01*
X146058502Y-120671308D01*
X146058508Y-120671311D01*
X146059284Y-120671690D01*
X146060094Y-120672016D01*
X146060093Y-120672016D01*
X146158114Y-120711521D01*
X146158124Y-120711525D01*
X146158919Y-120711845D01*
X146261171Y-120744772D01*
X146262024Y-120744981D01*
X146262025Y-120744981D01*
X146364667Y-120770098D01*
X146364674Y-120770099D01*
X146365514Y-120770305D01*
X146471417Y-120788312D01*
X146472287Y-120788397D01*
X146472298Y-120788398D01*
X146523052Y-120793329D01*
X146578335Y-120798701D01*
X146579221Y-120798723D01*
X146579230Y-120798724D01*
X146678212Y-120801230D01*
X146685723Y-120801420D01*
X146749593Y-120798464D01*
X146792171Y-120796493D01*
X146792176Y-120796493D01*
X146793031Y-120796453D01*
X146899709Y-120783827D01*
X146900561Y-120783664D01*
X146900572Y-120783662D01*
X146952460Y-120773716D01*
X147005210Y-120763606D01*
X147006057Y-120763380D01*
X147006065Y-120763378D01*
X147075747Y-120744772D01*
X147108997Y-120735894D01*
X147210536Y-120700832D01*
X147309308Y-120658600D01*
X147404809Y-120609414D01*
X147496548Y-120553526D01*
X147558302Y-120509559D01*
X147583347Y-120491728D01*
X147583356Y-120491721D01*
X147584057Y-120491222D01*
X147584725Y-120490671D01*
X147584732Y-120490665D01*
X147666215Y-120423375D01*
X147666216Y-120423374D01*
X147666887Y-120422820D01*
X147744614Y-120348672D01*
X147745186Y-120348042D01*
X147745196Y-120348032D01*
X147816254Y-120269802D01*
X147816841Y-120269156D01*
X147883198Y-120184680D01*
X147899509Y-120160544D01*
X147913098Y-120147097D01*
X147930799Y-120139873D01*
X147949918Y-120139973D01*
X147967543Y-120147382D01*
X147980123Y-120159701D01*
X148015087Y-120209175D01*
X148015095Y-120209185D01*
X148015595Y-120209893D01*
X148083707Y-120292961D01*
X148157583Y-120370947D01*
X148158227Y-120371536D01*
X148158230Y-120371539D01*
X148236196Y-120442856D01*
X148236203Y-120442862D01*
X148236847Y-120443451D01*
X148321091Y-120510103D01*
X148321807Y-120510590D01*
X148321809Y-120510592D01*
X148409166Y-120570072D01*
X148409177Y-120570079D01*
X148409885Y-120570561D01*
X148502775Y-120624515D01*
X148571683Y-120658198D01*
X148598502Y-120671308D01*
X148598508Y-120671311D01*
X148599284Y-120671690D01*
X148600094Y-120672016D01*
X148600093Y-120672016D01*
X148698114Y-120711521D01*
X148698124Y-120711525D01*
X148698919Y-120711845D01*
X148801171Y-120744772D01*
X148802024Y-120744981D01*
X148802025Y-120744981D01*
X148904667Y-120770098D01*
X148904674Y-120770099D01*
X148905514Y-120770305D01*
X149011417Y-120788312D01*
X149012287Y-120788397D01*
X149012298Y-120788398D01*
X149063052Y-120793329D01*
X149118335Y-120798701D01*
X149119221Y-120798723D01*
X149119230Y-120798724D01*
X149218212Y-120801230D01*
X149225723Y-120801420D01*
X149289593Y-120798464D01*
X149332171Y-120796493D01*
X149332176Y-120796493D01*
X149333031Y-120796453D01*
X149439709Y-120783827D01*
X149440561Y-120783664D01*
X149440572Y-120783662D01*
X149492460Y-120773716D01*
X149545210Y-120763606D01*
X149546057Y-120763380D01*
X149546065Y-120763378D01*
X149615747Y-120744772D01*
X149648997Y-120735894D01*
X149750536Y-120700832D01*
X149849308Y-120658600D01*
X149944809Y-120609414D01*
X150036548Y-120553526D01*
X150098302Y-120509559D01*
X150123347Y-120491728D01*
X150123356Y-120491721D01*
X150124057Y-120491222D01*
X150124725Y-120490671D01*
X150124732Y-120490665D01*
X150206215Y-120423375D01*
X150206216Y-120423374D01*
X150206887Y-120422820D01*
X150284614Y-120348672D01*
X150285186Y-120348042D01*
X150285196Y-120348032D01*
X150356254Y-120269802D01*
X150356841Y-120269156D01*
X150423198Y-120184680D01*
X150439509Y-120160544D01*
X150453098Y-120147097D01*
X150470799Y-120139873D01*
X150489918Y-120139973D01*
X150507543Y-120147382D01*
X150520123Y-120159701D01*
X150555087Y-120209175D01*
X150555095Y-120209185D01*
X150555595Y-120209893D01*
X150623707Y-120292961D01*
X150697583Y-120370947D01*
X150698227Y-120371536D01*
X150698230Y-120371539D01*
X150776196Y-120442856D01*
X150776203Y-120442862D01*
X150776847Y-120443451D01*
X150861091Y-120510103D01*
X150861807Y-120510590D01*
X150861809Y-120510592D01*
X150949166Y-120570072D01*
X150949177Y-120570079D01*
X150949885Y-120570561D01*
X151042775Y-120624515D01*
X151111683Y-120658198D01*
X151138502Y-120671308D01*
X151138508Y-120671311D01*
X151139284Y-120671690D01*
X151140094Y-120672016D01*
X151140093Y-120672016D01*
X151238114Y-120711521D01*
X151238124Y-120711525D01*
X151238919Y-120711845D01*
X151341171Y-120744772D01*
X151342024Y-120744981D01*
X151342025Y-120744981D01*
X151444667Y-120770098D01*
X151444674Y-120770099D01*
X151445514Y-120770305D01*
X151551417Y-120788312D01*
X151552287Y-120788397D01*
X151552298Y-120788398D01*
X151603052Y-120793329D01*
X151658335Y-120798701D01*
X151659221Y-120798723D01*
X151659230Y-120798724D01*
X151758212Y-120801230D01*
X151765723Y-120801420D01*
X151829593Y-120798464D01*
X151872171Y-120796493D01*
X151872176Y-120796493D01*
X151873031Y-120796453D01*
X151979709Y-120783827D01*
X151980561Y-120783664D01*
X151980572Y-120783662D01*
X152032460Y-120773716D01*
X152085210Y-120763606D01*
X152086057Y-120763380D01*
X152086065Y-120763378D01*
X152155747Y-120744772D01*
X152188997Y-120735894D01*
X152290536Y-120700832D01*
X152389308Y-120658600D01*
X152484809Y-120609414D01*
X152576548Y-120553526D01*
X152638302Y-120509559D01*
X152663347Y-120491728D01*
X152663356Y-120491721D01*
X152664057Y-120491222D01*
X152664725Y-120490671D01*
X152664732Y-120490665D01*
X152746215Y-120423375D01*
X152746216Y-120423374D01*
X152746887Y-120422820D01*
X152824614Y-120348672D01*
X152825186Y-120348042D01*
X152825196Y-120348032D01*
X152896254Y-120269802D01*
X152896841Y-120269156D01*
X152963198Y-120184680D01*
X152979509Y-120160544D01*
X152993098Y-120147097D01*
X153010799Y-120139873D01*
X153029918Y-120139973D01*
X153047543Y-120147382D01*
X153060123Y-120159701D01*
X153095087Y-120209175D01*
X153095095Y-120209185D01*
X153095595Y-120209893D01*
X153163707Y-120292961D01*
X153237583Y-120370947D01*
X153238227Y-120371536D01*
X153238230Y-120371539D01*
X153316196Y-120442856D01*
X153316203Y-120442862D01*
X153316847Y-120443451D01*
X153401091Y-120510103D01*
X153401807Y-120510590D01*
X153401809Y-120510592D01*
X153489166Y-120570072D01*
X153489177Y-120570079D01*
X153489885Y-120570561D01*
X153582775Y-120624515D01*
X153651683Y-120658198D01*
X153678502Y-120671308D01*
X153678508Y-120671311D01*
X153679284Y-120671690D01*
X153680094Y-120672016D01*
X153680093Y-120672016D01*
X153778114Y-120711521D01*
X153778124Y-120711525D01*
X153778919Y-120711845D01*
X153881171Y-120744772D01*
X153882024Y-120744981D01*
X153882025Y-120744981D01*
X153984667Y-120770098D01*
X153984674Y-120770099D01*
X153985514Y-120770305D01*
X154091417Y-120788312D01*
X154092287Y-120788397D01*
X154092298Y-120788398D01*
X154143052Y-120793329D01*
X154198335Y-120798701D01*
X154199221Y-120798723D01*
X154199230Y-120798724D01*
X154298212Y-120801230D01*
X154305723Y-120801420D01*
X154369593Y-120798464D01*
X154412171Y-120796493D01*
X154412176Y-120796493D01*
X154413031Y-120796453D01*
X154519709Y-120783827D01*
X154520561Y-120783664D01*
X154520572Y-120783662D01*
X154572460Y-120773716D01*
X154625210Y-120763606D01*
X154626057Y-120763380D01*
X154626065Y-120763378D01*
X154695747Y-120744772D01*
X154728997Y-120735894D01*
X154830536Y-120700832D01*
X154929308Y-120658600D01*
X155024809Y-120609414D01*
X155116548Y-120553526D01*
X155178302Y-120509559D01*
X155203347Y-120491728D01*
X155203356Y-120491721D01*
X155204057Y-120491222D01*
X155204725Y-120490671D01*
X155204732Y-120490665D01*
X155286215Y-120423375D01*
X155286216Y-120423374D01*
X155286887Y-120422820D01*
X155364614Y-120348672D01*
X155365186Y-120348042D01*
X155365196Y-120348032D01*
X155436254Y-120269802D01*
X155436841Y-120269156D01*
X155503198Y-120184680D01*
X155519509Y-120160544D01*
X155533098Y-120147097D01*
X155550799Y-120139873D01*
X155569918Y-120139973D01*
X155587543Y-120147382D01*
X155600123Y-120159701D01*
X155635087Y-120209175D01*
X155635095Y-120209185D01*
X155635595Y-120209893D01*
X155703707Y-120292961D01*
X155777583Y-120370947D01*
X155778227Y-120371536D01*
X155778230Y-120371539D01*
X155856196Y-120442856D01*
X155856203Y-120442862D01*
X155856847Y-120443451D01*
X155941091Y-120510103D01*
X155941807Y-120510590D01*
X155941809Y-120510592D01*
X156029166Y-120570072D01*
X156029177Y-120570079D01*
X156029885Y-120570561D01*
X156122775Y-120624515D01*
X156191683Y-120658198D01*
X156218502Y-120671308D01*
X156218508Y-120671311D01*
X156219284Y-120671690D01*
X156220094Y-120672016D01*
X156220093Y-120672016D01*
X156318114Y-120711521D01*
X156318124Y-120711525D01*
X156318919Y-120711845D01*
X156421171Y-120744772D01*
X156422024Y-120744981D01*
X156422025Y-120744981D01*
X156524667Y-120770098D01*
X156524674Y-120770099D01*
X156525514Y-120770305D01*
X156631417Y-120788312D01*
X156632287Y-120788397D01*
X156632298Y-120788398D01*
X156683052Y-120793329D01*
X156738335Y-120798701D01*
X156739221Y-120798723D01*
X156739230Y-120798724D01*
X156838212Y-120801230D01*
X156845723Y-120801420D01*
X156909593Y-120798464D01*
X156952171Y-120796493D01*
X156952176Y-120796493D01*
X156953031Y-120796453D01*
X157059709Y-120783827D01*
X157060561Y-120783664D01*
X157060572Y-120783662D01*
X157112460Y-120773716D01*
X157165210Y-120763606D01*
X157166057Y-120763380D01*
X157166065Y-120763378D01*
X157235747Y-120744772D01*
X157268997Y-120735894D01*
X157370536Y-120700832D01*
X157469308Y-120658600D01*
X157564809Y-120609414D01*
X157656548Y-120553526D01*
X157718302Y-120509559D01*
X157743347Y-120491728D01*
X157743356Y-120491721D01*
X157744057Y-120491222D01*
X157744725Y-120490671D01*
X157744732Y-120490665D01*
X157826215Y-120423375D01*
X157826216Y-120423374D01*
X157826887Y-120422820D01*
X157904614Y-120348672D01*
X157905186Y-120348042D01*
X157905196Y-120348032D01*
X157976254Y-120269802D01*
X157976841Y-120269156D01*
X158043198Y-120184680D01*
X158059509Y-120160544D01*
X158073098Y-120147097D01*
X158090799Y-120139873D01*
X158109918Y-120139973D01*
X158127543Y-120147382D01*
X158140123Y-120159701D01*
X158175087Y-120209175D01*
X158175095Y-120209185D01*
X158175595Y-120209893D01*
X158243707Y-120292961D01*
X158317583Y-120370947D01*
X158318227Y-120371536D01*
X158318230Y-120371539D01*
X158396196Y-120442856D01*
X158396203Y-120442862D01*
X158396847Y-120443451D01*
X158481091Y-120510103D01*
X158481807Y-120510590D01*
X158481809Y-120510592D01*
X158569166Y-120570072D01*
X158569177Y-120570079D01*
X158569885Y-120570561D01*
X158662775Y-120624515D01*
X158731683Y-120658198D01*
X158758502Y-120671308D01*
X158758508Y-120671311D01*
X158759284Y-120671690D01*
X158760094Y-120672016D01*
X158760093Y-120672016D01*
X158858114Y-120711521D01*
X158858124Y-120711525D01*
X158858919Y-120711845D01*
X158961171Y-120744772D01*
X158962024Y-120744981D01*
X158962025Y-120744981D01*
X159064667Y-120770098D01*
X159064674Y-120770099D01*
X159065514Y-120770305D01*
X159171417Y-120788312D01*
X159172287Y-120788397D01*
X159172298Y-120788398D01*
X159223052Y-120793329D01*
X159278335Y-120798701D01*
X159279221Y-120798723D01*
X159279230Y-120798724D01*
X159378212Y-120801230D01*
X159385723Y-120801420D01*
X159449593Y-120798464D01*
X159492171Y-120796493D01*
X159492176Y-120796493D01*
X159493031Y-120796453D01*
X159599709Y-120783827D01*
X159600561Y-120783664D01*
X159600572Y-120783662D01*
X159652460Y-120773716D01*
X159705210Y-120763606D01*
X159706057Y-120763380D01*
X159706065Y-120763378D01*
X159775747Y-120744772D01*
X159808997Y-120735894D01*
X159910536Y-120700832D01*
X160009308Y-120658600D01*
X160104809Y-120609414D01*
X160196548Y-120553526D01*
X160258302Y-120509559D01*
X160283347Y-120491728D01*
X160283356Y-120491721D01*
X160284057Y-120491222D01*
X160284725Y-120490671D01*
X160284732Y-120490665D01*
X160366215Y-120423375D01*
X160366216Y-120423374D01*
X160366887Y-120422820D01*
X160444614Y-120348672D01*
X160445186Y-120348042D01*
X160445196Y-120348032D01*
X160516254Y-120269802D01*
X160516841Y-120269156D01*
X160583198Y-120184680D01*
X160599509Y-120160544D01*
X160613098Y-120147097D01*
X160630799Y-120139873D01*
X160649918Y-120139973D01*
X160667543Y-120147382D01*
X160680123Y-120159701D01*
X160715087Y-120209175D01*
X160715095Y-120209185D01*
X160715595Y-120209893D01*
X160783707Y-120292961D01*
X160857583Y-120370947D01*
X160858227Y-120371536D01*
X160858230Y-120371539D01*
X160936196Y-120442856D01*
X160936203Y-120442862D01*
X160936847Y-120443451D01*
X161021091Y-120510103D01*
X161021807Y-120510590D01*
X161021809Y-120510592D01*
X161109166Y-120570072D01*
X161109177Y-120570079D01*
X161109885Y-120570561D01*
X161202775Y-120624515D01*
X161271683Y-120658198D01*
X161298502Y-120671308D01*
X161298508Y-120671311D01*
X161299284Y-120671690D01*
X161300094Y-120672016D01*
X161300093Y-120672016D01*
X161398114Y-120711521D01*
X161398124Y-120711525D01*
X161398919Y-120711845D01*
X161501171Y-120744772D01*
X161502024Y-120744981D01*
X161502025Y-120744981D01*
X161604667Y-120770098D01*
X161604674Y-120770099D01*
X161605514Y-120770305D01*
X161711417Y-120788312D01*
X161712287Y-120788397D01*
X161712298Y-120788398D01*
X161763052Y-120793329D01*
X161818335Y-120798701D01*
X161819221Y-120798723D01*
X161819230Y-120798724D01*
X161918212Y-120801230D01*
X161925723Y-120801420D01*
X161989593Y-120798464D01*
X162032171Y-120796493D01*
X162032176Y-120796493D01*
X162033031Y-120796453D01*
X162139709Y-120783827D01*
X162140561Y-120783664D01*
X162140572Y-120783662D01*
X162192460Y-120773716D01*
X162245210Y-120763606D01*
X162246057Y-120763380D01*
X162246065Y-120763378D01*
X162315747Y-120744772D01*
X162348997Y-120735894D01*
X162450536Y-120700832D01*
X162549308Y-120658600D01*
X162644809Y-120609414D01*
X162736548Y-120553526D01*
X162798302Y-120509559D01*
X162823347Y-120491728D01*
X162823356Y-120491721D01*
X162824057Y-120491222D01*
X162824725Y-120490671D01*
X162824732Y-120490665D01*
X162906215Y-120423375D01*
X162906216Y-120423374D01*
X162906887Y-120422820D01*
X162984614Y-120348672D01*
X162985186Y-120348042D01*
X162985196Y-120348032D01*
X163056254Y-120269802D01*
X163056841Y-120269156D01*
X163123198Y-120184680D01*
X163164967Y-120122872D01*
X163182852Y-120096407D01*
X163182860Y-120096394D01*
X163183346Y-120095675D01*
X163236976Y-120002598D01*
X163283814Y-119905924D01*
X163323620Y-119806149D01*
X163356191Y-119703784D01*
X163373747Y-119630939D01*
X163381152Y-119600210D01*
X163381359Y-119599351D01*
X163398996Y-119493387D01*
X163409012Y-119386433D01*
X163411502Y-119300000D01*
X163408536Y-119217130D01*
X163407690Y-119193509D01*
X163407690Y-119193506D01*
X163407659Y-119192646D01*
X163407566Y-119191782D01*
X163396245Y-119086711D01*
X163396244Y-119086701D01*
X163396151Y-119085842D01*
X163395998Y-119084996D01*
X163395996Y-119084982D01*
X163377195Y-118981014D01*
X163377036Y-118980134D01*
X163350412Y-118876064D01*
X163316415Y-118774163D01*
X163316077Y-118773349D01*
X163275557Y-118675765D01*
X163275554Y-118675759D01*
X163275220Y-118674954D01*
X163227037Y-118578943D01*
X163172112Y-118486624D01*
X163110728Y-118398468D01*
X163090721Y-118373717D01*
X163043761Y-118315622D01*
X163043755Y-118315615D01*
X163043198Y-118314926D01*
X162969868Y-118236426D01*
X162891112Y-118163370D01*
X162873662Y-118149365D01*
X162808030Y-118096689D01*
X162808016Y-118096679D01*
X162807335Y-118096132D01*
X162718965Y-118035056D01*
X162634984Y-117985488D01*
X162627206Y-117980897D01*
X162627200Y-117980894D01*
X162626455Y-117980454D01*
X162625686Y-117980071D01*
X162625676Y-117980066D01*
X162578880Y-117956786D01*
X162530277Y-117932607D01*
X162430925Y-117891758D01*
X162328906Y-117858117D01*
X162234465Y-117834308D01*
X162225592Y-117832071D01*
X162225591Y-117832071D01*
X162224743Y-117831857D01*
X162209038Y-117829074D01*
X162119840Y-117813265D01*
X162119830Y-117813264D01*
X162118969Y-117813111D01*
X162042387Y-117805129D01*
X162013000Y-117802066D01*
X162012995Y-117802066D01*
X162012125Y-117801975D01*
X162011250Y-117801947D01*
X162011239Y-117801946D01*
X161925959Y-117799192D01*
X161904759Y-117798507D01*
X161903868Y-117798542D01*
X161903867Y-117798542D01*
X161798307Y-117802690D01*
X161798304Y-117802690D01*
X161797419Y-117802725D01*
X161723790Y-117810919D01*
X161691553Y-117814506D01*
X161691548Y-117814507D01*
X161690656Y-117814606D01*
X161689781Y-117814767D01*
X161689770Y-117814769D01*
X161644780Y-117823067D01*
X161585015Y-117834090D01*
X161584176Y-117834308D01*
X161584175Y-117834308D01*
X161481888Y-117860856D01*
X161481878Y-117860859D01*
X161481038Y-117861077D01*
X161480214Y-117861355D01*
X161480201Y-117861359D01*
X161380086Y-117895149D01*
X161380081Y-117895151D01*
X161379257Y-117895429D01*
X161378460Y-117895763D01*
X161378450Y-117895767D01*
X161280988Y-117936636D01*
X161280983Y-117936638D01*
X161280192Y-117936970D01*
X161184351Y-117985488D01*
X161183590Y-117985944D01*
X161183587Y-117985946D01*
X161100843Y-118035565D01*
X161092223Y-118040734D01*
X161091494Y-118041245D01*
X161091490Y-118041248D01*
X161005008Y-118101916D01*
X161004995Y-118101926D01*
X161004282Y-118102426D01*
X161003597Y-118102984D01*
X161003590Y-118102989D01*
X160921667Y-118169685D01*
X160921660Y-118169691D01*
X160920976Y-118170248D01*
X160920330Y-118170856D01*
X160843366Y-118243255D01*
X160843358Y-118243263D01*
X160842733Y-118243851D01*
X160769953Y-118322861D01*
X160703007Y-118406872D01*
X160702506Y-118407602D01*
X160702502Y-118407608D01*
X160680370Y-118439870D01*
X160666687Y-118453223D01*
X160648935Y-118460323D01*
X160629818Y-118460089D01*
X160612245Y-118452557D01*
X160599752Y-118440151D01*
X160599557Y-118439870D01*
X160570728Y-118398468D01*
X160550721Y-118373717D01*
X160503761Y-118315622D01*
X160503755Y-118315615D01*
X160503198Y-118314926D01*
X160429868Y-118236426D01*
X160351112Y-118163370D01*
X160333662Y-118149365D01*
X160268030Y-118096689D01*
X160268016Y-118096679D01*
X160267335Y-118096132D01*
X160178965Y-118035056D01*
X160094984Y-117985488D01*
X160087206Y-117980897D01*
X160087200Y-117980894D01*
X160086455Y-117980454D01*
X160085686Y-117980071D01*
X160085676Y-117980066D01*
X160038880Y-117956786D01*
X159990277Y-117932607D01*
X159890925Y-117891758D01*
X159788906Y-117858117D01*
X159694465Y-117834308D01*
X159685592Y-117832071D01*
X159685591Y-117832071D01*
X159684743Y-117831857D01*
X159669038Y-117829074D01*
X159579840Y-117813265D01*
X159579830Y-117813264D01*
X159578969Y-117813111D01*
X159502387Y-117805129D01*
X159473000Y-117802066D01*
X159472995Y-117802066D01*
X159472125Y-117801975D01*
X159471250Y-117801947D01*
X159471239Y-117801946D01*
X159385959Y-117799192D01*
X159364759Y-117798507D01*
X159363868Y-117798542D01*
X159363867Y-117798542D01*
X159258307Y-117802690D01*
X159258304Y-117802690D01*
X159257419Y-117802725D01*
X159183790Y-117810919D01*
X159151553Y-117814506D01*
X159151548Y-117814507D01*
X159150656Y-117814606D01*
X159149781Y-117814767D01*
X159149770Y-117814769D01*
X159104780Y-117823067D01*
X159045015Y-117834090D01*
X159044176Y-117834308D01*
X159044175Y-117834308D01*
X158941888Y-117860856D01*
X158941878Y-117860859D01*
X158941038Y-117861077D01*
X158940214Y-117861355D01*
X158940201Y-117861359D01*
X158840086Y-117895149D01*
X158840081Y-117895151D01*
X158839257Y-117895429D01*
X158838460Y-117895763D01*
X158838450Y-117895767D01*
X158740988Y-117936636D01*
X158740983Y-117936638D01*
X158740192Y-117936970D01*
X158644351Y-117985488D01*
X158643590Y-117985944D01*
X158643587Y-117985946D01*
X158560843Y-118035565D01*
X158552223Y-118040734D01*
X158551494Y-118041245D01*
X158551490Y-118041248D01*
X158465008Y-118101916D01*
X158464995Y-118101926D01*
X158464282Y-118102426D01*
X158463597Y-118102984D01*
X158463590Y-118102989D01*
X158381667Y-118169685D01*
X158381660Y-118169691D01*
X158380976Y-118170248D01*
X158380330Y-118170856D01*
X158303366Y-118243255D01*
X158303358Y-118243263D01*
X158302733Y-118243851D01*
X158229953Y-118322861D01*
X158163007Y-118406872D01*
X158162506Y-118407602D01*
X158162502Y-118407608D01*
X158140370Y-118439870D01*
X158126687Y-118453223D01*
X158108935Y-118460323D01*
X158089818Y-118460089D01*
X158072245Y-118452557D01*
X158059752Y-118440151D01*
X158059557Y-118439870D01*
X158030728Y-118398468D01*
X158010721Y-118373717D01*
X157963761Y-118315622D01*
X157963755Y-118315615D01*
X157963198Y-118314926D01*
X157889868Y-118236426D01*
X157811112Y-118163370D01*
X157793662Y-118149365D01*
X157728030Y-118096689D01*
X157728016Y-118096679D01*
X157727335Y-118096132D01*
X157638965Y-118035056D01*
X157554984Y-117985488D01*
X157547206Y-117980897D01*
X157547200Y-117980894D01*
X157546455Y-117980454D01*
X157545686Y-117980071D01*
X157545676Y-117980066D01*
X157498880Y-117956786D01*
X157450277Y-117932607D01*
X157350925Y-117891758D01*
X157248906Y-117858117D01*
X157154465Y-117834308D01*
X157145592Y-117832071D01*
X157145591Y-117832071D01*
X157144743Y-117831857D01*
X157129038Y-117829074D01*
X157039840Y-117813265D01*
X157039830Y-117813264D01*
X157038969Y-117813111D01*
X156962387Y-117805129D01*
X156933000Y-117802066D01*
X156932995Y-117802066D01*
X156932125Y-117801975D01*
X156931250Y-117801947D01*
X156931239Y-117801946D01*
X156845959Y-117799192D01*
X156824759Y-117798507D01*
X156823868Y-117798542D01*
X156823867Y-117798542D01*
X156718307Y-117802690D01*
X156718304Y-117802690D01*
X156717419Y-117802725D01*
X156643790Y-117810919D01*
X156611553Y-117814506D01*
X156611548Y-117814507D01*
X156610656Y-117814606D01*
X156609781Y-117814767D01*
X156609770Y-117814769D01*
X156564780Y-117823067D01*
X156505015Y-117834090D01*
X156504176Y-117834308D01*
X156504175Y-117834308D01*
X156401888Y-117860856D01*
X156401878Y-117860859D01*
X156401038Y-117861077D01*
X156400214Y-117861355D01*
X156400201Y-117861359D01*
X156300086Y-117895149D01*
X156300081Y-117895151D01*
X156299257Y-117895429D01*
X156298460Y-117895763D01*
X156298450Y-117895767D01*
X156200988Y-117936636D01*
X156200983Y-117936638D01*
X156200192Y-117936970D01*
X156104351Y-117985488D01*
X156103590Y-117985944D01*
X156103587Y-117985946D01*
X156020843Y-118035565D01*
X156012223Y-118040734D01*
X156011494Y-118041245D01*
X156011490Y-118041248D01*
X155925008Y-118101916D01*
X155924995Y-118101926D01*
X155924282Y-118102426D01*
X155923597Y-118102984D01*
X155923590Y-118102989D01*
X155841667Y-118169685D01*
X155841660Y-118169691D01*
X155840976Y-118170248D01*
X155840330Y-118170856D01*
X155763366Y-118243255D01*
X155763358Y-118243263D01*
X155762733Y-118243851D01*
X155689953Y-118322861D01*
X155623007Y-118406872D01*
X155622506Y-118407602D01*
X155622502Y-118407608D01*
X155600370Y-118439870D01*
X155586687Y-118453223D01*
X155568935Y-118460323D01*
X155549818Y-118460089D01*
X155532245Y-118452557D01*
X155519752Y-118440151D01*
X155519557Y-118439870D01*
X155490728Y-118398468D01*
X155470721Y-118373717D01*
X155423761Y-118315622D01*
X155423755Y-118315615D01*
X155423198Y-118314926D01*
X155349868Y-118236426D01*
X155271112Y-118163370D01*
X155253662Y-118149365D01*
X155188030Y-118096689D01*
X155188016Y-118096679D01*
X155187335Y-118096132D01*
X155098965Y-118035056D01*
X155014984Y-117985488D01*
X155007206Y-117980897D01*
X155007200Y-117980894D01*
X155006455Y-117980454D01*
X155005686Y-117980071D01*
X155005676Y-117980066D01*
X154958880Y-117956786D01*
X154910277Y-117932607D01*
X154810925Y-117891758D01*
X154708906Y-117858117D01*
X154614465Y-117834308D01*
X154605592Y-117832071D01*
X154605591Y-117832071D01*
X154604743Y-117831857D01*
X154589038Y-117829074D01*
X154499840Y-117813265D01*
X154499830Y-117813264D01*
X154498969Y-117813111D01*
X154422387Y-117805129D01*
X154393000Y-117802066D01*
X154392995Y-117802066D01*
X154392125Y-117801975D01*
X154391250Y-117801947D01*
X154391239Y-117801946D01*
X154305959Y-117799192D01*
X154284759Y-117798507D01*
X154283868Y-117798542D01*
X154283867Y-117798542D01*
X154178307Y-117802690D01*
X154178304Y-117802690D01*
X154177419Y-117802725D01*
X154103790Y-117810919D01*
X154071553Y-117814506D01*
X154071548Y-117814507D01*
X154070656Y-117814606D01*
X154069781Y-117814767D01*
X154069770Y-117814769D01*
X154024780Y-117823067D01*
X153965015Y-117834090D01*
X153964176Y-117834308D01*
X153964175Y-117834308D01*
X153861888Y-117860856D01*
X153861878Y-117860859D01*
X153861038Y-117861077D01*
X153860214Y-117861355D01*
X153860201Y-117861359D01*
X153760086Y-117895149D01*
X153760081Y-117895151D01*
X153759257Y-117895429D01*
X153758460Y-117895763D01*
X153758450Y-117895767D01*
X153660988Y-117936636D01*
X153660983Y-117936638D01*
X153660192Y-117936970D01*
X153564351Y-117985488D01*
X153563590Y-117985944D01*
X153563587Y-117985946D01*
X153480843Y-118035565D01*
X153472223Y-118040734D01*
X153471494Y-118041245D01*
X153471490Y-118041248D01*
X153385008Y-118101916D01*
X153384995Y-118101926D01*
X153384282Y-118102426D01*
X153383597Y-118102984D01*
X153383590Y-118102989D01*
X153301667Y-118169685D01*
X153301660Y-118169691D01*
X153300976Y-118170248D01*
X153300330Y-118170856D01*
X153223366Y-118243255D01*
X153223358Y-118243263D01*
X153222733Y-118243851D01*
X153149953Y-118322861D01*
X153083007Y-118406872D01*
X153082506Y-118407602D01*
X153082502Y-118407608D01*
X153060370Y-118439870D01*
X153046687Y-118453223D01*
X153028935Y-118460323D01*
X153009818Y-118460089D01*
X152992245Y-118452557D01*
X152979752Y-118440151D01*
X152979557Y-118439870D01*
X152950728Y-118398468D01*
X152930721Y-118373717D01*
X152883761Y-118315622D01*
X152883755Y-118315615D01*
X152883198Y-118314926D01*
X152809868Y-118236426D01*
X152731112Y-118163370D01*
X152713662Y-118149365D01*
X152648030Y-118096689D01*
X152648016Y-118096679D01*
X152647335Y-118096132D01*
X152558965Y-118035056D01*
X152474984Y-117985488D01*
X152467206Y-117980897D01*
X152467200Y-117980894D01*
X152466455Y-117980454D01*
X152465686Y-117980071D01*
X152465676Y-117980066D01*
X152418880Y-117956786D01*
X152370277Y-117932607D01*
X152270925Y-117891758D01*
X152168906Y-117858117D01*
X152074465Y-117834308D01*
X152065592Y-117832071D01*
X152065591Y-117832071D01*
X152064743Y-117831857D01*
X152049038Y-117829074D01*
X151959840Y-117813265D01*
X151959830Y-117813264D01*
X151958969Y-117813111D01*
X151882387Y-117805129D01*
X151853000Y-117802066D01*
X151852995Y-117802066D01*
X151852125Y-117801975D01*
X151851250Y-117801947D01*
X151851239Y-117801946D01*
X151765959Y-117799192D01*
X151744759Y-117798507D01*
X151743868Y-117798542D01*
X151743867Y-117798542D01*
X151638307Y-117802690D01*
X151638304Y-117802690D01*
X151637419Y-117802725D01*
X151563790Y-117810919D01*
X151531553Y-117814506D01*
X151531548Y-117814507D01*
X151530656Y-117814606D01*
X151529781Y-117814767D01*
X151529770Y-117814769D01*
X151484780Y-117823067D01*
X151425015Y-117834090D01*
X151424176Y-117834308D01*
X151424175Y-117834308D01*
X151321888Y-117860856D01*
X151321878Y-117860859D01*
X151321038Y-117861077D01*
X151320214Y-117861355D01*
X151320201Y-117861359D01*
X151220086Y-117895149D01*
X151220081Y-117895151D01*
X151219257Y-117895429D01*
X151218460Y-117895763D01*
X151218450Y-117895767D01*
X151120988Y-117936636D01*
X151120983Y-117936638D01*
X151120192Y-117936970D01*
X151024351Y-117985488D01*
X151023590Y-117985944D01*
X151023587Y-117985946D01*
X150940843Y-118035565D01*
X150932223Y-118040734D01*
X150931494Y-118041245D01*
X150931490Y-118041248D01*
X150845008Y-118101916D01*
X150844995Y-118101926D01*
X150844282Y-118102426D01*
X150843597Y-118102984D01*
X150843590Y-118102989D01*
X150761667Y-118169685D01*
X150761660Y-118169691D01*
X150760976Y-118170248D01*
X150760330Y-118170856D01*
X150683366Y-118243255D01*
X150683358Y-118243263D01*
X150682733Y-118243851D01*
X150609953Y-118322861D01*
X150543007Y-118406872D01*
X150542506Y-118407602D01*
X150542502Y-118407608D01*
X150520370Y-118439870D01*
X150506687Y-118453223D01*
X150488935Y-118460323D01*
X150469818Y-118460089D01*
X150452245Y-118452557D01*
X150439752Y-118440151D01*
X150439557Y-118439870D01*
X150410728Y-118398468D01*
X150390721Y-118373717D01*
X150343761Y-118315622D01*
X150343755Y-118315615D01*
X150343198Y-118314926D01*
X150269868Y-118236426D01*
X150191112Y-118163370D01*
X150173662Y-118149365D01*
X150108030Y-118096689D01*
X150108016Y-118096679D01*
X150107335Y-118096132D01*
X150018965Y-118035056D01*
X149934984Y-117985488D01*
X149927206Y-117980897D01*
X149927200Y-117980894D01*
X149926455Y-117980454D01*
X149925686Y-117980071D01*
X149925676Y-117980066D01*
X149878880Y-117956786D01*
X149830277Y-117932607D01*
X149730925Y-117891758D01*
X149628906Y-117858117D01*
X149534465Y-117834308D01*
X149525592Y-117832071D01*
X149525591Y-117832071D01*
X149524743Y-117831857D01*
X149509038Y-117829074D01*
X149419840Y-117813265D01*
X149419830Y-117813264D01*
X149418969Y-117813111D01*
X149342387Y-117805129D01*
X149313000Y-117802066D01*
X149312995Y-117802066D01*
X149312125Y-117801975D01*
X149311250Y-117801947D01*
X149311239Y-117801946D01*
X149225959Y-117799192D01*
X149204759Y-117798507D01*
X149203868Y-117798542D01*
X149203867Y-117798542D01*
X149098307Y-117802690D01*
X149098304Y-117802690D01*
X149097419Y-117802725D01*
X149023790Y-117810919D01*
X148991553Y-117814506D01*
X148991548Y-117814507D01*
X148990656Y-117814606D01*
X148989781Y-117814767D01*
X148989770Y-117814769D01*
X148944780Y-117823067D01*
X148885015Y-117834090D01*
X148884176Y-117834308D01*
X148884175Y-117834308D01*
X148781888Y-117860856D01*
X148781878Y-117860859D01*
X148781038Y-117861077D01*
X148780214Y-117861355D01*
X148780201Y-117861359D01*
X148680086Y-117895149D01*
X148680081Y-117895151D01*
X148679257Y-117895429D01*
X148678460Y-117895763D01*
X148678450Y-117895767D01*
X148580988Y-117936636D01*
X148580983Y-117936638D01*
X148580192Y-117936970D01*
X148484351Y-117985488D01*
X148483590Y-117985944D01*
X148483587Y-117985946D01*
X148400843Y-118035565D01*
X148392223Y-118040734D01*
X148391494Y-118041245D01*
X148391490Y-118041248D01*
X148305008Y-118101916D01*
X148304995Y-118101926D01*
X148304282Y-118102426D01*
X148303597Y-118102984D01*
X148303590Y-118102989D01*
X148221667Y-118169685D01*
X148221660Y-118169691D01*
X148220976Y-118170248D01*
X148220330Y-118170856D01*
X148143366Y-118243255D01*
X148143358Y-118243263D01*
X148142733Y-118243851D01*
X148069953Y-118322861D01*
X148003007Y-118406872D01*
X148002506Y-118407602D01*
X148002502Y-118407608D01*
X147980370Y-118439870D01*
X147966687Y-118453223D01*
X147948935Y-118460323D01*
X147929818Y-118460089D01*
X147912245Y-118452557D01*
X147899752Y-118440151D01*
X147899557Y-118439870D01*
X147870728Y-118398468D01*
X147850721Y-118373717D01*
X147803761Y-118315622D01*
X147803755Y-118315615D01*
X147803198Y-118314926D01*
X147729868Y-118236426D01*
X147651112Y-118163370D01*
X147633662Y-118149365D01*
X147568030Y-118096689D01*
X147568016Y-118096679D01*
X147567335Y-118096132D01*
X147478965Y-118035056D01*
X147394984Y-117985488D01*
X147387206Y-117980897D01*
X147387200Y-117980894D01*
X147386455Y-117980454D01*
X147385686Y-117980071D01*
X147385676Y-117980066D01*
X147338880Y-117956786D01*
X147290277Y-117932607D01*
X147190925Y-117891758D01*
X147088906Y-117858117D01*
X146994465Y-117834308D01*
X146985592Y-117832071D01*
X146985591Y-117832071D01*
X146984743Y-117831857D01*
X146969038Y-117829074D01*
X146879840Y-117813265D01*
X146879830Y-117813264D01*
X146878969Y-117813111D01*
X146802387Y-117805129D01*
X146773000Y-117802066D01*
X146772995Y-117802066D01*
X146772125Y-117801975D01*
X146771250Y-117801947D01*
X146771239Y-117801946D01*
X146685959Y-117799192D01*
X146664759Y-117798507D01*
X146663868Y-117798542D01*
X146663867Y-117798542D01*
X146558307Y-117802690D01*
X146558304Y-117802690D01*
X146557419Y-117802725D01*
X146483790Y-117810919D01*
X146451553Y-117814506D01*
X146451548Y-117814507D01*
X146450656Y-117814606D01*
X146449781Y-117814767D01*
X146449770Y-117814769D01*
X146404780Y-117823067D01*
X146345015Y-117834090D01*
X146344176Y-117834308D01*
X146344175Y-117834308D01*
X146241888Y-117860856D01*
X146241878Y-117860859D01*
X146241038Y-117861077D01*
X146240214Y-117861355D01*
X146240201Y-117861359D01*
X146140086Y-117895149D01*
X146140081Y-117895151D01*
X146139257Y-117895429D01*
X146138460Y-117895763D01*
X146138450Y-117895767D01*
X146040988Y-117936636D01*
X146040983Y-117936638D01*
X146040192Y-117936970D01*
X145944351Y-117985488D01*
X145943590Y-117985944D01*
X145943587Y-117985946D01*
X145860843Y-118035565D01*
X145852223Y-118040734D01*
X145851494Y-118041245D01*
X145851490Y-118041248D01*
X145765008Y-118101916D01*
X145764995Y-118101926D01*
X145764282Y-118102426D01*
X145763597Y-118102984D01*
X145763590Y-118102989D01*
X145681667Y-118169685D01*
X145681660Y-118169691D01*
X145680976Y-118170248D01*
X145680330Y-118170856D01*
X145603366Y-118243255D01*
X145603358Y-118243263D01*
X145602733Y-118243851D01*
X145529953Y-118322861D01*
X145463007Y-118406872D01*
X145462506Y-118407602D01*
X145462502Y-118407608D01*
X145440370Y-118439870D01*
X145426687Y-118453223D01*
X145408935Y-118460323D01*
X145389818Y-118460089D01*
X145372245Y-118452557D01*
X145359752Y-118440151D01*
X145359557Y-118439870D01*
X145330728Y-118398468D01*
X145310721Y-118373717D01*
X145263761Y-118315622D01*
X145263755Y-118315615D01*
X145263198Y-118314926D01*
X145189868Y-118236426D01*
X145111112Y-118163370D01*
X145093662Y-118149365D01*
X145028030Y-118096689D01*
X145028016Y-118096679D01*
X145027335Y-118096132D01*
X144938965Y-118035056D01*
X144854984Y-117985488D01*
X144847206Y-117980897D01*
X144847200Y-117980894D01*
X144846455Y-117980454D01*
X144845686Y-117980071D01*
X144845676Y-117980066D01*
X144798880Y-117956786D01*
X144750277Y-117932607D01*
X144650925Y-117891758D01*
X144548906Y-117858117D01*
X144454465Y-117834308D01*
X144445592Y-117832071D01*
X144445591Y-117832071D01*
X144444743Y-117831857D01*
X144429038Y-117829074D01*
X144339840Y-117813265D01*
X144339830Y-117813264D01*
X144338969Y-117813111D01*
X144262387Y-117805129D01*
X144233000Y-117802066D01*
X144232995Y-117802066D01*
X144232125Y-117801975D01*
X144231250Y-117801947D01*
X144231239Y-117801946D01*
X144145959Y-117799192D01*
X144124759Y-117798507D01*
X144123868Y-117798542D01*
X144123867Y-117798542D01*
X144018307Y-117802690D01*
X144018304Y-117802690D01*
X144017419Y-117802725D01*
X143943790Y-117810919D01*
X143911553Y-117814506D01*
X143911548Y-117814507D01*
X143910656Y-117814606D01*
X143909781Y-117814767D01*
X143909770Y-117814769D01*
X143864780Y-117823067D01*
X143805015Y-117834090D01*
X143804176Y-117834308D01*
X143804175Y-117834308D01*
X143701888Y-117860856D01*
X143701878Y-117860859D01*
X143701038Y-117861077D01*
X143700214Y-117861355D01*
X143700201Y-117861359D01*
X143600086Y-117895149D01*
X143600081Y-117895151D01*
X143599257Y-117895429D01*
X143598460Y-117895763D01*
X143598450Y-117895767D01*
X143500988Y-117936636D01*
X143500983Y-117936638D01*
X143500192Y-117936970D01*
X143404351Y-117985488D01*
X143403590Y-117985944D01*
X143403587Y-117985946D01*
X143320843Y-118035565D01*
X143312223Y-118040734D01*
X143311494Y-118041245D01*
X143311490Y-118041248D01*
X143225008Y-118101916D01*
X143224995Y-118101926D01*
X143224282Y-118102426D01*
X143223597Y-118102984D01*
X143223590Y-118102989D01*
X143141667Y-118169685D01*
X143141660Y-118169691D01*
X143140976Y-118170248D01*
X143140330Y-118170856D01*
X143063366Y-118243255D01*
X143063358Y-118243263D01*
X143062733Y-118243851D01*
X142989953Y-118322861D01*
X142923007Y-118406872D01*
X142922506Y-118407602D01*
X142922502Y-118407608D01*
X142900370Y-118439870D01*
X142886687Y-118453223D01*
X142868935Y-118460323D01*
X142849818Y-118460089D01*
X142832245Y-118452557D01*
X142819752Y-118440151D01*
X142819557Y-118439870D01*
X142790728Y-118398468D01*
X142770721Y-118373717D01*
X142723761Y-118315622D01*
X142723755Y-118315615D01*
X142723198Y-118314926D01*
X142649868Y-118236426D01*
X142571112Y-118163370D01*
X142553662Y-118149365D01*
X142488030Y-118096689D01*
X142488016Y-118096679D01*
X142487335Y-118096132D01*
X142398965Y-118035056D01*
X142314984Y-117985488D01*
X142307206Y-117980897D01*
X142307200Y-117980894D01*
X142306455Y-117980454D01*
X142305686Y-117980071D01*
X142305676Y-117980066D01*
X142258880Y-117956786D01*
X142210277Y-117932607D01*
X142110925Y-117891758D01*
X142008906Y-117858117D01*
X141914465Y-117834308D01*
X141905592Y-117832071D01*
X141905591Y-117832071D01*
X141904743Y-117831857D01*
X141889038Y-117829074D01*
X141799840Y-117813265D01*
X141799830Y-117813264D01*
X141798969Y-117813111D01*
X141722387Y-117805129D01*
X141693000Y-117802066D01*
X141692995Y-117802066D01*
X141692125Y-117801975D01*
X141691250Y-117801947D01*
X141691239Y-117801946D01*
X141605959Y-117799192D01*
X141584759Y-117798507D01*
X141583868Y-117798542D01*
X141583867Y-117798542D01*
X141478307Y-117802690D01*
X141478304Y-117802690D01*
X141477419Y-117802725D01*
X141403790Y-117810919D01*
X141371553Y-117814506D01*
X141371548Y-117814507D01*
X141370656Y-117814606D01*
X141369781Y-117814767D01*
X141369770Y-117814769D01*
X141324780Y-117823067D01*
X141265015Y-117834090D01*
X141264176Y-117834308D01*
X141264175Y-117834308D01*
X141161888Y-117860856D01*
X141161878Y-117860859D01*
X141161038Y-117861077D01*
X141160214Y-117861355D01*
X141160201Y-117861359D01*
X141060086Y-117895149D01*
X141060081Y-117895151D01*
X141059257Y-117895429D01*
X141058460Y-117895763D01*
X141058450Y-117895767D01*
X140960988Y-117936636D01*
X140960983Y-117936638D01*
X140960192Y-117936970D01*
X140864351Y-117985488D01*
X140863590Y-117985944D01*
X140863587Y-117985946D01*
X140780843Y-118035565D01*
X140772223Y-118040734D01*
X140771494Y-118041245D01*
X140771490Y-118041248D01*
X140685008Y-118101916D01*
X140684995Y-118101926D01*
X140684282Y-118102426D01*
X140683597Y-118102984D01*
X140683590Y-118102989D01*
X140601667Y-118169685D01*
X140601660Y-118169691D01*
X140600976Y-118170248D01*
X140600330Y-118170856D01*
X140523366Y-118243255D01*
X140523358Y-118243263D01*
X140522733Y-118243851D01*
X140449953Y-118322861D01*
X140383007Y-118406872D01*
X140382506Y-118407602D01*
X140382502Y-118407608D01*
X140360370Y-118439870D01*
X140346687Y-118453223D01*
X140328935Y-118460323D01*
X140309818Y-118460089D01*
X140292245Y-118452557D01*
X140279752Y-118440151D01*
X140279557Y-118439870D01*
X140250728Y-118398468D01*
X140230721Y-118373717D01*
X140183761Y-118315622D01*
X140183755Y-118315615D01*
X140183198Y-118314926D01*
X140109868Y-118236426D01*
X140031112Y-118163370D01*
X140013662Y-118149365D01*
X139948030Y-118096689D01*
X139948016Y-118096679D01*
X139947335Y-118096132D01*
X139858965Y-118035056D01*
X139774984Y-117985488D01*
X139767206Y-117980897D01*
X139767200Y-117980894D01*
X139766455Y-117980454D01*
X139765686Y-117980071D01*
X139765676Y-117980066D01*
X139718880Y-117956786D01*
X139670277Y-117932607D01*
X139570925Y-117891758D01*
X139468906Y-117858117D01*
X139374465Y-117834308D01*
X139365592Y-117832071D01*
X139365591Y-117832071D01*
X139364743Y-117831857D01*
X139349038Y-117829074D01*
X139259840Y-117813265D01*
X139259830Y-117813264D01*
X139258969Y-117813111D01*
X139182387Y-117805129D01*
X139153000Y-117802066D01*
X139152995Y-117802066D01*
X139152125Y-117801975D01*
X139151250Y-117801947D01*
X139151239Y-117801946D01*
X139065959Y-117799192D01*
X139044759Y-117798507D01*
X139043868Y-117798542D01*
X139043867Y-117798542D01*
X138938307Y-117802690D01*
X138938304Y-117802690D01*
X138937419Y-117802725D01*
X138863790Y-117810919D01*
X138831553Y-117814506D01*
X138831548Y-117814507D01*
X138830656Y-117814606D01*
X138829781Y-117814767D01*
X138829770Y-117814769D01*
X138784780Y-117823067D01*
X138725015Y-117834090D01*
X138724176Y-117834308D01*
X138724175Y-117834308D01*
X138621888Y-117860856D01*
X138621878Y-117860859D01*
X138621038Y-117861077D01*
X138620214Y-117861355D01*
X138620201Y-117861359D01*
X138520086Y-117895149D01*
X138520081Y-117895151D01*
X138519257Y-117895429D01*
X138518460Y-117895763D01*
X138518450Y-117895767D01*
X138420988Y-117936636D01*
X138420983Y-117936638D01*
X138420192Y-117936970D01*
X138324351Y-117985488D01*
X138323590Y-117985944D01*
X138323587Y-117985946D01*
X138240843Y-118035565D01*
X138232223Y-118040734D01*
X138231494Y-118041245D01*
X138231490Y-118041248D01*
X138145008Y-118101916D01*
X138144995Y-118101926D01*
X138144282Y-118102426D01*
X138143597Y-118102984D01*
X138143590Y-118102989D01*
X138061667Y-118169685D01*
X138061660Y-118169691D01*
X138060976Y-118170248D01*
X138060330Y-118170856D01*
X137983366Y-118243255D01*
X137983358Y-118243263D01*
X137982733Y-118243851D01*
X137909953Y-118322861D01*
X137843007Y-118406872D01*
X137842506Y-118407602D01*
X137842502Y-118407608D01*
X137820370Y-118439870D01*
X137806687Y-118453223D01*
X137788935Y-118460323D01*
X137769818Y-118460089D01*
X137752245Y-118452557D01*
X137739752Y-118440151D01*
X137739557Y-118439870D01*
X137710728Y-118398468D01*
X137690721Y-118373717D01*
X137643761Y-118315622D01*
X137643755Y-118315615D01*
X137643198Y-118314926D01*
X137569868Y-118236426D01*
X137491112Y-118163370D01*
X137473662Y-118149365D01*
X137408030Y-118096689D01*
X137408016Y-118096679D01*
X137407335Y-118096132D01*
X137318965Y-118035056D01*
X137234984Y-117985488D01*
X137227206Y-117980897D01*
X137227200Y-117980894D01*
X137226455Y-117980454D01*
X137225686Y-117980071D01*
X137225676Y-117980066D01*
X137178880Y-117956786D01*
X137130277Y-117932607D01*
X137030925Y-117891758D01*
X136928906Y-117858117D01*
X136834465Y-117834308D01*
X136825592Y-117832071D01*
X136825591Y-117832071D01*
X136824743Y-117831857D01*
X136809038Y-117829074D01*
X136719840Y-117813265D01*
X136719830Y-117813264D01*
X136718969Y-117813111D01*
X136642387Y-117805129D01*
X136613000Y-117802066D01*
X136612995Y-117802066D01*
X136612125Y-117801975D01*
X136611250Y-117801947D01*
X136611239Y-117801946D01*
X136525959Y-117799192D01*
X136504759Y-117798507D01*
X136503868Y-117798542D01*
X136503867Y-117798542D01*
X136398307Y-117802690D01*
X136398304Y-117802690D01*
X136397419Y-117802725D01*
X136323790Y-117810919D01*
X136291553Y-117814506D01*
X136291548Y-117814507D01*
X136290656Y-117814606D01*
X136289781Y-117814767D01*
X136289770Y-117814769D01*
X136244780Y-117823067D01*
X136185015Y-117834090D01*
X136184176Y-117834308D01*
X136184175Y-117834308D01*
X136081888Y-117860856D01*
X136081878Y-117860859D01*
X136081038Y-117861077D01*
X136080214Y-117861355D01*
X136080201Y-117861359D01*
X135980086Y-117895149D01*
X135980081Y-117895151D01*
X135979257Y-117895429D01*
X135978460Y-117895763D01*
X135978450Y-117895767D01*
X135880988Y-117936636D01*
X135880983Y-117936638D01*
X135880192Y-117936970D01*
X135784351Y-117985488D01*
X135783590Y-117985944D01*
X135783587Y-117985946D01*
X135700843Y-118035565D01*
X135692223Y-118040734D01*
X135691494Y-118041245D01*
X135691490Y-118041248D01*
X135605008Y-118101916D01*
X135604995Y-118101926D01*
X135604282Y-118102426D01*
X135603597Y-118102984D01*
X135603590Y-118102989D01*
X135521667Y-118169685D01*
X135521660Y-118169691D01*
X135520976Y-118170248D01*
X135520330Y-118170856D01*
X135443366Y-118243255D01*
X135443358Y-118243263D01*
X135442733Y-118243851D01*
X135369953Y-118322861D01*
X135303007Y-118406872D01*
X135302506Y-118407602D01*
X135302502Y-118407608D01*
X135280370Y-118439870D01*
X135266687Y-118453223D01*
X135248935Y-118460323D01*
X135229818Y-118460089D01*
X135212245Y-118452557D01*
X135199752Y-118440151D01*
X135199557Y-118439870D01*
X135170728Y-118398468D01*
X135150721Y-118373717D01*
X135103761Y-118315622D01*
X135103755Y-118315615D01*
X135103198Y-118314926D01*
X135029868Y-118236426D01*
X134951112Y-118163370D01*
X134933662Y-118149365D01*
X134868030Y-118096689D01*
X134868016Y-118096679D01*
X134867335Y-118096132D01*
X134778965Y-118035056D01*
X134694984Y-117985488D01*
X134687206Y-117980897D01*
X134687200Y-117980894D01*
X134686455Y-117980454D01*
X134685686Y-117980071D01*
X134685676Y-117980066D01*
X134638880Y-117956786D01*
X134590277Y-117932607D01*
X134490925Y-117891758D01*
X134388906Y-117858117D01*
X134294465Y-117834308D01*
X134285592Y-117832071D01*
X134285591Y-117832071D01*
X134284743Y-117831857D01*
X134269038Y-117829074D01*
X134179840Y-117813265D01*
X134179830Y-117813264D01*
X134178969Y-117813111D01*
X134102387Y-117805129D01*
X134073000Y-117802066D01*
X134072995Y-117802066D01*
X134072125Y-117801975D01*
X134071250Y-117801947D01*
X134071239Y-117801946D01*
X133985959Y-117799192D01*
X133964759Y-117798507D01*
X133963868Y-117798542D01*
X133963867Y-117798542D01*
X133858307Y-117802690D01*
X133858304Y-117802690D01*
X133857419Y-117802725D01*
X133783790Y-117810919D01*
X133751553Y-117814506D01*
X133751548Y-117814507D01*
X133750656Y-117814606D01*
X133749781Y-117814767D01*
X133749770Y-117814769D01*
X133704780Y-117823067D01*
X133645015Y-117834090D01*
X133644176Y-117834308D01*
X133644175Y-117834308D01*
X133541888Y-117860856D01*
X133541878Y-117860859D01*
X133541038Y-117861077D01*
X133540214Y-117861355D01*
X133540201Y-117861359D01*
X133440086Y-117895149D01*
X133440081Y-117895151D01*
X133439257Y-117895429D01*
X133438460Y-117895763D01*
X133438450Y-117895767D01*
X133340988Y-117936636D01*
X133340983Y-117936638D01*
X133340192Y-117936970D01*
X133244351Y-117985488D01*
X133243590Y-117985944D01*
X133243587Y-117985946D01*
X133160843Y-118035565D01*
X133152223Y-118040734D01*
X133151494Y-118041245D01*
X133151490Y-118041248D01*
X133065008Y-118101916D01*
X133064995Y-118101926D01*
X133064282Y-118102426D01*
X133063597Y-118102984D01*
X133063590Y-118102989D01*
X132981667Y-118169685D01*
X132981660Y-118169691D01*
X132980976Y-118170248D01*
X132980330Y-118170856D01*
X132903366Y-118243255D01*
X132903358Y-118243263D01*
X132902733Y-118243851D01*
X132829953Y-118322861D01*
X132763007Y-118406872D01*
X132762506Y-118407602D01*
X132762502Y-118407608D01*
X132740370Y-118439870D01*
X132726687Y-118453223D01*
X132708935Y-118460323D01*
X132689818Y-118460089D01*
X132672245Y-118452557D01*
X132659752Y-118440151D01*
X132659557Y-118439870D01*
X132630728Y-118398468D01*
X132610721Y-118373717D01*
X132563761Y-118315622D01*
X132563755Y-118315615D01*
X132563198Y-118314926D01*
X132489868Y-118236426D01*
X132411112Y-118163370D01*
X132393662Y-118149365D01*
X132328030Y-118096689D01*
X132328016Y-118096679D01*
X132327335Y-118096132D01*
X132238965Y-118035056D01*
X132154984Y-117985488D01*
X132147206Y-117980897D01*
X132147200Y-117980894D01*
X132146455Y-117980454D01*
X132145686Y-117980071D01*
X132145676Y-117980066D01*
X132098880Y-117956786D01*
X132050277Y-117932607D01*
X131950925Y-117891758D01*
X131848906Y-117858117D01*
X131754465Y-117834308D01*
X131745592Y-117832071D01*
X131745591Y-117832071D01*
X131744743Y-117831857D01*
X131729038Y-117829074D01*
X131639840Y-117813265D01*
X131639830Y-117813264D01*
X131638969Y-117813111D01*
X131562387Y-117805129D01*
X131533000Y-117802066D01*
X131532995Y-117802066D01*
X131532125Y-117801975D01*
X131531250Y-117801947D01*
X131531239Y-117801946D01*
X131445959Y-117799192D01*
X131424759Y-117798507D01*
X131423868Y-117798542D01*
X131423867Y-117798542D01*
X131318307Y-117802690D01*
X131318304Y-117802690D01*
X131317419Y-117802725D01*
X131243790Y-117810919D01*
X131211553Y-117814506D01*
X131211548Y-117814507D01*
X131210656Y-117814606D01*
X131209781Y-117814767D01*
X131209770Y-117814769D01*
X131164780Y-117823067D01*
X131105015Y-117834090D01*
X131104176Y-117834308D01*
X131104175Y-117834308D01*
X131001888Y-117860856D01*
X131001878Y-117860859D01*
X131001038Y-117861077D01*
X131000214Y-117861355D01*
X131000201Y-117861359D01*
X130900086Y-117895149D01*
X130900081Y-117895151D01*
X130899257Y-117895429D01*
X130898460Y-117895763D01*
X130898450Y-117895767D01*
X130800988Y-117936636D01*
X130800983Y-117936638D01*
X130800192Y-117936970D01*
X130704351Y-117985488D01*
X130703590Y-117985944D01*
X130703587Y-117985946D01*
X130620843Y-118035565D01*
X130612223Y-118040734D01*
X130611494Y-118041245D01*
X130611490Y-118041248D01*
X130525008Y-118101916D01*
X130524995Y-118101926D01*
X130524282Y-118102426D01*
X130523597Y-118102984D01*
X130523590Y-118102989D01*
X130441667Y-118169685D01*
X130441660Y-118169691D01*
X130440976Y-118170248D01*
X130440330Y-118170856D01*
X130363366Y-118243255D01*
X130363358Y-118243263D01*
X130362733Y-118243851D01*
X130289953Y-118322861D01*
X130223007Y-118406872D01*
X130222509Y-118407598D01*
X130222506Y-118407602D01*
X130191211Y-118453223D01*
X130162240Y-118495455D01*
X130161802Y-118496202D01*
X130161802Y-118496203D01*
X130108392Y-118587419D01*
X130108386Y-118587430D01*
X130107961Y-118588156D01*
X130107585Y-118588918D01*
X130107582Y-118588924D01*
X130060839Y-118683710D01*
X130060833Y-118683723D01*
X130060450Y-118684500D01*
X130019948Y-118783994D01*
X129986664Y-118886130D01*
X129960767Y-118990384D01*
X129942390Y-119096223D01*
X129931628Y-119203105D01*
X129931603Y-119203974D01*
X129928860Y-119299211D01*
X129928535Y-119310482D01*
X127851200Y-119310482D01*
X127851502Y-119300000D01*
X127848536Y-119217130D01*
X127847690Y-119193509D01*
X127847690Y-119193506D01*
X127847659Y-119192646D01*
X127847566Y-119191782D01*
X127836245Y-119086711D01*
X127836244Y-119086701D01*
X127836151Y-119085842D01*
X127835998Y-119084996D01*
X127835996Y-119084982D01*
X127817195Y-118981014D01*
X127817036Y-118980134D01*
X127790412Y-118876064D01*
X127756415Y-118774163D01*
X127756077Y-118773349D01*
X127715557Y-118675765D01*
X127715554Y-118675759D01*
X127715220Y-118674954D01*
X127667037Y-118578943D01*
X127612112Y-118486624D01*
X127550728Y-118398468D01*
X127530721Y-118373717D01*
X127483761Y-118315622D01*
X127483755Y-118315615D01*
X127483198Y-118314926D01*
X127409868Y-118236426D01*
X127331112Y-118163370D01*
X127313662Y-118149365D01*
X127248030Y-118096689D01*
X127248016Y-118096679D01*
X127247335Y-118096132D01*
X127158965Y-118035056D01*
X127074984Y-117985488D01*
X127067206Y-117980897D01*
X127067200Y-117980894D01*
X127066455Y-117980454D01*
X127065686Y-117980071D01*
X127065676Y-117980066D01*
X127018880Y-117956786D01*
X126970277Y-117932607D01*
X126870925Y-117891758D01*
X126768906Y-117858117D01*
X126674465Y-117834308D01*
X126665592Y-117832071D01*
X126665591Y-117832071D01*
X126664743Y-117831857D01*
X126649038Y-117829074D01*
X126559840Y-117813265D01*
X126559830Y-117813264D01*
X126558969Y-117813111D01*
X126482387Y-117805129D01*
X126453000Y-117802066D01*
X126452995Y-117802066D01*
X126452125Y-117801975D01*
X126451250Y-117801947D01*
X126451239Y-117801946D01*
X126365959Y-117799192D01*
X126344759Y-117798507D01*
X126343868Y-117798542D01*
X126343866Y-117798542D01*
X126287917Y-117800740D01*
X126269034Y-117797749D01*
X126251346Y-117786426D01*
X123714852Y-115249932D01*
X123704230Y-115234035D01*
X123700500Y-115215284D01*
X123700500Y-93910482D01*
X124848535Y-93910482D01*
X124853127Y-94017806D01*
X124865380Y-94124528D01*
X124865541Y-94125386D01*
X124865543Y-94125397D01*
X124879612Y-94200210D01*
X124885233Y-94230100D01*
X124912583Y-94333982D01*
X124947290Y-94435643D01*
X124989177Y-94534562D01*
X124989572Y-94535336D01*
X124989575Y-94535342D01*
X125024297Y-94603342D01*
X125038029Y-94630234D01*
X125065813Y-94676201D01*
X125093148Y-94721425D01*
X125093155Y-94721435D01*
X125093597Y-94722167D01*
X125094092Y-94722867D01*
X125094095Y-94722872D01*
X125155087Y-94809175D01*
X125155095Y-94809185D01*
X125155595Y-94809893D01*
X125223707Y-94892961D01*
X125297583Y-94970947D01*
X125298227Y-94971536D01*
X125298230Y-94971539D01*
X125376196Y-95042856D01*
X125376203Y-95042862D01*
X125376847Y-95043451D01*
X125461091Y-95110103D01*
X125461807Y-95110590D01*
X125461809Y-95110592D01*
X125549166Y-95170072D01*
X125549177Y-95170079D01*
X125549885Y-95170561D01*
X125642775Y-95224515D01*
X125711683Y-95258198D01*
X125738502Y-95271308D01*
X125738508Y-95271311D01*
X125739284Y-95271690D01*
X125740094Y-95272016D01*
X125740093Y-95272016D01*
X125838114Y-95311521D01*
X125838124Y-95311525D01*
X125838919Y-95311845D01*
X125941171Y-95344772D01*
X125942024Y-95344981D01*
X125942025Y-95344981D01*
X126044667Y-95370098D01*
X126044674Y-95370099D01*
X126045514Y-95370305D01*
X126151417Y-95388312D01*
X126152287Y-95388397D01*
X126152298Y-95388398D01*
X126203052Y-95393329D01*
X126258335Y-95398701D01*
X126259221Y-95398723D01*
X126259230Y-95398724D01*
X126358212Y-95401230D01*
X126365723Y-95401420D01*
X126429593Y-95398464D01*
X126472171Y-95396493D01*
X126472176Y-95396493D01*
X126473031Y-95396453D01*
X126579709Y-95383827D01*
X126580561Y-95383664D01*
X126580572Y-95383662D01*
X126632460Y-95373716D01*
X126685210Y-95363606D01*
X126686057Y-95363380D01*
X126686065Y-95363378D01*
X126755747Y-95344772D01*
X126788997Y-95335894D01*
X126890536Y-95300832D01*
X126989308Y-95258600D01*
X127084809Y-95209414D01*
X127176548Y-95153526D01*
X127238302Y-95109559D01*
X127263347Y-95091728D01*
X127263356Y-95091721D01*
X127264057Y-95091222D01*
X127264725Y-95090671D01*
X127264732Y-95090665D01*
X127346215Y-95023375D01*
X127346216Y-95023374D01*
X127346887Y-95022820D01*
X127424614Y-94948672D01*
X127425186Y-94948042D01*
X127425196Y-94948032D01*
X127496254Y-94869802D01*
X127496841Y-94869156D01*
X127563198Y-94784680D01*
X127604967Y-94722872D01*
X127622852Y-94696407D01*
X127622860Y-94696394D01*
X127623346Y-94695675D01*
X127676976Y-94602598D01*
X127723814Y-94505924D01*
X127763620Y-94406149D01*
X127796191Y-94303784D01*
X127813747Y-94230939D01*
X127821152Y-94200210D01*
X127821359Y-94199351D01*
X127838996Y-94093387D01*
X127849012Y-93986433D01*
X127851200Y-93910482D01*
X129928535Y-93910482D01*
X129933127Y-94017806D01*
X129945380Y-94124528D01*
X129945541Y-94125386D01*
X129945543Y-94125397D01*
X129959612Y-94200210D01*
X129965233Y-94230100D01*
X129992583Y-94333982D01*
X130027290Y-94435643D01*
X130069177Y-94534562D01*
X130069572Y-94535336D01*
X130069575Y-94535342D01*
X130104297Y-94603342D01*
X130118029Y-94630234D01*
X130145813Y-94676201D01*
X130173148Y-94721425D01*
X130173155Y-94721435D01*
X130173597Y-94722167D01*
X130174092Y-94722867D01*
X130174095Y-94722872D01*
X130235087Y-94809175D01*
X130235095Y-94809185D01*
X130235595Y-94809893D01*
X130303707Y-94892961D01*
X130377583Y-94970947D01*
X130378227Y-94971536D01*
X130378230Y-94971539D01*
X130456196Y-95042856D01*
X130456203Y-95042862D01*
X130456847Y-95043451D01*
X130541091Y-95110103D01*
X130541807Y-95110590D01*
X130541809Y-95110592D01*
X130629166Y-95170072D01*
X130629177Y-95170079D01*
X130629885Y-95170561D01*
X130722775Y-95224515D01*
X130791683Y-95258198D01*
X130818502Y-95271308D01*
X130818508Y-95271311D01*
X130819284Y-95271690D01*
X130820094Y-95272016D01*
X130820093Y-95272016D01*
X130918114Y-95311521D01*
X130918124Y-95311525D01*
X130918919Y-95311845D01*
X131021171Y-95344772D01*
X131022024Y-95344981D01*
X131022025Y-95344981D01*
X131124667Y-95370098D01*
X131124674Y-95370099D01*
X131125514Y-95370305D01*
X131231417Y-95388312D01*
X131232287Y-95388397D01*
X131232298Y-95388398D01*
X131283052Y-95393329D01*
X131338335Y-95398701D01*
X131339221Y-95398723D01*
X131339230Y-95398724D01*
X131438212Y-95401230D01*
X131445723Y-95401420D01*
X131509593Y-95398464D01*
X131552171Y-95396493D01*
X131552176Y-95396493D01*
X131553031Y-95396453D01*
X131659709Y-95383827D01*
X131660561Y-95383664D01*
X131660572Y-95383662D01*
X131712460Y-95373716D01*
X131765210Y-95363606D01*
X131766057Y-95363380D01*
X131766065Y-95363378D01*
X131835747Y-95344772D01*
X131868997Y-95335894D01*
X131970536Y-95300832D01*
X132069308Y-95258600D01*
X132164809Y-95209414D01*
X132256548Y-95153526D01*
X132318302Y-95109559D01*
X132343347Y-95091728D01*
X132343356Y-95091721D01*
X132344057Y-95091222D01*
X132344725Y-95090671D01*
X132344732Y-95090665D01*
X132426215Y-95023375D01*
X132426216Y-95023374D01*
X132426887Y-95022820D01*
X132504614Y-94948672D01*
X132505186Y-94948042D01*
X132505196Y-94948032D01*
X132576254Y-94869802D01*
X132576841Y-94869156D01*
X132643198Y-94784680D01*
X132659509Y-94760544D01*
X132673098Y-94747097D01*
X132690799Y-94739873D01*
X132709918Y-94739973D01*
X132727543Y-94747382D01*
X132740123Y-94759701D01*
X132775087Y-94809175D01*
X132775095Y-94809185D01*
X132775595Y-94809893D01*
X132843707Y-94892961D01*
X132917583Y-94970947D01*
X132918227Y-94971536D01*
X132918230Y-94971539D01*
X132996196Y-95042856D01*
X132996203Y-95042862D01*
X132996847Y-95043451D01*
X133081091Y-95110103D01*
X133081807Y-95110590D01*
X133081809Y-95110592D01*
X133169166Y-95170072D01*
X133169177Y-95170079D01*
X133169885Y-95170561D01*
X133262775Y-95224515D01*
X133331683Y-95258198D01*
X133358502Y-95271308D01*
X133358508Y-95271311D01*
X133359284Y-95271690D01*
X133360094Y-95272016D01*
X133360093Y-95272016D01*
X133458114Y-95311521D01*
X133458124Y-95311525D01*
X133458919Y-95311845D01*
X133561171Y-95344772D01*
X133562024Y-95344981D01*
X133562025Y-95344981D01*
X133664667Y-95370098D01*
X133664674Y-95370099D01*
X133665514Y-95370305D01*
X133771417Y-95388312D01*
X133772287Y-95388397D01*
X133772298Y-95388398D01*
X133823052Y-95393329D01*
X133878335Y-95398701D01*
X133879221Y-95398723D01*
X133879230Y-95398724D01*
X133978212Y-95401230D01*
X133985723Y-95401420D01*
X134049593Y-95398464D01*
X134092171Y-95396493D01*
X134092176Y-95396493D01*
X134093031Y-95396453D01*
X134199709Y-95383827D01*
X134200561Y-95383664D01*
X134200572Y-95383662D01*
X134252460Y-95373716D01*
X134305210Y-95363606D01*
X134306057Y-95363380D01*
X134306065Y-95363378D01*
X134375747Y-95344772D01*
X134408997Y-95335894D01*
X134510536Y-95300832D01*
X134609308Y-95258600D01*
X134704809Y-95209414D01*
X134796548Y-95153526D01*
X134858302Y-95109559D01*
X134883347Y-95091728D01*
X134883356Y-95091721D01*
X134884057Y-95091222D01*
X134884725Y-95090671D01*
X134884732Y-95090665D01*
X134966215Y-95023375D01*
X134966216Y-95023374D01*
X134966887Y-95022820D01*
X135044614Y-94948672D01*
X135045186Y-94948042D01*
X135045196Y-94948032D01*
X135116254Y-94869802D01*
X135116841Y-94869156D01*
X135183198Y-94784680D01*
X135199509Y-94760544D01*
X135213098Y-94747097D01*
X135230799Y-94739873D01*
X135249918Y-94739973D01*
X135267543Y-94747382D01*
X135280123Y-94759701D01*
X135315087Y-94809175D01*
X135315095Y-94809185D01*
X135315595Y-94809893D01*
X135383707Y-94892961D01*
X135457583Y-94970947D01*
X135458227Y-94971536D01*
X135458230Y-94971539D01*
X135536196Y-95042856D01*
X135536203Y-95042862D01*
X135536847Y-95043451D01*
X135621091Y-95110103D01*
X135621807Y-95110590D01*
X135621809Y-95110592D01*
X135709166Y-95170072D01*
X135709177Y-95170079D01*
X135709885Y-95170561D01*
X135802775Y-95224515D01*
X135871683Y-95258198D01*
X135898502Y-95271308D01*
X135898508Y-95271311D01*
X135899284Y-95271690D01*
X135900094Y-95272016D01*
X135900093Y-95272016D01*
X135998114Y-95311521D01*
X135998124Y-95311525D01*
X135998919Y-95311845D01*
X136101171Y-95344772D01*
X136102024Y-95344981D01*
X136102025Y-95344981D01*
X136204667Y-95370098D01*
X136204674Y-95370099D01*
X136205514Y-95370305D01*
X136311417Y-95388312D01*
X136312287Y-95388397D01*
X136312298Y-95388398D01*
X136363052Y-95393329D01*
X136418335Y-95398701D01*
X136419221Y-95398723D01*
X136419230Y-95398724D01*
X136518212Y-95401230D01*
X136525723Y-95401420D01*
X136589593Y-95398464D01*
X136632171Y-95396493D01*
X136632176Y-95396493D01*
X136633031Y-95396453D01*
X136739709Y-95383827D01*
X136740561Y-95383664D01*
X136740572Y-95383662D01*
X136792460Y-95373716D01*
X136845210Y-95363606D01*
X136846057Y-95363380D01*
X136846065Y-95363378D01*
X136915747Y-95344772D01*
X136948997Y-95335894D01*
X137050536Y-95300832D01*
X137149308Y-95258600D01*
X137244809Y-95209414D01*
X137336548Y-95153526D01*
X137398302Y-95109559D01*
X137423347Y-95091728D01*
X137423356Y-95091721D01*
X137424057Y-95091222D01*
X137424725Y-95090671D01*
X137424732Y-95090665D01*
X137506215Y-95023375D01*
X137506216Y-95023374D01*
X137506887Y-95022820D01*
X137584614Y-94948672D01*
X137585186Y-94948042D01*
X137585196Y-94948032D01*
X137656254Y-94869802D01*
X137656841Y-94869156D01*
X137723198Y-94784680D01*
X137739509Y-94760544D01*
X137753098Y-94747097D01*
X137770799Y-94739873D01*
X137789918Y-94739973D01*
X137807543Y-94747382D01*
X137820123Y-94759701D01*
X137855087Y-94809175D01*
X137855095Y-94809185D01*
X137855595Y-94809893D01*
X137923707Y-94892961D01*
X137997583Y-94970947D01*
X137998227Y-94971536D01*
X137998230Y-94971539D01*
X138076196Y-95042856D01*
X138076203Y-95042862D01*
X138076847Y-95043451D01*
X138161091Y-95110103D01*
X138161807Y-95110590D01*
X138161809Y-95110592D01*
X138249166Y-95170072D01*
X138249177Y-95170079D01*
X138249885Y-95170561D01*
X138342775Y-95224515D01*
X138411683Y-95258198D01*
X138438502Y-95271308D01*
X138438508Y-95271311D01*
X138439284Y-95271690D01*
X138440094Y-95272016D01*
X138440093Y-95272016D01*
X138538114Y-95311521D01*
X138538124Y-95311525D01*
X138538919Y-95311845D01*
X138641171Y-95344772D01*
X138642024Y-95344981D01*
X138642025Y-95344981D01*
X138744667Y-95370098D01*
X138744674Y-95370099D01*
X138745514Y-95370305D01*
X138851417Y-95388312D01*
X138852287Y-95388397D01*
X138852298Y-95388398D01*
X138903052Y-95393329D01*
X138958335Y-95398701D01*
X138959221Y-95398723D01*
X138959230Y-95398724D01*
X139058212Y-95401230D01*
X139065723Y-95401420D01*
X139129593Y-95398464D01*
X139172171Y-95396493D01*
X139172176Y-95396493D01*
X139173031Y-95396453D01*
X139279709Y-95383827D01*
X139280561Y-95383664D01*
X139280572Y-95383662D01*
X139332460Y-95373716D01*
X139385210Y-95363606D01*
X139386057Y-95363380D01*
X139386065Y-95363378D01*
X139455747Y-95344772D01*
X139488997Y-95335894D01*
X139590536Y-95300832D01*
X139689308Y-95258600D01*
X139784809Y-95209414D01*
X139876548Y-95153526D01*
X139938302Y-95109559D01*
X139963347Y-95091728D01*
X139963356Y-95091721D01*
X139964057Y-95091222D01*
X139964725Y-95090671D01*
X139964732Y-95090665D01*
X140046215Y-95023375D01*
X140046216Y-95023374D01*
X140046887Y-95022820D01*
X140124614Y-94948672D01*
X140125186Y-94948042D01*
X140125196Y-94948032D01*
X140196254Y-94869802D01*
X140196841Y-94869156D01*
X140263198Y-94784680D01*
X140279509Y-94760544D01*
X140293098Y-94747097D01*
X140310799Y-94739873D01*
X140329918Y-94739973D01*
X140347543Y-94747382D01*
X140360123Y-94759701D01*
X140395087Y-94809175D01*
X140395095Y-94809185D01*
X140395595Y-94809893D01*
X140463707Y-94892961D01*
X140537583Y-94970947D01*
X140538227Y-94971536D01*
X140538230Y-94971539D01*
X140616196Y-95042856D01*
X140616203Y-95042862D01*
X140616847Y-95043451D01*
X140701091Y-95110103D01*
X140701807Y-95110590D01*
X140701809Y-95110592D01*
X140789166Y-95170072D01*
X140789177Y-95170079D01*
X140789885Y-95170561D01*
X140882775Y-95224515D01*
X140951683Y-95258198D01*
X140978502Y-95271308D01*
X140978508Y-95271311D01*
X140979284Y-95271690D01*
X140980094Y-95272016D01*
X140980093Y-95272016D01*
X141078114Y-95311521D01*
X141078124Y-95311525D01*
X141078919Y-95311845D01*
X141181171Y-95344772D01*
X141182024Y-95344981D01*
X141182025Y-95344981D01*
X141284667Y-95370098D01*
X141284674Y-95370099D01*
X141285514Y-95370305D01*
X141391417Y-95388312D01*
X141392287Y-95388397D01*
X141392298Y-95388398D01*
X141443052Y-95393329D01*
X141498335Y-95398701D01*
X141499221Y-95398723D01*
X141499230Y-95398724D01*
X141598212Y-95401230D01*
X141605723Y-95401420D01*
X141669593Y-95398464D01*
X141712171Y-95396493D01*
X141712176Y-95396493D01*
X141713031Y-95396453D01*
X141819709Y-95383827D01*
X141820561Y-95383664D01*
X141820572Y-95383662D01*
X141872460Y-95373716D01*
X141925210Y-95363606D01*
X141926057Y-95363380D01*
X141926065Y-95363378D01*
X141995747Y-95344772D01*
X142028997Y-95335894D01*
X142130536Y-95300832D01*
X142229308Y-95258600D01*
X142324809Y-95209414D01*
X142416548Y-95153526D01*
X142478302Y-95109559D01*
X142503347Y-95091728D01*
X142503356Y-95091721D01*
X142504057Y-95091222D01*
X142504725Y-95090671D01*
X142504732Y-95090665D01*
X142586215Y-95023375D01*
X142586216Y-95023374D01*
X142586887Y-95022820D01*
X142664614Y-94948672D01*
X142665186Y-94948042D01*
X142665196Y-94948032D01*
X142736254Y-94869802D01*
X142736841Y-94869156D01*
X142803198Y-94784680D01*
X142819509Y-94760544D01*
X142833098Y-94747097D01*
X142850799Y-94739873D01*
X142869918Y-94739973D01*
X142887543Y-94747382D01*
X142900123Y-94759701D01*
X142935087Y-94809175D01*
X142935095Y-94809185D01*
X142935595Y-94809893D01*
X143003707Y-94892961D01*
X143077583Y-94970947D01*
X143078227Y-94971536D01*
X143078230Y-94971539D01*
X143156196Y-95042856D01*
X143156203Y-95042862D01*
X143156847Y-95043451D01*
X143241091Y-95110103D01*
X143241807Y-95110590D01*
X143241809Y-95110592D01*
X143329166Y-95170072D01*
X143329177Y-95170079D01*
X143329885Y-95170561D01*
X143422775Y-95224515D01*
X143491683Y-95258198D01*
X143518502Y-95271308D01*
X143518508Y-95271311D01*
X143519284Y-95271690D01*
X143520094Y-95272016D01*
X143520093Y-95272016D01*
X143618114Y-95311521D01*
X143618124Y-95311525D01*
X143618919Y-95311845D01*
X143721171Y-95344772D01*
X143722024Y-95344981D01*
X143722025Y-95344981D01*
X143824667Y-95370098D01*
X143824674Y-95370099D01*
X143825514Y-95370305D01*
X143931417Y-95388312D01*
X143932287Y-95388397D01*
X143932298Y-95388398D01*
X143983052Y-95393329D01*
X144038335Y-95398701D01*
X144039221Y-95398723D01*
X144039230Y-95398724D01*
X144138212Y-95401230D01*
X144145723Y-95401420D01*
X144209593Y-95398464D01*
X144252171Y-95396493D01*
X144252176Y-95396493D01*
X144253031Y-95396453D01*
X144359709Y-95383827D01*
X144360561Y-95383664D01*
X144360572Y-95383662D01*
X144412460Y-95373716D01*
X144465210Y-95363606D01*
X144466057Y-95363380D01*
X144466065Y-95363378D01*
X144535747Y-95344772D01*
X144568997Y-95335894D01*
X144670536Y-95300832D01*
X144769308Y-95258600D01*
X144864809Y-95209414D01*
X144956548Y-95153526D01*
X145018302Y-95109559D01*
X145043347Y-95091728D01*
X145043356Y-95091721D01*
X145044057Y-95091222D01*
X145044725Y-95090671D01*
X145044732Y-95090665D01*
X145126215Y-95023375D01*
X145126216Y-95023374D01*
X145126887Y-95022820D01*
X145204614Y-94948672D01*
X145205186Y-94948042D01*
X145205196Y-94948032D01*
X145276254Y-94869802D01*
X145276841Y-94869156D01*
X145343198Y-94784680D01*
X145359509Y-94760544D01*
X145373098Y-94747097D01*
X145390799Y-94739873D01*
X145409918Y-94739973D01*
X145427543Y-94747382D01*
X145440123Y-94759701D01*
X145475087Y-94809175D01*
X145475095Y-94809185D01*
X145475595Y-94809893D01*
X145543707Y-94892961D01*
X145617583Y-94970947D01*
X145618227Y-94971536D01*
X145618230Y-94971539D01*
X145696196Y-95042856D01*
X145696203Y-95042862D01*
X145696847Y-95043451D01*
X145781091Y-95110103D01*
X145781807Y-95110590D01*
X145781809Y-95110592D01*
X145869166Y-95170072D01*
X145869177Y-95170079D01*
X145869885Y-95170561D01*
X145962775Y-95224515D01*
X146031683Y-95258198D01*
X146058502Y-95271308D01*
X146058508Y-95271311D01*
X146059284Y-95271690D01*
X146060094Y-95272016D01*
X146060093Y-95272016D01*
X146158114Y-95311521D01*
X146158124Y-95311525D01*
X146158919Y-95311845D01*
X146261171Y-95344772D01*
X146262024Y-95344981D01*
X146262025Y-95344981D01*
X146364667Y-95370098D01*
X146364674Y-95370099D01*
X146365514Y-95370305D01*
X146471417Y-95388312D01*
X146472287Y-95388397D01*
X146472298Y-95388398D01*
X146523052Y-95393329D01*
X146578335Y-95398701D01*
X146579221Y-95398723D01*
X146579230Y-95398724D01*
X146678212Y-95401230D01*
X146685723Y-95401420D01*
X146749593Y-95398464D01*
X146792171Y-95396493D01*
X146792176Y-95396493D01*
X146793031Y-95396453D01*
X146899709Y-95383827D01*
X146900561Y-95383664D01*
X146900572Y-95383662D01*
X146952460Y-95373716D01*
X147005210Y-95363606D01*
X147006057Y-95363380D01*
X147006065Y-95363378D01*
X147075747Y-95344772D01*
X147108997Y-95335894D01*
X147210536Y-95300832D01*
X147309308Y-95258600D01*
X147404809Y-95209414D01*
X147496548Y-95153526D01*
X147558302Y-95109559D01*
X147583347Y-95091728D01*
X147583356Y-95091721D01*
X147584057Y-95091222D01*
X147584725Y-95090671D01*
X147584732Y-95090665D01*
X147666215Y-95023375D01*
X147666216Y-95023374D01*
X147666887Y-95022820D01*
X147744614Y-94948672D01*
X147745186Y-94948042D01*
X147745196Y-94948032D01*
X147816254Y-94869802D01*
X147816841Y-94869156D01*
X147883198Y-94784680D01*
X147899509Y-94760544D01*
X147913098Y-94747097D01*
X147930799Y-94739873D01*
X147949918Y-94739973D01*
X147967543Y-94747382D01*
X147980123Y-94759701D01*
X148015087Y-94809175D01*
X148015095Y-94809185D01*
X148015595Y-94809893D01*
X148083707Y-94892961D01*
X148157583Y-94970947D01*
X148158227Y-94971536D01*
X148158230Y-94971539D01*
X148236196Y-95042856D01*
X148236203Y-95042862D01*
X148236847Y-95043451D01*
X148321091Y-95110103D01*
X148321807Y-95110590D01*
X148321809Y-95110592D01*
X148409166Y-95170072D01*
X148409177Y-95170079D01*
X148409885Y-95170561D01*
X148502775Y-95224515D01*
X148571683Y-95258198D01*
X148598502Y-95271308D01*
X148598508Y-95271311D01*
X148599284Y-95271690D01*
X148600094Y-95272016D01*
X148600093Y-95272016D01*
X148698114Y-95311521D01*
X148698124Y-95311525D01*
X148698919Y-95311845D01*
X148801171Y-95344772D01*
X148802024Y-95344981D01*
X148802025Y-95344981D01*
X148904667Y-95370098D01*
X148904674Y-95370099D01*
X148905514Y-95370305D01*
X149011417Y-95388312D01*
X149012287Y-95388397D01*
X149012298Y-95388398D01*
X149063052Y-95393329D01*
X149118335Y-95398701D01*
X149119221Y-95398723D01*
X149119230Y-95398724D01*
X149218212Y-95401230D01*
X149225723Y-95401420D01*
X149289593Y-95398464D01*
X149332171Y-95396493D01*
X149332176Y-95396493D01*
X149333031Y-95396453D01*
X149439709Y-95383827D01*
X149440561Y-95383664D01*
X149440572Y-95383662D01*
X149492460Y-95373716D01*
X149545210Y-95363606D01*
X149546057Y-95363380D01*
X149546065Y-95363378D01*
X149615747Y-95344772D01*
X149648997Y-95335894D01*
X149750536Y-95300832D01*
X149849308Y-95258600D01*
X149944809Y-95209414D01*
X150036548Y-95153526D01*
X150098302Y-95109559D01*
X150123347Y-95091728D01*
X150123356Y-95091721D01*
X150124057Y-95091222D01*
X150124725Y-95090671D01*
X150124732Y-95090665D01*
X150206215Y-95023375D01*
X150206216Y-95023374D01*
X150206887Y-95022820D01*
X150284614Y-94948672D01*
X150285186Y-94948042D01*
X150285196Y-94948032D01*
X150356254Y-94869802D01*
X150356841Y-94869156D01*
X150423198Y-94784680D01*
X150439509Y-94760544D01*
X150453098Y-94747097D01*
X150470799Y-94739873D01*
X150489918Y-94739973D01*
X150507543Y-94747382D01*
X150520123Y-94759701D01*
X150555087Y-94809175D01*
X150555095Y-94809185D01*
X150555595Y-94809893D01*
X150623707Y-94892961D01*
X150697583Y-94970947D01*
X150698227Y-94971536D01*
X150698230Y-94971539D01*
X150776196Y-95042856D01*
X150776203Y-95042862D01*
X150776847Y-95043451D01*
X150861091Y-95110103D01*
X150861807Y-95110590D01*
X150861809Y-95110592D01*
X150949166Y-95170072D01*
X150949177Y-95170079D01*
X150949885Y-95170561D01*
X151042775Y-95224515D01*
X151111683Y-95258198D01*
X151138502Y-95271308D01*
X151138508Y-95271311D01*
X151139284Y-95271690D01*
X151140094Y-95272016D01*
X151140093Y-95272016D01*
X151238114Y-95311521D01*
X151238124Y-95311525D01*
X151238919Y-95311845D01*
X151341171Y-95344772D01*
X151342024Y-95344981D01*
X151342025Y-95344981D01*
X151444667Y-95370098D01*
X151444674Y-95370099D01*
X151445514Y-95370305D01*
X151551417Y-95388312D01*
X151552287Y-95388397D01*
X151552298Y-95388398D01*
X151603052Y-95393329D01*
X151658335Y-95398701D01*
X151659221Y-95398723D01*
X151659230Y-95398724D01*
X151758212Y-95401230D01*
X151765723Y-95401420D01*
X151829593Y-95398464D01*
X151872171Y-95396493D01*
X151872176Y-95396493D01*
X151873031Y-95396453D01*
X151979709Y-95383827D01*
X151980561Y-95383664D01*
X151980572Y-95383662D01*
X152032460Y-95373716D01*
X152085210Y-95363606D01*
X152086057Y-95363380D01*
X152086065Y-95363378D01*
X152155747Y-95344772D01*
X152188997Y-95335894D01*
X152290536Y-95300832D01*
X152389308Y-95258600D01*
X152484809Y-95209414D01*
X152576548Y-95153526D01*
X152638302Y-95109559D01*
X152663347Y-95091728D01*
X152663356Y-95091721D01*
X152664057Y-95091222D01*
X152664725Y-95090671D01*
X152664732Y-95090665D01*
X152746215Y-95023375D01*
X152746216Y-95023374D01*
X152746887Y-95022820D01*
X152824614Y-94948672D01*
X152825186Y-94948042D01*
X152825196Y-94948032D01*
X152896254Y-94869802D01*
X152896841Y-94869156D01*
X152963198Y-94784680D01*
X152979509Y-94760544D01*
X152993098Y-94747097D01*
X153010799Y-94739873D01*
X153029918Y-94739973D01*
X153047543Y-94747382D01*
X153060123Y-94759701D01*
X153095087Y-94809175D01*
X153095095Y-94809185D01*
X153095595Y-94809893D01*
X153163707Y-94892961D01*
X153237583Y-94970947D01*
X153238227Y-94971536D01*
X153238230Y-94971539D01*
X153316196Y-95042856D01*
X153316203Y-95042862D01*
X153316847Y-95043451D01*
X153401091Y-95110103D01*
X153401807Y-95110590D01*
X153401809Y-95110592D01*
X153489166Y-95170072D01*
X153489177Y-95170079D01*
X153489885Y-95170561D01*
X153582775Y-95224515D01*
X153651683Y-95258198D01*
X153678502Y-95271308D01*
X153678508Y-95271311D01*
X153679284Y-95271690D01*
X153680094Y-95272016D01*
X153680093Y-95272016D01*
X153778114Y-95311521D01*
X153778124Y-95311525D01*
X153778919Y-95311845D01*
X153881171Y-95344772D01*
X153882024Y-95344981D01*
X153882025Y-95344981D01*
X153984667Y-95370098D01*
X153984674Y-95370099D01*
X153985514Y-95370305D01*
X154091417Y-95388312D01*
X154092287Y-95388397D01*
X154092298Y-95388398D01*
X154143052Y-95393329D01*
X154198335Y-95398701D01*
X154199221Y-95398723D01*
X154199230Y-95398724D01*
X154298212Y-95401230D01*
X154305723Y-95401420D01*
X154369593Y-95398464D01*
X154412171Y-95396493D01*
X154412176Y-95396493D01*
X154413031Y-95396453D01*
X154519709Y-95383827D01*
X154520561Y-95383664D01*
X154520572Y-95383662D01*
X154572460Y-95373716D01*
X154625210Y-95363606D01*
X154626057Y-95363380D01*
X154626065Y-95363378D01*
X154695747Y-95344772D01*
X154728997Y-95335894D01*
X154830536Y-95300832D01*
X154929308Y-95258600D01*
X155024809Y-95209414D01*
X155116548Y-95153526D01*
X155178302Y-95109559D01*
X155203347Y-95091728D01*
X155203356Y-95091721D01*
X155204057Y-95091222D01*
X155204725Y-95090671D01*
X155204732Y-95090665D01*
X155286215Y-95023375D01*
X155286216Y-95023374D01*
X155286887Y-95022820D01*
X155364614Y-94948672D01*
X155365186Y-94948042D01*
X155365196Y-94948032D01*
X155436254Y-94869802D01*
X155436841Y-94869156D01*
X155503198Y-94784680D01*
X155519509Y-94760544D01*
X155533098Y-94747097D01*
X155550799Y-94739873D01*
X155569918Y-94739973D01*
X155587543Y-94747382D01*
X155600123Y-94759701D01*
X155635087Y-94809175D01*
X155635095Y-94809185D01*
X155635595Y-94809893D01*
X155703707Y-94892961D01*
X155777583Y-94970947D01*
X155778227Y-94971536D01*
X155778230Y-94971539D01*
X155856196Y-95042856D01*
X155856203Y-95042862D01*
X155856847Y-95043451D01*
X155941091Y-95110103D01*
X155941807Y-95110590D01*
X155941809Y-95110592D01*
X156029166Y-95170072D01*
X156029177Y-95170079D01*
X156029885Y-95170561D01*
X156122775Y-95224515D01*
X156191683Y-95258198D01*
X156218502Y-95271308D01*
X156218508Y-95271311D01*
X156219284Y-95271690D01*
X156220094Y-95272016D01*
X156220093Y-95272016D01*
X156318114Y-95311521D01*
X156318124Y-95311525D01*
X156318919Y-95311845D01*
X156421171Y-95344772D01*
X156422024Y-95344981D01*
X156422025Y-95344981D01*
X156524667Y-95370098D01*
X156524674Y-95370099D01*
X156525514Y-95370305D01*
X156631417Y-95388312D01*
X156632287Y-95388397D01*
X156632298Y-95388398D01*
X156683052Y-95393329D01*
X156738335Y-95398701D01*
X156739221Y-95398723D01*
X156739230Y-95398724D01*
X156838212Y-95401230D01*
X156845723Y-95401420D01*
X156909593Y-95398464D01*
X156952171Y-95396493D01*
X156952176Y-95396493D01*
X156953031Y-95396453D01*
X157059709Y-95383827D01*
X157060561Y-95383664D01*
X157060572Y-95383662D01*
X157112460Y-95373716D01*
X157165210Y-95363606D01*
X157166057Y-95363380D01*
X157166065Y-95363378D01*
X157235747Y-95344772D01*
X157268997Y-95335894D01*
X157370536Y-95300832D01*
X157469308Y-95258600D01*
X157564809Y-95209414D01*
X157656548Y-95153526D01*
X157718302Y-95109559D01*
X157743347Y-95091728D01*
X157743356Y-95091721D01*
X157744057Y-95091222D01*
X157744725Y-95090671D01*
X157744732Y-95090665D01*
X157826215Y-95023375D01*
X157826216Y-95023374D01*
X157826887Y-95022820D01*
X157904614Y-94948672D01*
X157905186Y-94948042D01*
X157905196Y-94948032D01*
X157976254Y-94869802D01*
X157976841Y-94869156D01*
X158043198Y-94784680D01*
X158059509Y-94760544D01*
X158073098Y-94747097D01*
X158090799Y-94739873D01*
X158109918Y-94739973D01*
X158127543Y-94747382D01*
X158140123Y-94759701D01*
X158175087Y-94809175D01*
X158175095Y-94809185D01*
X158175595Y-94809893D01*
X158243707Y-94892961D01*
X158317583Y-94970947D01*
X158318227Y-94971536D01*
X158318230Y-94971539D01*
X158396196Y-95042856D01*
X158396203Y-95042862D01*
X158396847Y-95043451D01*
X158481091Y-95110103D01*
X158481807Y-95110590D01*
X158481809Y-95110592D01*
X158569166Y-95170072D01*
X158569177Y-95170079D01*
X158569885Y-95170561D01*
X158662775Y-95224515D01*
X158731683Y-95258198D01*
X158758502Y-95271308D01*
X158758508Y-95271311D01*
X158759284Y-95271690D01*
X158760094Y-95272016D01*
X158760093Y-95272016D01*
X158858114Y-95311521D01*
X158858124Y-95311525D01*
X158858919Y-95311845D01*
X158961171Y-95344772D01*
X158962024Y-95344981D01*
X158962025Y-95344981D01*
X159064667Y-95370098D01*
X159064674Y-95370099D01*
X159065514Y-95370305D01*
X159171417Y-95388312D01*
X159172287Y-95388397D01*
X159172298Y-95388398D01*
X159223052Y-95393329D01*
X159278335Y-95398701D01*
X159279221Y-95398723D01*
X159279230Y-95398724D01*
X159378212Y-95401230D01*
X159385723Y-95401420D01*
X159449593Y-95398464D01*
X159492171Y-95396493D01*
X159492176Y-95396493D01*
X159493031Y-95396453D01*
X159599709Y-95383827D01*
X159600561Y-95383664D01*
X159600572Y-95383662D01*
X159652460Y-95373716D01*
X159705210Y-95363606D01*
X159706057Y-95363380D01*
X159706065Y-95363378D01*
X159775747Y-95344772D01*
X159808997Y-95335894D01*
X159910536Y-95300832D01*
X160009308Y-95258600D01*
X160104809Y-95209414D01*
X160196548Y-95153526D01*
X160258302Y-95109559D01*
X160283347Y-95091728D01*
X160283356Y-95091721D01*
X160284057Y-95091222D01*
X160284725Y-95090671D01*
X160284732Y-95090665D01*
X160366215Y-95023375D01*
X160366216Y-95023374D01*
X160366887Y-95022820D01*
X160444614Y-94948672D01*
X160445186Y-94948042D01*
X160445196Y-94948032D01*
X160516254Y-94869802D01*
X160516841Y-94869156D01*
X160583198Y-94784680D01*
X160599509Y-94760544D01*
X160613098Y-94747097D01*
X160630799Y-94739873D01*
X160649918Y-94739973D01*
X160667543Y-94747382D01*
X160680123Y-94759701D01*
X160715087Y-94809175D01*
X160715095Y-94809185D01*
X160715595Y-94809893D01*
X160783707Y-94892961D01*
X160857583Y-94970947D01*
X160858227Y-94971536D01*
X160858230Y-94971539D01*
X160936196Y-95042856D01*
X160936203Y-95042862D01*
X160936847Y-95043451D01*
X161021091Y-95110103D01*
X161021807Y-95110590D01*
X161021809Y-95110592D01*
X161109166Y-95170072D01*
X161109177Y-95170079D01*
X161109885Y-95170561D01*
X161202775Y-95224515D01*
X161271683Y-95258198D01*
X161298502Y-95271308D01*
X161298508Y-95271311D01*
X161299284Y-95271690D01*
X161300094Y-95272016D01*
X161300093Y-95272016D01*
X161398114Y-95311521D01*
X161398124Y-95311525D01*
X161398919Y-95311845D01*
X161501171Y-95344772D01*
X161502024Y-95344981D01*
X161502025Y-95344981D01*
X161604667Y-95370098D01*
X161604674Y-95370099D01*
X161605514Y-95370305D01*
X161711417Y-95388312D01*
X161712287Y-95388397D01*
X161712298Y-95388398D01*
X161763052Y-95393329D01*
X161818335Y-95398701D01*
X161819221Y-95398723D01*
X161819230Y-95398724D01*
X161918212Y-95401230D01*
X161925723Y-95401420D01*
X161989593Y-95398464D01*
X162032171Y-95396493D01*
X162032176Y-95396493D01*
X162033031Y-95396453D01*
X162139709Y-95383827D01*
X162140561Y-95383664D01*
X162140572Y-95383662D01*
X162192460Y-95373716D01*
X162245210Y-95363606D01*
X162246057Y-95363380D01*
X162246065Y-95363378D01*
X162315747Y-95344772D01*
X162348997Y-95335894D01*
X162450536Y-95300832D01*
X162549308Y-95258600D01*
X162644809Y-95209414D01*
X162736548Y-95153526D01*
X162798302Y-95109559D01*
X162823347Y-95091728D01*
X162823356Y-95091721D01*
X162824057Y-95091222D01*
X162824725Y-95090671D01*
X162824732Y-95090665D01*
X162906215Y-95023375D01*
X162906216Y-95023374D01*
X162906887Y-95022820D01*
X162984614Y-94948672D01*
X162985186Y-94948042D01*
X162985196Y-94948032D01*
X163056254Y-94869802D01*
X163056841Y-94869156D01*
X163123198Y-94784680D01*
X163164967Y-94722872D01*
X163182852Y-94696407D01*
X163182860Y-94696394D01*
X163183346Y-94695675D01*
X163236976Y-94602598D01*
X163283814Y-94505924D01*
X163323620Y-94406149D01*
X163356191Y-94303784D01*
X163373747Y-94230939D01*
X163381152Y-94200210D01*
X163381359Y-94199351D01*
X163398996Y-94093387D01*
X163409012Y-93986433D01*
X163411502Y-93900000D01*
X163408034Y-93803105D01*
X163407690Y-93793509D01*
X163407690Y-93793506D01*
X163407659Y-93792646D01*
X163407566Y-93791782D01*
X163396245Y-93686711D01*
X163396244Y-93686701D01*
X163396151Y-93685842D01*
X163395998Y-93684996D01*
X163395996Y-93684982D01*
X163377195Y-93581014D01*
X163377036Y-93580134D01*
X163350412Y-93476064D01*
X163316415Y-93374163D01*
X163316077Y-93373349D01*
X163275557Y-93275765D01*
X163275554Y-93275759D01*
X163275220Y-93274954D01*
X163227037Y-93178943D01*
X163172112Y-93086624D01*
X163110728Y-92998468D01*
X163090721Y-92973717D01*
X163043761Y-92915622D01*
X163043755Y-92915615D01*
X163043198Y-92914926D01*
X162969868Y-92836426D01*
X162891112Y-92763370D01*
X162873662Y-92749365D01*
X162808030Y-92696689D01*
X162808016Y-92696679D01*
X162807335Y-92696132D01*
X162718965Y-92635056D01*
X162683965Y-92614398D01*
X162627206Y-92580897D01*
X162627200Y-92580894D01*
X162626455Y-92580454D01*
X162625686Y-92580071D01*
X162625676Y-92580066D01*
X162578880Y-92556786D01*
X162530277Y-92532607D01*
X162430925Y-92491758D01*
X162328906Y-92458117D01*
X162234465Y-92434308D01*
X162225592Y-92432071D01*
X162225591Y-92432071D01*
X162224743Y-92431857D01*
X162209038Y-92429074D01*
X162119840Y-92413265D01*
X162119830Y-92413264D01*
X162118969Y-92413111D01*
X162042387Y-92405129D01*
X162013000Y-92402066D01*
X162012995Y-92402066D01*
X162012125Y-92401975D01*
X162011250Y-92401947D01*
X162011239Y-92401946D01*
X161925959Y-92399192D01*
X161904759Y-92398507D01*
X161903868Y-92398542D01*
X161903867Y-92398542D01*
X161798307Y-92402690D01*
X161798304Y-92402690D01*
X161797419Y-92402725D01*
X161723790Y-92410919D01*
X161691553Y-92414506D01*
X161691548Y-92414507D01*
X161690656Y-92414606D01*
X161689781Y-92414767D01*
X161689770Y-92414769D01*
X161644780Y-92423067D01*
X161585015Y-92434090D01*
X161584176Y-92434308D01*
X161584175Y-92434308D01*
X161481888Y-92460856D01*
X161481878Y-92460859D01*
X161481038Y-92461077D01*
X161480214Y-92461355D01*
X161480201Y-92461359D01*
X161380086Y-92495149D01*
X161380081Y-92495151D01*
X161379257Y-92495429D01*
X161378460Y-92495763D01*
X161378450Y-92495767D01*
X161280988Y-92536636D01*
X161280983Y-92536638D01*
X161280192Y-92536970D01*
X161184351Y-92585488D01*
X161183590Y-92585944D01*
X161183587Y-92585946D01*
X161100843Y-92635565D01*
X161092223Y-92640734D01*
X161091494Y-92641245D01*
X161091490Y-92641248D01*
X161005008Y-92701916D01*
X161004995Y-92701926D01*
X161004282Y-92702426D01*
X161003597Y-92702984D01*
X161003590Y-92702989D01*
X160921667Y-92769685D01*
X160921660Y-92769691D01*
X160920976Y-92770248D01*
X160920330Y-92770856D01*
X160843366Y-92843255D01*
X160843358Y-92843263D01*
X160842733Y-92843851D01*
X160769953Y-92922861D01*
X160703007Y-93006872D01*
X160702506Y-93007602D01*
X160702502Y-93007608D01*
X160680370Y-93039870D01*
X160666687Y-93053223D01*
X160648935Y-93060323D01*
X160629818Y-93060089D01*
X160612245Y-93052557D01*
X160599752Y-93040151D01*
X160599557Y-93039870D01*
X160570728Y-92998468D01*
X160550721Y-92973717D01*
X160503761Y-92915622D01*
X160503755Y-92915615D01*
X160503198Y-92914926D01*
X160429868Y-92836426D01*
X160351112Y-92763370D01*
X160333662Y-92749365D01*
X160268030Y-92696689D01*
X160268016Y-92696679D01*
X160267335Y-92696132D01*
X160178965Y-92635056D01*
X160143965Y-92614398D01*
X160087206Y-92580897D01*
X160087200Y-92580894D01*
X160086455Y-92580454D01*
X160085686Y-92580071D01*
X160085676Y-92580066D01*
X160038880Y-92556786D01*
X159990277Y-92532607D01*
X159890925Y-92491758D01*
X159788906Y-92458117D01*
X159694465Y-92434308D01*
X159685592Y-92432071D01*
X159685591Y-92432071D01*
X159684743Y-92431857D01*
X159669038Y-92429074D01*
X159579840Y-92413265D01*
X159579830Y-92413264D01*
X159578969Y-92413111D01*
X159502387Y-92405129D01*
X159473000Y-92402066D01*
X159472995Y-92402066D01*
X159472125Y-92401975D01*
X159471250Y-92401947D01*
X159471239Y-92401946D01*
X159385959Y-92399192D01*
X159364759Y-92398507D01*
X159363868Y-92398542D01*
X159363867Y-92398542D01*
X159258307Y-92402690D01*
X159258304Y-92402690D01*
X159257419Y-92402725D01*
X159183790Y-92410919D01*
X159151553Y-92414506D01*
X159151548Y-92414507D01*
X159150656Y-92414606D01*
X159149781Y-92414767D01*
X159149770Y-92414769D01*
X159104780Y-92423067D01*
X159045015Y-92434090D01*
X159044176Y-92434308D01*
X159044175Y-92434308D01*
X158941888Y-92460856D01*
X158941878Y-92460859D01*
X158941038Y-92461077D01*
X158940214Y-92461355D01*
X158940201Y-92461359D01*
X158840086Y-92495149D01*
X158840081Y-92495151D01*
X158839257Y-92495429D01*
X158838460Y-92495763D01*
X158838450Y-92495767D01*
X158740988Y-92536636D01*
X158740983Y-92536638D01*
X158740192Y-92536970D01*
X158644351Y-92585488D01*
X158643590Y-92585944D01*
X158643587Y-92585946D01*
X158560843Y-92635565D01*
X158552223Y-92640734D01*
X158551494Y-92641245D01*
X158551490Y-92641248D01*
X158465008Y-92701916D01*
X158464995Y-92701926D01*
X158464282Y-92702426D01*
X158463597Y-92702984D01*
X158463590Y-92702989D01*
X158381667Y-92769685D01*
X158381660Y-92769691D01*
X158380976Y-92770248D01*
X158380330Y-92770856D01*
X158303366Y-92843255D01*
X158303358Y-92843263D01*
X158302733Y-92843851D01*
X158229953Y-92922861D01*
X158163007Y-93006872D01*
X158162506Y-93007602D01*
X158162502Y-93007608D01*
X158140370Y-93039870D01*
X158126687Y-93053223D01*
X158108935Y-93060323D01*
X158089818Y-93060089D01*
X158072245Y-93052557D01*
X158059752Y-93040151D01*
X158059557Y-93039870D01*
X158030728Y-92998468D01*
X158010721Y-92973717D01*
X157963761Y-92915622D01*
X157963755Y-92915615D01*
X157963198Y-92914926D01*
X157889868Y-92836426D01*
X157811112Y-92763370D01*
X157793662Y-92749365D01*
X157728030Y-92696689D01*
X157728016Y-92696679D01*
X157727335Y-92696132D01*
X157638965Y-92635056D01*
X157603965Y-92614398D01*
X157547206Y-92580897D01*
X157547200Y-92580894D01*
X157546455Y-92580454D01*
X157545686Y-92580071D01*
X157545676Y-92580066D01*
X157498880Y-92556786D01*
X157450277Y-92532607D01*
X157350925Y-92491758D01*
X157248906Y-92458117D01*
X157154465Y-92434308D01*
X157145592Y-92432071D01*
X157145591Y-92432071D01*
X157144743Y-92431857D01*
X157129038Y-92429074D01*
X157039840Y-92413265D01*
X157039830Y-92413264D01*
X157038969Y-92413111D01*
X156962387Y-92405129D01*
X156933000Y-92402066D01*
X156932995Y-92402066D01*
X156932125Y-92401975D01*
X156931250Y-92401947D01*
X156931239Y-92401946D01*
X156845959Y-92399192D01*
X156824759Y-92398507D01*
X156823868Y-92398542D01*
X156823867Y-92398542D01*
X156718307Y-92402690D01*
X156718304Y-92402690D01*
X156717419Y-92402725D01*
X156643790Y-92410919D01*
X156611553Y-92414506D01*
X156611548Y-92414507D01*
X156610656Y-92414606D01*
X156609781Y-92414767D01*
X156609770Y-92414769D01*
X156564780Y-92423067D01*
X156505015Y-92434090D01*
X156504176Y-92434308D01*
X156504175Y-92434308D01*
X156401888Y-92460856D01*
X156401878Y-92460859D01*
X156401038Y-92461077D01*
X156400214Y-92461355D01*
X156400201Y-92461359D01*
X156300086Y-92495149D01*
X156300081Y-92495151D01*
X156299257Y-92495429D01*
X156298460Y-92495763D01*
X156298450Y-92495767D01*
X156200988Y-92536636D01*
X156200983Y-92536638D01*
X156200192Y-92536970D01*
X156104351Y-92585488D01*
X156103590Y-92585944D01*
X156103587Y-92585946D01*
X156020843Y-92635565D01*
X156012223Y-92640734D01*
X156011494Y-92641245D01*
X156011490Y-92641248D01*
X155925008Y-92701916D01*
X155924995Y-92701926D01*
X155924282Y-92702426D01*
X155923597Y-92702984D01*
X155923590Y-92702989D01*
X155841667Y-92769685D01*
X155841660Y-92769691D01*
X155840976Y-92770248D01*
X155840330Y-92770856D01*
X155763366Y-92843255D01*
X155763358Y-92843263D01*
X155762733Y-92843851D01*
X155689953Y-92922861D01*
X155623007Y-93006872D01*
X155622506Y-93007602D01*
X155622502Y-93007608D01*
X155600370Y-93039870D01*
X155586687Y-93053223D01*
X155568935Y-93060323D01*
X155549818Y-93060089D01*
X155532245Y-93052557D01*
X155519752Y-93040151D01*
X155519557Y-93039870D01*
X155490728Y-92998468D01*
X155470721Y-92973717D01*
X155423761Y-92915622D01*
X155423755Y-92915615D01*
X155423198Y-92914926D01*
X155349868Y-92836426D01*
X155271112Y-92763370D01*
X155253662Y-92749365D01*
X155188030Y-92696689D01*
X155188016Y-92696679D01*
X155187335Y-92696132D01*
X155098965Y-92635056D01*
X155063965Y-92614398D01*
X155007206Y-92580897D01*
X155007200Y-92580894D01*
X155006455Y-92580454D01*
X155005686Y-92580071D01*
X155005676Y-92580066D01*
X154958880Y-92556786D01*
X154910277Y-92532607D01*
X154810925Y-92491758D01*
X154708906Y-92458117D01*
X154614465Y-92434308D01*
X154605592Y-92432071D01*
X154605591Y-92432071D01*
X154604743Y-92431857D01*
X154589038Y-92429074D01*
X154499840Y-92413265D01*
X154499830Y-92413264D01*
X154498969Y-92413111D01*
X154422387Y-92405129D01*
X154393000Y-92402066D01*
X154392995Y-92402066D01*
X154392125Y-92401975D01*
X154391250Y-92401947D01*
X154391239Y-92401946D01*
X154305959Y-92399192D01*
X154284759Y-92398507D01*
X154283868Y-92398542D01*
X154283867Y-92398542D01*
X154178307Y-92402690D01*
X154178304Y-92402690D01*
X154177419Y-92402725D01*
X154103790Y-92410919D01*
X154071553Y-92414506D01*
X154071548Y-92414507D01*
X154070656Y-92414606D01*
X154069781Y-92414767D01*
X154069770Y-92414769D01*
X154024780Y-92423067D01*
X153965015Y-92434090D01*
X153964176Y-92434308D01*
X153964175Y-92434308D01*
X153861888Y-92460856D01*
X153861878Y-92460859D01*
X153861038Y-92461077D01*
X153860214Y-92461355D01*
X153860201Y-92461359D01*
X153760086Y-92495149D01*
X153760081Y-92495151D01*
X153759257Y-92495429D01*
X153758460Y-92495763D01*
X153758450Y-92495767D01*
X153660988Y-92536636D01*
X153660983Y-92536638D01*
X153660192Y-92536970D01*
X153564351Y-92585488D01*
X153563590Y-92585944D01*
X153563587Y-92585946D01*
X153480843Y-92635565D01*
X153472223Y-92640734D01*
X153471494Y-92641245D01*
X153471490Y-92641248D01*
X153385008Y-92701916D01*
X153384995Y-92701926D01*
X153384282Y-92702426D01*
X153383597Y-92702984D01*
X153383590Y-92702989D01*
X153301667Y-92769685D01*
X153301660Y-92769691D01*
X153300976Y-92770248D01*
X153300330Y-92770856D01*
X153223366Y-92843255D01*
X153223358Y-92843263D01*
X153222733Y-92843851D01*
X153149953Y-92922861D01*
X153083007Y-93006872D01*
X153082506Y-93007602D01*
X153082502Y-93007608D01*
X153060370Y-93039870D01*
X153046687Y-93053223D01*
X153028935Y-93060323D01*
X153009818Y-93060089D01*
X152992245Y-93052557D01*
X152979752Y-93040151D01*
X152979557Y-93039870D01*
X152950728Y-92998468D01*
X152930721Y-92973717D01*
X152883761Y-92915622D01*
X152883755Y-92915615D01*
X152883198Y-92914926D01*
X152809868Y-92836426D01*
X152731112Y-92763370D01*
X152713662Y-92749365D01*
X152648030Y-92696689D01*
X152648016Y-92696679D01*
X152647335Y-92696132D01*
X152558965Y-92635056D01*
X152523965Y-92614398D01*
X152467206Y-92580897D01*
X152467200Y-92580894D01*
X152466455Y-92580454D01*
X152465686Y-92580071D01*
X152465676Y-92580066D01*
X152418880Y-92556786D01*
X152370277Y-92532607D01*
X152270925Y-92491758D01*
X152168906Y-92458117D01*
X152074465Y-92434308D01*
X152065592Y-92432071D01*
X152065591Y-92432071D01*
X152064743Y-92431857D01*
X152049038Y-92429074D01*
X151959840Y-92413265D01*
X151959830Y-92413264D01*
X151958969Y-92413111D01*
X151882387Y-92405129D01*
X151853000Y-92402066D01*
X151852995Y-92402066D01*
X151852125Y-92401975D01*
X151851250Y-92401947D01*
X151851239Y-92401946D01*
X151765959Y-92399192D01*
X151744759Y-92398507D01*
X151743868Y-92398542D01*
X151743867Y-92398542D01*
X151638307Y-92402690D01*
X151638304Y-92402690D01*
X151637419Y-92402725D01*
X151563790Y-92410919D01*
X151531553Y-92414506D01*
X151531548Y-92414507D01*
X151530656Y-92414606D01*
X151529781Y-92414767D01*
X151529770Y-92414769D01*
X151484780Y-92423067D01*
X151425015Y-92434090D01*
X151424176Y-92434308D01*
X151424175Y-92434308D01*
X151321888Y-92460856D01*
X151321878Y-92460859D01*
X151321038Y-92461077D01*
X151320214Y-92461355D01*
X151320201Y-92461359D01*
X151220086Y-92495149D01*
X151220081Y-92495151D01*
X151219257Y-92495429D01*
X151218460Y-92495763D01*
X151218450Y-92495767D01*
X151120988Y-92536636D01*
X151120983Y-92536638D01*
X151120192Y-92536970D01*
X151024351Y-92585488D01*
X151023590Y-92585944D01*
X151023587Y-92585946D01*
X150940843Y-92635565D01*
X150932223Y-92640734D01*
X150931494Y-92641245D01*
X150931490Y-92641248D01*
X150845008Y-92701916D01*
X150844995Y-92701926D01*
X150844282Y-92702426D01*
X150843597Y-92702984D01*
X150843590Y-92702989D01*
X150761667Y-92769685D01*
X150761660Y-92769691D01*
X150760976Y-92770248D01*
X150760330Y-92770856D01*
X150683366Y-92843255D01*
X150683358Y-92843263D01*
X150682733Y-92843851D01*
X150609953Y-92922861D01*
X150543007Y-93006872D01*
X150542506Y-93007602D01*
X150542502Y-93007608D01*
X150520370Y-93039870D01*
X150506687Y-93053223D01*
X150488935Y-93060323D01*
X150469818Y-93060089D01*
X150452245Y-93052557D01*
X150439752Y-93040151D01*
X150439557Y-93039870D01*
X150410728Y-92998468D01*
X150390721Y-92973717D01*
X150343761Y-92915622D01*
X150343755Y-92915615D01*
X150343198Y-92914926D01*
X150269868Y-92836426D01*
X150191112Y-92763370D01*
X150173662Y-92749365D01*
X150108030Y-92696689D01*
X150108016Y-92696679D01*
X150107335Y-92696132D01*
X150034661Y-92645904D01*
X150021355Y-92632175D01*
X150014317Y-92614398D01*
X150013520Y-92605595D01*
X150013520Y-91809952D01*
X150016403Y-91793394D01*
X150036900Y-91736307D01*
X150036906Y-91736288D01*
X150037357Y-91735031D01*
X150054010Y-91665396D01*
X150062922Y-91594354D01*
X150063311Y-91583202D01*
X150063506Y-91577637D01*
X150063506Y-91577623D01*
X150063520Y-91577229D01*
X150063519Y-89870588D01*
X150062842Y-89852328D01*
X150053806Y-89781302D01*
X150051054Y-89769881D01*
X150037346Y-89713001D01*
X150037343Y-89712993D01*
X150037031Y-89711696D01*
X150036579Y-89710445D01*
X150036577Y-89710437D01*
X150013175Y-89645613D01*
X150013172Y-89645607D01*
X150012719Y-89644351D01*
X149990640Y-89599381D01*
X149981759Y-89581292D01*
X149981756Y-89581286D01*
X149981164Y-89580081D01*
X149952395Y-89534835D01*
X149943464Y-89520790D01*
X149943463Y-89520788D01*
X149942746Y-89519661D01*
X149936113Y-89511396D01*
X149898771Y-89464868D01*
X149898766Y-89464863D01*
X149897931Y-89463822D01*
X149847259Y-89413239D01*
X149846223Y-89412411D01*
X149846218Y-89412406D01*
X149792392Y-89369361D01*
X149791342Y-89368521D01*
X149776554Y-89359154D01*
X149731993Y-89330930D01*
X149730855Y-89330209D01*
X149729654Y-89329622D01*
X149729647Y-89329618D01*
X149667739Y-89299357D01*
X149666530Y-89298766D01*
X149665263Y-89298311D01*
X149665258Y-89298309D01*
X149600422Y-89275030D01*
X149600418Y-89275029D01*
X149599143Y-89274571D01*
X149529508Y-89257918D01*
X149528179Y-89257751D01*
X149528172Y-89257750D01*
X149477007Y-89251332D01*
X149458466Y-89249006D01*
X149447314Y-89248617D01*
X149441749Y-89248422D01*
X149441735Y-89248422D01*
X149441341Y-89248408D01*
X149270221Y-89248408D01*
X149084700Y-89248409D01*
X149074798Y-89248776D01*
X149067537Y-89249045D01*
X149067530Y-89249046D01*
X149066440Y-89249086D01*
X149065359Y-89249223D01*
X149065353Y-89249224D01*
X149034261Y-89253180D01*
X148995414Y-89258122D01*
X148994105Y-89258437D01*
X148994102Y-89258438D01*
X148927113Y-89274582D01*
X148927105Y-89274585D01*
X148925808Y-89274897D01*
X148924557Y-89275349D01*
X148924549Y-89275351D01*
X148859725Y-89298753D01*
X148859719Y-89298756D01*
X148858463Y-89299209D01*
X148857261Y-89299799D01*
X148857259Y-89299800D01*
X148795404Y-89330169D01*
X148795398Y-89330172D01*
X148794193Y-89330764D01*
X148793057Y-89331486D01*
X148793054Y-89331488D01*
X148734902Y-89368464D01*
X148733773Y-89369182D01*
X148732734Y-89370016D01*
X148732731Y-89370018D01*
X148678980Y-89413157D01*
X148678975Y-89413162D01*
X148677934Y-89413997D01*
X148627351Y-89464669D01*
X148626523Y-89465705D01*
X148626518Y-89465710D01*
X148607001Y-89490115D01*
X148582633Y-89520586D01*
X148581913Y-89521723D01*
X148581910Y-89521727D01*
X148560565Y-89555427D01*
X148544321Y-89581073D01*
X148543734Y-89582274D01*
X148543730Y-89582281D01*
X148534884Y-89600379D01*
X148512878Y-89645398D01*
X148512423Y-89646665D01*
X148512421Y-89646670D01*
X148489526Y-89710437D01*
X148488683Y-89712785D01*
X148472030Y-89782420D01*
X148471863Y-89783749D01*
X148471862Y-89783756D01*
X148468339Y-89811844D01*
X148463118Y-89853462D01*
X148463080Y-89854563D01*
X148462536Y-89870141D01*
X148462520Y-89870587D01*
X148462521Y-91577228D01*
X148463198Y-91595488D01*
X148472234Y-91666514D01*
X148472549Y-91667823D01*
X148472550Y-91667826D01*
X148488432Y-91733724D01*
X148489009Y-91736120D01*
X148489461Y-91737371D01*
X148489463Y-91737379D01*
X148509609Y-91793182D01*
X148512520Y-91809820D01*
X148512520Y-92541113D01*
X148508790Y-92559864D01*
X148498168Y-92575761D01*
X148485891Y-92584656D01*
X148485899Y-92584670D01*
X148485784Y-92584734D01*
X148485651Y-92584830D01*
X148484351Y-92585488D01*
X148483590Y-92585944D01*
X148483587Y-92585946D01*
X148400843Y-92635565D01*
X148392223Y-92640734D01*
X148391494Y-92641245D01*
X148391490Y-92641248D01*
X148305008Y-92701916D01*
X148304995Y-92701926D01*
X148304282Y-92702426D01*
X148303597Y-92702984D01*
X148303590Y-92702989D01*
X148221667Y-92769685D01*
X148221660Y-92769691D01*
X148220976Y-92770248D01*
X148220330Y-92770856D01*
X148143366Y-92843255D01*
X148143358Y-92843263D01*
X148142733Y-92843851D01*
X148069953Y-92922861D01*
X148003007Y-93006872D01*
X148002506Y-93007602D01*
X148002502Y-93007608D01*
X147980370Y-93039870D01*
X147966687Y-93053223D01*
X147948935Y-93060323D01*
X147929818Y-93060089D01*
X147912245Y-93052557D01*
X147899752Y-93040151D01*
X147899557Y-93039870D01*
X147870728Y-92998468D01*
X147850721Y-92973717D01*
X147803761Y-92915622D01*
X147803755Y-92915615D01*
X147803198Y-92914926D01*
X147729868Y-92836426D01*
X147651112Y-92763370D01*
X147633662Y-92749365D01*
X147568030Y-92696689D01*
X147568016Y-92696679D01*
X147567335Y-92696132D01*
X147494661Y-92645904D01*
X147481355Y-92632175D01*
X147474317Y-92614398D01*
X147473520Y-92605595D01*
X147473520Y-91809952D01*
X147476403Y-91793394D01*
X147496900Y-91736307D01*
X147496906Y-91736288D01*
X147497357Y-91735031D01*
X147514010Y-91665396D01*
X147522922Y-91594354D01*
X147523311Y-91583202D01*
X147523506Y-91577637D01*
X147523506Y-91577623D01*
X147523520Y-91577229D01*
X147523519Y-89870588D01*
X147522842Y-89852328D01*
X147513806Y-89781302D01*
X147511054Y-89769881D01*
X147497346Y-89713001D01*
X147497343Y-89712993D01*
X147497031Y-89711696D01*
X147496579Y-89710445D01*
X147496577Y-89710437D01*
X147473175Y-89645613D01*
X147473172Y-89645607D01*
X147472719Y-89644351D01*
X147450640Y-89599381D01*
X147441759Y-89581292D01*
X147441756Y-89581286D01*
X147441164Y-89580081D01*
X147412395Y-89534835D01*
X147403464Y-89520790D01*
X147403463Y-89520788D01*
X147402746Y-89519661D01*
X147396113Y-89511396D01*
X147358771Y-89464868D01*
X147358766Y-89464863D01*
X147357931Y-89463822D01*
X147307259Y-89413239D01*
X147306223Y-89412411D01*
X147306218Y-89412406D01*
X147252392Y-89369361D01*
X147251342Y-89368521D01*
X147236554Y-89359154D01*
X147191993Y-89330930D01*
X147190855Y-89330209D01*
X147189654Y-89329622D01*
X147189647Y-89329618D01*
X147127739Y-89299357D01*
X147126530Y-89298766D01*
X147125263Y-89298311D01*
X147125258Y-89298309D01*
X147060422Y-89275030D01*
X147060418Y-89275029D01*
X147059143Y-89274571D01*
X146989508Y-89257918D01*
X146988179Y-89257751D01*
X146988172Y-89257750D01*
X146937007Y-89251332D01*
X146918466Y-89249006D01*
X146907314Y-89248617D01*
X146901749Y-89248422D01*
X146901735Y-89248422D01*
X146901341Y-89248408D01*
X146730221Y-89248408D01*
X146544700Y-89248409D01*
X146534798Y-89248776D01*
X146527537Y-89249045D01*
X146527530Y-89249046D01*
X146526440Y-89249086D01*
X146525359Y-89249223D01*
X146525353Y-89249224D01*
X146494261Y-89253180D01*
X146455414Y-89258122D01*
X146454105Y-89258437D01*
X146454102Y-89258438D01*
X146387113Y-89274582D01*
X146387105Y-89274585D01*
X146385808Y-89274897D01*
X146384557Y-89275349D01*
X146384549Y-89275351D01*
X146319725Y-89298753D01*
X146319719Y-89298756D01*
X146318463Y-89299209D01*
X146317261Y-89299799D01*
X146317259Y-89299800D01*
X146255404Y-89330169D01*
X146255398Y-89330172D01*
X146254193Y-89330764D01*
X146253057Y-89331486D01*
X146253054Y-89331488D01*
X146194902Y-89368464D01*
X146193773Y-89369182D01*
X146137934Y-89413997D01*
X146122681Y-89429277D01*
X146106793Y-89439912D01*
X146088045Y-89443658D01*
X146069290Y-89439944D01*
X146053385Y-89429336D01*
X146038213Y-89414190D01*
X146038200Y-89414179D01*
X146037259Y-89413239D01*
X146036223Y-89412411D01*
X146036218Y-89412406D01*
X145982392Y-89369361D01*
X145981342Y-89368521D01*
X145966554Y-89359154D01*
X145921993Y-89330930D01*
X145920855Y-89330209D01*
X145919654Y-89329622D01*
X145919647Y-89329618D01*
X145857739Y-89299357D01*
X145856530Y-89298766D01*
X145855263Y-89298311D01*
X145855258Y-89298309D01*
X145790422Y-89275030D01*
X145790418Y-89275029D01*
X145789143Y-89274571D01*
X145719508Y-89257918D01*
X145718179Y-89257751D01*
X145718172Y-89257750D01*
X145667007Y-89251332D01*
X145648466Y-89249006D01*
X145637314Y-89248617D01*
X145631749Y-89248422D01*
X145631735Y-89248422D01*
X145631341Y-89248408D01*
X145460221Y-89248408D01*
X145274700Y-89248409D01*
X145264798Y-89248776D01*
X145257537Y-89249045D01*
X145257530Y-89249046D01*
X145256440Y-89249086D01*
X145255359Y-89249223D01*
X145255353Y-89249224D01*
X145224261Y-89253180D01*
X145185414Y-89258122D01*
X145184105Y-89258437D01*
X145184102Y-89258438D01*
X145117113Y-89274582D01*
X145117105Y-89274585D01*
X145115808Y-89274897D01*
X145114557Y-89275349D01*
X145114549Y-89275351D01*
X145049725Y-89298753D01*
X145049719Y-89298756D01*
X145048463Y-89299209D01*
X145047261Y-89299799D01*
X145047259Y-89299800D01*
X144985404Y-89330169D01*
X144985398Y-89330172D01*
X144984193Y-89330764D01*
X144983057Y-89331486D01*
X144983054Y-89331488D01*
X144924902Y-89368464D01*
X144923773Y-89369182D01*
X144922734Y-89370016D01*
X144922731Y-89370018D01*
X144868980Y-89413157D01*
X144868975Y-89413162D01*
X144867934Y-89413997D01*
X144817351Y-89464669D01*
X144816523Y-89465705D01*
X144816518Y-89465710D01*
X144797001Y-89490115D01*
X144772633Y-89520586D01*
X144771913Y-89521723D01*
X144771910Y-89521727D01*
X144750565Y-89555427D01*
X144734321Y-89581073D01*
X144733734Y-89582274D01*
X144733730Y-89582281D01*
X144724884Y-89600379D01*
X144702878Y-89645398D01*
X144702423Y-89646665D01*
X144702421Y-89646670D01*
X144679526Y-89710437D01*
X144678683Y-89712785D01*
X144662030Y-89782420D01*
X144661863Y-89783749D01*
X144661862Y-89783756D01*
X144658339Y-89811844D01*
X144653118Y-89853462D01*
X144653080Y-89854563D01*
X144652536Y-89870141D01*
X144652520Y-89870587D01*
X144652521Y-91577228D01*
X144653198Y-91595488D01*
X144662234Y-91666514D01*
X144662549Y-91667823D01*
X144662550Y-91667826D01*
X144678432Y-91733724D01*
X144679009Y-91736120D01*
X144679461Y-91737371D01*
X144679463Y-91737379D01*
X144699685Y-91793394D01*
X144703321Y-91803465D01*
X144734876Y-91867735D01*
X144773294Y-91928155D01*
X144774128Y-91929194D01*
X144774130Y-91929197D01*
X144817269Y-91982948D01*
X144817274Y-91982953D01*
X144818109Y-91983994D01*
X144868781Y-92034577D01*
X144869817Y-92035405D01*
X144869822Y-92035410D01*
X144903520Y-92062358D01*
X144924698Y-92079295D01*
X144925835Y-92080015D01*
X144925839Y-92080018D01*
X144960766Y-92102140D01*
X144985185Y-92117607D01*
X144986386Y-92118194D01*
X144986393Y-92118198D01*
X145045625Y-92147151D01*
X145049510Y-92149050D01*
X145050777Y-92149505D01*
X145050782Y-92149507D01*
X145115618Y-92172786D01*
X145115622Y-92172787D01*
X145116897Y-92173245D01*
X145186532Y-92189898D01*
X145187861Y-92190065D01*
X145187868Y-92190066D01*
X145239033Y-92196484D01*
X145257574Y-92198810D01*
X145268726Y-92199199D01*
X145274291Y-92199394D01*
X145274305Y-92199394D01*
X145274699Y-92199408D01*
X145445819Y-92199408D01*
X145631340Y-92199407D01*
X145641242Y-92199040D01*
X145648503Y-92198771D01*
X145648510Y-92198770D01*
X145649600Y-92198730D01*
X145650681Y-92198593D01*
X145650687Y-92198592D01*
X145681779Y-92194636D01*
X145720626Y-92189694D01*
X145721935Y-92189379D01*
X145721938Y-92189378D01*
X145788927Y-92173234D01*
X145788935Y-92173231D01*
X145790232Y-92172919D01*
X145791483Y-92172467D01*
X145791491Y-92172465D01*
X145856315Y-92149063D01*
X145856321Y-92149060D01*
X145857577Y-92148607D01*
X145858773Y-92148020D01*
X145858789Y-92148013D01*
X145901924Y-92126834D01*
X145920400Y-92121917D01*
X145939351Y-92124446D01*
X145955892Y-92134034D01*
X145967504Y-92149222D01*
X145972421Y-92167698D01*
X145972520Y-92170818D01*
X145972520Y-92541113D01*
X145968790Y-92559864D01*
X145958168Y-92575761D01*
X145945891Y-92584656D01*
X145945899Y-92584670D01*
X145945784Y-92584734D01*
X145945651Y-92584830D01*
X145944351Y-92585488D01*
X145943590Y-92585944D01*
X145943587Y-92585946D01*
X145860843Y-92635565D01*
X145852223Y-92640734D01*
X145851494Y-92641245D01*
X145851490Y-92641248D01*
X145765008Y-92701916D01*
X145764995Y-92701926D01*
X145764282Y-92702426D01*
X145763597Y-92702984D01*
X145763590Y-92702989D01*
X145681667Y-92769685D01*
X145681660Y-92769691D01*
X145680976Y-92770248D01*
X145680330Y-92770856D01*
X145603366Y-92843255D01*
X145603358Y-92843263D01*
X145602733Y-92843851D01*
X145529953Y-92922861D01*
X145463007Y-93006872D01*
X145462506Y-93007602D01*
X145462502Y-93007608D01*
X145440370Y-93039870D01*
X145426687Y-93053223D01*
X145408935Y-93060323D01*
X145389818Y-93060089D01*
X145372245Y-93052557D01*
X145359752Y-93040151D01*
X145359557Y-93039870D01*
X145330728Y-92998468D01*
X145310721Y-92973717D01*
X145263761Y-92915622D01*
X145263755Y-92915615D01*
X145263198Y-92914926D01*
X145189868Y-92836426D01*
X145111112Y-92763370D01*
X145093662Y-92749365D01*
X145028030Y-92696689D01*
X145028016Y-92696679D01*
X145027335Y-92696132D01*
X144938965Y-92635056D01*
X144903965Y-92614398D01*
X144847206Y-92580897D01*
X144847200Y-92580894D01*
X144846455Y-92580454D01*
X144845686Y-92580071D01*
X144845676Y-92580066D01*
X144798880Y-92556786D01*
X144750277Y-92532607D01*
X144650925Y-92491758D01*
X144548906Y-92458117D01*
X144454465Y-92434308D01*
X144445592Y-92432071D01*
X144445591Y-92432071D01*
X144444743Y-92431857D01*
X144429038Y-92429074D01*
X144339840Y-92413265D01*
X144339830Y-92413264D01*
X144338969Y-92413111D01*
X144262387Y-92405129D01*
X144233000Y-92402066D01*
X144232995Y-92402066D01*
X144232125Y-92401975D01*
X144231250Y-92401947D01*
X144231239Y-92401946D01*
X144145959Y-92399192D01*
X144124759Y-92398507D01*
X144123868Y-92398542D01*
X144123867Y-92398542D01*
X144018307Y-92402690D01*
X144018304Y-92402690D01*
X144017419Y-92402725D01*
X143943790Y-92410919D01*
X143911553Y-92414506D01*
X143911548Y-92414507D01*
X143910656Y-92414606D01*
X143909781Y-92414767D01*
X143909770Y-92414769D01*
X143864780Y-92423067D01*
X143805015Y-92434090D01*
X143804176Y-92434308D01*
X143804175Y-92434308D01*
X143701888Y-92460856D01*
X143701878Y-92460859D01*
X143701038Y-92461077D01*
X143700214Y-92461355D01*
X143700201Y-92461359D01*
X143600086Y-92495149D01*
X143600081Y-92495151D01*
X143599257Y-92495429D01*
X143598460Y-92495763D01*
X143598450Y-92495767D01*
X143500988Y-92536636D01*
X143500983Y-92536638D01*
X143500192Y-92536970D01*
X143404351Y-92585488D01*
X143403590Y-92585944D01*
X143403587Y-92585946D01*
X143320843Y-92635565D01*
X143312223Y-92640734D01*
X143311494Y-92641245D01*
X143311490Y-92641248D01*
X143225008Y-92701916D01*
X143224995Y-92701926D01*
X143224282Y-92702426D01*
X143223597Y-92702984D01*
X143223590Y-92702989D01*
X143141667Y-92769685D01*
X143141660Y-92769691D01*
X143140976Y-92770248D01*
X143140330Y-92770856D01*
X143063366Y-92843255D01*
X143063358Y-92843263D01*
X143062733Y-92843851D01*
X142989953Y-92922861D01*
X142923007Y-93006872D01*
X142922506Y-93007602D01*
X142922502Y-93007608D01*
X142900370Y-93039870D01*
X142886687Y-93053223D01*
X142868935Y-93060323D01*
X142849818Y-93060089D01*
X142832245Y-93052557D01*
X142819752Y-93040151D01*
X142819557Y-93039870D01*
X142790728Y-92998468D01*
X142770721Y-92973717D01*
X142723761Y-92915622D01*
X142723755Y-92915615D01*
X142723198Y-92914926D01*
X142649868Y-92836426D01*
X142571112Y-92763370D01*
X142553662Y-92749365D01*
X142488030Y-92696689D01*
X142488016Y-92696679D01*
X142487335Y-92696132D01*
X142398965Y-92635056D01*
X142363965Y-92614398D01*
X142307206Y-92580897D01*
X142307200Y-92580894D01*
X142306455Y-92580454D01*
X142305686Y-92580071D01*
X142305676Y-92580066D01*
X142258880Y-92556786D01*
X142210277Y-92532607D01*
X142110925Y-92491758D01*
X142008906Y-92458117D01*
X141914465Y-92434308D01*
X141905592Y-92432071D01*
X141905591Y-92432071D01*
X141904743Y-92431857D01*
X141889038Y-92429074D01*
X141799840Y-92413265D01*
X141799830Y-92413264D01*
X141798969Y-92413111D01*
X141722387Y-92405129D01*
X141693000Y-92402066D01*
X141692995Y-92402066D01*
X141692125Y-92401975D01*
X141691250Y-92401947D01*
X141691239Y-92401946D01*
X141605959Y-92399192D01*
X141584759Y-92398507D01*
X141583868Y-92398542D01*
X141583867Y-92398542D01*
X141478307Y-92402690D01*
X141478304Y-92402690D01*
X141477419Y-92402725D01*
X141403790Y-92410919D01*
X141371553Y-92414506D01*
X141371548Y-92414507D01*
X141370656Y-92414606D01*
X141369781Y-92414767D01*
X141369770Y-92414769D01*
X141324780Y-92423067D01*
X141265015Y-92434090D01*
X141264176Y-92434308D01*
X141264175Y-92434308D01*
X141161888Y-92460856D01*
X141161878Y-92460859D01*
X141161038Y-92461077D01*
X141160214Y-92461355D01*
X141160201Y-92461359D01*
X141060086Y-92495149D01*
X141060081Y-92495151D01*
X141059257Y-92495429D01*
X141058460Y-92495763D01*
X141058450Y-92495767D01*
X140960988Y-92536636D01*
X140960983Y-92536638D01*
X140960192Y-92536970D01*
X140864351Y-92585488D01*
X140863590Y-92585944D01*
X140863587Y-92585946D01*
X140780843Y-92635565D01*
X140772223Y-92640734D01*
X140771494Y-92641245D01*
X140771490Y-92641248D01*
X140685008Y-92701916D01*
X140684995Y-92701926D01*
X140684282Y-92702426D01*
X140683597Y-92702984D01*
X140683590Y-92702989D01*
X140601667Y-92769685D01*
X140601660Y-92769691D01*
X140600976Y-92770248D01*
X140600330Y-92770856D01*
X140523366Y-92843255D01*
X140523358Y-92843263D01*
X140522733Y-92843851D01*
X140449953Y-92922861D01*
X140383007Y-93006872D01*
X140382506Y-93007602D01*
X140382502Y-93007608D01*
X140360370Y-93039870D01*
X140346687Y-93053223D01*
X140328935Y-93060323D01*
X140309818Y-93060089D01*
X140292245Y-93052557D01*
X140279752Y-93040151D01*
X140279557Y-93039870D01*
X140250728Y-92998468D01*
X140230721Y-92973717D01*
X140183761Y-92915622D01*
X140183755Y-92915615D01*
X140183198Y-92914926D01*
X140109868Y-92836426D01*
X140031112Y-92763370D01*
X140013662Y-92749365D01*
X139948030Y-92696689D01*
X139948016Y-92696679D01*
X139947335Y-92696132D01*
X139858965Y-92635056D01*
X139823965Y-92614398D01*
X139767206Y-92580897D01*
X139767200Y-92580894D01*
X139766455Y-92580454D01*
X139765686Y-92580071D01*
X139765676Y-92580066D01*
X139718880Y-92556786D01*
X139670277Y-92532607D01*
X139570925Y-92491758D01*
X139468906Y-92458117D01*
X139374465Y-92434308D01*
X139365592Y-92432071D01*
X139365591Y-92432071D01*
X139364743Y-92431857D01*
X139349038Y-92429074D01*
X139259840Y-92413265D01*
X139259830Y-92413264D01*
X139258969Y-92413111D01*
X139182387Y-92405129D01*
X139153000Y-92402066D01*
X139152995Y-92402066D01*
X139152125Y-92401975D01*
X139151250Y-92401947D01*
X139151239Y-92401946D01*
X139065959Y-92399192D01*
X139044759Y-92398507D01*
X139043868Y-92398542D01*
X139043867Y-92398542D01*
X138938307Y-92402690D01*
X138938304Y-92402690D01*
X138937419Y-92402725D01*
X138863790Y-92410919D01*
X138831553Y-92414506D01*
X138831548Y-92414507D01*
X138830656Y-92414606D01*
X138829781Y-92414767D01*
X138829770Y-92414769D01*
X138784780Y-92423067D01*
X138725015Y-92434090D01*
X138724176Y-92434308D01*
X138724175Y-92434308D01*
X138621888Y-92460856D01*
X138621878Y-92460859D01*
X138621038Y-92461077D01*
X138620214Y-92461355D01*
X138620201Y-92461359D01*
X138520086Y-92495149D01*
X138520081Y-92495151D01*
X138519257Y-92495429D01*
X138518460Y-92495763D01*
X138518450Y-92495767D01*
X138420988Y-92536636D01*
X138420983Y-92536638D01*
X138420192Y-92536970D01*
X138324351Y-92585488D01*
X138323590Y-92585944D01*
X138323587Y-92585946D01*
X138240843Y-92635565D01*
X138232223Y-92640734D01*
X138231494Y-92641245D01*
X138231490Y-92641248D01*
X138145008Y-92701916D01*
X138144995Y-92701926D01*
X138144282Y-92702426D01*
X138143597Y-92702984D01*
X138143590Y-92702989D01*
X138061667Y-92769685D01*
X138061660Y-92769691D01*
X138060976Y-92770248D01*
X138060330Y-92770856D01*
X137983366Y-92843255D01*
X137983358Y-92843263D01*
X137982733Y-92843851D01*
X137909953Y-92922861D01*
X137843007Y-93006872D01*
X137842506Y-93007602D01*
X137842502Y-93007608D01*
X137820370Y-93039870D01*
X137806687Y-93053223D01*
X137788935Y-93060323D01*
X137769818Y-93060089D01*
X137752245Y-93052557D01*
X137739752Y-93040151D01*
X137739557Y-93039870D01*
X137710728Y-92998468D01*
X137690721Y-92973717D01*
X137643761Y-92915622D01*
X137643755Y-92915615D01*
X137643198Y-92914926D01*
X137569868Y-92836426D01*
X137491112Y-92763370D01*
X137473662Y-92749365D01*
X137408030Y-92696689D01*
X137408016Y-92696679D01*
X137407335Y-92696132D01*
X137318965Y-92635056D01*
X137283965Y-92614398D01*
X137227206Y-92580897D01*
X137227200Y-92580894D01*
X137226455Y-92580454D01*
X137225686Y-92580071D01*
X137225676Y-92580066D01*
X137178880Y-92556786D01*
X137130277Y-92532607D01*
X137030925Y-92491758D01*
X136928906Y-92458117D01*
X136834465Y-92434308D01*
X136825592Y-92432071D01*
X136825591Y-92432071D01*
X136824743Y-92431857D01*
X136809038Y-92429074D01*
X136719840Y-92413265D01*
X136719830Y-92413264D01*
X136718969Y-92413111D01*
X136642387Y-92405129D01*
X136613000Y-92402066D01*
X136612995Y-92402066D01*
X136612125Y-92401975D01*
X136611250Y-92401947D01*
X136611239Y-92401946D01*
X136525959Y-92399192D01*
X136504759Y-92398507D01*
X136503868Y-92398542D01*
X136503867Y-92398542D01*
X136398307Y-92402690D01*
X136398304Y-92402690D01*
X136397419Y-92402725D01*
X136323790Y-92410919D01*
X136291553Y-92414506D01*
X136291548Y-92414507D01*
X136290656Y-92414606D01*
X136289781Y-92414767D01*
X136289770Y-92414769D01*
X136244780Y-92423067D01*
X136185015Y-92434090D01*
X136184176Y-92434308D01*
X136184175Y-92434308D01*
X136081888Y-92460856D01*
X136081878Y-92460859D01*
X136081038Y-92461077D01*
X136080214Y-92461355D01*
X136080201Y-92461359D01*
X135980086Y-92495149D01*
X135980081Y-92495151D01*
X135979257Y-92495429D01*
X135978460Y-92495763D01*
X135978450Y-92495767D01*
X135880988Y-92536636D01*
X135880983Y-92536638D01*
X135880192Y-92536970D01*
X135784351Y-92585488D01*
X135783590Y-92585944D01*
X135783587Y-92585946D01*
X135700843Y-92635565D01*
X135692223Y-92640734D01*
X135691494Y-92641245D01*
X135691490Y-92641248D01*
X135605008Y-92701916D01*
X135604995Y-92701926D01*
X135604282Y-92702426D01*
X135603597Y-92702984D01*
X135603590Y-92702989D01*
X135521667Y-92769685D01*
X135521660Y-92769691D01*
X135520976Y-92770248D01*
X135520330Y-92770856D01*
X135443366Y-92843255D01*
X135443358Y-92843263D01*
X135442733Y-92843851D01*
X135369953Y-92922861D01*
X135303007Y-93006872D01*
X135302506Y-93007602D01*
X135302502Y-93007608D01*
X135280370Y-93039870D01*
X135266687Y-93053223D01*
X135248935Y-93060323D01*
X135229818Y-93060089D01*
X135212245Y-93052557D01*
X135199752Y-93040151D01*
X135199557Y-93039870D01*
X135170728Y-92998468D01*
X135150721Y-92973717D01*
X135103761Y-92915622D01*
X135103755Y-92915615D01*
X135103198Y-92914926D01*
X135029868Y-92836426D01*
X134951112Y-92763370D01*
X134933662Y-92749365D01*
X134868030Y-92696689D01*
X134868016Y-92696679D01*
X134867335Y-92696132D01*
X134778965Y-92635056D01*
X134743965Y-92614398D01*
X134687206Y-92580897D01*
X134687200Y-92580894D01*
X134686455Y-92580454D01*
X134685686Y-92580071D01*
X134685676Y-92580066D01*
X134638880Y-92556786D01*
X134590277Y-92532607D01*
X134490925Y-92491758D01*
X134388906Y-92458117D01*
X134294465Y-92434308D01*
X134285592Y-92432071D01*
X134285591Y-92432071D01*
X134284743Y-92431857D01*
X134269038Y-92429074D01*
X134179840Y-92413265D01*
X134179830Y-92413264D01*
X134178969Y-92413111D01*
X134102387Y-92405129D01*
X134073000Y-92402066D01*
X134072995Y-92402066D01*
X134072125Y-92401975D01*
X134071250Y-92401947D01*
X134071239Y-92401946D01*
X133985959Y-92399192D01*
X133964759Y-92398507D01*
X133963868Y-92398542D01*
X133963867Y-92398542D01*
X133858307Y-92402690D01*
X133858304Y-92402690D01*
X133857419Y-92402725D01*
X133783790Y-92410919D01*
X133751553Y-92414506D01*
X133751548Y-92414507D01*
X133750656Y-92414606D01*
X133749781Y-92414767D01*
X133749770Y-92414769D01*
X133704780Y-92423067D01*
X133645015Y-92434090D01*
X133644176Y-92434308D01*
X133644175Y-92434308D01*
X133541888Y-92460856D01*
X133541878Y-92460859D01*
X133541038Y-92461077D01*
X133540214Y-92461355D01*
X133540201Y-92461359D01*
X133440086Y-92495149D01*
X133440081Y-92495151D01*
X133439257Y-92495429D01*
X133438460Y-92495763D01*
X133438450Y-92495767D01*
X133340988Y-92536636D01*
X133340983Y-92536638D01*
X133340192Y-92536970D01*
X133244351Y-92585488D01*
X133243590Y-92585944D01*
X133243587Y-92585946D01*
X133160843Y-92635565D01*
X133152223Y-92640734D01*
X133151494Y-92641245D01*
X133151490Y-92641248D01*
X133065008Y-92701916D01*
X133064995Y-92701926D01*
X133064282Y-92702426D01*
X133063597Y-92702984D01*
X133063590Y-92702989D01*
X132981667Y-92769685D01*
X132981660Y-92769691D01*
X132980976Y-92770248D01*
X132980330Y-92770856D01*
X132903366Y-92843255D01*
X132903358Y-92843263D01*
X132902733Y-92843851D01*
X132829953Y-92922861D01*
X132763007Y-93006872D01*
X132762506Y-93007602D01*
X132762502Y-93007608D01*
X132740370Y-93039870D01*
X132726687Y-93053223D01*
X132708935Y-93060323D01*
X132689818Y-93060089D01*
X132672245Y-93052557D01*
X132659752Y-93040151D01*
X132659557Y-93039870D01*
X132630728Y-92998468D01*
X132610721Y-92973717D01*
X132563761Y-92915622D01*
X132563755Y-92915615D01*
X132563198Y-92914926D01*
X132489868Y-92836426D01*
X132411112Y-92763370D01*
X132393662Y-92749365D01*
X132328030Y-92696689D01*
X132328016Y-92696679D01*
X132327335Y-92696132D01*
X132238965Y-92635056D01*
X132203965Y-92614398D01*
X132147206Y-92580897D01*
X132147200Y-92580894D01*
X132146455Y-92580454D01*
X132145686Y-92580071D01*
X132145676Y-92580066D01*
X132098880Y-92556786D01*
X132050277Y-92532607D01*
X131950925Y-92491758D01*
X131848906Y-92458117D01*
X131754465Y-92434308D01*
X131745592Y-92432071D01*
X131745591Y-92432071D01*
X131744743Y-92431857D01*
X131729038Y-92429074D01*
X131639840Y-92413265D01*
X131639830Y-92413264D01*
X131638969Y-92413111D01*
X131562387Y-92405129D01*
X131533000Y-92402066D01*
X131532995Y-92402066D01*
X131532125Y-92401975D01*
X131531250Y-92401947D01*
X131531239Y-92401946D01*
X131445959Y-92399192D01*
X131424759Y-92398507D01*
X131423868Y-92398542D01*
X131423867Y-92398542D01*
X131318307Y-92402690D01*
X131318304Y-92402690D01*
X131317419Y-92402725D01*
X131243790Y-92410919D01*
X131211553Y-92414506D01*
X131211548Y-92414507D01*
X131210656Y-92414606D01*
X131209781Y-92414767D01*
X131209770Y-92414769D01*
X131164780Y-92423067D01*
X131105015Y-92434090D01*
X131104176Y-92434308D01*
X131104175Y-92434308D01*
X131001888Y-92460856D01*
X131001878Y-92460859D01*
X131001038Y-92461077D01*
X131000214Y-92461355D01*
X131000201Y-92461359D01*
X130900086Y-92495149D01*
X130900081Y-92495151D01*
X130899257Y-92495429D01*
X130898460Y-92495763D01*
X130898450Y-92495767D01*
X130800988Y-92536636D01*
X130800983Y-92536638D01*
X130800192Y-92536970D01*
X130704351Y-92585488D01*
X130703590Y-92585944D01*
X130703587Y-92585946D01*
X130620843Y-92635565D01*
X130612223Y-92640734D01*
X130611494Y-92641245D01*
X130611490Y-92641248D01*
X130525008Y-92701916D01*
X130524995Y-92701926D01*
X130524282Y-92702426D01*
X130523597Y-92702984D01*
X130523590Y-92702989D01*
X130441667Y-92769685D01*
X130441660Y-92769691D01*
X130440976Y-92770248D01*
X130440330Y-92770856D01*
X130363366Y-92843255D01*
X130363358Y-92843263D01*
X130362733Y-92843851D01*
X130289953Y-92922861D01*
X130223007Y-93006872D01*
X130222509Y-93007598D01*
X130222506Y-93007602D01*
X130191211Y-93053223D01*
X130162240Y-93095455D01*
X130161802Y-93096202D01*
X130161802Y-93096203D01*
X130108392Y-93187419D01*
X130108386Y-93187430D01*
X130107961Y-93188156D01*
X130107585Y-93188918D01*
X130107582Y-93188924D01*
X130060839Y-93283710D01*
X130060833Y-93283723D01*
X130060450Y-93284500D01*
X130019948Y-93383994D01*
X129986664Y-93486130D01*
X129960767Y-93590384D01*
X129942390Y-93696223D01*
X129931628Y-93803105D01*
X129931603Y-93803974D01*
X129928860Y-93899211D01*
X129928535Y-93910482D01*
X127851200Y-93910482D01*
X127851502Y-93900000D01*
X127848034Y-93803105D01*
X127847690Y-93793509D01*
X127847690Y-93793506D01*
X127847659Y-93792646D01*
X127847566Y-93791782D01*
X127836245Y-93686711D01*
X127836244Y-93686701D01*
X127836151Y-93685842D01*
X127835998Y-93684996D01*
X127835996Y-93684982D01*
X127817195Y-93581014D01*
X127817036Y-93580134D01*
X127790412Y-93476064D01*
X127756415Y-93374163D01*
X127756077Y-93373349D01*
X127715557Y-93275765D01*
X127715554Y-93275759D01*
X127715220Y-93274954D01*
X127667037Y-93178943D01*
X127612112Y-93086624D01*
X127550728Y-92998468D01*
X127530721Y-92973717D01*
X127483761Y-92915622D01*
X127483755Y-92915615D01*
X127483198Y-92914926D01*
X127409868Y-92836426D01*
X127331112Y-92763370D01*
X127313662Y-92749365D01*
X127248030Y-92696689D01*
X127248016Y-92696679D01*
X127247335Y-92696132D01*
X127158965Y-92635056D01*
X127123965Y-92614398D01*
X127067206Y-92580897D01*
X127067200Y-92580894D01*
X127066455Y-92580454D01*
X127065686Y-92580071D01*
X127065676Y-92580066D01*
X127018880Y-92556786D01*
X126970277Y-92532607D01*
X126870925Y-92491758D01*
X126768906Y-92458117D01*
X126674465Y-92434308D01*
X126665592Y-92432071D01*
X126665591Y-92432071D01*
X126664743Y-92431857D01*
X126649038Y-92429074D01*
X126559840Y-92413265D01*
X126559830Y-92413264D01*
X126558969Y-92413111D01*
X126482387Y-92405129D01*
X126453000Y-92402066D01*
X126452995Y-92402066D01*
X126452125Y-92401975D01*
X126451250Y-92401947D01*
X126451239Y-92401946D01*
X126365959Y-92399192D01*
X126344759Y-92398507D01*
X126343868Y-92398542D01*
X126343867Y-92398542D01*
X126238307Y-92402690D01*
X126238304Y-92402690D01*
X126237419Y-92402725D01*
X126163790Y-92410919D01*
X126131553Y-92414506D01*
X126131548Y-92414507D01*
X126130656Y-92414606D01*
X126129781Y-92414767D01*
X126129770Y-92414769D01*
X126084780Y-92423067D01*
X126025015Y-92434090D01*
X126024176Y-92434308D01*
X126024175Y-92434308D01*
X125921888Y-92460856D01*
X125921878Y-92460859D01*
X125921038Y-92461077D01*
X125920214Y-92461355D01*
X125920201Y-92461359D01*
X125820086Y-92495149D01*
X125820081Y-92495151D01*
X125819257Y-92495429D01*
X125818460Y-92495763D01*
X125818450Y-92495767D01*
X125720988Y-92536636D01*
X125720983Y-92536638D01*
X125720192Y-92536970D01*
X125624351Y-92585488D01*
X125623590Y-92585944D01*
X125623587Y-92585946D01*
X125540843Y-92635565D01*
X125532223Y-92640734D01*
X125531494Y-92641245D01*
X125531490Y-92641248D01*
X125445008Y-92701916D01*
X125444995Y-92701926D01*
X125444282Y-92702426D01*
X125443597Y-92702984D01*
X125443590Y-92702989D01*
X125361667Y-92769685D01*
X125361660Y-92769691D01*
X125360976Y-92770248D01*
X125360330Y-92770856D01*
X125283366Y-92843255D01*
X125283358Y-92843263D01*
X125282733Y-92843851D01*
X125209953Y-92922861D01*
X125143007Y-93006872D01*
X125142509Y-93007598D01*
X125142506Y-93007602D01*
X125111211Y-93053223D01*
X125082240Y-93095455D01*
X125081802Y-93096202D01*
X125081802Y-93096203D01*
X125028392Y-93187419D01*
X125028386Y-93187430D01*
X125027961Y-93188156D01*
X125027585Y-93188918D01*
X125027582Y-93188924D01*
X124980839Y-93283710D01*
X124980833Y-93283723D01*
X124980450Y-93284500D01*
X124939948Y-93383994D01*
X124906664Y-93486130D01*
X124880767Y-93590384D01*
X124862390Y-93696223D01*
X124851628Y-93803105D01*
X124851603Y-93803974D01*
X124848860Y-93899211D01*
X124848535Y-93910482D01*
X123700500Y-93910482D01*
X123700500Y-93234717D01*
X123704230Y-93215966D01*
X123714852Y-93200069D01*
X129705068Y-87209852D01*
X129720965Y-87199230D01*
X129739716Y-87195500D01*
X132538753Y-87195499D01*
X132620988Y-87195499D01*
X132647194Y-87194264D01*
X132682022Y-87188748D01*
X132707870Y-87184654D01*
X132707872Y-87184653D01*
X132709397Y-87184412D01*
X132765207Y-87168198D01*
X132768398Y-87167271D01*
X132768401Y-87167270D01*
X132769874Y-87166842D01*
X132827672Y-87141831D01*
X132881879Y-87109773D01*
X132883095Y-87108830D01*
X132883102Y-87108825D01*
X132930422Y-87072119D01*
X132930426Y-87072115D01*
X132931641Y-87071173D01*
X132976173Y-87026641D01*
X132992272Y-87005887D01*
X133013825Y-86978102D01*
X133013830Y-86978095D01*
X133014773Y-86976879D01*
X133046831Y-86922672D01*
X133071842Y-86864874D01*
X133089412Y-86804397D01*
X133092514Y-86784815D01*
X133099053Y-86743526D01*
X133099264Y-86742194D01*
X133099959Y-86727451D01*
X133100473Y-86716569D01*
X133100473Y-86716554D01*
X133100500Y-86715989D01*
X133100499Y-83674012D01*
X133099264Y-83647806D01*
X133093577Y-83611898D01*
X133089654Y-83587130D01*
X133089653Y-83587128D01*
X133089412Y-83585603D01*
X133071842Y-83525126D01*
X133046831Y-83467328D01*
X133014773Y-83413121D01*
X133013830Y-83411905D01*
X133013825Y-83411898D01*
X132977119Y-83364578D01*
X132977115Y-83364574D01*
X132976173Y-83363359D01*
X132931641Y-83318827D01*
X132930426Y-83317885D01*
X132930422Y-83317881D01*
X132883102Y-83281175D01*
X132883095Y-83281170D01*
X132881879Y-83280227D01*
X132827672Y-83248169D01*
X132769874Y-83223158D01*
X132768401Y-83222730D01*
X132768398Y-83222729D01*
X132710887Y-83206021D01*
X132710889Y-83206021D01*
X132709397Y-83205588D01*
X132707872Y-83205347D01*
X132707870Y-83205346D01*
X132648526Y-83195947D01*
X132648527Y-83195947D01*
X132647194Y-83195736D01*
X132632451Y-83195041D01*
X132621569Y-83194527D01*
X132621554Y-83194527D01*
X132620989Y-83194500D01*
X131102574Y-83194500D01*
X129579012Y-83194501D01*
X129552806Y-83195736D01*
X129517978Y-83201252D01*
X129492130Y-83205346D01*
X129492128Y-83205347D01*
X129490603Y-83205588D01*
X129489111Y-83206021D01*
X129489113Y-83206021D01*
X129431602Y-83222729D01*
X129431599Y-83222730D01*
X129430126Y-83223158D01*
X129372328Y-83248169D01*
X129318121Y-83280227D01*
X129316905Y-83281170D01*
X129316898Y-83281175D01*
X129269578Y-83317881D01*
X129269574Y-83317885D01*
X129268359Y-83318827D01*
X129223827Y-83363359D01*
X129222885Y-83364574D01*
X129222881Y-83364578D01*
X129186175Y-83411898D01*
X129186170Y-83411905D01*
X129185227Y-83413121D01*
X129153169Y-83467328D01*
X129128158Y-83525126D01*
X129110588Y-83585603D01*
X129110347Y-83587128D01*
X129110346Y-83587130D01*
X129106423Y-83611898D01*
X129100736Y-83647806D01*
X129100673Y-83649151D01*
X129099718Y-83669397D01*
X129099500Y-83674011D01*
X129099500Y-84965283D01*
X129095770Y-84984034D01*
X129085148Y-84999931D01*
X122734648Y-91350432D01*
X122718751Y-91361054D01*
X122700000Y-91364784D01*
X122681249Y-91361054D01*
X122665352Y-91350432D01*
X120314852Y-88999932D01*
X120304230Y-88984035D01*
X120300500Y-88965284D01*
X120300500Y-87444499D01*
X120304230Y-87425748D01*
X120314852Y-87409851D01*
X120330749Y-87399229D01*
X120349500Y-87395499D01*
X120820988Y-87395499D01*
X120847194Y-87394264D01*
X120882022Y-87388748D01*
X120907870Y-87384654D01*
X120907872Y-87384653D01*
X120909397Y-87384412D01*
X120933332Y-87377458D01*
X120968398Y-87367271D01*
X120968401Y-87367270D01*
X120969874Y-87366842D01*
X121027672Y-87341831D01*
X121081879Y-87309773D01*
X121083095Y-87308830D01*
X121083102Y-87308825D01*
X121130422Y-87272119D01*
X121130426Y-87272115D01*
X121131641Y-87271173D01*
X121176173Y-87226641D01*
X121178563Y-87223560D01*
X121213825Y-87178102D01*
X121213830Y-87178095D01*
X121214773Y-87176879D01*
X121246831Y-87122672D01*
X121271842Y-87064874D01*
X121289412Y-87004397D01*
X121299264Y-86942194D01*
X121299959Y-86927451D01*
X121300473Y-86916569D01*
X121300473Y-86916554D01*
X121300500Y-86915989D01*
X121300499Y-83874012D01*
X121299264Y-83847806D01*
X121290826Y-83794529D01*
X121289654Y-83787130D01*
X121289653Y-83787128D01*
X121289412Y-83785603D01*
X121278917Y-83749477D01*
X121272271Y-83726602D01*
X121272270Y-83726599D01*
X121271842Y-83725126D01*
X121246831Y-83667328D01*
X121214773Y-83613121D01*
X121213830Y-83611905D01*
X121213825Y-83611898D01*
X121177119Y-83564578D01*
X121177115Y-83564574D01*
X121176173Y-83563359D01*
X121131641Y-83518827D01*
X121130426Y-83517885D01*
X121130422Y-83517881D01*
X121083102Y-83481175D01*
X121083095Y-83481170D01*
X121081879Y-83480227D01*
X121027672Y-83448169D01*
X120969874Y-83423158D01*
X120968401Y-83422730D01*
X120968398Y-83422729D01*
X120910887Y-83406021D01*
X120910889Y-83406021D01*
X120909397Y-83405588D01*
X120907872Y-83405347D01*
X120907870Y-83405346D01*
X120848526Y-83395947D01*
X120848527Y-83395947D01*
X120847194Y-83395736D01*
X120832451Y-83395041D01*
X120821569Y-83394527D01*
X120821554Y-83394527D01*
X120820989Y-83394500D01*
X119302574Y-83394500D01*
X117779012Y-83394501D01*
X117752806Y-83395736D01*
X117717978Y-83401252D01*
X117692130Y-83405346D01*
X117692128Y-83405347D01*
X117690603Y-83405588D01*
X117689111Y-83406021D01*
X117689113Y-83406021D01*
X117631602Y-83422729D01*
X117631599Y-83422730D01*
X117630126Y-83423158D01*
X117572328Y-83448169D01*
X117518121Y-83480227D01*
X117516905Y-83481170D01*
X117516898Y-83481175D01*
X117469578Y-83517881D01*
X117469574Y-83517885D01*
X117468359Y-83518827D01*
X117423827Y-83563359D01*
X117422885Y-83564574D01*
X117422881Y-83564578D01*
X117386175Y-83611898D01*
X117386170Y-83611905D01*
X117385227Y-83613121D01*
X117353169Y-83667328D01*
X117328158Y-83725126D01*
X117327730Y-83726599D01*
X117327729Y-83726602D01*
X117321083Y-83749477D01*
X117310588Y-83785603D01*
X117310347Y-83787128D01*
X117310346Y-83787130D01*
X117309174Y-83794529D01*
X117300736Y-83847806D01*
X117299500Y-83874011D01*
X115700501Y-83874011D01*
X115700501Y-80539011D01*
X143499500Y-80539011D01*
X143499501Y-83580988D01*
X143500736Y-83607194D01*
X143500947Y-83608525D01*
X143506958Y-83646475D01*
X143510588Y-83669397D01*
X143511929Y-83674012D01*
X143526779Y-83725126D01*
X143528158Y-83729874D01*
X143553169Y-83787672D01*
X143585227Y-83841879D01*
X143586170Y-83843095D01*
X143586175Y-83843102D01*
X143622881Y-83890422D01*
X143623827Y-83891641D01*
X143668359Y-83936173D01*
X143669574Y-83937115D01*
X143669578Y-83937119D01*
X143716898Y-83973825D01*
X143716905Y-83973830D01*
X143718121Y-83974773D01*
X143772328Y-84006831D01*
X143830126Y-84031842D01*
X143831599Y-84032270D01*
X143831602Y-84032271D01*
X143866668Y-84042458D01*
X143890603Y-84049412D01*
X143892128Y-84049653D01*
X143892130Y-84049654D01*
X143940939Y-84057384D01*
X143952806Y-84059264D01*
X143967549Y-84059959D01*
X143978431Y-84060473D01*
X143978446Y-84060473D01*
X143979011Y-84060500D01*
X144002729Y-84060500D01*
X145923520Y-84060499D01*
X145942271Y-84064229D01*
X145958168Y-84074851D01*
X145968790Y-84090747D01*
X145972520Y-84109499D01*
X145972520Y-84326971D01*
X145968790Y-84345722D01*
X145958168Y-84361619D01*
X145942271Y-84372241D01*
X145923520Y-84375971D01*
X145904769Y-84372241D01*
X145902001Y-84370993D01*
X145857739Y-84349357D01*
X145856530Y-84348766D01*
X145855263Y-84348311D01*
X145855258Y-84348309D01*
X145790422Y-84325030D01*
X145790418Y-84325029D01*
X145789143Y-84324571D01*
X145719508Y-84307918D01*
X145718179Y-84307751D01*
X145718172Y-84307750D01*
X145664146Y-84300973D01*
X145648466Y-84299006D01*
X145637314Y-84298617D01*
X145631749Y-84298422D01*
X145631735Y-84298422D01*
X145631341Y-84298408D01*
X145460221Y-84298408D01*
X145274700Y-84298409D01*
X145264798Y-84298776D01*
X145257537Y-84299045D01*
X145257530Y-84299046D01*
X145256440Y-84299086D01*
X145255359Y-84299223D01*
X145255353Y-84299224D01*
X145224299Y-84303175D01*
X145185414Y-84308122D01*
X145184105Y-84308437D01*
X145184102Y-84308438D01*
X145117113Y-84324582D01*
X145117105Y-84324585D01*
X145115808Y-84324897D01*
X145114557Y-84325349D01*
X145114549Y-84325351D01*
X145049725Y-84348753D01*
X145049719Y-84348756D01*
X145048463Y-84349209D01*
X145047261Y-84349799D01*
X145047259Y-84349800D01*
X144985404Y-84380169D01*
X144985398Y-84380172D01*
X144984193Y-84380764D01*
X144983057Y-84381486D01*
X144983054Y-84381488D01*
X144933601Y-84412933D01*
X144923773Y-84419182D01*
X144922734Y-84420016D01*
X144922731Y-84420018D01*
X144868980Y-84463157D01*
X144868975Y-84463162D01*
X144867934Y-84463997D01*
X144817351Y-84514669D01*
X144816523Y-84515705D01*
X144816518Y-84515710D01*
X144804182Y-84531136D01*
X144772633Y-84570586D01*
X144734321Y-84631073D01*
X144733734Y-84632274D01*
X144733730Y-84632281D01*
X144713084Y-84674519D01*
X144702878Y-84695398D01*
X144702423Y-84696665D01*
X144702421Y-84696670D01*
X144683841Y-84748419D01*
X144678683Y-84762785D01*
X144662030Y-84832420D01*
X144661863Y-84833749D01*
X144661862Y-84833756D01*
X144658346Y-84861784D01*
X144653118Y-84903462D01*
X144652520Y-84920587D01*
X144652521Y-86627228D01*
X144653198Y-86645488D01*
X144662234Y-86716514D01*
X144662549Y-86717823D01*
X144662550Y-86717826D01*
X144678429Y-86783713D01*
X144679009Y-86786120D01*
X144679461Y-86787371D01*
X144679463Y-86787379D01*
X144702865Y-86852203D01*
X144703321Y-86853465D01*
X144703911Y-86854667D01*
X144703912Y-86854669D01*
X144734019Y-86915989D01*
X144734876Y-86917735D01*
X144735598Y-86918871D01*
X144735600Y-86918874D01*
X144751275Y-86943526D01*
X144773294Y-86978155D01*
X144774128Y-86979194D01*
X144774130Y-86979197D01*
X144817269Y-87032948D01*
X144817274Y-87032953D01*
X144818109Y-87033994D01*
X144868781Y-87084577D01*
X144869817Y-87085405D01*
X144869822Y-87085410D01*
X144900287Y-87109773D01*
X144924698Y-87129295D01*
X144985185Y-87167607D01*
X144986386Y-87168194D01*
X144986393Y-87168198D01*
X145045625Y-87197151D01*
X145049510Y-87199050D01*
X145050777Y-87199505D01*
X145050782Y-87199507D01*
X145115618Y-87222786D01*
X145115622Y-87222787D01*
X145116897Y-87223245D01*
X145186532Y-87239898D01*
X145187861Y-87240065D01*
X145187868Y-87240066D01*
X145239033Y-87246484D01*
X145257574Y-87248810D01*
X145268726Y-87249199D01*
X145274291Y-87249394D01*
X145274305Y-87249394D01*
X145274699Y-87249408D01*
X145445819Y-87249408D01*
X145631340Y-87249407D01*
X145641242Y-87249040D01*
X145648503Y-87248771D01*
X145648510Y-87248770D01*
X145649600Y-87248730D01*
X145650681Y-87248593D01*
X145650687Y-87248592D01*
X145681779Y-87244636D01*
X145720626Y-87239694D01*
X145721935Y-87239379D01*
X145721938Y-87239378D01*
X145788927Y-87223234D01*
X145788935Y-87223231D01*
X145790232Y-87222919D01*
X145791483Y-87222467D01*
X145791491Y-87222465D01*
X145856315Y-87199063D01*
X145856321Y-87199060D01*
X145857577Y-87198607D01*
X145858781Y-87198016D01*
X145920636Y-87167647D01*
X145920642Y-87167644D01*
X145921847Y-87167052D01*
X145960555Y-87142440D01*
X145981138Y-87129352D01*
X145981140Y-87129351D01*
X145982267Y-87128634D01*
X145988049Y-87123994D01*
X146037052Y-87084665D01*
X146037059Y-87084659D01*
X146038106Y-87083819D01*
X146053360Y-87068538D01*
X146069247Y-87057904D01*
X146087995Y-87054158D01*
X146106750Y-87057872D01*
X146122655Y-87068480D01*
X146137827Y-87083626D01*
X146137836Y-87083634D01*
X146138781Y-87084577D01*
X146139817Y-87085405D01*
X146139822Y-87085410D01*
X146170287Y-87109773D01*
X146194698Y-87129295D01*
X146255185Y-87167607D01*
X146256386Y-87168194D01*
X146256393Y-87168198D01*
X146315625Y-87197151D01*
X146319510Y-87199050D01*
X146320777Y-87199505D01*
X146320782Y-87199507D01*
X146385618Y-87222786D01*
X146385622Y-87222787D01*
X146386897Y-87223245D01*
X146456532Y-87239898D01*
X146457861Y-87240065D01*
X146457868Y-87240066D01*
X146509033Y-87246484D01*
X146527574Y-87248810D01*
X146538726Y-87249199D01*
X146544291Y-87249394D01*
X146544305Y-87249394D01*
X146544699Y-87249408D01*
X146715819Y-87249408D01*
X146901340Y-87249407D01*
X146911242Y-87249040D01*
X146918503Y-87248771D01*
X146918510Y-87248770D01*
X146919600Y-87248730D01*
X146920681Y-87248593D01*
X146920687Y-87248592D01*
X146951779Y-87244636D01*
X146990626Y-87239694D01*
X146991935Y-87239379D01*
X146991938Y-87239378D01*
X147058927Y-87223234D01*
X147058935Y-87223231D01*
X147060232Y-87222919D01*
X147061483Y-87222467D01*
X147061491Y-87222465D01*
X147126315Y-87199063D01*
X147126321Y-87199060D01*
X147127577Y-87198607D01*
X147128781Y-87198016D01*
X147190636Y-87167647D01*
X147190642Y-87167644D01*
X147191847Y-87167052D01*
X147230555Y-87142440D01*
X147251138Y-87129352D01*
X147251140Y-87129351D01*
X147252267Y-87128634D01*
X147258049Y-87123994D01*
X147307052Y-87084665D01*
X147307059Y-87084659D01*
X147308106Y-87083819D01*
X147323360Y-87068538D01*
X147339247Y-87057904D01*
X147357995Y-87054158D01*
X147376750Y-87057872D01*
X147392655Y-87068480D01*
X147407827Y-87083626D01*
X147407836Y-87083634D01*
X147408781Y-87084577D01*
X147409817Y-87085405D01*
X147409822Y-87085410D01*
X147440287Y-87109773D01*
X147464698Y-87129295D01*
X147525185Y-87167607D01*
X147526386Y-87168194D01*
X147526393Y-87168198D01*
X147585625Y-87197151D01*
X147589510Y-87199050D01*
X147590777Y-87199505D01*
X147590782Y-87199507D01*
X147655618Y-87222786D01*
X147655622Y-87222787D01*
X147656897Y-87223245D01*
X147726532Y-87239898D01*
X147727861Y-87240065D01*
X147727868Y-87240066D01*
X147779033Y-87246484D01*
X147797574Y-87248810D01*
X147808726Y-87249199D01*
X147814291Y-87249394D01*
X147814305Y-87249394D01*
X147814699Y-87249408D01*
X147985819Y-87249408D01*
X148171340Y-87249407D01*
X148181242Y-87249040D01*
X148188503Y-87248771D01*
X148188510Y-87248770D01*
X148189600Y-87248730D01*
X148190681Y-87248593D01*
X148190687Y-87248592D01*
X148221779Y-87244636D01*
X148260626Y-87239694D01*
X148261935Y-87239379D01*
X148261938Y-87239378D01*
X148328927Y-87223234D01*
X148328935Y-87223231D01*
X148330232Y-87222919D01*
X148331483Y-87222467D01*
X148331491Y-87222465D01*
X148396315Y-87199063D01*
X148396321Y-87199060D01*
X148397577Y-87198607D01*
X148398781Y-87198016D01*
X148460636Y-87167647D01*
X148460642Y-87167644D01*
X148461847Y-87167052D01*
X148500555Y-87142440D01*
X148521138Y-87129352D01*
X148521140Y-87129351D01*
X148522267Y-87128634D01*
X148528049Y-87123994D01*
X148577052Y-87084665D01*
X148577059Y-87084659D01*
X148578106Y-87083819D01*
X148593360Y-87068538D01*
X148609247Y-87057904D01*
X148627995Y-87054158D01*
X148646750Y-87057872D01*
X148662655Y-87068480D01*
X148677827Y-87083626D01*
X148677836Y-87083634D01*
X148678781Y-87084577D01*
X148679817Y-87085405D01*
X148679822Y-87085410D01*
X148710287Y-87109773D01*
X148734698Y-87129295D01*
X148795185Y-87167607D01*
X148796386Y-87168194D01*
X148796393Y-87168198D01*
X148855625Y-87197151D01*
X148859510Y-87199050D01*
X148860777Y-87199505D01*
X148860782Y-87199507D01*
X148925618Y-87222786D01*
X148925622Y-87222787D01*
X148926897Y-87223245D01*
X148996532Y-87239898D01*
X148997861Y-87240065D01*
X148997868Y-87240066D01*
X149049033Y-87246484D01*
X149067574Y-87248810D01*
X149078726Y-87249199D01*
X149084291Y-87249394D01*
X149084305Y-87249394D01*
X149084699Y-87249408D01*
X149255819Y-87249408D01*
X149441340Y-87249407D01*
X149451242Y-87249040D01*
X149458503Y-87248771D01*
X149458510Y-87248770D01*
X149459600Y-87248730D01*
X149460681Y-87248593D01*
X149460687Y-87248592D01*
X149491779Y-87244636D01*
X149530626Y-87239694D01*
X149531935Y-87239379D01*
X149531938Y-87239378D01*
X149598927Y-87223234D01*
X149598935Y-87223231D01*
X149600232Y-87222919D01*
X149601483Y-87222467D01*
X149601491Y-87222465D01*
X149666315Y-87199063D01*
X149666321Y-87199060D01*
X149667577Y-87198607D01*
X149668781Y-87198016D01*
X149730636Y-87167647D01*
X149730642Y-87167644D01*
X149731847Y-87167052D01*
X149770555Y-87142440D01*
X149791138Y-87129352D01*
X149791140Y-87129351D01*
X149792267Y-87128634D01*
X149793309Y-87127798D01*
X149847060Y-87084659D01*
X149847065Y-87084654D01*
X149848106Y-87083819D01*
X149898689Y-87033147D01*
X149920490Y-87005887D01*
X149942567Y-86978280D01*
X149943407Y-86977230D01*
X149964756Y-86943525D01*
X149977126Y-86923994D01*
X149981719Y-86916743D01*
X149982306Y-86915542D01*
X149982310Y-86915535D01*
X150012571Y-86853627D01*
X150013162Y-86852418D01*
X150037357Y-86785031D01*
X150054010Y-86715396D01*
X150062922Y-86644354D01*
X150063311Y-86633202D01*
X150063506Y-86627637D01*
X150063506Y-86627623D01*
X150063520Y-86627229D01*
X150063520Y-86055071D01*
X150067250Y-86036320D01*
X150077872Y-86020423D01*
X151219574Y-84878721D01*
X151220961Y-84877387D01*
X151236916Y-84862638D01*
X151237840Y-84861784D01*
X151260145Y-84836439D01*
X151260544Y-84835991D01*
X151265952Y-84829995D01*
X151283196Y-84810878D01*
X151284598Y-84808959D01*
X151287386Y-84805486D01*
X151288098Y-84804677D01*
X151288099Y-84804676D01*
X151288942Y-84803718D01*
X151308538Y-84776196D01*
X151308860Y-84775749D01*
X151328077Y-84749444D01*
X151328084Y-84749434D01*
X151328825Y-84748419D01*
X151330021Y-84746368D01*
X151332426Y-84742645D01*
X151333066Y-84741746D01*
X151333072Y-84741736D01*
X151333805Y-84740707D01*
X151350524Y-84711216D01*
X151350742Y-84710838D01*
X151367155Y-84682695D01*
X151367793Y-84681601D01*
X151368774Y-84679432D01*
X151370785Y-84675479D01*
X151371329Y-84674519D01*
X151371335Y-84674508D01*
X151371953Y-84673417D01*
X151385502Y-84642477D01*
X151385745Y-84641934D01*
X151399161Y-84612289D01*
X151399161Y-84612288D01*
X151399685Y-84611131D01*
X151400438Y-84608875D01*
X151402030Y-84604738D01*
X151402475Y-84603722D01*
X151402478Y-84603713D01*
X151402982Y-84602563D01*
X151413320Y-84570265D01*
X151413405Y-84570007D01*
X151424165Y-84537757D01*
X151424438Y-84536532D01*
X151424441Y-84536520D01*
X151424680Y-84535444D01*
X151425846Y-84531136D01*
X151426181Y-84530091D01*
X151426182Y-84530087D01*
X151426564Y-84528894D01*
X151433512Y-84495782D01*
X151433635Y-84495214D01*
X151440696Y-84463493D01*
X151440972Y-84462254D01*
X151441247Y-84459898D01*
X151441958Y-84455529D01*
X151442191Y-84454420D01*
X151442193Y-84454408D01*
X151442448Y-84453192D01*
X151445954Y-84419559D01*
X151446020Y-84418967D01*
X151449782Y-84386691D01*
X151449930Y-84385423D01*
X151449961Y-84383050D01*
X151450221Y-84378611D01*
X151450366Y-84377217D01*
X151450466Y-84376258D01*
X151450500Y-84374960D01*
X151450500Y-84342195D01*
X151450504Y-84341554D01*
X151450547Y-84338268D01*
X151450942Y-84308079D01*
X151450698Y-84305372D01*
X151450500Y-84300973D01*
X151450500Y-83849982D01*
X151454230Y-83831231D01*
X151464852Y-83815334D01*
X151474557Y-83807806D01*
X151478308Y-83805588D01*
X151572451Y-83749912D01*
X151676445Y-83679238D01*
X151683183Y-83674012D01*
X151775198Y-83602637D01*
X151775201Y-83602635D01*
X151775796Y-83602173D01*
X151799164Y-83581572D01*
X151864785Y-83523719D01*
X151870113Y-83519022D01*
X151959022Y-83430113D01*
X151990419Y-83394500D01*
X152041669Y-83336368D01*
X152041673Y-83336363D01*
X152042173Y-83335796D01*
X152055336Y-83318827D01*
X152118776Y-83237041D01*
X152118780Y-83237035D01*
X152119238Y-83236445D01*
X152189912Y-83132451D01*
X152253917Y-83024224D01*
X152311000Y-82912192D01*
X152311311Y-82911474D01*
X152360628Y-82797510D01*
X152360634Y-82797495D01*
X152360936Y-82796797D01*
X152403528Y-82678494D01*
X152438608Y-82557750D01*
X152466036Y-82435041D01*
X152485706Y-82310853D01*
X152495469Y-82207575D01*
X152497467Y-82186441D01*
X152497468Y-82186425D01*
X152497539Y-82185674D01*
X152501488Y-82060000D01*
X152497539Y-81934326D01*
X152497468Y-81933575D01*
X152497467Y-81933559D01*
X152487924Y-81832610D01*
X152485706Y-81809147D01*
X152466036Y-81684959D01*
X152438608Y-81562250D01*
X152403528Y-81441506D01*
X152360936Y-81323203D01*
X152360634Y-81322505D01*
X152360628Y-81322490D01*
X152311311Y-81208526D01*
X152311307Y-81208518D01*
X152311000Y-81207808D01*
X152253917Y-81095776D01*
X152189912Y-80987549D01*
X152119238Y-80883555D01*
X152111543Y-80873634D01*
X152042637Y-80784802D01*
X152042635Y-80784799D01*
X152042173Y-80784204D01*
X151959022Y-80689887D01*
X151870113Y-80600978D01*
X151775796Y-80517827D01*
X151767606Y-80511474D01*
X151677041Y-80441224D01*
X151677035Y-80441220D01*
X151676445Y-80440762D01*
X151572451Y-80370088D01*
X151571780Y-80369691D01*
X151464906Y-80306486D01*
X151464898Y-80306482D01*
X151464224Y-80306083D01*
X151352192Y-80249000D01*
X151351482Y-80248693D01*
X151351474Y-80248689D01*
X151237510Y-80199372D01*
X151237495Y-80199366D01*
X151236797Y-80199064D01*
X151118494Y-80156472D01*
X151055777Y-80138251D01*
X150998488Y-80121606D01*
X150998476Y-80121603D01*
X150997750Y-80121392D01*
X150875041Y-80093964D01*
X150750853Y-80074294D01*
X150687372Y-80068293D01*
X150626441Y-80062533D01*
X150626425Y-80062532D01*
X150625674Y-80062461D01*
X150500000Y-80058512D01*
X150374326Y-80062461D01*
X150373575Y-80062532D01*
X150373559Y-80062533D01*
X150312628Y-80068293D01*
X150249147Y-80074294D01*
X150124959Y-80093964D01*
X150002250Y-80121392D01*
X150001524Y-80121603D01*
X150001512Y-80121606D01*
X149944223Y-80138251D01*
X149881506Y-80156472D01*
X149763203Y-80199064D01*
X149762505Y-80199366D01*
X149762490Y-80199372D01*
X149648526Y-80248689D01*
X149648518Y-80248693D01*
X149647808Y-80249000D01*
X149535776Y-80306083D01*
X149535102Y-80306482D01*
X149535094Y-80306486D01*
X149428220Y-80369691D01*
X149427549Y-80370088D01*
X149323555Y-80440762D01*
X149322965Y-80441220D01*
X149322959Y-80441224D01*
X149232394Y-80511474D01*
X149224204Y-80517827D01*
X149129887Y-80600978D01*
X149040978Y-80689887D01*
X148957827Y-80784204D01*
X148957365Y-80784799D01*
X148957363Y-80784802D01*
X148888458Y-80873634D01*
X148880762Y-80883555D01*
X148880340Y-80884176D01*
X148880332Y-80884187D01*
X148875027Y-80891994D01*
X148861403Y-80905406D01*
X148843682Y-80912584D01*
X148824564Y-80912434D01*
X148806958Y-80904979D01*
X148793546Y-80891355D01*
X148786368Y-80873634D01*
X148785500Y-80864452D01*
X148785500Y-80391163D01*
X148789230Y-80372412D01*
X148799852Y-80356515D01*
X149331515Y-79824852D01*
X149347412Y-79814230D01*
X149366163Y-79810500D01*
X154868837Y-79810500D01*
X154887588Y-79814230D01*
X154903485Y-79824852D01*
X157735148Y-82656515D01*
X157745770Y-82672412D01*
X157749500Y-82691163D01*
X157749500Y-83745501D01*
X157745770Y-83764252D01*
X157735148Y-83780149D01*
X157719251Y-83790771D01*
X157700500Y-83794501D01*
X156979012Y-83794501D01*
X156952806Y-83795736D01*
X156917978Y-83801252D01*
X156892130Y-83805346D01*
X156892128Y-83805347D01*
X156890603Y-83805588D01*
X156889111Y-83806021D01*
X156889113Y-83806021D01*
X156831602Y-83822729D01*
X156831599Y-83822730D01*
X156830126Y-83823158D01*
X156772328Y-83848169D01*
X156718121Y-83880227D01*
X156716905Y-83881170D01*
X156716898Y-83881175D01*
X156669578Y-83917881D01*
X156669574Y-83917885D01*
X156668359Y-83918827D01*
X156623827Y-83963359D01*
X156622885Y-83964574D01*
X156622881Y-83964578D01*
X156586175Y-84011898D01*
X156586170Y-84011905D01*
X156585227Y-84013121D01*
X156553169Y-84067328D01*
X156528158Y-84125126D01*
X156510588Y-84185603D01*
X156500736Y-84247806D01*
X156499500Y-84274011D01*
X156499501Y-87315988D01*
X156500736Y-87342194D01*
X156500947Y-87343525D01*
X156509175Y-87395473D01*
X156510588Y-87404397D01*
X156511021Y-87405887D01*
X156522239Y-87444499D01*
X156528158Y-87464874D01*
X156553169Y-87522672D01*
X156585227Y-87576879D01*
X156586170Y-87578095D01*
X156586175Y-87578102D01*
X156622881Y-87625422D01*
X156623827Y-87626641D01*
X156668359Y-87671173D01*
X156669574Y-87672115D01*
X156669578Y-87672119D01*
X156716898Y-87708825D01*
X156716905Y-87708830D01*
X156718121Y-87709773D01*
X156772328Y-87741831D01*
X156830126Y-87766842D01*
X156831599Y-87767270D01*
X156831602Y-87767271D01*
X156866668Y-87777458D01*
X156890603Y-87784412D01*
X156892128Y-87784653D01*
X156892130Y-87784654D01*
X156940939Y-87792384D01*
X156952806Y-87794264D01*
X156967549Y-87794959D01*
X156978431Y-87795473D01*
X156978446Y-87795473D01*
X156979011Y-87795500D01*
X158497426Y-87795500D01*
X160020988Y-87795499D01*
X160047194Y-87794264D01*
X160082022Y-87788748D01*
X160107870Y-87784654D01*
X160107872Y-87784653D01*
X160109397Y-87784412D01*
X160133332Y-87777458D01*
X160168398Y-87767271D01*
X160168401Y-87767270D01*
X160169874Y-87766842D01*
X160227672Y-87741831D01*
X160281879Y-87709773D01*
X160283095Y-87708830D01*
X160283102Y-87708825D01*
X160330422Y-87672119D01*
X160330426Y-87672115D01*
X160331641Y-87671173D01*
X160376173Y-87626641D01*
X160377119Y-87625422D01*
X160413825Y-87578102D01*
X160413830Y-87578095D01*
X160414773Y-87576879D01*
X160446831Y-87522672D01*
X160471842Y-87464874D01*
X160477762Y-87444499D01*
X160488979Y-87405887D01*
X160489412Y-87404397D01*
X160490231Y-87399230D01*
X160499053Y-87343526D01*
X160499053Y-87343525D01*
X160499264Y-87342194D01*
X160500500Y-87315989D01*
X160500499Y-84274012D01*
X160499264Y-84247806D01*
X160489412Y-84185603D01*
X160471842Y-84125126D01*
X160446831Y-84067328D01*
X160414773Y-84013121D01*
X160413830Y-84011905D01*
X160413825Y-84011898D01*
X160377119Y-83964578D01*
X160377115Y-83964574D01*
X160376173Y-83963359D01*
X160331641Y-83918827D01*
X160330426Y-83917885D01*
X160330422Y-83917881D01*
X160283102Y-83881175D01*
X160283095Y-83881170D01*
X160281879Y-83880227D01*
X160227672Y-83848169D01*
X160169874Y-83823158D01*
X160168401Y-83822730D01*
X160168398Y-83822729D01*
X160110887Y-83806021D01*
X160110889Y-83806021D01*
X160109397Y-83805588D01*
X160107872Y-83805347D01*
X160107870Y-83805346D01*
X160048526Y-83795947D01*
X160048527Y-83795947D01*
X160047194Y-83795736D01*
X160032451Y-83795041D01*
X160021569Y-83794527D01*
X160021554Y-83794527D01*
X160020989Y-83794500D01*
X159299500Y-83794500D01*
X159280749Y-83790770D01*
X159264852Y-83780148D01*
X159254230Y-83764251D01*
X159250500Y-83745500D01*
X159250500Y-82375699D01*
X159250538Y-82373775D01*
X159251391Y-82352073D01*
X159251391Y-82352068D01*
X159251440Y-82350819D01*
X159249287Y-82317070D01*
X159249253Y-82316472D01*
X159247580Y-82284015D01*
X159247515Y-82282752D01*
X159247149Y-82280400D01*
X159246666Y-82275995D01*
X159246595Y-82274881D01*
X159246515Y-82273626D01*
X159240921Y-82240368D01*
X159240826Y-82239780D01*
X159235811Y-82207575D01*
X159235807Y-82207558D01*
X159235615Y-82206322D01*
X159235013Y-82204035D01*
X159234079Y-82199694D01*
X159233896Y-82198606D01*
X159233891Y-82198585D01*
X159233683Y-82197347D01*
X159224675Y-82164757D01*
X159224519Y-82164178D01*
X159216246Y-82132753D01*
X159216244Y-82132746D01*
X159215921Y-82131520D01*
X159215081Y-82129291D01*
X159213704Y-82125064D01*
X159213412Y-82124006D01*
X159213410Y-82124001D01*
X159213076Y-82122791D01*
X159200796Y-82091375D01*
X159200581Y-82090816D01*
X159189086Y-82060313D01*
X159189082Y-82060304D01*
X159188643Y-82059139D01*
X159187583Y-82057017D01*
X159185783Y-82052965D01*
X159185377Y-82051928D01*
X159185376Y-82051926D01*
X159184916Y-82050749D01*
X159169443Y-82020706D01*
X159169178Y-82020184D01*
X159154631Y-81991071D01*
X159154069Y-81989946D01*
X159152800Y-81987950D01*
X159150585Y-81984090D01*
X159150083Y-81983115D01*
X159150078Y-81983106D01*
X159149499Y-81981982D01*
X159148806Y-81980921D01*
X159148799Y-81980909D01*
X159130996Y-81953652D01*
X159130671Y-81953148D01*
X159113248Y-81925746D01*
X159113241Y-81925736D01*
X159112565Y-81924673D01*
X159111097Y-81922817D01*
X159108507Y-81919221D01*
X159107201Y-81917221D01*
X159085880Y-81890938D01*
X159085575Y-81890557D01*
X159064572Y-81864011D01*
X159063694Y-81863109D01*
X159063681Y-81863095D01*
X159062912Y-81862306D01*
X159059957Y-81858984D01*
X159059073Y-81857894D01*
X159059070Y-81857890D01*
X159058470Y-81857151D01*
X159057823Y-81856469D01*
X159057814Y-81856459D01*
X159057791Y-81856436D01*
X159057576Y-81856209D01*
X159034433Y-81833066D01*
X159033982Y-81832610D01*
X159010597Y-81808605D01*
X159008499Y-81806854D01*
X159005260Y-81803893D01*
X155741793Y-78540426D01*
X155740459Y-78539039D01*
X155739856Y-78538387D01*
X155724856Y-78522160D01*
X155700731Y-78500929D01*
X155699511Y-78499855D01*
X155699063Y-78499456D01*
X155693067Y-78494048D01*
X155673950Y-78476804D01*
X155672031Y-78475402D01*
X155668558Y-78472614D01*
X155667749Y-78471902D01*
X155667748Y-78471901D01*
X155666790Y-78471058D01*
X155639167Y-78451391D01*
X155638889Y-78451190D01*
X155611492Y-78431175D01*
X155610388Y-78430531D01*
X155609442Y-78429979D01*
X155605719Y-78427575D01*
X155604820Y-78426935D01*
X155604805Y-78426926D01*
X155603779Y-78426195D01*
X155574322Y-78409495D01*
X155573928Y-78409269D01*
X155560481Y-78401427D01*
X155545759Y-78392841D01*
X155545754Y-78392838D01*
X155544673Y-78392208D01*
X155542507Y-78391228D01*
X155538566Y-78389224D01*
X155536489Y-78388047D01*
X155535353Y-78387549D01*
X155535338Y-78387542D01*
X155505492Y-78374472D01*
X155504945Y-78374228D01*
X155503142Y-78373412D01*
X155474203Y-78360315D01*
X155472887Y-78359876D01*
X155471947Y-78359562D01*
X155467810Y-78357970D01*
X155466794Y-78357525D01*
X155466785Y-78357522D01*
X155465635Y-78357018D01*
X155433341Y-78346681D01*
X155432984Y-78346564D01*
X155400829Y-78335836D01*
X155398513Y-78335321D01*
X155394227Y-78334159D01*
X155393174Y-78333822D01*
X155393162Y-78333819D01*
X155391966Y-78333436D01*
X155390749Y-78333181D01*
X155390739Y-78333178D01*
X155371212Y-78329081D01*
X155358805Y-78326478D01*
X155358328Y-78326375D01*
X155325326Y-78319028D01*
X155324081Y-78318883D01*
X155324070Y-78318881D01*
X155322970Y-78318753D01*
X155318601Y-78318042D01*
X155317508Y-78317813D01*
X155316264Y-78317552D01*
X155315008Y-78317421D01*
X155315001Y-78317420D01*
X155282655Y-78314049D01*
X155282061Y-78313983D01*
X155249762Y-78310217D01*
X155249750Y-78310216D01*
X155248496Y-78310070D01*
X155247237Y-78310054D01*
X155247228Y-78310053D01*
X155246122Y-78310039D01*
X155241681Y-78309779D01*
X155240283Y-78309633D01*
X155240274Y-78309632D01*
X155239330Y-78309534D01*
X155238376Y-78309509D01*
X155238365Y-78309509D01*
X155238032Y-78309500D01*
X155205267Y-78309500D01*
X155204626Y-78309496D01*
X155171151Y-78309058D01*
X155168444Y-78309302D01*
X155164045Y-78309500D01*
X149050706Y-78309500D01*
X149048783Y-78309462D01*
X149027073Y-78308609D01*
X149027068Y-78308609D01*
X149025819Y-78308560D01*
X148991984Y-78310719D01*
X148991494Y-78310746D01*
X148957752Y-78312485D01*
X148955397Y-78312852D01*
X148951010Y-78313332D01*
X148948626Y-78313484D01*
X148947378Y-78313694D01*
X148947369Y-78313695D01*
X148915310Y-78319088D01*
X148914722Y-78319183D01*
X148882575Y-78324189D01*
X148882558Y-78324193D01*
X148881322Y-78324385D01*
X148880114Y-78324703D01*
X148880109Y-78324704D01*
X148879035Y-78324987D01*
X148874694Y-78325921D01*
X148873606Y-78326104D01*
X148873585Y-78326109D01*
X148872347Y-78326317D01*
X148847525Y-78333178D01*
X148839757Y-78335325D01*
X148839178Y-78335481D01*
X148807753Y-78343754D01*
X148807746Y-78343756D01*
X148806520Y-78344079D01*
X148804291Y-78344919D01*
X148800064Y-78346296D01*
X148799006Y-78346588D01*
X148799001Y-78346590D01*
X148797791Y-78346924D01*
X148796615Y-78347384D01*
X148796614Y-78347384D01*
X148766375Y-78359204D01*
X148765816Y-78359419D01*
X148735313Y-78370914D01*
X148735304Y-78370918D01*
X148734139Y-78371357D01*
X148732371Y-78372241D01*
X148732017Y-78372417D01*
X148727965Y-78374217D01*
X148726928Y-78374623D01*
X148725749Y-78375084D01*
X148698316Y-78389213D01*
X148695718Y-78390551D01*
X148695195Y-78390816D01*
X148664946Y-78405931D01*
X148663881Y-78406608D01*
X148663878Y-78406610D01*
X148662950Y-78407200D01*
X148659090Y-78409415D01*
X148658115Y-78409917D01*
X148658106Y-78409922D01*
X148656982Y-78410501D01*
X148655921Y-78411194D01*
X148655909Y-78411201D01*
X148628652Y-78429004D01*
X148628148Y-78429329D01*
X148600746Y-78446752D01*
X148600736Y-78446759D01*
X148599673Y-78447435D01*
X148598684Y-78448218D01*
X148598679Y-78448221D01*
X148597817Y-78448903D01*
X148594221Y-78451493D01*
X148592221Y-78452799D01*
X148568673Y-78471902D01*
X148565972Y-78474093D01*
X148565557Y-78474425D01*
X148539011Y-78495428D01*
X148538109Y-78496306D01*
X148538095Y-78496319D01*
X148537306Y-78497088D01*
X148533984Y-78500043D01*
X148532151Y-78501530D01*
X148531209Y-78502423D01*
X148508028Y-78525604D01*
X148507573Y-78526054D01*
X148483605Y-78549403D01*
X148481859Y-78551495D01*
X148478898Y-78554734D01*
X147515425Y-79518208D01*
X147514038Y-79519542D01*
X147497160Y-79535144D01*
X147496331Y-79536086D01*
X147496330Y-79536087D01*
X147474855Y-79560489D01*
X147474456Y-79560937D01*
X147451804Y-79586050D01*
X147450407Y-79587963D01*
X147447614Y-79591442D01*
X147446058Y-79593210D01*
X147426391Y-79620833D01*
X147426190Y-79621111D01*
X147406175Y-79648508D01*
X147405532Y-79649610D01*
X147405531Y-79649612D01*
X147404979Y-79650558D01*
X147402575Y-79654281D01*
X147401935Y-79655180D01*
X147401926Y-79655195D01*
X147401195Y-79656221D01*
X147384495Y-79685678D01*
X147384269Y-79686072D01*
X147367208Y-79715327D01*
X147366691Y-79716469D01*
X147366232Y-79717484D01*
X147364224Y-79721434D01*
X147363047Y-79723511D01*
X147362549Y-79724647D01*
X147362542Y-79724662D01*
X147349472Y-79754508D01*
X147349239Y-79755031D01*
X147335315Y-79785797D01*
X147334912Y-79787005D01*
X147334562Y-79788053D01*
X147332970Y-79792190D01*
X147332525Y-79793206D01*
X147332522Y-79793215D01*
X147332018Y-79794365D01*
X147321681Y-79826659D01*
X147321564Y-79827016D01*
X147310836Y-79859171D01*
X147310321Y-79861487D01*
X147309159Y-79865773D01*
X147308822Y-79866826D01*
X147308819Y-79866838D01*
X147308436Y-79868034D01*
X147308181Y-79869251D01*
X147308178Y-79869261D01*
X147301489Y-79901145D01*
X147301375Y-79901672D01*
X147294028Y-79934674D01*
X147293883Y-79935919D01*
X147293881Y-79935930D01*
X147293753Y-79937030D01*
X147293042Y-79941399D01*
X147292552Y-79943736D01*
X147292421Y-79944992D01*
X147292420Y-79944999D01*
X147289049Y-79977345D01*
X147288983Y-79977939D01*
X147285217Y-80010238D01*
X147285216Y-80010250D01*
X147285070Y-80011504D01*
X147285054Y-80012763D01*
X147285053Y-80012772D01*
X147285039Y-80013878D01*
X147284779Y-80018319D01*
X147284534Y-80020670D01*
X147284500Y-80021968D01*
X147284500Y-80054733D01*
X147284496Y-80055376D01*
X147284386Y-80063761D01*
X147280410Y-80082462D01*
X147269581Y-80098218D01*
X147253546Y-80108630D01*
X147234747Y-80112114D01*
X147215930Y-80108088D01*
X147169874Y-80088158D01*
X147168401Y-80087730D01*
X147168398Y-80087729D01*
X147110887Y-80071021D01*
X147110889Y-80071021D01*
X147109397Y-80070588D01*
X147107872Y-80070347D01*
X147107870Y-80070346D01*
X147048526Y-80060947D01*
X147048527Y-80060947D01*
X147047194Y-80060736D01*
X147032451Y-80060041D01*
X147021569Y-80059527D01*
X147021554Y-80059527D01*
X147020989Y-80059500D01*
X145502574Y-80059500D01*
X143979012Y-80059501D01*
X143952806Y-80060736D01*
X143933707Y-80063761D01*
X143892130Y-80070346D01*
X143892128Y-80070347D01*
X143890603Y-80070588D01*
X143889111Y-80071021D01*
X143889113Y-80071021D01*
X143831602Y-80087729D01*
X143831599Y-80087730D01*
X143830126Y-80088158D01*
X143772328Y-80113169D01*
X143718121Y-80145227D01*
X143716905Y-80146170D01*
X143716898Y-80146175D01*
X143669578Y-80182881D01*
X143669574Y-80182885D01*
X143668359Y-80183827D01*
X143623827Y-80228359D01*
X143622885Y-80229574D01*
X143622881Y-80229578D01*
X143586175Y-80276898D01*
X143586170Y-80276905D01*
X143585227Y-80278121D01*
X143553169Y-80332328D01*
X143528158Y-80390126D01*
X143510588Y-80450603D01*
X143500736Y-80512806D01*
X143499500Y-80539011D01*
X115700501Y-80539011D01*
X115700501Y-77214855D01*
X115704231Y-77196104D01*
X115714853Y-77180207D01*
X115730750Y-77169585D01*
X115749501Y-77165855D01*
X168490501Y-77165855D01*
X168509252Y-77169585D01*
G37*
%TD.AperFunction*%
%TD*%
M02*
