%TF.GenerationSoftware,KiCad,Pcbnew,(6.0.11)*%
%TF.CreationDate,2023-03-07T15:10:14+01:00*%
%TF.ProjectId,ultrasonic speaker,756c7472-6173-46f6-9e69-632073706561,rev?*%
%TF.SameCoordinates,Original*%
%TF.FileFunction,Copper,L1,Top*%
%TF.FilePolarity,Positive*%
%FSLAX46Y46*%
G04 Gerber Fmt 4.6, Leading zero omitted, Abs format (unit mm)*
G04 Created by KiCad (PCBNEW (6.0.11)) date 2023-03-07 15:10:14*
%MOMM*%
%LPD*%
G01*
G04 APERTURE LIST*
G04 Aperture macros list*
%AMRoundRect*
0 Rectangle with rounded corners*
0 $1 Rounding radius*
0 $2 $3 $4 $5 $6 $7 $8 $9 X,Y pos of 4 corners*
0 Add a 4 corners polygon primitive as box body*
4,1,4,$2,$3,$4,$5,$6,$7,$8,$9,$2,$3,0*
0 Add four circle primitives for the rounded corners*
1,1,$1+$1,$2,$3*
1,1,$1+$1,$4,$5*
1,1,$1+$1,$6,$7*
1,1,$1+$1,$8,$9*
0 Add four rect primitives between the rounded corners*
20,1,$1+$1,$2,$3,$4,$5,0*
20,1,$1+$1,$4,$5,$6,$7,0*
20,1,$1+$1,$6,$7,$8,$9,0*
20,1,$1+$1,$8,$9,$2,$3,0*%
%AMFreePoly0*
4,1,10,3.862500,-0.866500,1.250843,-0.866500,1.250861,-0.861585,0.725074,-0.450000,-0.737500,-0.450000,-0.737500,0.450000,0.725074,0.450000,1.257139,0.866500,3.862500,0.866500,3.862500,-0.866500,3.862500,-0.866500,$1*%
G04 Aperture macros list end*
%TA.AperFunction,SMDPad,CuDef*%
%ADD10RoundRect,0.150000X-0.825000X-0.150000X0.825000X-0.150000X0.825000X0.150000X-0.825000X0.150000X0*%
%TD*%
%TA.AperFunction,SMDPad,CuDef*%
%ADD11R,2.290000X3.000000*%
%TD*%
%TA.AperFunction,ComponentPad*%
%ADD12C,2.000000*%
%TD*%
%TA.AperFunction,ComponentPad*%
%ADD13R,2.100000X2.100000*%
%TD*%
%TA.AperFunction,ComponentPad*%
%ADD14C,2.100000*%
%TD*%
%TA.AperFunction,SMDPad,CuDef*%
%ADD15R,1.300000X0.900000*%
%TD*%
%TA.AperFunction,SMDPad,CuDef*%
%ADD16FreePoly0,0.000000*%
%TD*%
%TA.AperFunction,ComponentPad*%
%ADD17R,1.524000X1.524000*%
%TD*%
%TA.AperFunction,ComponentPad*%
%ADD18C,1.524000*%
%TD*%
%TA.AperFunction,SMDPad,CuDef*%
%ADD19RoundRect,0.237500X-0.250000X-0.237500X0.250000X-0.237500X0.250000X0.237500X-0.250000X0.237500X0*%
%TD*%
%TA.AperFunction,SMDPad,CuDef*%
%ADD20RoundRect,0.250000X-0.325000X-0.450000X0.325000X-0.450000X0.325000X0.450000X-0.325000X0.450000X0*%
%TD*%
%TA.AperFunction,SMDPad,CuDef*%
%ADD21RoundRect,0.237500X-0.287500X-0.237500X0.287500X-0.237500X0.287500X0.237500X-0.287500X0.237500X0*%
%TD*%
%TA.AperFunction,SMDPad,CuDef*%
%ADD22RoundRect,0.237500X-0.300000X-0.237500X0.300000X-0.237500X0.300000X0.237500X-0.300000X0.237500X0*%
%TD*%
%TA.AperFunction,Conductor*%
%ADD23C,0.500000*%
%TD*%
G04 APERTURE END LIST*
D10*
%TO.P,U2,1,NC*%
%TO.N,unconnected-(U2-Pad1)*%
X147385000Y-81915000D03*
%TO.P,U2,2,IN_A*%
%TO.N,Net-(U1-Pad24)*%
X147385000Y-83185000D03*
D11*
%TO.P,U2,3,GND*%
%TO.N,GND*%
X149860000Y-83820000D03*
D10*
X147385000Y-84455000D03*
%TO.P,U2,4,IN_B*%
%TO.N,Net-(U1-Pad25)*%
X147385000Y-85725000D03*
%TO.P,U2,5,OUT_B*%
%TO.N,Net-(J1-Pad2)*%
X152335000Y-85725000D03*
%TO.P,U2,6,V+*%
%TO.N,VCC*%
X152335000Y-84455000D03*
%TO.P,U2,7,OUT_A*%
%TO.N,Net-(J1-Pad1)*%
X152335000Y-83185000D03*
%TO.P,U2,8,NC*%
%TO.N,unconnected-(U2-Pad8)*%
X152335000Y-81915000D03*
%TD*%
D12*
%TO.P,LS1,1,1*%
%TO.N,/Ultrasonic Array/power1*%
X244030000Y-45140000D03*
%TO.P,LS1,2,2*%
%TO.N,/Ultrasonic Array/power2*%
X251530000Y-45140000D03*
%TD*%
D13*
%TO.P,J3,1,Pin_1*%
%TO.N,/Ultrasonic Array/power1*%
X246380000Y-30480000D03*
D14*
%TO.P,J3,2,Pin_2*%
%TO.N,/Ultrasonic Array/power2*%
X248920000Y-30480000D03*
%TD*%
D15*
%TO.P,U3,1,ADJ*%
%TO.N,Net-(R1-Pad1)*%
X165990000Y-76200000D03*
D16*
%TO.P,U3,2,VO*%
%TO.N,Net-(C2-Pad1)*%
X166077500Y-77700000D03*
D15*
%TO.P,U3,3,VI*%
%TO.N,VCC*%
X165990000Y-79200000D03*
%TD*%
D17*
%TO.P,U1,1,EN*%
%TO.N,unconnected-(U1-Pad1)*%
X113395527Y-62173929D03*
D18*
%TO.P,U1,2,SENSOR_VP*%
%TO.N,unconnected-(U1-Pad2)*%
X113395527Y-64713929D03*
%TO.P,U1,3,SENSOR_VN*%
%TO.N,unconnected-(U1-Pad3)*%
X113395527Y-67253929D03*
%TO.P,U1,4,IO34*%
%TO.N,unconnected-(U1-Pad4)*%
X113395527Y-69793929D03*
%TO.P,U1,5,IO35*%
%TO.N,unconnected-(U1-Pad5)*%
X113395527Y-72333929D03*
%TO.P,U1,6,IO32*%
%TO.N,unconnected-(U1-Pad6)*%
X113395527Y-74873929D03*
%TO.P,U1,7,IO33*%
%TO.N,unconnected-(U1-Pad7)*%
X113395527Y-77413929D03*
%TO.P,U1,8,IO25*%
%TO.N,unconnected-(U1-Pad8)*%
X113395527Y-79953929D03*
%TO.P,U1,9,IO26*%
%TO.N,unconnected-(U1-Pad9)*%
X113395527Y-82493929D03*
%TO.P,U1,10,IO27*%
%TO.N,unconnected-(U1-Pad10)*%
X113395527Y-85033929D03*
%TO.P,U1,11,IO14*%
%TO.N,unconnected-(U1-Pad11)*%
X113395527Y-87573929D03*
%TO.P,U1,12,IO12*%
%TO.N,unconnected-(U1-Pad12)*%
X113395527Y-90113929D03*
%TO.P,U1,13,IO13*%
%TO.N,unconnected-(U1-Pad13)*%
X113395527Y-92653929D03*
%TO.P,U1,14,GND*%
%TO.N,GND*%
X113395527Y-95193929D03*
%TO.P,U1,15,VIN*%
%TO.N,unconnected-(U1-Pad15)*%
X113395527Y-97733929D03*
%TO.P,U1,16,3V3*%
%TO.N,+3.3V*%
X138795527Y-97733929D03*
%TO.P,U1,17,GND*%
%TO.N,GND*%
X138795527Y-95193929D03*
%TO.P,U1,18,IO15*%
%TO.N,unconnected-(U1-Pad18)*%
X138795527Y-92653929D03*
%TO.P,U1,19,IO2*%
%TO.N,unconnected-(U1-Pad19)*%
X138795527Y-90113929D03*
%TO.P,U1,20,IO4*%
%TO.N,unconnected-(U1-Pad20)*%
X138795527Y-87573929D03*
%TO.P,U1,21,IO16*%
%TO.N,unconnected-(U1-Pad21)*%
X138795527Y-85033929D03*
%TO.P,U1,22,IO17*%
%TO.N,unconnected-(U1-Pad22)*%
X138795527Y-82493929D03*
%TO.P,U1,23,IO5*%
%TO.N,unconnected-(U1-Pad23)*%
X138795527Y-79953929D03*
%TO.P,U1,24,IO18*%
%TO.N,Net-(U1-Pad24)*%
X138795527Y-77413929D03*
%TO.P,U1,25,IO19*%
%TO.N,Net-(U1-Pad25)*%
X138795527Y-74873929D03*
%TO.P,U1,26,IO21*%
%TO.N,unconnected-(U1-Pad26)*%
X138795527Y-72333929D03*
%TO.P,U1,27,RXD0/IO3*%
%TO.N,unconnected-(U1-Pad27)*%
X138795527Y-69793929D03*
%TO.P,U1,28,TXD0/IO1*%
%TO.N,unconnected-(U1-Pad28)*%
X138795527Y-67253929D03*
%TO.P,U1,29,IO22*%
%TO.N,unconnected-(U1-Pad29)*%
X138795527Y-64713929D03*
%TO.P,U1,30,IO23*%
%TO.N,unconnected-(U1-Pad30)*%
X138795527Y-62173929D03*
%TD*%
D19*
%TO.P,R3,2*%
%TO.N,Net-(D2-Pad2)*%
X175442500Y-63500000D03*
%TO.P,R3,1*%
%TO.N,Net-(C2-Pad1)*%
X173617500Y-63500000D03*
%TD*%
%TO.P,R2,1*%
%TO.N,Net-(C2-Pad1)*%
X164917500Y-63500000D03*
%TO.P,R2,2*%
%TO.N,Net-(R1-Pad1)*%
X166742500Y-63500000D03*
%TD*%
%TO.P,R1,1*%
%TO.N,Net-(R1-Pad1)*%
X169267500Y-66010000D03*
%TO.P,R1,2*%
%TO.N,GND*%
X171092500Y-66010000D03*
%TD*%
D13*
%TO.P,J2,1,Pin_1*%
%TO.N,VCC*%
X175260000Y-104140000D03*
D14*
%TO.P,J2,2,Pin_2*%
%TO.N,GND*%
X177800000Y-104140000D03*
%TD*%
D13*
%TO.P,J1,1,Pin_1*%
%TO.N,Net-(J1-Pad1)*%
X144780000Y-58420000D03*
D14*
%TO.P,J1,2,Pin_2*%
%TO.N,Net-(J1-Pad2)*%
X147320000Y-58420000D03*
%TD*%
D20*
%TO.P,D2,1,K*%
%TO.N,GND*%
X155870000Y-63765000D03*
%TO.P,D2,2,A*%
%TO.N,Net-(D2-Pad2)*%
X157920000Y-63765000D03*
%TD*%
D21*
%TO.P,D1,2,A*%
%TO.N,Net-(C2-Pad1)*%
X162360000Y-63540000D03*
%TO.P,D1,1,K*%
%TO.N,+3.3V*%
X160610000Y-63540000D03*
%TD*%
D22*
%TO.P,C2,1*%
%TO.N,Net-(C2-Pad1)*%
X164967500Y-66010000D03*
%TO.P,C2,2*%
%TO.N,GND*%
X166692500Y-66010000D03*
%TD*%
%TO.P,C1,1*%
%TO.N,VCC*%
X169317500Y-63500000D03*
%TO.P,C1,2*%
%TO.N,GND*%
X171042500Y-63500000D03*
%TD*%
D23*
%TO.N,/Ultrasonic Array/power2*%
X251530000Y-45140000D02*
X251530000Y-33090000D01*
X251530000Y-33090000D02*
X248920000Y-30480000D01*
%TO.N,/Ultrasonic Array/power1*%
X244030000Y-45140000D02*
X243840000Y-44950000D01*
X243840000Y-44950000D02*
X243840000Y-33020000D01*
X243840000Y-33020000D02*
X246380000Y-30480000D01*
%TD*%
%TA.AperFunction,Conductor*%
%TO.N,GND*%
G36*
X205381621Y-46040502D02*
G01*
X205428114Y-46094158D01*
X205439500Y-46146500D01*
X205439500Y-131653500D01*
X205419498Y-131721621D01*
X205365842Y-131768114D01*
X205313500Y-131779500D01*
X107106500Y-131779500D01*
X107038379Y-131759498D01*
X106991886Y-131705842D01*
X106980500Y-131653500D01*
X106980500Y-103058481D01*
X173809500Y-103058481D01*
X173809501Y-105221518D01*
X173824354Y-105315304D01*
X173881950Y-105428342D01*
X173971658Y-105518050D01*
X174084696Y-105575646D01*
X174094485Y-105577196D01*
X174094487Y-105577197D01*
X174121849Y-105581530D01*
X174178481Y-105590500D01*
X175259781Y-105590500D01*
X176341518Y-105590499D01*
X176346412Y-105589724D01*
X176425506Y-105577198D01*
X176425508Y-105577197D01*
X176435304Y-105575646D01*
X176548342Y-105518050D01*
X176638050Y-105428342D01*
X176695646Y-105315304D01*
X176710500Y-105221519D01*
X176710499Y-103058482D01*
X176695646Y-102964696D01*
X176638050Y-102851658D01*
X176548342Y-102761950D01*
X176435304Y-102704354D01*
X176425515Y-102702804D01*
X176425513Y-102702803D01*
X176398151Y-102698470D01*
X176341519Y-102689500D01*
X175260219Y-102689500D01*
X174178482Y-102689501D01*
X174173589Y-102690276D01*
X174173588Y-102690276D01*
X174094494Y-102702802D01*
X174094492Y-102702803D01*
X174084696Y-102704354D01*
X173971658Y-102761950D01*
X173881950Y-102851658D01*
X173824354Y-102964696D01*
X173809500Y-103058481D01*
X106980500Y-103058481D01*
X106980500Y-97703368D01*
X112228447Y-97703368D01*
X112242421Y-97916563D01*
X112295012Y-98123642D01*
X112384460Y-98317669D01*
X112507768Y-98492147D01*
X112660808Y-98641231D01*
X112838454Y-98759930D01*
X112843757Y-98762208D01*
X112843760Y-98762210D01*
X113029449Y-98841988D01*
X113034756Y-98844268D01*
X113136520Y-98867295D01*
X113237504Y-98890146D01*
X113237507Y-98890146D01*
X113243140Y-98891421D01*
X113248911Y-98891648D01*
X113248913Y-98891648D01*
X113313890Y-98894201D01*
X113456628Y-98899809D01*
X113562349Y-98884480D01*
X113662356Y-98869980D01*
X113662361Y-98869979D01*
X113668070Y-98869151D01*
X113673534Y-98867296D01*
X113673539Y-98867295D01*
X113864916Y-98802331D01*
X113870384Y-98800475D01*
X114056795Y-98696080D01*
X114221060Y-98559462D01*
X114357678Y-98395197D01*
X114462073Y-98208786D01*
X114530749Y-98006472D01*
X114543786Y-97916563D01*
X114560874Y-97798704D01*
X114561407Y-97795030D01*
X114563007Y-97733929D01*
X114560199Y-97703368D01*
X137628447Y-97703368D01*
X137642421Y-97916563D01*
X137695012Y-98123642D01*
X137784460Y-98317669D01*
X137907768Y-98492147D01*
X138060808Y-98641231D01*
X138238454Y-98759930D01*
X138243757Y-98762208D01*
X138243760Y-98762210D01*
X138429449Y-98841988D01*
X138434756Y-98844268D01*
X138536520Y-98867295D01*
X138637504Y-98890146D01*
X138637507Y-98890146D01*
X138643140Y-98891421D01*
X138648911Y-98891648D01*
X138648913Y-98891648D01*
X138713890Y-98894201D01*
X138856628Y-98899809D01*
X138962349Y-98884480D01*
X139062356Y-98869980D01*
X139062361Y-98869979D01*
X139068070Y-98869151D01*
X139073534Y-98867296D01*
X139073539Y-98867295D01*
X139264916Y-98802331D01*
X139270384Y-98800475D01*
X139456795Y-98696080D01*
X139621060Y-98559462D01*
X139757678Y-98395197D01*
X139862073Y-98208786D01*
X139930749Y-98006472D01*
X139943786Y-97916563D01*
X139960874Y-97798704D01*
X139961407Y-97795030D01*
X139963007Y-97733929D01*
X139943457Y-97521173D01*
X139936619Y-97496925D01*
X139887031Y-97321101D01*
X139887030Y-97321099D01*
X139885463Y-97315542D01*
X139874189Y-97292679D01*
X139793522Y-97129103D01*
X139790967Y-97123922D01*
X139771666Y-97098074D01*
X139666587Y-96957356D01*
X139666586Y-96957355D01*
X139663134Y-96952732D01*
X139658898Y-96948816D01*
X139510484Y-96811624D01*
X139510481Y-96811622D01*
X139506244Y-96807705D01*
X139325552Y-96693697D01*
X139127109Y-96614526D01*
X139121452Y-96613401D01*
X139121446Y-96613399D01*
X138923230Y-96573972D01*
X138923226Y-96573972D01*
X138917562Y-96572845D01*
X138911787Y-96572769D01*
X138911783Y-96572769D01*
X138804524Y-96571365D01*
X138703928Y-96570048D01*
X138698231Y-96571027D01*
X138698230Y-96571027D01*
X138499058Y-96605251D01*
X138493361Y-96606230D01*
X138292914Y-96680179D01*
X138287953Y-96683131D01*
X138287952Y-96683131D01*
X138114267Y-96786462D01*
X138114264Y-96786464D01*
X138109299Y-96789418D01*
X138104959Y-96793224D01*
X138104955Y-96793227D01*
X137953008Y-96926482D01*
X137948667Y-96930289D01*
X137816396Y-97098074D01*
X137813707Y-97103185D01*
X137813705Y-97103188D01*
X137800071Y-97129103D01*
X137716916Y-97287154D01*
X137715202Y-97292675D01*
X137715200Y-97292679D01*
X137709710Y-97310362D01*
X137653559Y-97491196D01*
X137628447Y-97703368D01*
X114560199Y-97703368D01*
X114543457Y-97521173D01*
X114536619Y-97496925D01*
X114487031Y-97321101D01*
X114487030Y-97321099D01*
X114485463Y-97315542D01*
X114474189Y-97292679D01*
X114393522Y-97129103D01*
X114390967Y-97123922D01*
X114371666Y-97098074D01*
X114266587Y-96957356D01*
X114266586Y-96957355D01*
X114263134Y-96952732D01*
X114258898Y-96948816D01*
X114110484Y-96811624D01*
X114110481Y-96811622D01*
X114106244Y-96807705D01*
X113925552Y-96693697D01*
X113727109Y-96614526D01*
X113721452Y-96613401D01*
X113721446Y-96613399D01*
X113523230Y-96573972D01*
X113523226Y-96573972D01*
X113517562Y-96572845D01*
X113511787Y-96572769D01*
X113511783Y-96572769D01*
X113404524Y-96571365D01*
X113303928Y-96570048D01*
X113298231Y-96571027D01*
X113298230Y-96571027D01*
X113099058Y-96605251D01*
X113093361Y-96606230D01*
X112892914Y-96680179D01*
X112887953Y-96683131D01*
X112887952Y-96683131D01*
X112714267Y-96786462D01*
X112714264Y-96786464D01*
X112709299Y-96789418D01*
X112704959Y-96793224D01*
X112704955Y-96793227D01*
X112553008Y-96926482D01*
X112548667Y-96930289D01*
X112416396Y-97098074D01*
X112413707Y-97103185D01*
X112413705Y-97103188D01*
X112400071Y-97129103D01*
X112316916Y-97287154D01*
X112315202Y-97292675D01*
X112315200Y-97292679D01*
X112309710Y-97310362D01*
X112253559Y-97491196D01*
X112228447Y-97703368D01*
X106980500Y-97703368D01*
X106980500Y-92623368D01*
X112228447Y-92623368D01*
X112242421Y-92836563D01*
X112295012Y-93043642D01*
X112384460Y-93237669D01*
X112507768Y-93412147D01*
X112660808Y-93561231D01*
X112838454Y-93679930D01*
X112843757Y-93682208D01*
X112843760Y-93682210D01*
X113029449Y-93761988D01*
X113034756Y-93764268D01*
X113136520Y-93787295D01*
X113237504Y-93810146D01*
X113237507Y-93810146D01*
X113243140Y-93811421D01*
X113248911Y-93811648D01*
X113248913Y-93811648D01*
X113313890Y-93814201D01*
X113456628Y-93819809D01*
X113562349Y-93804480D01*
X113662356Y-93789980D01*
X113662361Y-93789979D01*
X113668070Y-93789151D01*
X113673534Y-93787296D01*
X113673539Y-93787295D01*
X113864916Y-93722331D01*
X113870384Y-93720475D01*
X114056795Y-93616080D01*
X114221060Y-93479462D01*
X114357678Y-93315197D01*
X114462073Y-93128786D01*
X114530749Y-92926472D01*
X114543786Y-92836563D01*
X114560874Y-92718704D01*
X114561407Y-92715030D01*
X114563007Y-92653929D01*
X114560199Y-92623368D01*
X137628447Y-92623368D01*
X137642421Y-92836563D01*
X137695012Y-93043642D01*
X137784460Y-93237669D01*
X137907768Y-93412147D01*
X138060808Y-93561231D01*
X138238454Y-93679930D01*
X138243757Y-93682208D01*
X138243760Y-93682210D01*
X138429449Y-93761988D01*
X138434756Y-93764268D01*
X138536520Y-93787295D01*
X138637504Y-93810146D01*
X138637507Y-93810146D01*
X138643140Y-93811421D01*
X138648911Y-93811648D01*
X138648913Y-93811648D01*
X138713890Y-93814201D01*
X138856628Y-93819809D01*
X138962349Y-93804480D01*
X139062356Y-93789980D01*
X139062361Y-93789979D01*
X139068070Y-93789151D01*
X139073534Y-93787296D01*
X139073539Y-93787295D01*
X139264916Y-93722331D01*
X139270384Y-93720475D01*
X139456795Y-93616080D01*
X139621060Y-93479462D01*
X139757678Y-93315197D01*
X139862073Y-93128786D01*
X139930749Y-92926472D01*
X139943786Y-92836563D01*
X139960874Y-92718704D01*
X139961407Y-92715030D01*
X139963007Y-92653929D01*
X139943457Y-92441173D01*
X139936619Y-92416925D01*
X139887031Y-92241101D01*
X139887030Y-92241099D01*
X139885463Y-92235542D01*
X139874189Y-92212679D01*
X139793522Y-92049103D01*
X139790967Y-92043922D01*
X139771666Y-92018074D01*
X139666587Y-91877356D01*
X139666586Y-91877355D01*
X139663134Y-91872732D01*
X139658898Y-91868816D01*
X139510484Y-91731624D01*
X139510481Y-91731622D01*
X139506244Y-91727705D01*
X139325552Y-91613697D01*
X139127109Y-91534526D01*
X139065720Y-91522315D01*
X138991597Y-91507571D01*
X138928688Y-91474663D01*
X138893556Y-91412968D01*
X138897356Y-91342074D01*
X138938882Y-91284488D01*
X138998097Y-91259297D01*
X139068070Y-91249151D01*
X139073534Y-91247296D01*
X139073539Y-91247295D01*
X139264916Y-91182331D01*
X139270384Y-91180475D01*
X139456795Y-91076080D01*
X139621060Y-90939462D01*
X139757678Y-90775197D01*
X139862073Y-90588786D01*
X139930749Y-90386472D01*
X139943786Y-90296563D01*
X139960874Y-90178704D01*
X139961407Y-90175030D01*
X139963007Y-90113929D01*
X139943457Y-89901173D01*
X139936619Y-89876925D01*
X139887031Y-89701101D01*
X139887030Y-89701099D01*
X139885463Y-89695542D01*
X139874189Y-89672679D01*
X139793522Y-89509103D01*
X139790967Y-89503922D01*
X139771666Y-89478074D01*
X139666587Y-89337356D01*
X139666586Y-89337355D01*
X139663134Y-89332732D01*
X139658898Y-89328816D01*
X139510484Y-89191624D01*
X139510481Y-89191622D01*
X139506244Y-89187705D01*
X139325552Y-89073697D01*
X139127109Y-88994526D01*
X139065720Y-88982315D01*
X138991597Y-88967571D01*
X138928688Y-88934663D01*
X138893556Y-88872968D01*
X138897356Y-88802074D01*
X138938882Y-88744488D01*
X138998097Y-88719297D01*
X139068070Y-88709151D01*
X139073534Y-88707296D01*
X139073539Y-88707295D01*
X139264916Y-88642331D01*
X139270384Y-88640475D01*
X139456795Y-88536080D01*
X139621060Y-88399462D01*
X139757678Y-88235197D01*
X139862073Y-88048786D01*
X139930749Y-87846472D01*
X139943786Y-87756563D01*
X139960874Y-87638704D01*
X139961407Y-87635030D01*
X139963007Y-87573929D01*
X139943457Y-87361173D01*
X139936619Y-87336925D01*
X139887031Y-87161101D01*
X139887030Y-87161099D01*
X139885463Y-87155542D01*
X139874189Y-87132679D01*
X139793522Y-86969103D01*
X139790967Y-86963922D01*
X139771666Y-86938074D01*
X139666587Y-86797356D01*
X139666586Y-86797355D01*
X139663134Y-86792732D01*
X139658898Y-86788816D01*
X139510484Y-86651624D01*
X139510481Y-86651622D01*
X139506244Y-86647705D01*
X139325552Y-86533697D01*
X139127109Y-86454526D01*
X139065720Y-86442315D01*
X138991597Y-86427571D01*
X138928688Y-86394663D01*
X138893556Y-86332968D01*
X138897356Y-86262074D01*
X138938882Y-86204488D01*
X138998097Y-86179297D01*
X139068070Y-86169151D01*
X139073534Y-86167296D01*
X139073539Y-86167295D01*
X139264916Y-86102331D01*
X139270384Y-86100475D01*
X139456795Y-85996080D01*
X139550950Y-85917772D01*
X146009500Y-85917772D01*
X146020364Y-86007547D01*
X146075887Y-86147783D01*
X146167078Y-86267922D01*
X146287217Y-86359113D01*
X146350832Y-86384300D01*
X146419923Y-86411655D01*
X146419925Y-86411656D01*
X146427453Y-86414636D01*
X146517228Y-86425500D01*
X148252772Y-86425500D01*
X148342547Y-86414636D01*
X148350075Y-86411656D01*
X148350077Y-86411655D01*
X148419168Y-86384300D01*
X148482783Y-86359113D01*
X148602922Y-86267922D01*
X148694113Y-86147783D01*
X148749636Y-86007547D01*
X148760500Y-85917772D01*
X150959500Y-85917772D01*
X150970364Y-86007547D01*
X151025887Y-86147783D01*
X151117078Y-86267922D01*
X151237217Y-86359113D01*
X151300832Y-86384300D01*
X151369923Y-86411655D01*
X151369925Y-86411656D01*
X151377453Y-86414636D01*
X151467228Y-86425500D01*
X153202772Y-86425500D01*
X153292547Y-86414636D01*
X153300075Y-86411656D01*
X153300077Y-86411655D01*
X153369168Y-86384300D01*
X153432783Y-86359113D01*
X153552922Y-86267922D01*
X153644113Y-86147783D01*
X153699636Y-86007547D01*
X153710500Y-85917772D01*
X153710500Y-85532228D01*
X153699636Y-85442453D01*
X153694266Y-85428888D01*
X153647275Y-85310204D01*
X153644113Y-85302217D01*
X153552922Y-85182078D01*
X153547796Y-85178187D01*
X153514266Y-85116783D01*
X153519331Y-85045968D01*
X153547625Y-85001942D01*
X153552922Y-84997922D01*
X153644113Y-84877783D01*
X153699636Y-84737547D01*
X153710500Y-84647772D01*
X153710500Y-84262228D01*
X153699636Y-84172453D01*
X153644113Y-84032217D01*
X153552922Y-83912078D01*
X153547796Y-83908187D01*
X153514266Y-83846783D01*
X153519331Y-83775968D01*
X153547625Y-83731942D01*
X153552922Y-83727922D01*
X153644113Y-83607783D01*
X153699636Y-83467547D01*
X153710500Y-83377772D01*
X153710500Y-82992228D01*
X153699636Y-82902453D01*
X153694266Y-82888888D01*
X153647275Y-82770204D01*
X153644113Y-82762217D01*
X153552922Y-82642078D01*
X153547796Y-82638187D01*
X153514266Y-82576783D01*
X153519331Y-82505968D01*
X153547625Y-82461942D01*
X153552922Y-82457922D01*
X153644113Y-82337783D01*
X153699636Y-82197547D01*
X153710500Y-82107772D01*
X153710500Y-81722228D01*
X153699636Y-81632453D01*
X153644113Y-81492217D01*
X153552922Y-81372078D01*
X153432783Y-81280887D01*
X153362267Y-81252968D01*
X153300077Y-81228345D01*
X153300075Y-81228344D01*
X153292547Y-81225364D01*
X153202772Y-81214500D01*
X151467228Y-81214500D01*
X151377453Y-81225364D01*
X151369925Y-81228344D01*
X151369923Y-81228345D01*
X151307733Y-81252968D01*
X151237217Y-81280887D01*
X151117078Y-81372078D01*
X151025887Y-81492217D01*
X150970364Y-81632453D01*
X150959500Y-81722228D01*
X150959500Y-82107772D01*
X150970364Y-82197547D01*
X151025887Y-82337783D01*
X151117078Y-82457922D01*
X151122204Y-82461813D01*
X151155734Y-82523217D01*
X151150669Y-82594032D01*
X151122375Y-82638058D01*
X151117078Y-82642078D01*
X151025887Y-82762217D01*
X151022725Y-82770204D01*
X150975735Y-82888888D01*
X150970364Y-82902453D01*
X150959500Y-82992228D01*
X150959500Y-83377772D01*
X150970364Y-83467547D01*
X151025887Y-83607783D01*
X151117078Y-83727922D01*
X151122204Y-83731813D01*
X151155734Y-83793217D01*
X151150669Y-83864032D01*
X151122375Y-83908058D01*
X151117078Y-83912078D01*
X151025887Y-84032217D01*
X150970364Y-84172453D01*
X150959500Y-84262228D01*
X150959500Y-84647772D01*
X150970364Y-84737547D01*
X151025887Y-84877783D01*
X151117078Y-84997922D01*
X151122204Y-85001813D01*
X151155734Y-85063217D01*
X151150669Y-85134032D01*
X151122375Y-85178058D01*
X151117078Y-85182078D01*
X151025887Y-85302217D01*
X151022725Y-85310204D01*
X150975735Y-85428888D01*
X150970364Y-85442453D01*
X150959500Y-85532228D01*
X150959500Y-85917772D01*
X148760500Y-85917772D01*
X148760500Y-85532228D01*
X148749636Y-85442453D01*
X148744266Y-85428888D01*
X148697275Y-85310204D01*
X148694113Y-85302217D01*
X148602922Y-85182078D01*
X148482783Y-85090887D01*
X148369330Y-85045968D01*
X148350077Y-85038345D01*
X148350075Y-85038344D01*
X148342547Y-85035364D01*
X148252772Y-85024500D01*
X146517228Y-85024500D01*
X146427453Y-85035364D01*
X146419925Y-85038344D01*
X146419923Y-85038345D01*
X146400670Y-85045968D01*
X146287217Y-85090887D01*
X146167078Y-85182078D01*
X146075887Y-85302217D01*
X146072725Y-85310204D01*
X146025735Y-85428888D01*
X146020364Y-85442453D01*
X146009500Y-85532228D01*
X146009500Y-85917772D01*
X139550950Y-85917772D01*
X139621060Y-85859462D01*
X139757678Y-85695197D01*
X139862073Y-85508786D01*
X139930749Y-85306472D01*
X139943786Y-85216563D01*
X139960874Y-85098704D01*
X139961407Y-85095030D01*
X139963007Y-85033929D01*
X139943457Y-84821173D01*
X139936619Y-84796925D01*
X139887031Y-84621101D01*
X139887030Y-84621099D01*
X139885463Y-84615542D01*
X139874189Y-84592679D01*
X139793522Y-84429103D01*
X139790967Y-84423922D01*
X139771666Y-84398074D01*
X139666587Y-84257356D01*
X139666586Y-84257355D01*
X139663134Y-84252732D01*
X139658898Y-84248816D01*
X139510484Y-84111624D01*
X139510481Y-84111622D01*
X139506244Y-84107705D01*
X139325552Y-83993697D01*
X139127109Y-83914526D01*
X139065720Y-83902315D01*
X138991597Y-83887571D01*
X138928688Y-83854663D01*
X138893556Y-83792968D01*
X138897356Y-83722074D01*
X138938882Y-83664488D01*
X138998097Y-83639297D01*
X139068070Y-83629151D01*
X139073534Y-83627296D01*
X139073539Y-83627295D01*
X139264916Y-83562331D01*
X139270384Y-83560475D01*
X139456795Y-83456080D01*
X139550950Y-83377772D01*
X146009500Y-83377772D01*
X146020364Y-83467547D01*
X146075887Y-83607783D01*
X146167078Y-83727922D01*
X146287217Y-83819113D01*
X146350832Y-83844300D01*
X146419923Y-83871655D01*
X146419925Y-83871656D01*
X146427453Y-83874636D01*
X146517228Y-83885500D01*
X148252772Y-83885500D01*
X148342547Y-83874636D01*
X148350075Y-83871656D01*
X148350077Y-83871655D01*
X148419168Y-83844300D01*
X148482783Y-83819113D01*
X148602922Y-83727922D01*
X148694113Y-83607783D01*
X148749636Y-83467547D01*
X148760500Y-83377772D01*
X148760500Y-82992228D01*
X148749636Y-82902453D01*
X148744266Y-82888888D01*
X148697275Y-82770204D01*
X148694113Y-82762217D01*
X148602922Y-82642078D01*
X148597796Y-82638187D01*
X148564266Y-82576783D01*
X148569331Y-82505968D01*
X148597625Y-82461942D01*
X148602922Y-82457922D01*
X148694113Y-82337783D01*
X148749636Y-82197547D01*
X148760500Y-82107772D01*
X148760500Y-81722228D01*
X148749636Y-81632453D01*
X148694113Y-81492217D01*
X148602922Y-81372078D01*
X148482783Y-81280887D01*
X148412267Y-81252968D01*
X148350077Y-81228345D01*
X148350075Y-81228344D01*
X148342547Y-81225364D01*
X148252772Y-81214500D01*
X146517228Y-81214500D01*
X146427453Y-81225364D01*
X146419925Y-81228344D01*
X146419923Y-81228345D01*
X146357733Y-81252968D01*
X146287217Y-81280887D01*
X146167078Y-81372078D01*
X146075887Y-81492217D01*
X146020364Y-81632453D01*
X146009500Y-81722228D01*
X146009500Y-82107772D01*
X146020364Y-82197547D01*
X146075887Y-82337783D01*
X146167078Y-82457922D01*
X146172204Y-82461813D01*
X146205734Y-82523217D01*
X146200669Y-82594032D01*
X146172375Y-82638058D01*
X146167078Y-82642078D01*
X146075887Y-82762217D01*
X146072725Y-82770204D01*
X146025735Y-82888888D01*
X146020364Y-82902453D01*
X146009500Y-82992228D01*
X146009500Y-83377772D01*
X139550950Y-83377772D01*
X139621060Y-83319462D01*
X139757678Y-83155197D01*
X139862073Y-82968786D01*
X139930749Y-82766472D01*
X139943786Y-82676563D01*
X139960874Y-82558704D01*
X139961407Y-82555030D01*
X139963007Y-82493929D01*
X139943457Y-82281173D01*
X139936619Y-82256925D01*
X139887031Y-82081101D01*
X139887030Y-82081099D01*
X139885463Y-82075542D01*
X139874189Y-82052679D01*
X139793522Y-81889103D01*
X139790967Y-81883922D01*
X139771666Y-81858074D01*
X139666587Y-81717356D01*
X139666586Y-81717355D01*
X139663134Y-81712732D01*
X139658898Y-81708816D01*
X139510484Y-81571624D01*
X139510481Y-81571622D01*
X139506244Y-81567705D01*
X139325552Y-81453697D01*
X139127109Y-81374526D01*
X139065720Y-81362315D01*
X138991597Y-81347571D01*
X138928688Y-81314663D01*
X138893556Y-81252968D01*
X138897356Y-81182074D01*
X138938882Y-81124488D01*
X138998097Y-81099297D01*
X139068070Y-81089151D01*
X139073534Y-81087296D01*
X139073539Y-81087295D01*
X139264916Y-81022331D01*
X139270384Y-81020475D01*
X139456795Y-80916080D01*
X139621060Y-80779462D01*
X139757678Y-80615197D01*
X139862073Y-80428786D01*
X139930749Y-80226472D01*
X139943786Y-80136563D01*
X139956376Y-80049725D01*
X139961407Y-80015030D01*
X139963007Y-79953929D01*
X139950794Y-79821023D01*
X139943986Y-79746927D01*
X139943985Y-79746924D01*
X139943457Y-79741173D01*
X139936619Y-79716925D01*
X139887031Y-79541101D01*
X139887030Y-79541099D01*
X139885463Y-79535542D01*
X139874189Y-79512679D01*
X139793522Y-79349103D01*
X139790967Y-79343922D01*
X139771666Y-79318074D01*
X139666587Y-79177356D01*
X139666586Y-79177355D01*
X139663134Y-79172732D01*
X139658898Y-79168816D01*
X139510484Y-79031624D01*
X139510481Y-79031622D01*
X139506244Y-79027705D01*
X139325552Y-78913697D01*
X139127109Y-78834526D01*
X139065720Y-78822315D01*
X138991597Y-78807571D01*
X138928688Y-78774663D01*
X138893556Y-78712968D01*
X138897356Y-78642074D01*
X138938882Y-78584488D01*
X138998097Y-78559297D01*
X139068070Y-78549151D01*
X139073534Y-78547296D01*
X139073539Y-78547295D01*
X139264916Y-78482331D01*
X139270384Y-78480475D01*
X139456795Y-78376080D01*
X139621060Y-78239462D01*
X139695465Y-78150000D01*
X164934508Y-78150000D01*
X164954354Y-78275304D01*
X164958855Y-78284137D01*
X165011950Y-78388342D01*
X165009691Y-78389493D01*
X165028714Y-78442802D01*
X165012933Y-78510675D01*
X165011950Y-78511658D01*
X164954354Y-78624696D01*
X164952804Y-78634485D01*
X164952803Y-78634487D01*
X164948927Y-78658959D01*
X164939500Y-78718481D01*
X164939501Y-79681518D01*
X164940276Y-79686409D01*
X164940276Y-79686412D01*
X164948949Y-79741173D01*
X164954354Y-79775304D01*
X165011950Y-79888342D01*
X165101658Y-79978050D01*
X165214696Y-80035646D01*
X165224485Y-80037196D01*
X165224487Y-80037197D01*
X165251849Y-80041530D01*
X165308481Y-80050500D01*
X165989862Y-80050500D01*
X166671518Y-80050499D01*
X166676412Y-80049724D01*
X166755506Y-80037198D01*
X166755508Y-80037197D01*
X166765304Y-80035646D01*
X166878342Y-79978050D01*
X166968050Y-79888342D01*
X167025646Y-79775304D01*
X167030141Y-79746927D01*
X167034892Y-79716925D01*
X167040500Y-79681519D01*
X167040499Y-79071126D01*
X167060501Y-79003006D01*
X167114157Y-78956513D01*
X167184430Y-78946409D01*
X167197951Y-78949553D01*
X167203039Y-78952146D01*
X167212828Y-78953696D01*
X167212830Y-78953697D01*
X167230611Y-78956513D01*
X167328343Y-78971992D01*
X169940000Y-78971992D01*
X170037732Y-78956513D01*
X170055513Y-78953697D01*
X170055515Y-78953696D01*
X170065304Y-78952146D01*
X170178342Y-78894550D01*
X170268050Y-78804842D01*
X170325646Y-78691804D01*
X170345492Y-78566500D01*
X170345492Y-76833500D01*
X170325646Y-76708196D01*
X170268050Y-76595158D01*
X170178342Y-76505450D01*
X170065304Y-76447854D01*
X170055515Y-76446304D01*
X170055513Y-76446303D01*
X170016766Y-76440166D01*
X169940000Y-76428008D01*
X167334639Y-76428008D01*
X167330987Y-76428073D01*
X167325618Y-76428169D01*
X167325613Y-76428169D01*
X167320107Y-76428268D01*
X167314697Y-76429325D01*
X167314696Y-76429325D01*
X167195595Y-76452593D01*
X167195095Y-76450035D01*
X167138861Y-76453664D01*
X167076787Y-76419206D01*
X167043196Y-76356659D01*
X167040500Y-76330733D01*
X167040499Y-75723437D01*
X167040499Y-75718482D01*
X167025646Y-75624696D01*
X166968050Y-75511658D01*
X166878342Y-75421950D01*
X166765304Y-75364354D01*
X166755515Y-75362804D01*
X166755513Y-75362803D01*
X166728151Y-75358470D01*
X166671519Y-75349500D01*
X165990138Y-75349500D01*
X165308482Y-75349501D01*
X165303589Y-75350276D01*
X165303588Y-75350276D01*
X165224494Y-75362802D01*
X165224492Y-75362803D01*
X165214696Y-75364354D01*
X165101658Y-75421950D01*
X165011950Y-75511658D01*
X164954354Y-75624696D01*
X164939500Y-75718481D01*
X164939501Y-76681518D01*
X164940276Y-76686411D01*
X164940276Y-76686412D01*
X164945277Y-76717987D01*
X164954354Y-76775304D01*
X164958857Y-76784141D01*
X164958857Y-76784142D01*
X165011950Y-76888342D01*
X165009691Y-76889493D01*
X165028714Y-76942802D01*
X165012933Y-77010675D01*
X165011950Y-77011658D01*
X164954354Y-77124696D01*
X164934508Y-77250000D01*
X164934508Y-78150000D01*
X139695465Y-78150000D01*
X139757678Y-78075197D01*
X139862073Y-77888786D01*
X139930749Y-77686472D01*
X139943786Y-77596563D01*
X139960874Y-77478704D01*
X139961407Y-77475030D01*
X139963007Y-77413929D01*
X139943457Y-77201173D01*
X139936619Y-77176925D01*
X139887031Y-77001101D01*
X139887030Y-77001099D01*
X139885463Y-76995542D01*
X139874189Y-76972679D01*
X139793522Y-76809103D01*
X139790967Y-76803922D01*
X139771666Y-76778074D01*
X139666587Y-76637356D01*
X139666586Y-76637355D01*
X139663134Y-76632732D01*
X139658898Y-76628816D01*
X139510484Y-76491624D01*
X139510481Y-76491622D01*
X139506244Y-76487705D01*
X139325552Y-76373697D01*
X139127109Y-76294526D01*
X139065720Y-76282315D01*
X138991597Y-76267571D01*
X138928688Y-76234663D01*
X138893556Y-76172968D01*
X138897356Y-76102074D01*
X138938882Y-76044488D01*
X138998097Y-76019297D01*
X139068070Y-76009151D01*
X139073534Y-76007296D01*
X139073539Y-76007295D01*
X139264916Y-75942331D01*
X139270384Y-75940475D01*
X139456795Y-75836080D01*
X139621060Y-75699462D01*
X139757678Y-75535197D01*
X139862073Y-75348786D01*
X139930749Y-75146472D01*
X139943786Y-75056563D01*
X139960874Y-74938704D01*
X139961407Y-74935030D01*
X139963007Y-74873929D01*
X139943457Y-74661173D01*
X139936619Y-74636925D01*
X139887031Y-74461101D01*
X139887030Y-74461099D01*
X139885463Y-74455542D01*
X139874189Y-74432679D01*
X139793522Y-74269103D01*
X139790967Y-74263922D01*
X139771666Y-74238074D01*
X139666587Y-74097356D01*
X139666586Y-74097355D01*
X139663134Y-74092732D01*
X139658898Y-74088816D01*
X139510484Y-73951624D01*
X139510481Y-73951622D01*
X139506244Y-73947705D01*
X139325552Y-73833697D01*
X139127109Y-73754526D01*
X139065720Y-73742315D01*
X138991597Y-73727571D01*
X138928688Y-73694663D01*
X138893556Y-73632968D01*
X138897356Y-73562074D01*
X138938882Y-73504488D01*
X138998097Y-73479297D01*
X139068070Y-73469151D01*
X139073534Y-73467296D01*
X139073539Y-73467295D01*
X139264916Y-73402331D01*
X139270384Y-73400475D01*
X139456795Y-73296080D01*
X139621060Y-73159462D01*
X139757678Y-72995197D01*
X139862073Y-72808786D01*
X139930749Y-72606472D01*
X139943786Y-72516563D01*
X139960874Y-72398704D01*
X139961407Y-72395030D01*
X139963007Y-72333929D01*
X139943457Y-72121173D01*
X139936619Y-72096925D01*
X139887031Y-71921101D01*
X139887030Y-71921099D01*
X139885463Y-71915542D01*
X139874189Y-71892679D01*
X139793522Y-71729103D01*
X139790967Y-71723922D01*
X139771666Y-71698074D01*
X139666587Y-71557356D01*
X139666586Y-71557355D01*
X139663134Y-71552732D01*
X139658898Y-71548816D01*
X139510484Y-71411624D01*
X139510481Y-71411622D01*
X139506244Y-71407705D01*
X139325552Y-71293697D01*
X139127109Y-71214526D01*
X139065720Y-71202315D01*
X138991597Y-71187571D01*
X138928688Y-71154663D01*
X138893556Y-71092968D01*
X138897356Y-71022074D01*
X138938882Y-70964488D01*
X138998097Y-70939297D01*
X139068070Y-70929151D01*
X139073534Y-70927296D01*
X139073539Y-70927295D01*
X139264916Y-70862331D01*
X139270384Y-70860475D01*
X139456795Y-70756080D01*
X139621060Y-70619462D01*
X139757678Y-70455197D01*
X139862073Y-70268786D01*
X139930749Y-70066472D01*
X139943786Y-69976563D01*
X139960874Y-69858704D01*
X139961407Y-69855030D01*
X139963007Y-69793929D01*
X139943457Y-69581173D01*
X139936619Y-69556925D01*
X139887031Y-69381101D01*
X139887030Y-69381099D01*
X139885463Y-69375542D01*
X139874189Y-69352679D01*
X139793522Y-69189103D01*
X139790967Y-69183922D01*
X139771666Y-69158074D01*
X139666587Y-69017356D01*
X139666586Y-69017355D01*
X139663134Y-69012732D01*
X139658898Y-69008816D01*
X139510484Y-68871624D01*
X139510481Y-68871622D01*
X139506244Y-68867705D01*
X139325552Y-68753697D01*
X139127109Y-68674526D01*
X139065720Y-68662315D01*
X138991597Y-68647571D01*
X138928688Y-68614663D01*
X138893556Y-68552968D01*
X138897356Y-68482074D01*
X138938882Y-68424488D01*
X138998097Y-68399297D01*
X139068070Y-68389151D01*
X139073534Y-68387296D01*
X139073539Y-68387295D01*
X139264916Y-68322331D01*
X139270384Y-68320475D01*
X139456795Y-68216080D01*
X139621060Y-68079462D01*
X139757678Y-67915197D01*
X139862073Y-67728786D01*
X139930749Y-67526472D01*
X139943786Y-67436563D01*
X139960874Y-67318704D01*
X139961407Y-67315030D01*
X139963007Y-67253929D01*
X139943457Y-67041173D01*
X139936619Y-67016925D01*
X139887031Y-66841101D01*
X139887030Y-66841099D01*
X139885463Y-66835542D01*
X139874189Y-66812679D01*
X139793522Y-66649103D01*
X139790967Y-66643922D01*
X139784173Y-66634823D01*
X139666587Y-66477356D01*
X139666586Y-66477355D01*
X139663134Y-66472732D01*
X139658898Y-66468816D01*
X139510484Y-66331624D01*
X139510481Y-66331622D01*
X139506244Y-66327705D01*
X139325552Y-66213697D01*
X139127109Y-66134526D01*
X139065720Y-66122315D01*
X138991597Y-66107571D01*
X138928688Y-66074663D01*
X138893556Y-66012968D01*
X138897356Y-65942074D01*
X138938882Y-65884488D01*
X138998097Y-65859297D01*
X139068070Y-65849151D01*
X139073534Y-65847296D01*
X139073539Y-65847295D01*
X139264916Y-65782331D01*
X139270384Y-65780475D01*
X139399682Y-65708065D01*
X164029500Y-65708065D01*
X164029501Y-66311934D01*
X164032346Y-66348098D01*
X164034142Y-66354279D01*
X164034142Y-66354280D01*
X164062036Y-66450289D01*
X164077319Y-66502894D01*
X164081354Y-66509717D01*
X164155340Y-66634823D01*
X164155343Y-66634827D01*
X164159374Y-66641643D01*
X164273357Y-66755626D01*
X164280173Y-66759657D01*
X164280177Y-66759660D01*
X164360487Y-66807154D01*
X164412106Y-66837681D01*
X164419718Y-66839892D01*
X164419719Y-66839893D01*
X164560726Y-66880860D01*
X164560729Y-66880861D01*
X164566902Y-66882654D01*
X164588580Y-66884360D01*
X164600608Y-66885307D01*
X164600617Y-66885307D01*
X164603065Y-66885500D01*
X164967205Y-66885500D01*
X165331934Y-66885499D01*
X165351142Y-66883988D01*
X165361680Y-66883159D01*
X165361681Y-66883159D01*
X165368098Y-66882654D01*
X165374280Y-66880858D01*
X165515281Y-66839893D01*
X165515282Y-66839892D01*
X165522894Y-66837681D01*
X165574513Y-66807154D01*
X165654823Y-66759660D01*
X165654827Y-66759657D01*
X165661643Y-66755626D01*
X165775626Y-66641643D01*
X165779657Y-66634827D01*
X165779660Y-66634823D01*
X165853646Y-66509717D01*
X165857681Y-66502894D01*
X165871647Y-66454825D01*
X165900860Y-66354274D01*
X165900861Y-66354271D01*
X165902654Y-66348098D01*
X165904360Y-66326420D01*
X165905307Y-66314392D01*
X165905307Y-66314383D01*
X165905500Y-66311935D01*
X165905499Y-65708066D01*
X165905499Y-65708065D01*
X168379500Y-65708065D01*
X168379501Y-66311934D01*
X168382346Y-66348098D01*
X168384142Y-66354279D01*
X168384142Y-66354280D01*
X168412036Y-66450289D01*
X168427319Y-66502894D01*
X168431354Y-66509717D01*
X168505340Y-66634823D01*
X168505343Y-66634827D01*
X168509374Y-66641643D01*
X168623357Y-66755626D01*
X168630173Y-66759657D01*
X168630177Y-66759660D01*
X168710487Y-66807154D01*
X168762106Y-66837681D01*
X168769718Y-66839892D01*
X168769719Y-66839893D01*
X168910726Y-66880860D01*
X168910729Y-66880861D01*
X168916902Y-66882654D01*
X168938580Y-66884360D01*
X168950608Y-66885307D01*
X168950617Y-66885307D01*
X168953065Y-66885500D01*
X169267245Y-66885500D01*
X169581934Y-66885499D01*
X169601142Y-66883988D01*
X169611680Y-66883159D01*
X169611681Y-66883159D01*
X169618098Y-66882654D01*
X169624280Y-66880858D01*
X169765281Y-66839893D01*
X169765282Y-66839892D01*
X169772894Y-66837681D01*
X169824513Y-66807154D01*
X169904823Y-66759660D01*
X169904827Y-66759657D01*
X169911643Y-66755626D01*
X170025626Y-66641643D01*
X170029657Y-66634827D01*
X170029660Y-66634823D01*
X170103646Y-66509717D01*
X170107681Y-66502894D01*
X170121647Y-66454825D01*
X170150860Y-66354274D01*
X170150861Y-66354271D01*
X170152654Y-66348098D01*
X170154360Y-66326420D01*
X170155307Y-66314392D01*
X170155307Y-66314383D01*
X170155500Y-66311935D01*
X170155499Y-65708066D01*
X170153988Y-65688858D01*
X170153159Y-65678320D01*
X170153158Y-65678312D01*
X170152654Y-65671902D01*
X170136761Y-65617198D01*
X170109893Y-65524719D01*
X170109892Y-65524718D01*
X170107681Y-65517106D01*
X170081093Y-65472147D01*
X170029660Y-65385177D01*
X170029657Y-65385173D01*
X170025626Y-65378357D01*
X169911643Y-65264374D01*
X169904827Y-65260343D01*
X169904823Y-65260340D01*
X169779717Y-65186354D01*
X169772894Y-65182319D01*
X169765282Y-65180108D01*
X169765281Y-65180107D01*
X169624274Y-65139140D01*
X169624271Y-65139139D01*
X169618098Y-65137346D01*
X169596420Y-65135640D01*
X169584392Y-65134693D01*
X169584383Y-65134693D01*
X169581935Y-65134500D01*
X169267755Y-65134500D01*
X168953066Y-65134501D01*
X168933858Y-65136012D01*
X168923320Y-65136841D01*
X168923319Y-65136841D01*
X168916902Y-65137346D01*
X168910721Y-65139142D01*
X168910720Y-65139142D01*
X168769719Y-65180107D01*
X168769718Y-65180108D01*
X168762106Y-65182319D01*
X168755283Y-65186354D01*
X168630177Y-65260340D01*
X168630173Y-65260343D01*
X168623357Y-65264374D01*
X168509374Y-65378357D01*
X168505343Y-65385173D01*
X168505340Y-65385177D01*
X168453907Y-65472147D01*
X168427319Y-65517106D01*
X168425108Y-65524718D01*
X168425107Y-65524719D01*
X168419752Y-65543153D01*
X168382346Y-65671902D01*
X168380640Y-65693580D01*
X168379694Y-65705602D01*
X168379500Y-65708065D01*
X165905499Y-65708065D01*
X165903988Y-65688858D01*
X165903159Y-65678320D01*
X165903158Y-65678312D01*
X165902654Y-65671902D01*
X165886761Y-65617198D01*
X165859893Y-65524719D01*
X165859892Y-65524718D01*
X165857681Y-65517106D01*
X165831093Y-65472147D01*
X165779660Y-65385177D01*
X165779657Y-65385173D01*
X165775626Y-65378357D01*
X165661643Y-65264374D01*
X165654827Y-65260343D01*
X165654823Y-65260340D01*
X165529717Y-65186354D01*
X165522894Y-65182319D01*
X165515282Y-65180108D01*
X165515281Y-65180107D01*
X165374274Y-65139140D01*
X165374271Y-65139139D01*
X165368098Y-65137346D01*
X165346420Y-65135640D01*
X165334392Y-65134693D01*
X165334383Y-65134693D01*
X165331935Y-65134500D01*
X164967795Y-65134500D01*
X164603066Y-65134501D01*
X164583858Y-65136012D01*
X164573320Y-65136841D01*
X164573319Y-65136841D01*
X164566902Y-65137346D01*
X164560721Y-65139142D01*
X164560720Y-65139142D01*
X164419719Y-65180107D01*
X164419718Y-65180108D01*
X164412106Y-65182319D01*
X164405283Y-65186354D01*
X164280177Y-65260340D01*
X164280173Y-65260343D01*
X164273357Y-65264374D01*
X164159374Y-65378357D01*
X164155343Y-65385173D01*
X164155340Y-65385177D01*
X164103907Y-65472147D01*
X164077319Y-65517106D01*
X164075108Y-65524718D01*
X164075107Y-65524719D01*
X164069752Y-65543153D01*
X164032346Y-65671902D01*
X164030640Y-65693580D01*
X164029694Y-65705602D01*
X164029500Y-65708065D01*
X139399682Y-65708065D01*
X139456795Y-65676080D01*
X139461819Y-65671902D01*
X139616622Y-65543153D01*
X139621060Y-65539462D01*
X139757678Y-65375197D01*
X139862073Y-65188786D01*
X139930749Y-64986472D01*
X139943786Y-64896563D01*
X139960874Y-64778704D01*
X139961407Y-64775030D01*
X139963007Y-64713929D01*
X139943457Y-64501173D01*
X139936619Y-64476925D01*
X139887031Y-64301101D01*
X139887030Y-64301099D01*
X139885463Y-64295542D01*
X139882563Y-64289660D01*
X139878141Y-64280694D01*
X156944500Y-64280694D01*
X156944692Y-64283140D01*
X156944693Y-64283153D01*
X156946106Y-64301101D01*
X156947402Y-64317569D01*
X156960615Y-64363049D01*
X156975854Y-64415499D01*
X156993256Y-64475398D01*
X157076919Y-64616865D01*
X157193135Y-64733081D01*
X157199956Y-64737115D01*
X157270280Y-64778704D01*
X157334602Y-64816744D01*
X157342214Y-64818955D01*
X157342215Y-64818956D01*
X157446951Y-64849385D01*
X157492431Y-64862598D01*
X157505584Y-64863633D01*
X157526847Y-64865307D01*
X157526860Y-64865308D01*
X157529306Y-64865500D01*
X158310694Y-64865500D01*
X158313140Y-64865308D01*
X158313153Y-64865307D01*
X158334416Y-64863633D01*
X158347569Y-64862598D01*
X158393049Y-64849385D01*
X158497785Y-64818956D01*
X158497786Y-64818955D01*
X158505398Y-64816744D01*
X158569721Y-64778704D01*
X158640044Y-64737115D01*
X158646865Y-64733081D01*
X158763081Y-64616865D01*
X158846744Y-64475398D01*
X158864147Y-64415499D01*
X158879385Y-64363049D01*
X158892598Y-64317569D01*
X158893894Y-64301101D01*
X158895307Y-64283153D01*
X158895308Y-64283140D01*
X158895500Y-64280694D01*
X158895500Y-63249306D01*
X158895308Y-63246860D01*
X158895307Y-63246847D01*
X158894616Y-63238065D01*
X159684500Y-63238065D01*
X159684501Y-63841934D01*
X159687346Y-63878098D01*
X159689142Y-63884279D01*
X159689142Y-63884280D01*
X159728548Y-64019913D01*
X159732319Y-64032894D01*
X159736354Y-64039717D01*
X159810340Y-64164823D01*
X159810343Y-64164827D01*
X159814374Y-64171643D01*
X159928357Y-64285626D01*
X159935173Y-64289657D01*
X159935177Y-64289660D01*
X160003209Y-64329893D01*
X160067106Y-64367681D01*
X160074718Y-64369892D01*
X160074719Y-64369893D01*
X160215726Y-64410860D01*
X160215729Y-64410861D01*
X160221902Y-64412654D01*
X160243580Y-64414360D01*
X160255608Y-64415307D01*
X160255617Y-64415307D01*
X160258065Y-64415500D01*
X160609715Y-64415500D01*
X160961934Y-64415499D01*
X160981142Y-64413988D01*
X160991680Y-64413159D01*
X160991681Y-64413159D01*
X160998098Y-64412654D01*
X161004280Y-64410858D01*
X161145281Y-64369893D01*
X161145282Y-64369892D01*
X161152894Y-64367681D01*
X161216791Y-64329893D01*
X161284823Y-64289660D01*
X161284827Y-64289657D01*
X161291643Y-64285626D01*
X161395905Y-64181364D01*
X161458217Y-64147338D01*
X161529032Y-64152403D01*
X161574095Y-64181364D01*
X161678357Y-64285626D01*
X161685173Y-64289657D01*
X161685177Y-64289660D01*
X161753209Y-64329893D01*
X161817106Y-64367681D01*
X161824718Y-64369892D01*
X161824719Y-64369893D01*
X161965726Y-64410860D01*
X161965729Y-64410861D01*
X161971902Y-64412654D01*
X161993580Y-64414360D01*
X162005608Y-64415307D01*
X162005617Y-64415307D01*
X162008065Y-64415500D01*
X162359715Y-64415500D01*
X162711934Y-64415499D01*
X162731142Y-64413988D01*
X162741680Y-64413159D01*
X162741681Y-64413159D01*
X162748098Y-64412654D01*
X162754280Y-64410858D01*
X162895281Y-64369893D01*
X162895282Y-64369892D01*
X162902894Y-64367681D01*
X162966791Y-64329893D01*
X163034823Y-64289660D01*
X163034827Y-64289657D01*
X163041643Y-64285626D01*
X163155626Y-64171643D01*
X163159657Y-64164827D01*
X163159660Y-64164823D01*
X163233646Y-64039717D01*
X163237681Y-64032894D01*
X163239893Y-64025281D01*
X163280860Y-63884274D01*
X163280861Y-63884271D01*
X163282654Y-63878098D01*
X163284360Y-63856420D01*
X163285307Y-63844392D01*
X163285307Y-63844383D01*
X163285500Y-63841935D01*
X163285499Y-63238066D01*
X163282654Y-63201902D01*
X163281539Y-63198065D01*
X164029500Y-63198065D01*
X164029501Y-63801934D01*
X164032346Y-63838098D01*
X164034142Y-63844279D01*
X164034142Y-63844280D01*
X164061184Y-63937356D01*
X164077319Y-63992894D01*
X164081354Y-63999717D01*
X164155340Y-64124823D01*
X164155343Y-64124827D01*
X164159374Y-64131643D01*
X164273357Y-64245626D01*
X164280173Y-64249657D01*
X164280177Y-64249660D01*
X164347815Y-64289660D01*
X164412106Y-64327681D01*
X164419718Y-64329892D01*
X164419719Y-64329893D01*
X164560726Y-64370860D01*
X164560729Y-64370861D01*
X164566902Y-64372654D01*
X164588580Y-64374360D01*
X164600608Y-64375307D01*
X164600617Y-64375307D01*
X164603065Y-64375500D01*
X164917245Y-64375500D01*
X165231934Y-64375499D01*
X165251142Y-64373988D01*
X165261680Y-64373159D01*
X165261681Y-64373159D01*
X165268098Y-64372654D01*
X165274280Y-64370858D01*
X165415281Y-64329893D01*
X165415282Y-64329892D01*
X165422894Y-64327681D01*
X165487185Y-64289660D01*
X165554823Y-64249660D01*
X165554827Y-64249657D01*
X165561643Y-64245626D01*
X165675626Y-64131643D01*
X165707306Y-64078074D01*
X165721546Y-64053996D01*
X165773439Y-64005543D01*
X165843290Y-63992838D01*
X165908921Y-64019913D01*
X165938454Y-64053996D01*
X165952694Y-64078074D01*
X165984374Y-64131643D01*
X166098357Y-64245626D01*
X166105173Y-64249657D01*
X166105177Y-64249660D01*
X166172815Y-64289660D01*
X166237106Y-64327681D01*
X166244718Y-64329892D01*
X166244719Y-64329893D01*
X166385726Y-64370860D01*
X166385729Y-64370861D01*
X166391902Y-64372654D01*
X166413580Y-64374360D01*
X166425608Y-64375307D01*
X166425617Y-64375307D01*
X166428065Y-64375500D01*
X166742245Y-64375500D01*
X167056934Y-64375499D01*
X167076142Y-64373988D01*
X167086680Y-64373159D01*
X167086681Y-64373159D01*
X167093098Y-64372654D01*
X167099280Y-64370858D01*
X167240281Y-64329893D01*
X167240282Y-64329892D01*
X167247894Y-64327681D01*
X167312185Y-64289660D01*
X167379823Y-64249660D01*
X167379827Y-64249657D01*
X167386643Y-64245626D01*
X167500626Y-64131643D01*
X167504657Y-64124827D01*
X167504660Y-64124823D01*
X167578646Y-63999717D01*
X167582681Y-63992894D01*
X167584893Y-63985281D01*
X167625860Y-63844274D01*
X167625861Y-63844271D01*
X167627654Y-63838098D01*
X167629360Y-63816420D01*
X167630307Y-63804392D01*
X167630307Y-63804383D01*
X167630500Y-63801935D01*
X167630499Y-63198066D01*
X167630499Y-63198065D01*
X168379500Y-63198065D01*
X168379501Y-63801934D01*
X168382346Y-63838098D01*
X168384142Y-63844279D01*
X168384142Y-63844280D01*
X168411184Y-63937356D01*
X168427319Y-63992894D01*
X168431354Y-63999717D01*
X168505340Y-64124823D01*
X168505343Y-64124827D01*
X168509374Y-64131643D01*
X168623357Y-64245626D01*
X168630173Y-64249657D01*
X168630177Y-64249660D01*
X168697815Y-64289660D01*
X168762106Y-64327681D01*
X168769718Y-64329892D01*
X168769719Y-64329893D01*
X168910726Y-64370860D01*
X168910729Y-64370861D01*
X168916902Y-64372654D01*
X168938580Y-64374360D01*
X168950608Y-64375307D01*
X168950617Y-64375307D01*
X168953065Y-64375500D01*
X169317205Y-64375500D01*
X169681934Y-64375499D01*
X169701142Y-64373988D01*
X169711680Y-64373159D01*
X169711681Y-64373159D01*
X169718098Y-64372654D01*
X169724280Y-64370858D01*
X169865281Y-64329893D01*
X169865282Y-64329892D01*
X169872894Y-64327681D01*
X169937185Y-64289660D01*
X170004823Y-64249660D01*
X170004827Y-64249657D01*
X170011643Y-64245626D01*
X170125626Y-64131643D01*
X170129657Y-64124827D01*
X170129660Y-64124823D01*
X170203646Y-63999717D01*
X170207681Y-63992894D01*
X170209893Y-63985281D01*
X170250860Y-63844274D01*
X170250861Y-63844271D01*
X170252654Y-63838098D01*
X170254360Y-63816420D01*
X170255307Y-63804392D01*
X170255307Y-63804383D01*
X170255500Y-63801935D01*
X170255499Y-63198066D01*
X170255499Y-63198065D01*
X172729500Y-63198065D01*
X172729501Y-63801934D01*
X172732346Y-63838098D01*
X172734142Y-63844279D01*
X172734142Y-63844280D01*
X172761184Y-63937356D01*
X172777319Y-63992894D01*
X172781354Y-63999717D01*
X172855340Y-64124823D01*
X172855343Y-64124827D01*
X172859374Y-64131643D01*
X172973357Y-64245626D01*
X172980173Y-64249657D01*
X172980177Y-64249660D01*
X173047815Y-64289660D01*
X173112106Y-64327681D01*
X173119718Y-64329892D01*
X173119719Y-64329893D01*
X173260726Y-64370860D01*
X173260729Y-64370861D01*
X173266902Y-64372654D01*
X173288580Y-64374360D01*
X173300608Y-64375307D01*
X173300617Y-64375307D01*
X173303065Y-64375500D01*
X173617245Y-64375500D01*
X173931934Y-64375499D01*
X173951142Y-64373988D01*
X173961680Y-64373159D01*
X173961681Y-64373159D01*
X173968098Y-64372654D01*
X173974280Y-64370858D01*
X174115281Y-64329893D01*
X174115282Y-64329892D01*
X174122894Y-64327681D01*
X174187185Y-64289660D01*
X174254823Y-64249660D01*
X174254827Y-64249657D01*
X174261643Y-64245626D01*
X174375626Y-64131643D01*
X174407306Y-64078074D01*
X174421546Y-64053996D01*
X174473439Y-64005543D01*
X174543290Y-63992838D01*
X174608921Y-64019913D01*
X174638454Y-64053996D01*
X174652694Y-64078074D01*
X174684374Y-64131643D01*
X174798357Y-64245626D01*
X174805173Y-64249657D01*
X174805177Y-64249660D01*
X174872815Y-64289660D01*
X174937106Y-64327681D01*
X174944718Y-64329892D01*
X174944719Y-64329893D01*
X175085726Y-64370860D01*
X175085729Y-64370861D01*
X175091902Y-64372654D01*
X175113580Y-64374360D01*
X175125608Y-64375307D01*
X175125617Y-64375307D01*
X175128065Y-64375500D01*
X175442245Y-64375500D01*
X175756934Y-64375499D01*
X175776142Y-64373988D01*
X175786680Y-64373159D01*
X175786681Y-64373159D01*
X175793098Y-64372654D01*
X175799280Y-64370858D01*
X175940281Y-64329893D01*
X175940282Y-64329892D01*
X175947894Y-64327681D01*
X176012185Y-64289660D01*
X176079823Y-64249660D01*
X176079827Y-64249657D01*
X176086643Y-64245626D01*
X176200626Y-64131643D01*
X176204657Y-64124827D01*
X176204660Y-64124823D01*
X176278646Y-63999717D01*
X176282681Y-63992894D01*
X176284893Y-63985281D01*
X176325860Y-63844274D01*
X176325861Y-63844271D01*
X176327654Y-63838098D01*
X176329360Y-63816420D01*
X176330307Y-63804392D01*
X176330307Y-63804383D01*
X176330500Y-63801935D01*
X176330499Y-63198066D01*
X176327654Y-63161902D01*
X176282681Y-63007106D01*
X176275536Y-62995024D01*
X176204660Y-62875177D01*
X176204657Y-62875173D01*
X176200626Y-62868357D01*
X176086643Y-62754374D01*
X176079827Y-62750343D01*
X176079823Y-62750340D01*
X175954717Y-62676354D01*
X175947894Y-62672319D01*
X175940282Y-62670108D01*
X175940281Y-62670107D01*
X175799274Y-62629140D01*
X175799271Y-62629139D01*
X175793098Y-62627346D01*
X175771420Y-62625640D01*
X175759392Y-62624693D01*
X175759383Y-62624693D01*
X175756935Y-62624500D01*
X175442755Y-62624500D01*
X175128066Y-62624501D01*
X175108858Y-62626012D01*
X175098320Y-62626841D01*
X175098319Y-62626841D01*
X175091902Y-62627346D01*
X175085721Y-62629142D01*
X175085720Y-62629142D01*
X174944719Y-62670107D01*
X174944718Y-62670108D01*
X174937106Y-62672319D01*
X174930283Y-62676354D01*
X174805177Y-62750340D01*
X174805173Y-62750343D01*
X174798357Y-62754374D01*
X174684374Y-62868357D01*
X174680340Y-62875177D01*
X174680340Y-62875178D01*
X174638454Y-62946004D01*
X174586561Y-62994457D01*
X174516710Y-63007162D01*
X174451079Y-62980087D01*
X174421546Y-62946004D01*
X174379660Y-62875178D01*
X174379660Y-62875177D01*
X174375626Y-62868357D01*
X174261643Y-62754374D01*
X174254827Y-62750343D01*
X174254823Y-62750340D01*
X174129717Y-62676354D01*
X174122894Y-62672319D01*
X174115282Y-62670108D01*
X174115281Y-62670107D01*
X173974274Y-62629140D01*
X173974271Y-62629139D01*
X173968098Y-62627346D01*
X173946420Y-62625640D01*
X173934392Y-62624693D01*
X173934383Y-62624693D01*
X173931935Y-62624500D01*
X173617755Y-62624500D01*
X173303066Y-62624501D01*
X173283858Y-62626012D01*
X173273320Y-62626841D01*
X173273319Y-62626841D01*
X173266902Y-62627346D01*
X173260721Y-62629142D01*
X173260720Y-62629142D01*
X173119719Y-62670107D01*
X173119718Y-62670108D01*
X173112106Y-62672319D01*
X173105283Y-62676354D01*
X172980177Y-62750340D01*
X172980173Y-62750343D01*
X172973357Y-62754374D01*
X172859374Y-62868357D01*
X172855343Y-62875173D01*
X172855340Y-62875177D01*
X172784464Y-62995024D01*
X172777319Y-63007106D01*
X172775108Y-63014718D01*
X172775107Y-63014719D01*
X172759026Y-63070071D01*
X172732346Y-63161902D01*
X172731842Y-63168312D01*
X172729694Y-63195602D01*
X172729500Y-63198065D01*
X170255499Y-63198065D01*
X170252654Y-63161902D01*
X170207681Y-63007106D01*
X170200536Y-62995024D01*
X170129660Y-62875177D01*
X170129657Y-62875173D01*
X170125626Y-62868357D01*
X170011643Y-62754374D01*
X170004827Y-62750343D01*
X170004823Y-62750340D01*
X169879717Y-62676354D01*
X169872894Y-62672319D01*
X169865282Y-62670108D01*
X169865281Y-62670107D01*
X169724274Y-62629140D01*
X169724271Y-62629139D01*
X169718098Y-62627346D01*
X169696420Y-62625640D01*
X169684392Y-62624693D01*
X169684383Y-62624693D01*
X169681935Y-62624500D01*
X169317795Y-62624500D01*
X168953066Y-62624501D01*
X168933858Y-62626012D01*
X168923320Y-62626841D01*
X168923319Y-62626841D01*
X168916902Y-62627346D01*
X168910721Y-62629142D01*
X168910720Y-62629142D01*
X168769719Y-62670107D01*
X168769718Y-62670108D01*
X168762106Y-62672319D01*
X168755283Y-62676354D01*
X168630177Y-62750340D01*
X168630173Y-62750343D01*
X168623357Y-62754374D01*
X168509374Y-62868357D01*
X168505343Y-62875173D01*
X168505340Y-62875177D01*
X168434464Y-62995024D01*
X168427319Y-63007106D01*
X168425108Y-63014718D01*
X168425107Y-63014719D01*
X168409026Y-63070071D01*
X168382346Y-63161902D01*
X168381842Y-63168312D01*
X168379694Y-63195602D01*
X168379500Y-63198065D01*
X167630499Y-63198065D01*
X167627654Y-63161902D01*
X167582681Y-63007106D01*
X167575536Y-62995024D01*
X167504660Y-62875177D01*
X167504657Y-62875173D01*
X167500626Y-62868357D01*
X167386643Y-62754374D01*
X167379827Y-62750343D01*
X167379823Y-62750340D01*
X167254717Y-62676354D01*
X167247894Y-62672319D01*
X167240282Y-62670108D01*
X167240281Y-62670107D01*
X167099274Y-62629140D01*
X167099271Y-62629139D01*
X167093098Y-62627346D01*
X167071420Y-62625640D01*
X167059392Y-62624693D01*
X167059383Y-62624693D01*
X167056935Y-62624500D01*
X166742755Y-62624500D01*
X166428066Y-62624501D01*
X166408858Y-62626012D01*
X166398320Y-62626841D01*
X166398319Y-62626841D01*
X166391902Y-62627346D01*
X166385721Y-62629142D01*
X166385720Y-62629142D01*
X166244719Y-62670107D01*
X166244718Y-62670108D01*
X166237106Y-62672319D01*
X166230283Y-62676354D01*
X166105177Y-62750340D01*
X166105173Y-62750343D01*
X166098357Y-62754374D01*
X165984374Y-62868357D01*
X165980340Y-62875177D01*
X165980340Y-62875178D01*
X165938454Y-62946004D01*
X165886561Y-62994457D01*
X165816710Y-63007162D01*
X165751079Y-62980087D01*
X165721546Y-62946004D01*
X165679660Y-62875178D01*
X165679660Y-62875177D01*
X165675626Y-62868357D01*
X165561643Y-62754374D01*
X165554827Y-62750343D01*
X165554823Y-62750340D01*
X165429717Y-62676354D01*
X165422894Y-62672319D01*
X165415282Y-62670108D01*
X165415281Y-62670107D01*
X165274274Y-62629140D01*
X165274271Y-62629139D01*
X165268098Y-62627346D01*
X165246420Y-62625640D01*
X165234392Y-62624693D01*
X165234383Y-62624693D01*
X165231935Y-62624500D01*
X164917755Y-62624500D01*
X164603066Y-62624501D01*
X164583858Y-62626012D01*
X164573320Y-62626841D01*
X164573319Y-62626841D01*
X164566902Y-62627346D01*
X164560721Y-62629142D01*
X164560720Y-62629142D01*
X164419719Y-62670107D01*
X164419718Y-62670108D01*
X164412106Y-62672319D01*
X164405283Y-62676354D01*
X164280177Y-62750340D01*
X164280173Y-62750343D01*
X164273357Y-62754374D01*
X164159374Y-62868357D01*
X164155343Y-62875173D01*
X164155340Y-62875177D01*
X164084464Y-62995024D01*
X164077319Y-63007106D01*
X164075108Y-63014718D01*
X164075107Y-63014719D01*
X164059026Y-63070071D01*
X164032346Y-63161902D01*
X164031842Y-63168312D01*
X164029694Y-63195602D01*
X164029500Y-63198065D01*
X163281539Y-63198065D01*
X163271033Y-63161902D01*
X163239893Y-63054719D01*
X163239892Y-63054718D01*
X163237681Y-63047106D01*
X163218528Y-63014719D01*
X163159660Y-62915177D01*
X163159657Y-62915173D01*
X163155626Y-62908357D01*
X163041643Y-62794374D01*
X163034827Y-62790343D01*
X163034823Y-62790340D01*
X162909717Y-62716354D01*
X162902894Y-62712319D01*
X162895282Y-62710108D01*
X162895281Y-62710107D01*
X162754274Y-62669140D01*
X162754271Y-62669139D01*
X162748098Y-62667346D01*
X162726420Y-62665640D01*
X162714392Y-62664693D01*
X162714383Y-62664693D01*
X162711935Y-62664500D01*
X162360285Y-62664500D01*
X162008066Y-62664501D01*
X161988858Y-62666012D01*
X161978320Y-62666841D01*
X161978319Y-62666841D01*
X161971902Y-62667346D01*
X161965721Y-62669142D01*
X161965720Y-62669142D01*
X161824719Y-62710107D01*
X161824718Y-62710108D01*
X161817106Y-62712319D01*
X161810283Y-62716354D01*
X161685177Y-62790340D01*
X161685173Y-62790343D01*
X161678357Y-62794374D01*
X161574095Y-62898636D01*
X161511783Y-62932662D01*
X161440968Y-62927597D01*
X161395905Y-62898636D01*
X161291643Y-62794374D01*
X161284827Y-62790343D01*
X161284823Y-62790340D01*
X161159717Y-62716354D01*
X161152894Y-62712319D01*
X161145282Y-62710108D01*
X161145281Y-62710107D01*
X161004274Y-62669140D01*
X161004271Y-62669139D01*
X160998098Y-62667346D01*
X160976420Y-62665640D01*
X160964392Y-62664693D01*
X160964383Y-62664693D01*
X160961935Y-62664500D01*
X160610285Y-62664500D01*
X160258066Y-62664501D01*
X160238858Y-62666012D01*
X160228320Y-62666841D01*
X160228319Y-62666841D01*
X160221902Y-62667346D01*
X160215721Y-62669142D01*
X160215720Y-62669142D01*
X160074719Y-62710107D01*
X160074718Y-62710108D01*
X160067106Y-62712319D01*
X160060283Y-62716354D01*
X159935177Y-62790340D01*
X159935173Y-62790343D01*
X159928357Y-62794374D01*
X159814374Y-62908357D01*
X159810343Y-62915173D01*
X159810340Y-62915177D01*
X159751472Y-63014719D01*
X159732319Y-63047106D01*
X159730108Y-63054718D01*
X159730107Y-63054719D01*
X159689175Y-63195608D01*
X159687346Y-63201902D01*
X159686012Y-63218850D01*
X159684694Y-63235602D01*
X159684500Y-63238065D01*
X158894616Y-63238065D01*
X158893103Y-63218850D01*
X158892598Y-63212431D01*
X158846744Y-63054602D01*
X158814135Y-62999462D01*
X158767115Y-62919956D01*
X158763081Y-62913135D01*
X158646865Y-62796919D01*
X158640044Y-62792885D01*
X158512221Y-62717291D01*
X158512220Y-62717291D01*
X158505398Y-62713256D01*
X158497786Y-62711045D01*
X158497785Y-62711044D01*
X158364493Y-62672319D01*
X158347569Y-62667402D01*
X158334416Y-62666367D01*
X158313153Y-62664693D01*
X158313140Y-62664692D01*
X158310694Y-62664500D01*
X157529306Y-62664500D01*
X157526860Y-62664692D01*
X157526847Y-62664693D01*
X157505584Y-62666367D01*
X157492431Y-62667402D01*
X157475507Y-62672319D01*
X157342215Y-62711044D01*
X157342214Y-62711045D01*
X157334602Y-62713256D01*
X157327780Y-62717291D01*
X157327779Y-62717291D01*
X157199956Y-62792885D01*
X157193135Y-62796919D01*
X157076919Y-62913135D01*
X157072885Y-62919956D01*
X157025866Y-62999462D01*
X156993256Y-63054602D01*
X156947402Y-63212431D01*
X156946897Y-63218850D01*
X156944693Y-63246847D01*
X156944692Y-63246860D01*
X156944500Y-63249306D01*
X156944500Y-64280694D01*
X139878141Y-64280694D01*
X139793522Y-64109103D01*
X139790967Y-64103922D01*
X139771666Y-64078074D01*
X139666587Y-63937356D01*
X139666586Y-63937355D01*
X139663134Y-63932732D01*
X139658898Y-63928816D01*
X139510484Y-63791624D01*
X139510481Y-63791622D01*
X139506244Y-63787705D01*
X139325552Y-63673697D01*
X139127109Y-63594526D01*
X139065720Y-63582315D01*
X138991597Y-63567571D01*
X138928688Y-63534663D01*
X138893556Y-63472968D01*
X138897356Y-63402074D01*
X138938882Y-63344488D01*
X138998097Y-63319297D01*
X139068070Y-63309151D01*
X139073534Y-63307296D01*
X139073539Y-63307295D01*
X139237089Y-63251777D01*
X139270384Y-63240475D01*
X139456795Y-63136080D01*
X139621060Y-62999462D01*
X139757678Y-62835197D01*
X139862073Y-62648786D01*
X139930749Y-62446472D01*
X139943786Y-62356563D01*
X139960874Y-62238704D01*
X139961407Y-62235030D01*
X139963007Y-62173929D01*
X139943457Y-61961173D01*
X139936619Y-61936925D01*
X139887031Y-61761101D01*
X139887030Y-61761099D01*
X139885463Y-61755542D01*
X139874189Y-61732679D01*
X139793522Y-61569103D01*
X139790967Y-61563922D01*
X139771666Y-61538074D01*
X139666587Y-61397356D01*
X139666586Y-61397355D01*
X139663134Y-61392732D01*
X139658898Y-61388816D01*
X139510484Y-61251624D01*
X139510481Y-61251622D01*
X139506244Y-61247705D01*
X139325552Y-61133697D01*
X139127109Y-61054526D01*
X139121452Y-61053401D01*
X139121446Y-61053399D01*
X138923230Y-61013972D01*
X138923226Y-61013972D01*
X138917562Y-61012845D01*
X138911787Y-61012769D01*
X138911783Y-61012769D01*
X138804524Y-61011365D01*
X138703928Y-61010048D01*
X138698231Y-61011027D01*
X138698230Y-61011027D01*
X138499058Y-61045251D01*
X138493361Y-61046230D01*
X138292914Y-61120179D01*
X138287953Y-61123131D01*
X138287952Y-61123131D01*
X138114267Y-61226462D01*
X138114264Y-61226464D01*
X138109299Y-61229418D01*
X138104959Y-61233224D01*
X138104955Y-61233227D01*
X137953008Y-61366482D01*
X137948667Y-61370289D01*
X137945092Y-61374824D01*
X137945091Y-61374825D01*
X137944543Y-61375520D01*
X137816396Y-61538074D01*
X137813707Y-61543185D01*
X137813705Y-61543188D01*
X137800071Y-61569103D01*
X137716916Y-61727154D01*
X137715202Y-61732675D01*
X137715200Y-61732679D01*
X137709710Y-61750362D01*
X137653559Y-61931196D01*
X137628447Y-62143368D01*
X137642421Y-62356563D01*
X137695012Y-62563642D01*
X137784460Y-62757669D01*
X137787793Y-62762385D01*
X137867507Y-62875178D01*
X137907768Y-62932147D01*
X138060808Y-63081231D01*
X138238454Y-63199930D01*
X138243757Y-63202208D01*
X138243760Y-63202210D01*
X138387532Y-63263979D01*
X138434756Y-63284268D01*
X138505882Y-63300362D01*
X138600717Y-63321822D01*
X138662744Y-63356365D01*
X138696248Y-63418959D01*
X138690594Y-63489730D01*
X138647575Y-63546209D01*
X138594248Y-63568894D01*
X138493361Y-63586230D01*
X138292914Y-63660179D01*
X138287953Y-63663131D01*
X138287952Y-63663131D01*
X138114267Y-63766462D01*
X138114264Y-63766464D01*
X138109299Y-63769418D01*
X138104959Y-63773224D01*
X138104955Y-63773227D01*
X137978331Y-63884274D01*
X137948667Y-63910289D01*
X137816396Y-64078074D01*
X137813707Y-64083185D01*
X137813705Y-64083188D01*
X137770755Y-64164823D01*
X137716916Y-64267154D01*
X137715202Y-64272675D01*
X137715200Y-64272679D01*
X137670914Y-64415305D01*
X137653559Y-64471196D01*
X137628447Y-64683368D01*
X137642421Y-64896563D01*
X137695012Y-65103642D01*
X137784460Y-65297669D01*
X137907768Y-65472147D01*
X138060808Y-65621231D01*
X138238454Y-65739930D01*
X138243757Y-65742208D01*
X138243760Y-65742210D01*
X138429449Y-65821988D01*
X138434756Y-65824268D01*
X138505882Y-65840362D01*
X138600717Y-65861822D01*
X138662744Y-65896365D01*
X138696248Y-65958959D01*
X138690594Y-66029730D01*
X138647575Y-66086209D01*
X138594248Y-66108894D01*
X138493361Y-66126230D01*
X138292914Y-66200179D01*
X138287953Y-66203131D01*
X138287952Y-66203131D01*
X138114267Y-66306462D01*
X138114264Y-66306464D01*
X138109299Y-66309418D01*
X138104959Y-66313224D01*
X138104955Y-66313227D01*
X137953008Y-66446482D01*
X137948667Y-66450289D01*
X137816396Y-66618074D01*
X137813707Y-66623185D01*
X137813705Y-66623188D01*
X137801046Y-66647249D01*
X137716916Y-66807154D01*
X137715202Y-66812675D01*
X137715200Y-66812679D01*
X137692589Y-66885500D01*
X137653559Y-67011196D01*
X137628447Y-67223368D01*
X137642421Y-67436563D01*
X137695012Y-67643642D01*
X137784460Y-67837669D01*
X137907768Y-68012147D01*
X138060808Y-68161231D01*
X138238454Y-68279930D01*
X138243757Y-68282208D01*
X138243760Y-68282210D01*
X138429449Y-68361988D01*
X138434756Y-68364268D01*
X138505882Y-68380362D01*
X138600717Y-68401822D01*
X138662744Y-68436365D01*
X138696248Y-68498959D01*
X138690594Y-68569730D01*
X138647575Y-68626209D01*
X138594248Y-68648894D01*
X138493361Y-68666230D01*
X138292914Y-68740179D01*
X138287953Y-68743131D01*
X138287952Y-68743131D01*
X138114267Y-68846462D01*
X138114264Y-68846464D01*
X138109299Y-68849418D01*
X138104959Y-68853224D01*
X138104955Y-68853227D01*
X137953008Y-68986482D01*
X137948667Y-68990289D01*
X137816396Y-69158074D01*
X137813707Y-69163185D01*
X137813705Y-69163188D01*
X137800071Y-69189103D01*
X137716916Y-69347154D01*
X137715202Y-69352675D01*
X137715200Y-69352679D01*
X137709710Y-69370362D01*
X137653559Y-69551196D01*
X137628447Y-69763368D01*
X137642421Y-69976563D01*
X137695012Y-70183642D01*
X137784460Y-70377669D01*
X137907768Y-70552147D01*
X138060808Y-70701231D01*
X138238454Y-70819930D01*
X138243757Y-70822208D01*
X138243760Y-70822210D01*
X138429449Y-70901988D01*
X138434756Y-70904268D01*
X138505882Y-70920362D01*
X138600717Y-70941822D01*
X138662744Y-70976365D01*
X138696248Y-71038959D01*
X138690594Y-71109730D01*
X138647575Y-71166209D01*
X138594248Y-71188894D01*
X138493361Y-71206230D01*
X138292914Y-71280179D01*
X138287953Y-71283131D01*
X138287952Y-71283131D01*
X138114267Y-71386462D01*
X138114264Y-71386464D01*
X138109299Y-71389418D01*
X138104959Y-71393224D01*
X138104955Y-71393227D01*
X137953008Y-71526482D01*
X137948667Y-71530289D01*
X137816396Y-71698074D01*
X137813707Y-71703185D01*
X137813705Y-71703188D01*
X137800071Y-71729103D01*
X137716916Y-71887154D01*
X137715202Y-71892675D01*
X137715200Y-71892679D01*
X137709710Y-71910362D01*
X137653559Y-72091196D01*
X137628447Y-72303368D01*
X137642421Y-72516563D01*
X137695012Y-72723642D01*
X137784460Y-72917669D01*
X137907768Y-73092147D01*
X138060808Y-73241231D01*
X138238454Y-73359930D01*
X138243757Y-73362208D01*
X138243760Y-73362210D01*
X138429449Y-73441988D01*
X138434756Y-73444268D01*
X138505882Y-73460362D01*
X138600717Y-73481822D01*
X138662744Y-73516365D01*
X138696248Y-73578959D01*
X138690594Y-73649730D01*
X138647575Y-73706209D01*
X138594248Y-73728894D01*
X138493361Y-73746230D01*
X138292914Y-73820179D01*
X138287953Y-73823131D01*
X138287952Y-73823131D01*
X138114267Y-73926462D01*
X138114264Y-73926464D01*
X138109299Y-73929418D01*
X138104959Y-73933224D01*
X138104955Y-73933227D01*
X137953008Y-74066482D01*
X137948667Y-74070289D01*
X137816396Y-74238074D01*
X137813707Y-74243185D01*
X137813705Y-74243188D01*
X137800071Y-74269103D01*
X137716916Y-74427154D01*
X137715202Y-74432675D01*
X137715200Y-74432679D01*
X137709710Y-74450362D01*
X137653559Y-74631196D01*
X137628447Y-74843368D01*
X137642421Y-75056563D01*
X137695012Y-75263642D01*
X137784460Y-75457669D01*
X137787793Y-75462385D01*
X137896260Y-75615863D01*
X137907768Y-75632147D01*
X138060808Y-75781231D01*
X138238454Y-75899930D01*
X138243757Y-75902208D01*
X138243760Y-75902210D01*
X138429449Y-75981988D01*
X138434756Y-75984268D01*
X138505882Y-76000362D01*
X138600717Y-76021822D01*
X138662744Y-76056365D01*
X138696248Y-76118959D01*
X138690594Y-76189730D01*
X138647575Y-76246209D01*
X138594248Y-76268894D01*
X138493361Y-76286230D01*
X138292914Y-76360179D01*
X138287953Y-76363131D01*
X138287952Y-76363131D01*
X138114267Y-76466462D01*
X138114264Y-76466464D01*
X138109299Y-76469418D01*
X138104959Y-76473224D01*
X138104955Y-76473227D01*
X137955848Y-76603991D01*
X137948667Y-76610289D01*
X137816396Y-76778074D01*
X137813707Y-76783185D01*
X137813705Y-76783188D01*
X137787235Y-76833500D01*
X137716916Y-76967154D01*
X137715202Y-76972675D01*
X137715200Y-76972679D01*
X137667998Y-77124696D01*
X137653559Y-77171196D01*
X137628447Y-77383368D01*
X137642421Y-77596563D01*
X137695012Y-77803642D01*
X137784460Y-77997669D01*
X137907768Y-78172147D01*
X137911910Y-78176182D01*
X138013662Y-78275304D01*
X138060808Y-78321231D01*
X138238454Y-78439930D01*
X138243757Y-78442208D01*
X138243760Y-78442210D01*
X138405405Y-78511658D01*
X138434756Y-78524268D01*
X138505882Y-78540362D01*
X138600717Y-78561822D01*
X138662744Y-78596365D01*
X138696248Y-78658959D01*
X138690594Y-78729730D01*
X138647575Y-78786209D01*
X138594248Y-78808894D01*
X138493361Y-78826230D01*
X138292914Y-78900179D01*
X138287953Y-78903131D01*
X138287952Y-78903131D01*
X138114267Y-79006462D01*
X138114264Y-79006464D01*
X138109299Y-79009418D01*
X138104959Y-79013224D01*
X138104955Y-79013227D01*
X137953008Y-79146482D01*
X137948667Y-79150289D01*
X137816396Y-79318074D01*
X137813707Y-79323185D01*
X137813705Y-79323188D01*
X137800071Y-79349103D01*
X137716916Y-79507154D01*
X137715202Y-79512675D01*
X137715200Y-79512679D01*
X137661255Y-79686412D01*
X137653559Y-79711196D01*
X137628447Y-79923368D01*
X137642421Y-80136563D01*
X137695012Y-80343642D01*
X137784460Y-80537669D01*
X137907768Y-80712147D01*
X138060808Y-80861231D01*
X138238454Y-80979930D01*
X138243757Y-80982208D01*
X138243760Y-80982210D01*
X138429449Y-81061988D01*
X138434756Y-81064268D01*
X138505882Y-81080362D01*
X138600717Y-81101822D01*
X138662744Y-81136365D01*
X138696248Y-81198959D01*
X138690594Y-81269730D01*
X138647575Y-81326209D01*
X138594248Y-81348894D01*
X138493361Y-81366230D01*
X138292914Y-81440179D01*
X138287953Y-81443131D01*
X138287952Y-81443131D01*
X138114267Y-81546462D01*
X138114264Y-81546464D01*
X138109299Y-81549418D01*
X138104959Y-81553224D01*
X138104955Y-81553227D01*
X138023202Y-81624923D01*
X137948667Y-81690289D01*
X137816396Y-81858074D01*
X137813707Y-81863185D01*
X137813705Y-81863188D01*
X137800071Y-81889103D01*
X137716916Y-82047154D01*
X137715202Y-82052675D01*
X137715200Y-82052679D01*
X137670218Y-82197547D01*
X137653559Y-82251196D01*
X137628447Y-82463368D01*
X137642421Y-82676563D01*
X137695012Y-82883642D01*
X137784460Y-83077669D01*
X137907768Y-83252147D01*
X138060808Y-83401231D01*
X138238454Y-83519930D01*
X138243757Y-83522208D01*
X138243760Y-83522210D01*
X138424347Y-83599796D01*
X138434756Y-83604268D01*
X138505882Y-83620362D01*
X138600717Y-83641822D01*
X138662744Y-83676365D01*
X138696248Y-83738959D01*
X138690594Y-83809730D01*
X138647575Y-83866209D01*
X138594248Y-83888894D01*
X138493361Y-83906230D01*
X138292914Y-83980179D01*
X138287953Y-83983131D01*
X138287952Y-83983131D01*
X138114267Y-84086462D01*
X138114264Y-84086464D01*
X138109299Y-84089418D01*
X138104959Y-84093224D01*
X138104955Y-84093227D01*
X138023202Y-84164923D01*
X137948667Y-84230289D01*
X137816396Y-84398074D01*
X137813707Y-84403185D01*
X137813705Y-84403188D01*
X137800071Y-84429103D01*
X137716916Y-84587154D01*
X137715202Y-84592675D01*
X137715200Y-84592679D01*
X137670218Y-84737547D01*
X137653559Y-84791196D01*
X137628447Y-85003368D01*
X137642421Y-85216563D01*
X137695012Y-85423642D01*
X137784460Y-85617669D01*
X137907768Y-85792147D01*
X138060808Y-85941231D01*
X138238454Y-86059930D01*
X138243757Y-86062208D01*
X138243760Y-86062210D01*
X138424347Y-86139796D01*
X138434756Y-86144268D01*
X138505882Y-86160362D01*
X138600717Y-86181822D01*
X138662744Y-86216365D01*
X138696248Y-86278959D01*
X138690594Y-86349730D01*
X138647575Y-86406209D01*
X138594248Y-86428894D01*
X138493361Y-86446230D01*
X138292914Y-86520179D01*
X138287953Y-86523131D01*
X138287952Y-86523131D01*
X138114267Y-86626462D01*
X138114264Y-86626464D01*
X138109299Y-86629418D01*
X138104959Y-86633224D01*
X138104955Y-86633227D01*
X137953008Y-86766482D01*
X137948667Y-86770289D01*
X137816396Y-86938074D01*
X137813707Y-86943185D01*
X137813705Y-86943188D01*
X137800071Y-86969103D01*
X137716916Y-87127154D01*
X137715202Y-87132675D01*
X137715200Y-87132679D01*
X137709710Y-87150362D01*
X137653559Y-87331196D01*
X137628447Y-87543368D01*
X137642421Y-87756563D01*
X137695012Y-87963642D01*
X137784460Y-88157669D01*
X137907768Y-88332147D01*
X138060808Y-88481231D01*
X138238454Y-88599930D01*
X138243757Y-88602208D01*
X138243760Y-88602210D01*
X138429449Y-88681988D01*
X138434756Y-88684268D01*
X138505882Y-88700362D01*
X138600717Y-88721822D01*
X138662744Y-88756365D01*
X138696248Y-88818959D01*
X138690594Y-88889730D01*
X138647575Y-88946209D01*
X138594248Y-88968894D01*
X138493361Y-88986230D01*
X138292914Y-89060179D01*
X138287953Y-89063131D01*
X138287952Y-89063131D01*
X138114267Y-89166462D01*
X138114264Y-89166464D01*
X138109299Y-89169418D01*
X138104959Y-89173224D01*
X138104955Y-89173227D01*
X137953008Y-89306482D01*
X137948667Y-89310289D01*
X137816396Y-89478074D01*
X137813707Y-89483185D01*
X137813705Y-89483188D01*
X137800071Y-89509103D01*
X137716916Y-89667154D01*
X137715202Y-89672675D01*
X137715200Y-89672679D01*
X137709710Y-89690362D01*
X137653559Y-89871196D01*
X137628447Y-90083368D01*
X137642421Y-90296563D01*
X137695012Y-90503642D01*
X137784460Y-90697669D01*
X137907768Y-90872147D01*
X138060808Y-91021231D01*
X138238454Y-91139930D01*
X138243757Y-91142208D01*
X138243760Y-91142210D01*
X138429449Y-91221988D01*
X138434756Y-91224268D01*
X138505882Y-91240362D01*
X138600717Y-91261822D01*
X138662744Y-91296365D01*
X138696248Y-91358959D01*
X138690594Y-91429730D01*
X138647575Y-91486209D01*
X138594248Y-91508894D01*
X138493361Y-91526230D01*
X138292914Y-91600179D01*
X138287953Y-91603131D01*
X138287952Y-91603131D01*
X138114267Y-91706462D01*
X138114264Y-91706464D01*
X138109299Y-91709418D01*
X138104959Y-91713224D01*
X138104955Y-91713227D01*
X137953008Y-91846482D01*
X137948667Y-91850289D01*
X137816396Y-92018074D01*
X137813707Y-92023185D01*
X137813705Y-92023188D01*
X137800071Y-92049103D01*
X137716916Y-92207154D01*
X137715202Y-92212675D01*
X137715200Y-92212679D01*
X137709710Y-92230362D01*
X137653559Y-92411196D01*
X137628447Y-92623368D01*
X114560199Y-92623368D01*
X114543457Y-92441173D01*
X114536619Y-92416925D01*
X114487031Y-92241101D01*
X114487030Y-92241099D01*
X114485463Y-92235542D01*
X114474189Y-92212679D01*
X114393522Y-92049103D01*
X114390967Y-92043922D01*
X114371666Y-92018074D01*
X114266587Y-91877356D01*
X114266586Y-91877355D01*
X114263134Y-91872732D01*
X114258898Y-91868816D01*
X114110484Y-91731624D01*
X114110481Y-91731622D01*
X114106244Y-91727705D01*
X113925552Y-91613697D01*
X113727109Y-91534526D01*
X113665720Y-91522315D01*
X113591597Y-91507571D01*
X113528688Y-91474663D01*
X113493556Y-91412968D01*
X113497356Y-91342074D01*
X113538882Y-91284488D01*
X113598097Y-91259297D01*
X113668070Y-91249151D01*
X113673534Y-91247296D01*
X113673539Y-91247295D01*
X113864916Y-91182331D01*
X113870384Y-91180475D01*
X114056795Y-91076080D01*
X114221060Y-90939462D01*
X114357678Y-90775197D01*
X114462073Y-90588786D01*
X114530749Y-90386472D01*
X114543786Y-90296563D01*
X114560874Y-90178704D01*
X114561407Y-90175030D01*
X114563007Y-90113929D01*
X114543457Y-89901173D01*
X114536619Y-89876925D01*
X114487031Y-89701101D01*
X114487030Y-89701099D01*
X114485463Y-89695542D01*
X114474189Y-89672679D01*
X114393522Y-89509103D01*
X114390967Y-89503922D01*
X114371666Y-89478074D01*
X114266587Y-89337356D01*
X114266586Y-89337355D01*
X114263134Y-89332732D01*
X114258898Y-89328816D01*
X114110484Y-89191624D01*
X114110481Y-89191622D01*
X114106244Y-89187705D01*
X113925552Y-89073697D01*
X113727109Y-88994526D01*
X113665720Y-88982315D01*
X113591597Y-88967571D01*
X113528688Y-88934663D01*
X113493556Y-88872968D01*
X113497356Y-88802074D01*
X113538882Y-88744488D01*
X113598097Y-88719297D01*
X113668070Y-88709151D01*
X113673534Y-88707296D01*
X113673539Y-88707295D01*
X113864916Y-88642331D01*
X113870384Y-88640475D01*
X114056795Y-88536080D01*
X114221060Y-88399462D01*
X114357678Y-88235197D01*
X114462073Y-88048786D01*
X114530749Y-87846472D01*
X114543786Y-87756563D01*
X114560874Y-87638704D01*
X114561407Y-87635030D01*
X114563007Y-87573929D01*
X114543457Y-87361173D01*
X114536619Y-87336925D01*
X114487031Y-87161101D01*
X114487030Y-87161099D01*
X114485463Y-87155542D01*
X114474189Y-87132679D01*
X114393522Y-86969103D01*
X114390967Y-86963922D01*
X114371666Y-86938074D01*
X114266587Y-86797356D01*
X114266586Y-86797355D01*
X114263134Y-86792732D01*
X114258898Y-86788816D01*
X114110484Y-86651624D01*
X114110481Y-86651622D01*
X114106244Y-86647705D01*
X113925552Y-86533697D01*
X113727109Y-86454526D01*
X113665720Y-86442315D01*
X113591597Y-86427571D01*
X113528688Y-86394663D01*
X113493556Y-86332968D01*
X113497356Y-86262074D01*
X113538882Y-86204488D01*
X113598097Y-86179297D01*
X113668070Y-86169151D01*
X113673534Y-86167296D01*
X113673539Y-86167295D01*
X113864916Y-86102331D01*
X113870384Y-86100475D01*
X114056795Y-85996080D01*
X114221060Y-85859462D01*
X114357678Y-85695197D01*
X114462073Y-85508786D01*
X114530749Y-85306472D01*
X114543786Y-85216563D01*
X114560874Y-85098704D01*
X114561407Y-85095030D01*
X114563007Y-85033929D01*
X114543457Y-84821173D01*
X114536619Y-84796925D01*
X114487031Y-84621101D01*
X114487030Y-84621099D01*
X114485463Y-84615542D01*
X114474189Y-84592679D01*
X114393522Y-84429103D01*
X114390967Y-84423922D01*
X114371666Y-84398074D01*
X114266587Y-84257356D01*
X114266586Y-84257355D01*
X114263134Y-84252732D01*
X114258898Y-84248816D01*
X114110484Y-84111624D01*
X114110481Y-84111622D01*
X114106244Y-84107705D01*
X113925552Y-83993697D01*
X113727109Y-83914526D01*
X113665720Y-83902315D01*
X113591597Y-83887571D01*
X113528688Y-83854663D01*
X113493556Y-83792968D01*
X113497356Y-83722074D01*
X113538882Y-83664488D01*
X113598097Y-83639297D01*
X113668070Y-83629151D01*
X113673534Y-83627296D01*
X113673539Y-83627295D01*
X113864916Y-83562331D01*
X113870384Y-83560475D01*
X114056795Y-83456080D01*
X114221060Y-83319462D01*
X114357678Y-83155197D01*
X114462073Y-82968786D01*
X114530749Y-82766472D01*
X114543786Y-82676563D01*
X114560874Y-82558704D01*
X114561407Y-82555030D01*
X114563007Y-82493929D01*
X114543457Y-82281173D01*
X114536619Y-82256925D01*
X114487031Y-82081101D01*
X114487030Y-82081099D01*
X114485463Y-82075542D01*
X114474189Y-82052679D01*
X114393522Y-81889103D01*
X114390967Y-81883922D01*
X114371666Y-81858074D01*
X114266587Y-81717356D01*
X114266586Y-81717355D01*
X114263134Y-81712732D01*
X114258898Y-81708816D01*
X114110484Y-81571624D01*
X114110481Y-81571622D01*
X114106244Y-81567705D01*
X113925552Y-81453697D01*
X113727109Y-81374526D01*
X113665720Y-81362315D01*
X113591597Y-81347571D01*
X113528688Y-81314663D01*
X113493556Y-81252968D01*
X113497356Y-81182074D01*
X113538882Y-81124488D01*
X113598097Y-81099297D01*
X113668070Y-81089151D01*
X113673534Y-81087296D01*
X113673539Y-81087295D01*
X113864916Y-81022331D01*
X113870384Y-81020475D01*
X114056795Y-80916080D01*
X114221060Y-80779462D01*
X114357678Y-80615197D01*
X114462073Y-80428786D01*
X114530749Y-80226472D01*
X114543786Y-80136563D01*
X114556376Y-80049725D01*
X114561407Y-80015030D01*
X114563007Y-79953929D01*
X114550794Y-79821023D01*
X114543986Y-79746927D01*
X114543985Y-79746924D01*
X114543457Y-79741173D01*
X114536619Y-79716925D01*
X114487031Y-79541101D01*
X114487030Y-79541099D01*
X114485463Y-79535542D01*
X114474189Y-79512679D01*
X114393522Y-79349103D01*
X114390967Y-79343922D01*
X114371666Y-79318074D01*
X114266587Y-79177356D01*
X114266586Y-79177355D01*
X114263134Y-79172732D01*
X114258898Y-79168816D01*
X114110484Y-79031624D01*
X114110481Y-79031622D01*
X114106244Y-79027705D01*
X113925552Y-78913697D01*
X113727109Y-78834526D01*
X113665720Y-78822315D01*
X113591597Y-78807571D01*
X113528688Y-78774663D01*
X113493556Y-78712968D01*
X113497356Y-78642074D01*
X113538882Y-78584488D01*
X113598097Y-78559297D01*
X113668070Y-78549151D01*
X113673534Y-78547296D01*
X113673539Y-78547295D01*
X113864916Y-78482331D01*
X113870384Y-78480475D01*
X114056795Y-78376080D01*
X114221060Y-78239462D01*
X114357678Y-78075197D01*
X114462073Y-77888786D01*
X114530749Y-77686472D01*
X114543786Y-77596563D01*
X114560874Y-77478704D01*
X114561407Y-77475030D01*
X114563007Y-77413929D01*
X114543457Y-77201173D01*
X114536619Y-77176925D01*
X114487031Y-77001101D01*
X114487030Y-77001099D01*
X114485463Y-76995542D01*
X114474189Y-76972679D01*
X114393522Y-76809103D01*
X114390967Y-76803922D01*
X114371666Y-76778074D01*
X114266587Y-76637356D01*
X114266586Y-76637355D01*
X114263134Y-76632732D01*
X114258898Y-76628816D01*
X114110484Y-76491624D01*
X114110481Y-76491622D01*
X114106244Y-76487705D01*
X113925552Y-76373697D01*
X113727109Y-76294526D01*
X113665720Y-76282315D01*
X113591597Y-76267571D01*
X113528688Y-76234663D01*
X113493556Y-76172968D01*
X113497356Y-76102074D01*
X113538882Y-76044488D01*
X113598097Y-76019297D01*
X113668070Y-76009151D01*
X113673534Y-76007296D01*
X113673539Y-76007295D01*
X113864916Y-75942331D01*
X113870384Y-75940475D01*
X114056795Y-75836080D01*
X114221060Y-75699462D01*
X114357678Y-75535197D01*
X114462073Y-75348786D01*
X114530749Y-75146472D01*
X114543786Y-75056563D01*
X114560874Y-74938704D01*
X114561407Y-74935030D01*
X114563007Y-74873929D01*
X114543457Y-74661173D01*
X114536619Y-74636925D01*
X114487031Y-74461101D01*
X114487030Y-74461099D01*
X114485463Y-74455542D01*
X114474189Y-74432679D01*
X114393522Y-74269103D01*
X114390967Y-74263922D01*
X114371666Y-74238074D01*
X114266587Y-74097356D01*
X114266586Y-74097355D01*
X114263134Y-74092732D01*
X114258898Y-74088816D01*
X114110484Y-73951624D01*
X114110481Y-73951622D01*
X114106244Y-73947705D01*
X113925552Y-73833697D01*
X113727109Y-73754526D01*
X113665720Y-73742315D01*
X113591597Y-73727571D01*
X113528688Y-73694663D01*
X113493556Y-73632968D01*
X113497356Y-73562074D01*
X113538882Y-73504488D01*
X113598097Y-73479297D01*
X113668070Y-73469151D01*
X113673534Y-73467296D01*
X113673539Y-73467295D01*
X113864916Y-73402331D01*
X113870384Y-73400475D01*
X114056795Y-73296080D01*
X114221060Y-73159462D01*
X114357678Y-72995197D01*
X114462073Y-72808786D01*
X114530749Y-72606472D01*
X114543786Y-72516563D01*
X114560874Y-72398704D01*
X114561407Y-72395030D01*
X114563007Y-72333929D01*
X114543457Y-72121173D01*
X114536619Y-72096925D01*
X114487031Y-71921101D01*
X114487030Y-71921099D01*
X114485463Y-71915542D01*
X114474189Y-71892679D01*
X114393522Y-71729103D01*
X114390967Y-71723922D01*
X114371666Y-71698074D01*
X114266587Y-71557356D01*
X114266586Y-71557355D01*
X114263134Y-71552732D01*
X114258898Y-71548816D01*
X114110484Y-71411624D01*
X114110481Y-71411622D01*
X114106244Y-71407705D01*
X113925552Y-71293697D01*
X113727109Y-71214526D01*
X113665720Y-71202315D01*
X113591597Y-71187571D01*
X113528688Y-71154663D01*
X113493556Y-71092968D01*
X113497356Y-71022074D01*
X113538882Y-70964488D01*
X113598097Y-70939297D01*
X113668070Y-70929151D01*
X113673534Y-70927296D01*
X113673539Y-70927295D01*
X113864916Y-70862331D01*
X113870384Y-70860475D01*
X114056795Y-70756080D01*
X114221060Y-70619462D01*
X114357678Y-70455197D01*
X114462073Y-70268786D01*
X114530749Y-70066472D01*
X114543786Y-69976563D01*
X114560874Y-69858704D01*
X114561407Y-69855030D01*
X114563007Y-69793929D01*
X114543457Y-69581173D01*
X114536619Y-69556925D01*
X114487031Y-69381101D01*
X114487030Y-69381099D01*
X114485463Y-69375542D01*
X114474189Y-69352679D01*
X114393522Y-69189103D01*
X114390967Y-69183922D01*
X114371666Y-69158074D01*
X114266587Y-69017356D01*
X114266586Y-69017355D01*
X114263134Y-69012732D01*
X114258898Y-69008816D01*
X114110484Y-68871624D01*
X114110481Y-68871622D01*
X114106244Y-68867705D01*
X113925552Y-68753697D01*
X113727109Y-68674526D01*
X113665720Y-68662315D01*
X113591597Y-68647571D01*
X113528688Y-68614663D01*
X113493556Y-68552968D01*
X113497356Y-68482074D01*
X113538882Y-68424488D01*
X113598097Y-68399297D01*
X113668070Y-68389151D01*
X113673534Y-68387296D01*
X113673539Y-68387295D01*
X113864916Y-68322331D01*
X113870384Y-68320475D01*
X114056795Y-68216080D01*
X114221060Y-68079462D01*
X114357678Y-67915197D01*
X114462073Y-67728786D01*
X114530749Y-67526472D01*
X114543786Y-67436563D01*
X114560874Y-67318704D01*
X114561407Y-67315030D01*
X114563007Y-67253929D01*
X114543457Y-67041173D01*
X114536619Y-67016925D01*
X114487031Y-66841101D01*
X114487030Y-66841099D01*
X114485463Y-66835542D01*
X114474189Y-66812679D01*
X114393522Y-66649103D01*
X114390967Y-66643922D01*
X114384173Y-66634823D01*
X114266587Y-66477356D01*
X114266586Y-66477355D01*
X114263134Y-66472732D01*
X114258898Y-66468816D01*
X114110484Y-66331624D01*
X114110481Y-66331622D01*
X114106244Y-66327705D01*
X113925552Y-66213697D01*
X113727109Y-66134526D01*
X113665720Y-66122315D01*
X113591597Y-66107571D01*
X113528688Y-66074663D01*
X113493556Y-66012968D01*
X113497356Y-65942074D01*
X113538882Y-65884488D01*
X113598097Y-65859297D01*
X113668070Y-65849151D01*
X113673534Y-65847296D01*
X113673539Y-65847295D01*
X113864916Y-65782331D01*
X113870384Y-65780475D01*
X114056795Y-65676080D01*
X114061819Y-65671902D01*
X114216622Y-65543153D01*
X114221060Y-65539462D01*
X114357678Y-65375197D01*
X114462073Y-65188786D01*
X114530749Y-64986472D01*
X114543786Y-64896563D01*
X114560874Y-64778704D01*
X114561407Y-64775030D01*
X114563007Y-64713929D01*
X114543457Y-64501173D01*
X114536619Y-64476925D01*
X114487031Y-64301101D01*
X114487030Y-64301099D01*
X114485463Y-64295542D01*
X114482563Y-64289660D01*
X114393522Y-64109103D01*
X114390967Y-64103922D01*
X114371666Y-64078074D01*
X114266587Y-63937356D01*
X114266586Y-63937355D01*
X114263134Y-63932732D01*
X114258898Y-63928816D01*
X114110484Y-63791624D01*
X114110481Y-63791622D01*
X114106244Y-63787705D01*
X113925552Y-63673697D01*
X113727109Y-63594526D01*
X113684281Y-63586007D01*
X113621372Y-63553099D01*
X113586240Y-63491404D01*
X113590040Y-63420509D01*
X113631566Y-63362923D01*
X113697633Y-63336929D01*
X113708856Y-63336428D01*
X114189045Y-63336428D01*
X114220661Y-63331421D01*
X114273033Y-63323127D01*
X114273035Y-63323126D01*
X114282831Y-63321575D01*
X114395869Y-63263979D01*
X114485577Y-63174271D01*
X114543173Y-63061233D01*
X114545411Y-63047106D01*
X114552826Y-63000283D01*
X114558027Y-62967448D01*
X114558026Y-61380411D01*
X114543173Y-61286625D01*
X114485577Y-61173587D01*
X114395869Y-61083879D01*
X114282831Y-61026283D01*
X114273042Y-61024733D01*
X114273040Y-61024732D01*
X114245678Y-61020399D01*
X114189046Y-61011429D01*
X113395688Y-61011429D01*
X112602009Y-61011430D01*
X112597116Y-61012205D01*
X112597115Y-61012205D01*
X112518021Y-61024731D01*
X112518019Y-61024732D01*
X112508223Y-61026283D01*
X112395185Y-61083879D01*
X112305477Y-61173587D01*
X112247881Y-61286625D01*
X112233027Y-61380410D01*
X112233028Y-62967447D01*
X112233803Y-62972338D01*
X112233803Y-62972341D01*
X112245644Y-63047106D01*
X112247881Y-63061233D01*
X112252382Y-63070066D01*
X112252384Y-63070071D01*
X112259706Y-63084441D01*
X112305477Y-63174271D01*
X112395185Y-63263979D01*
X112508223Y-63321575D01*
X112518012Y-63323125D01*
X112518014Y-63323126D01*
X112545376Y-63327459D01*
X112602008Y-63336429D01*
X113070610Y-63336429D01*
X113138731Y-63356431D01*
X113185224Y-63410087D01*
X113195328Y-63480361D01*
X113165834Y-63544941D01*
X113103219Y-63584136D01*
X113099055Y-63585252D01*
X113093361Y-63586230D01*
X113087944Y-63588229D01*
X113087942Y-63588229D01*
X113065073Y-63596666D01*
X112892914Y-63660179D01*
X112887953Y-63663131D01*
X112887952Y-63663131D01*
X112714267Y-63766462D01*
X112714264Y-63766464D01*
X112709299Y-63769418D01*
X112704959Y-63773224D01*
X112704955Y-63773227D01*
X112578331Y-63884274D01*
X112548667Y-63910289D01*
X112416396Y-64078074D01*
X112413707Y-64083185D01*
X112413705Y-64083188D01*
X112370755Y-64164823D01*
X112316916Y-64267154D01*
X112315202Y-64272675D01*
X112315200Y-64272679D01*
X112270914Y-64415305D01*
X112253559Y-64471196D01*
X112228447Y-64683368D01*
X112242421Y-64896563D01*
X112295012Y-65103642D01*
X112384460Y-65297669D01*
X112507768Y-65472147D01*
X112660808Y-65621231D01*
X112838454Y-65739930D01*
X112843757Y-65742208D01*
X112843760Y-65742210D01*
X113029449Y-65821988D01*
X113034756Y-65824268D01*
X113105882Y-65840362D01*
X113200717Y-65861822D01*
X113262744Y-65896365D01*
X113296248Y-65958959D01*
X113290594Y-66029730D01*
X113247575Y-66086209D01*
X113194248Y-66108894D01*
X113093361Y-66126230D01*
X112892914Y-66200179D01*
X112887953Y-66203131D01*
X112887952Y-66203131D01*
X112714267Y-66306462D01*
X112714264Y-66306464D01*
X112709299Y-66309418D01*
X112704959Y-66313224D01*
X112704955Y-66313227D01*
X112553008Y-66446482D01*
X112548667Y-66450289D01*
X112416396Y-66618074D01*
X112413707Y-66623185D01*
X112413705Y-66623188D01*
X112401046Y-66647249D01*
X112316916Y-66807154D01*
X112315202Y-66812675D01*
X112315200Y-66812679D01*
X112292589Y-66885500D01*
X112253559Y-67011196D01*
X112228447Y-67223368D01*
X112242421Y-67436563D01*
X112295012Y-67643642D01*
X112384460Y-67837669D01*
X112507768Y-68012147D01*
X112660808Y-68161231D01*
X112838454Y-68279930D01*
X112843757Y-68282208D01*
X112843760Y-68282210D01*
X113029449Y-68361988D01*
X113034756Y-68364268D01*
X113105882Y-68380362D01*
X113200717Y-68401822D01*
X113262744Y-68436365D01*
X113296248Y-68498959D01*
X113290594Y-68569730D01*
X113247575Y-68626209D01*
X113194248Y-68648894D01*
X113093361Y-68666230D01*
X112892914Y-68740179D01*
X112887953Y-68743131D01*
X112887952Y-68743131D01*
X112714267Y-68846462D01*
X112714264Y-68846464D01*
X112709299Y-68849418D01*
X112704959Y-68853224D01*
X112704955Y-68853227D01*
X112553008Y-68986482D01*
X112548667Y-68990289D01*
X112416396Y-69158074D01*
X112413707Y-69163185D01*
X112413705Y-69163188D01*
X112400071Y-69189103D01*
X112316916Y-69347154D01*
X112315202Y-69352675D01*
X112315200Y-69352679D01*
X112309710Y-69370362D01*
X112253559Y-69551196D01*
X112228447Y-69763368D01*
X112242421Y-69976563D01*
X112295012Y-70183642D01*
X112384460Y-70377669D01*
X112507768Y-70552147D01*
X112660808Y-70701231D01*
X112838454Y-70819930D01*
X112843757Y-70822208D01*
X112843760Y-70822210D01*
X113029449Y-70901988D01*
X113034756Y-70904268D01*
X113105882Y-70920362D01*
X113200717Y-70941822D01*
X113262744Y-70976365D01*
X113296248Y-71038959D01*
X113290594Y-71109730D01*
X113247575Y-71166209D01*
X113194248Y-71188894D01*
X113093361Y-71206230D01*
X112892914Y-71280179D01*
X112887953Y-71283131D01*
X112887952Y-71283131D01*
X112714267Y-71386462D01*
X112714264Y-71386464D01*
X112709299Y-71389418D01*
X112704959Y-71393224D01*
X112704955Y-71393227D01*
X112553008Y-71526482D01*
X112548667Y-71530289D01*
X112416396Y-71698074D01*
X112413707Y-71703185D01*
X112413705Y-71703188D01*
X112400071Y-71729103D01*
X112316916Y-71887154D01*
X112315202Y-71892675D01*
X112315200Y-71892679D01*
X112309710Y-71910362D01*
X112253559Y-72091196D01*
X112228447Y-72303368D01*
X112242421Y-72516563D01*
X112295012Y-72723642D01*
X112384460Y-72917669D01*
X112507768Y-73092147D01*
X112660808Y-73241231D01*
X112838454Y-73359930D01*
X112843757Y-73362208D01*
X112843760Y-73362210D01*
X113029449Y-73441988D01*
X113034756Y-73444268D01*
X113105882Y-73460362D01*
X113200717Y-73481822D01*
X113262744Y-73516365D01*
X113296248Y-73578959D01*
X113290594Y-73649730D01*
X113247575Y-73706209D01*
X113194248Y-73728894D01*
X113093361Y-73746230D01*
X112892914Y-73820179D01*
X112887953Y-73823131D01*
X112887952Y-73823131D01*
X112714267Y-73926462D01*
X112714264Y-73926464D01*
X112709299Y-73929418D01*
X112704959Y-73933224D01*
X112704955Y-73933227D01*
X112553008Y-74066482D01*
X112548667Y-74070289D01*
X112416396Y-74238074D01*
X112413707Y-74243185D01*
X112413705Y-74243188D01*
X112400071Y-74269103D01*
X112316916Y-74427154D01*
X112315202Y-74432675D01*
X112315200Y-74432679D01*
X112309710Y-74450362D01*
X112253559Y-74631196D01*
X112228447Y-74843368D01*
X112242421Y-75056563D01*
X112295012Y-75263642D01*
X112384460Y-75457669D01*
X112387793Y-75462385D01*
X112496260Y-75615863D01*
X112507768Y-75632147D01*
X112660808Y-75781231D01*
X112838454Y-75899930D01*
X112843757Y-75902208D01*
X112843760Y-75902210D01*
X113029449Y-75981988D01*
X113034756Y-75984268D01*
X113105882Y-76000362D01*
X113200717Y-76021822D01*
X113262744Y-76056365D01*
X113296248Y-76118959D01*
X113290594Y-76189730D01*
X113247575Y-76246209D01*
X113194248Y-76268894D01*
X113093361Y-76286230D01*
X112892914Y-76360179D01*
X112887953Y-76363131D01*
X112887952Y-76363131D01*
X112714267Y-76466462D01*
X112714264Y-76466464D01*
X112709299Y-76469418D01*
X112704959Y-76473224D01*
X112704955Y-76473227D01*
X112555848Y-76603991D01*
X112548667Y-76610289D01*
X112416396Y-76778074D01*
X112413707Y-76783185D01*
X112413705Y-76783188D01*
X112387235Y-76833500D01*
X112316916Y-76967154D01*
X112315202Y-76972675D01*
X112315200Y-76972679D01*
X112267998Y-77124696D01*
X112253559Y-77171196D01*
X112228447Y-77383368D01*
X112242421Y-77596563D01*
X112295012Y-77803642D01*
X112384460Y-77997669D01*
X112507768Y-78172147D01*
X112511910Y-78176182D01*
X112613662Y-78275304D01*
X112660808Y-78321231D01*
X112838454Y-78439930D01*
X112843757Y-78442208D01*
X112843760Y-78442210D01*
X113005405Y-78511658D01*
X113034756Y-78524268D01*
X113105882Y-78540362D01*
X113200717Y-78561822D01*
X113262744Y-78596365D01*
X113296248Y-78658959D01*
X113290594Y-78729730D01*
X113247575Y-78786209D01*
X113194248Y-78808894D01*
X113093361Y-78826230D01*
X112892914Y-78900179D01*
X112887953Y-78903131D01*
X112887952Y-78903131D01*
X112714267Y-79006462D01*
X112714264Y-79006464D01*
X112709299Y-79009418D01*
X112704959Y-79013224D01*
X112704955Y-79013227D01*
X112553008Y-79146482D01*
X112548667Y-79150289D01*
X112416396Y-79318074D01*
X112413707Y-79323185D01*
X112413705Y-79323188D01*
X112400071Y-79349103D01*
X112316916Y-79507154D01*
X112315202Y-79512675D01*
X112315200Y-79512679D01*
X112261255Y-79686412D01*
X112253559Y-79711196D01*
X112228447Y-79923368D01*
X112242421Y-80136563D01*
X112295012Y-80343642D01*
X112384460Y-80537669D01*
X112507768Y-80712147D01*
X112660808Y-80861231D01*
X112838454Y-80979930D01*
X112843757Y-80982208D01*
X112843760Y-80982210D01*
X113029449Y-81061988D01*
X113034756Y-81064268D01*
X113105882Y-81080362D01*
X113200717Y-81101822D01*
X113262744Y-81136365D01*
X113296248Y-81198959D01*
X113290594Y-81269730D01*
X113247575Y-81326209D01*
X113194248Y-81348894D01*
X113093361Y-81366230D01*
X112892914Y-81440179D01*
X112887953Y-81443131D01*
X112887952Y-81443131D01*
X112714267Y-81546462D01*
X112714264Y-81546464D01*
X112709299Y-81549418D01*
X112704959Y-81553224D01*
X112704955Y-81553227D01*
X112623202Y-81624923D01*
X112548667Y-81690289D01*
X112416396Y-81858074D01*
X112413707Y-81863185D01*
X112413705Y-81863188D01*
X112400071Y-81889103D01*
X112316916Y-82047154D01*
X112315202Y-82052675D01*
X112315200Y-82052679D01*
X112270218Y-82197547D01*
X112253559Y-82251196D01*
X112228447Y-82463368D01*
X112242421Y-82676563D01*
X112295012Y-82883642D01*
X112384460Y-83077669D01*
X112507768Y-83252147D01*
X112660808Y-83401231D01*
X112838454Y-83519930D01*
X112843757Y-83522208D01*
X112843760Y-83522210D01*
X113024347Y-83599796D01*
X113034756Y-83604268D01*
X113105882Y-83620362D01*
X113200717Y-83641822D01*
X113262744Y-83676365D01*
X113296248Y-83738959D01*
X113290594Y-83809730D01*
X113247575Y-83866209D01*
X113194248Y-83888894D01*
X113093361Y-83906230D01*
X112892914Y-83980179D01*
X112887953Y-83983131D01*
X112887952Y-83983131D01*
X112714267Y-84086462D01*
X112714264Y-84086464D01*
X112709299Y-84089418D01*
X112704959Y-84093224D01*
X112704955Y-84093227D01*
X112623202Y-84164923D01*
X112548667Y-84230289D01*
X112416396Y-84398074D01*
X112413707Y-84403185D01*
X112413705Y-84403188D01*
X112400071Y-84429103D01*
X112316916Y-84587154D01*
X112315202Y-84592675D01*
X112315200Y-84592679D01*
X112270218Y-84737547D01*
X112253559Y-84791196D01*
X112228447Y-85003368D01*
X112242421Y-85216563D01*
X112295012Y-85423642D01*
X112384460Y-85617669D01*
X112507768Y-85792147D01*
X112660808Y-85941231D01*
X112838454Y-86059930D01*
X112843757Y-86062208D01*
X112843760Y-86062210D01*
X113024347Y-86139796D01*
X113034756Y-86144268D01*
X113105882Y-86160362D01*
X113200717Y-86181822D01*
X113262744Y-86216365D01*
X113296248Y-86278959D01*
X113290594Y-86349730D01*
X113247575Y-86406209D01*
X113194248Y-86428894D01*
X113093361Y-86446230D01*
X112892914Y-86520179D01*
X112887953Y-86523131D01*
X112887952Y-86523131D01*
X112714267Y-86626462D01*
X112714264Y-86626464D01*
X112709299Y-86629418D01*
X112704959Y-86633224D01*
X112704955Y-86633227D01*
X112553008Y-86766482D01*
X112548667Y-86770289D01*
X112416396Y-86938074D01*
X112413707Y-86943185D01*
X112413705Y-86943188D01*
X112400071Y-86969103D01*
X112316916Y-87127154D01*
X112315202Y-87132675D01*
X112315200Y-87132679D01*
X112309710Y-87150362D01*
X112253559Y-87331196D01*
X112228447Y-87543368D01*
X112242421Y-87756563D01*
X112295012Y-87963642D01*
X112384460Y-88157669D01*
X112507768Y-88332147D01*
X112660808Y-88481231D01*
X112838454Y-88599930D01*
X112843757Y-88602208D01*
X112843760Y-88602210D01*
X113029449Y-88681988D01*
X113034756Y-88684268D01*
X113105882Y-88700362D01*
X113200717Y-88721822D01*
X113262744Y-88756365D01*
X113296248Y-88818959D01*
X113290594Y-88889730D01*
X113247575Y-88946209D01*
X113194248Y-88968894D01*
X113093361Y-88986230D01*
X112892914Y-89060179D01*
X112887953Y-89063131D01*
X112887952Y-89063131D01*
X112714267Y-89166462D01*
X112714264Y-89166464D01*
X112709299Y-89169418D01*
X112704959Y-89173224D01*
X112704955Y-89173227D01*
X112553008Y-89306482D01*
X112548667Y-89310289D01*
X112416396Y-89478074D01*
X112413707Y-89483185D01*
X112413705Y-89483188D01*
X112400071Y-89509103D01*
X112316916Y-89667154D01*
X112315202Y-89672675D01*
X112315200Y-89672679D01*
X112309710Y-89690362D01*
X112253559Y-89871196D01*
X112228447Y-90083368D01*
X112242421Y-90296563D01*
X112295012Y-90503642D01*
X112384460Y-90697669D01*
X112507768Y-90872147D01*
X112660808Y-91021231D01*
X112838454Y-91139930D01*
X112843757Y-91142208D01*
X112843760Y-91142210D01*
X113029449Y-91221988D01*
X113034756Y-91224268D01*
X113105882Y-91240362D01*
X113200717Y-91261822D01*
X113262744Y-91296365D01*
X113296248Y-91358959D01*
X113290594Y-91429730D01*
X113247575Y-91486209D01*
X113194248Y-91508894D01*
X113093361Y-91526230D01*
X112892914Y-91600179D01*
X112887953Y-91603131D01*
X112887952Y-91603131D01*
X112714267Y-91706462D01*
X112714264Y-91706464D01*
X112709299Y-91709418D01*
X112704959Y-91713224D01*
X112704955Y-91713227D01*
X112553008Y-91846482D01*
X112548667Y-91850289D01*
X112416396Y-92018074D01*
X112413707Y-92023185D01*
X112413705Y-92023188D01*
X112400071Y-92049103D01*
X112316916Y-92207154D01*
X112315202Y-92212675D01*
X112315200Y-92212679D01*
X112309710Y-92230362D01*
X112253559Y-92411196D01*
X112228447Y-92623368D01*
X106980500Y-92623368D01*
X106980500Y-57338481D01*
X143329500Y-57338481D01*
X143329501Y-59501518D01*
X143330276Y-59506411D01*
X143330276Y-59506412D01*
X143337086Y-59549409D01*
X143344354Y-59595304D01*
X143401950Y-59708342D01*
X143491658Y-59798050D01*
X143604696Y-59855646D01*
X143614485Y-59857196D01*
X143614487Y-59857197D01*
X143641849Y-59861530D01*
X143698481Y-59870500D01*
X144779781Y-59870500D01*
X145861518Y-59870499D01*
X145866412Y-59869724D01*
X145945506Y-59857198D01*
X145945508Y-59857197D01*
X145955304Y-59855646D01*
X145977531Y-59844321D01*
X145986895Y-59839549D01*
X146068342Y-59798050D01*
X146158050Y-59708342D01*
X146215646Y-59595304D01*
X146217819Y-59596411D01*
X146249960Y-59549409D01*
X146315357Y-59521773D01*
X146385313Y-59533880D01*
X146410202Y-59550007D01*
X146485176Y-59612252D01*
X146691112Y-59732591D01*
X146913937Y-59817680D01*
X146919005Y-59818711D01*
X146919008Y-59818712D01*
X147034267Y-59842162D01*
X147147666Y-59865233D01*
X147152839Y-59865423D01*
X147152842Y-59865423D01*
X147380861Y-59873784D01*
X147380865Y-59873784D01*
X147386025Y-59873973D01*
X147391146Y-59873317D01*
X147617489Y-59844321D01*
X147617490Y-59844321D01*
X147622609Y-59843665D01*
X147851068Y-59775125D01*
X148065264Y-59670191D01*
X148146492Y-59612252D01*
X148255242Y-59534681D01*
X148259445Y-59531683D01*
X148284805Y-59506412D01*
X148345091Y-59446335D01*
X148428397Y-59363320D01*
X148567582Y-59169623D01*
X148673263Y-58955795D01*
X148742600Y-58727577D01*
X148773733Y-58491099D01*
X148775471Y-58420000D01*
X148767755Y-58326143D01*
X148756351Y-58187435D01*
X148756350Y-58187429D01*
X148755927Y-58182284D01*
X148697821Y-57950952D01*
X148602712Y-57732216D01*
X148473155Y-57531951D01*
X148408138Y-57460498D01*
X148316107Y-57359358D01*
X148316105Y-57359357D01*
X148312629Y-57355536D01*
X148308578Y-57352337D01*
X148308574Y-57352333D01*
X148129500Y-57210909D01*
X148129496Y-57210907D01*
X148125445Y-57207707D01*
X148086125Y-57186001D01*
X148069682Y-57176924D01*
X147916631Y-57092436D01*
X147911762Y-57090712D01*
X147911758Y-57090710D01*
X147696663Y-57014541D01*
X147696661Y-57014540D01*
X147691794Y-57012817D01*
X147557275Y-56988855D01*
X147462060Y-56971894D01*
X147462056Y-56971894D01*
X147456972Y-56970988D01*
X147373140Y-56969964D01*
X147223640Y-56968137D01*
X147223638Y-56968137D01*
X147218471Y-56968074D01*
X146982698Y-57004153D01*
X146755982Y-57078255D01*
X146751394Y-57080643D01*
X146751390Y-57080645D01*
X146653395Y-57131658D01*
X146544414Y-57188390D01*
X146540281Y-57191493D01*
X146540278Y-57191495D01*
X146405104Y-57292988D01*
X146338620Y-57317894D01*
X146269224Y-57302902D01*
X146218950Y-57252772D01*
X146215752Y-57245367D01*
X146215646Y-57244696D01*
X146158050Y-57131658D01*
X146068342Y-57041950D01*
X145955304Y-56984354D01*
X145945515Y-56982804D01*
X145945513Y-56982803D01*
X145918151Y-56978470D01*
X145861519Y-56969500D01*
X144780219Y-56969500D01*
X143698482Y-56969501D01*
X143693589Y-56970276D01*
X143693588Y-56970276D01*
X143614494Y-56982802D01*
X143614492Y-56982803D01*
X143604696Y-56984354D01*
X143491658Y-57041950D01*
X143401950Y-57131658D01*
X143344354Y-57244696D01*
X143329500Y-57338481D01*
X106980500Y-57338481D01*
X106980500Y-46146500D01*
X107000502Y-46078379D01*
X107054158Y-46031886D01*
X107106500Y-46020500D01*
X205313500Y-46020500D01*
X205381621Y-46040502D01*
G37*
%TD.AperFunction*%
%TD*%
M02*
