M48
; DRILL file {KiCad (6.0.11)} date mar. 07 mars 2023 15:10:08
; FORMAT={-:-/ absolute / inch / decimal}
; #@! TF.CreationDate,2023-03-07T15:10:08+01:00
; #@! TF.GenerationSoftware,Kicad,Pcbnew,(6.0.11)
; #@! TF.FileFunction,Plated,1,2,PTH
FMAT,2
INCH
; #@! TA.AperFunction,Plated,PTH,ComponentDrill
T1C0.0300
; #@! TA.AperFunction,Plated,PTH,ComponentDrill
T2C0.0394
; #@! TA.AperFunction,Plated,PTH,ComponentDrill
T3C0.0433
%
G90
G05
T1
X4.4644Y-2.4478
X4.4644Y-2.5478
X4.4644Y-2.6478
X4.4644Y-2.7478
X4.4644Y-2.8478
X4.4644Y-2.9478
X4.4644Y-3.0478
X4.4644Y-3.1478
X4.4644Y-3.2478
X4.4644Y-3.3478
X4.4644Y-3.4478
X4.4644Y-3.5478
X4.4644Y-3.6478
X4.4644Y-3.7478
X4.4644Y-3.8478
X5.4644Y-2.4478
X5.4644Y-2.5478
X5.4644Y-2.6478
X5.4644Y-2.7478
X5.4644Y-2.8478
X5.4644Y-2.9478
X5.4644Y-3.0478
X5.4644Y-3.1478
X5.4644Y-3.2478
X5.4644Y-3.3478
X5.4644Y-3.4478
X5.4644Y-3.5478
X5.4644Y-3.6478
X5.4644Y-3.7478
X5.4644Y-3.8478
T2
X9.6075Y-1.7772
X9.9028Y-1.7772
T3
X5.7Y-2.3
X5.8Y-2.3
X6.9Y-4.1
X7.0Y-4.1
X9.7Y-1.2
X9.8Y-1.2
T0
M30
