M48
; DRILL file {KiCad (6.0.11)} date jeu. 09 mars 2023 13:00:24
; FORMAT={-:-/ absolute / inch / decimal}
; #@! TF.CreationDate,2023-03-09T13:00:24+01:00
; #@! TF.GenerationSoftware,Kicad,Pcbnew,(6.0.11)
; #@! TF.FileFunction,Plated,1,2,PTH
FMAT,2
INCH
; #@! TA.AperFunction,Plated,PTH,ComponentDrill
T1C0.0512
%
G90
G05
T1
X4.2996Y-2.626
X4.2996Y-2.8229
X4.5236Y-1.9685
X4.5236Y-2.3622
X4.5236Y-3.0866
X4.5236Y-3.4803
X4.5236Y-4.2047
X4.5236Y-4.5984
X4.8445Y-2.5276
X4.8445Y-2.9213
X4.8445Y-3.6457
X4.8445Y-4.0394
X4.8445Y-4.7638
X4.8445Y-5.1575
X5.1654Y-1.9685
X5.1654Y-2.3622
X5.1654Y-3.0866
X5.1654Y-3.4803
X5.1654Y-4.2047
X5.1654Y-4.5984
X5.4862Y-2.5276
X5.4862Y-2.9213
X5.4862Y-3.6457
X5.4862Y-4.0394
X5.4862Y-4.7638
X5.4862Y-5.1575
X5.8071Y-1.9685
X5.8071Y-2.3622
X5.8071Y-3.0866
X5.8071Y-3.4803
X5.8071Y-4.2047
X5.8071Y-4.5984
X6.128Y-2.5276
X6.128Y-2.9213
X6.128Y-3.6457
X6.128Y-4.0394
X6.128Y-4.7638
X6.128Y-5.1575
X6.4488Y-1.9685
X6.4488Y-2.3622
X6.4488Y-3.0866
X6.4488Y-3.4803
X6.4488Y-4.2047
X6.4488Y-4.5984
X6.7697Y-2.5276
X6.7697Y-2.9213
X6.7697Y-3.6457
X6.7697Y-4.0394
X6.7697Y-4.7638
X6.7697Y-5.1575
X7.0906Y-1.9685
X7.0906Y-2.3622
X7.0906Y-3.0866
X7.0906Y-3.4803
X7.0906Y-4.2047
X7.0906Y-4.5984
X7.4114Y-2.5276
X7.4114Y-2.9213
X7.4114Y-3.6457
X7.4114Y-4.0394
X7.4114Y-4.7638
X7.4114Y-5.1575
X7.7323Y-1.9685
X7.7323Y-2.3622
X7.7323Y-3.0866
X7.7323Y-3.4803
X7.7323Y-4.2047
X7.7323Y-4.5984
X8.0531Y-2.5276
X8.0531Y-2.9213
X8.0531Y-3.6457
X8.0531Y-4.0394
X8.0531Y-4.7638
X8.0531Y-5.1575
T0
M30
