<?xml version="1.0" standalone="no"?>
 <!DOCTYPE svg PUBLIC "-//W3C//DTD SVG 1.1//EN" 
 "http://www.w3.org/Graphics/SVG/1.1/DTD/svg11.dtd"> 
<svg
  xmlns:svg="http://www.w3.org/2000/svg"
  xmlns="http://www.w3.org/2000/svg"
  xmlns:xlink="http://www.w3.org/1999/xlink"
  version="1.1"
  width="29.700220cm" height="21.000720cm" viewBox="0 0 297002200 210007200">
<title>SVG Picture created as ultrasonic array-F_Silkscreen.svg date 2023/03/09 12:59:56 </title>
  <desc>Picture generated by PCBNEW </desc>
<g style="fill:#000000; fill-opacity:1.000000;stroke:#000000; stroke-opacity:1.000000;
stroke-linecap:round; stroke-linejoin:round;"
 transform="translate(0 0) scale(1 1)">
</g>
<g style="fill:#000000; fill-opacity:0.0; 
stroke:#000000; stroke-width:0.000000; stroke-opacity:1; 
stroke-linecap:round; stroke-linejoin:round;">
</g>
<g style="fill:#000000; fill-opacity:0.0; 
stroke:#000000; stroke-width:150000.000000; stroke-opacity:1; 
stroke-linecap:round; stroke-linejoin:round;">
<text x="204550000.000000" y="96100000.000000"
textLength="3926667.000000" font-size="1333333.000000" lengthAdjust="spacingAndGlyphs"
text-anchor="middle" opacity="0">LS24</text>
<g class="stroked-text"><desc>LS24</desc>
<path d="M203430952 96052380
L202954761 96052380
L202954761 95052380
" />
<path d="M203716666 96004761
L203859523 96052380
L204097619 96052380
L204192857 96004761
L204240476 95957142
L204288095 95861904
L204288095 95766666
L204240476 95671428
L204192857 95623809
L204097619 95576190
L203907142 95528571
L203811904 95480952
L203764285 95433333
L203716666 95338095
L203716666 95242857
L203764285 95147619
L203811904 95100000
L203907142 95052380
L204145238 95052380
L204288095 95100000
" />
<path d="M204669047 95147619
L204716666 95100000
L204811904 95052380
L205050000 95052380
L205145238 95100000
L205192857 95147619
L205240476 95242857
L205240476 95338095
L205192857 95480952
L204621428 96052380
L205240476 96052380
" />
<path d="M206097619 95385714
L206097619 96052380
" />
<path d="M205859523 95004761
L205621428 95719047
L206240476 95719047
" />
</g><text x="155650000.000000" y="67700000.000000"
textLength="2909286.000000" font-size="1333333.000000" lengthAdjust="spacingAndGlyphs"
text-anchor="middle" opacity="0">LS9</text>
<g class="stroked-text"><desc>LS9</desc>
<path d="M155007142 67652380
L154530952 67652380
L154530952 66652380
" />
<path d="M155292857 67604761
L155435714 67652380
L155673809 67652380
L155769047 67604761
L155816666 67557142
L155864285 67461904
L155864285 67366666
L155816666 67271428
L155769047 67223809
L155673809 67176190
L155483333 67128571
L155388095 67080952
L155340476 67033333
L155292857 66938095
L155292857 66842857
L155340476 66747619
L155388095 66700000
L155483333 66652380
L155721428 66652380
L155864285 66700000
" />
<path d="M156340476 67652380
L156530952 67652380
L156626190 67604761
L156673809 67557142
L156769047 67414285
L156816666 67223809
L156816666 66842857
L156769047 66747619
L156721428 66700000
L156626190 66652380
L156435714 66652380
L156340476 66700000
L156292857 66747619
L156245238 66842857
L156245238 67080952
L156292857 67176190
L156340476 67223809
L156435714 67271428
L156626190 67271428
L156721428 67223809
L156769047 67176190
L156816666 67080952
" />
</g><text x="180100000.000000" y="110300000.000000"
textLength="3861667.000000" font-size="1333333.000000" lengthAdjust="spacingAndGlyphs"
text-anchor="middle" opacity="0">LS29</text>
<g class="stroked-text"><desc>LS29</desc>
<path d="M178980952 110252380
L178504761 110252380
L178504761 109252380
" />
<path d="M179266666 110204761
L179409523 110252380
L179647619 110252380
L179742857 110204761
L179790476 110157142
L179838095 110061904
L179838095 109966666
L179790476 109871428
L179742857 109823809
L179647619 109776190
L179457142 109728571
L179361904 109680952
L179314285 109633333
L179266666 109538095
L179266666 109442857
L179314285 109347619
L179361904 109300000
L179457142 109252380
L179695238 109252380
L179838095 109300000
" />
<path d="M180219047 109347619
L180266666 109300000
L180361904 109252380
L180600000 109252380
L180695238 109300000
L180742857 109347619
L180790476 109442857
L180790476 109538095
L180742857 109680952
L180171428 110252380
L180790476 110252380
" />
<path d="M181266666 110252380
L181457142 110252380
L181552380 110204761
L181600000 110157142
L181695238 110014285
L181742857 109823809
L181742857 109442857
L181695238 109347619
L181647619 109300000
L181552380 109252380
L181361904 109252380
L181266666 109300000
L181219047 109347619
L181171428 109442857
L181171428 109680952
L181219047 109776190
L181266666 109823809
L181361904 109871428
L181552380 109871428
L181647619 109823809
L181695238 109776190
L181742857 109680952
" />
</g><text x="131200000.000000" y="110300000.000000"
textLength="3861667.000000" font-size="1333333.000000" lengthAdjust="spacingAndGlyphs"
text-anchor="middle" opacity="0">LS26</text>
<g class="stroked-text"><desc>LS26</desc>
<path d="M130080952 110252380
L129604761 110252380
L129604761 109252380
" />
<path d="M130366666 110204761
L130509523 110252380
L130747619 110252380
L130842857 110204761
L130890476 110157142
L130938095 110061904
L130938095 109966666
L130890476 109871428
L130842857 109823809
L130747619 109776190
L130557142 109728571
L130461904 109680952
L130414285 109633333
L130366666 109538095
L130366666 109442857
L130414285 109347619
L130461904 109300000
L130557142 109252380
L130795238 109252380
L130938095 109300000
" />
<path d="M131319047 109347619
L131366666 109300000
L131461904 109252380
L131700000 109252380
L131795238 109300000
L131842857 109347619
L131890476 109442857
L131890476 109538095
L131842857 109680952
L131271428 110252380
L131890476 110252380
" />
<path d="M132747619 109252380
L132557142 109252380
L132461904 109300000
L132414285 109347619
L132319047 109490476
L132271428 109680952
L132271428 110061904
L132319047 110157142
L132366666 110204761
L132461904 110252380
L132652380 110252380
L132747619 110204761
L132795238 110157142
L132842857 110061904
L132842857 109823809
L132795238 109728571
L132747619 109680952
L132652380 109633333
L132461904 109633333
L132366666 109680952
L132319047 109728571
L132271428 109823809
" />
</g><text x="139350000.000000" y="96100000.000000"
textLength="3861667.000000" font-size="1333333.000000" lengthAdjust="spacingAndGlyphs"
text-anchor="middle" opacity="0">LS20</text>
<g class="stroked-text"><desc>LS20</desc>
<path d="M138230952 96052380
L137754761 96052380
L137754761 95052380
" />
<path d="M138516666 96004761
L138659523 96052380
L138897619 96052380
L138992857 96004761
L139040476 95957142
L139088095 95861904
L139088095 95766666
L139040476 95671428
L138992857 95623809
L138897619 95576190
L138707142 95528571
L138611904 95480952
L138564285 95433333
L138516666 95338095
L138516666 95242857
L138564285 95147619
L138611904 95100000
L138707142 95052380
L138945238 95052380
L139088095 95100000
" />
<path d="M139469047 95147619
L139516666 95100000
L139611904 95052380
L139850000 95052380
L139945238 95100000
L139992857 95147619
L140040476 95242857
L140040476 95338095
L139992857 95480952
L139421428 96052380
L140040476 96052380
" />
<path d="M140659523 95052380
L140754761 95052380
L140850000 95100000
L140897619 95147619
L140945238 95242857
L140992857 95433333
L140992857 95671428
L140945238 95861904
L140897619 95957142
L140850000 96004761
L140754761 96052380
L140659523 96052380
L140564285 96004761
L140516666 95957142
L140469047 95861904
L140421428 95671428
L140421428 95433333
L140469047 95242857
L140516666 95147619
L140564285 95100000
L140659523 95052380
" />
</g><text x="204550000.000000" y="67700000.000000"
textLength="3861667.000000" font-size="1333333.000000" lengthAdjust="spacingAndGlyphs"
text-anchor="middle" opacity="0">LS12</text>
<g class="stroked-text"><desc>LS12</desc>
<path d="M203430952 67652380
L202954761 67652380
L202954761 66652380
" />
<path d="M203716666 67604761
L203859523 67652380
L204097619 67652380
L204192857 67604761
L204240476 67557142
L204288095 67461904
L204288095 67366666
L204240476 67271428
L204192857 67223809
L204097619 67176190
L203907142 67128571
L203811904 67080952
L203764285 67033333
L203716666 66938095
L203716666 66842857
L203764285 66747619
L203811904 66700000
L203907142 66652380
L204145238 66652380
L204288095 66700000
" />
<path d="M205240476 67652380
L204669047 67652380
" />
<path d="M204954761 67652380
L204954761 66652380
L204859523 66795238
L204764285 66890476
L204669047 66938095
" />
<path d="M205621428 66747619
L205669047 66700000
L205764285 66652380
L206002380 66652380
L206097619 66700000
L206145238 66747619
L206192857 66842857
L206192857 66938095
L206145238 67080952
L205573809 67652380
L206192857 67652380
" />
</g><text x="114900000.000000" y="53500000.000000"
textLength="2909286.000000" font-size="1333333.000000" lengthAdjust="spacingAndGlyphs"
text-anchor="middle" opacity="0">LS1</text>
<g class="stroked-text"><desc>LS1</desc>
<path d="M114257142 53452380
L113780952 53452380
L113780952 52452380
" />
<path d="M114542857 53404761
L114685714 53452380
L114923809 53452380
L115019047 53404761
L115066666 53357142
L115114285 53261904
L115114285 53166666
L115066666 53071428
L115019047 53023809
L114923809 52976190
L114733333 52928571
L114638095 52880952
L114590476 52833333
L114542857 52738095
L114542857 52642857
L114590476 52547619
L114638095 52500000
L114733333 52452380
L114971428 52452380
L115114285 52500000
" />
<path d="M116066666 53452380
L115495238 53452380
" />
<path d="M115780952 53452380
L115780952 52452380
L115685714 52595238
L115590476 52690476
L115495238 52738095
" />
</g><text x="131200000.000000" y="53500000.000000"
textLength="2909286.000000" font-size="1333333.000000" lengthAdjust="spacingAndGlyphs"
text-anchor="middle" opacity="0">LS2</text>
<g class="stroked-text"><desc>LS2</desc>
<path d="M130557142 53452380
L130080952 53452380
L130080952 52452380
" />
<path d="M130842857 53404761
L130985714 53452380
L131223809 53452380
L131319047 53404761
L131366666 53357142
L131414285 53261904
L131414285 53166666
L131366666 53071428
L131319047 53023809
L131223809 52976190
L131033333 52928571
L130938095 52880952
L130890476 52833333
L130842857 52738095
L130842857 52642857
L130890476 52547619
L130938095 52500000
L131033333 52452380
L131271428 52452380
L131414285 52500000
" />
<path d="M131795238 52547619
L131842857 52500000
L131938095 52452380
L132176190 52452380
L132271428 52500000
L132319047 52547619
L132366666 52642857
L132366666 52738095
L132319047 52880952
L131747619 53452380
L132366666 53452380
" />
</g><text x="114900000.000000" y="81900000.000000"
textLength="3861667.000000" font-size="1333333.000000" lengthAdjust="spacingAndGlyphs"
text-anchor="middle" opacity="0">LS13</text>
<g class="stroked-text"><desc>LS13</desc>
<path d="M113780952 81852380
L113304761 81852380
L113304761 80852380
" />
<path d="M114066666 81804761
L114209523 81852380
L114447619 81852380
L114542857 81804761
L114590476 81757142
L114638095 81661904
L114638095 81566666
L114590476 81471428
L114542857 81423809
L114447619 81376190
L114257142 81328571
L114161904 81280952
L114114285 81233333
L114066666 81138095
L114066666 81042857
L114114285 80947619
L114161904 80900000
L114257142 80852380
L114495238 80852380
L114638095 80900000
" />
<path d="M115590476 81852380
L115019047 81852380
" />
<path d="M115304761 81852380
L115304761 80852380
L115209523 80995238
L115114285 81090476
L115019047 81138095
" />
<path d="M115923809 80852380
L116542857 80852380
L116209523 81233333
L116352380 81233333
L116447619 81280952
L116495238 81328571
L116542857 81423809
L116542857 81661904
L116495238 81757142
L116447619 81804761
L116352380 81852380
L116066666 81852380
L115971428 81804761
L115923809 81757142
" />
</g><text x="180100000.000000" y="53500000.000000"
textLength="2909286.000000" font-size="1333333.000000" lengthAdjust="spacingAndGlyphs"
text-anchor="middle" opacity="0">LS5</text>
<g class="stroked-text"><desc>LS5</desc>
<path d="M179457142 53452380
L178980952 53452380
L178980952 52452380
" />
<path d="M179742857 53404761
L179885714 53452380
L180123809 53452380
L180219047 53404761
L180266666 53357142
L180314285 53261904
L180314285 53166666
L180266666 53071428
L180219047 53023809
L180123809 52976190
L179933333 52928571
L179838095 52880952
L179790476 52833333
L179742857 52738095
L179742857 52642857
L179790476 52547619
L179838095 52500000
L179933333 52452380
L180171428 52452380
L180314285 52500000
" />
<path d="M181219047 52452380
L180742857 52452380
L180695238 52928571
L180742857 52880952
L180838095 52833333
L181076190 52833333
L181171428 52880952
L181219047 52928571
L181266666 53023809
L181266666 53261904
L181219047 53357142
L181171428 53404761
L181076190 53452380
L180838095 53452380
L180742857 53404761
L180695238 53357142
" />
</g><text x="188250000.000000" y="124500000.000000"
textLength="3861667.000000" font-size="1333333.000000" lengthAdjust="spacingAndGlyphs"
text-anchor="middle" opacity="0">LS35</text>
<g class="stroked-text"><desc>LS35</desc>
<path d="M187130952 124452380
L186654761 124452380
L186654761 123452380
" />
<path d="M187416666 124404761
L187559523 124452380
L187797619 124452380
L187892857 124404761
L187940476 124357142
L187988095 124261904
L187988095 124166666
L187940476 124071428
L187892857 124023809
L187797619 123976190
L187607142 123928571
L187511904 123880952
L187464285 123833333
L187416666 123738095
L187416666 123642857
L187464285 123547619
L187511904 123500000
L187607142 123452380
L187845238 123452380
L187988095 123500000
" />
<path d="M188321428 123452380
L188940476 123452380
L188607142 123833333
L188750000 123833333
L188845238 123880952
L188892857 123928571
L188940476 124023809
L188940476 124261904
L188892857 124357142
L188845238 124404761
L188750000 124452380
L188464285 124452380
L188369047 124404761
L188321428 124357142
" />
<path d="M189845238 123452380
L189369047 123452380
L189321428 123928571
L189369047 123880952
L189464285 123833333
L189702380 123833333
L189797619 123880952
L189845238 123928571
L189892857 124023809
L189892857 124261904
L189845238 124357142
L189797619 124404761
L189702380 124452380
L189464285 124452380
L189369047 124404761
L189321428 124357142
" />
</g><text x="171950000.000000" y="96100000.000000"
textLength="3861667.000000" font-size="1333333.000000" lengthAdjust="spacingAndGlyphs"
text-anchor="middle" opacity="0">LS22</text>
<g class="stroked-text"><desc>LS22</desc>
<path d="M170830952 96052380
L170354761 96052380
L170354761 95052380
" />
<path d="M171116666 96004761
L171259523 96052380
L171497619 96052380
L171592857 96004761
L171640476 95957142
L171688095 95861904
L171688095 95766666
L171640476 95671428
L171592857 95623809
L171497619 95576190
L171307142 95528571
L171211904 95480952
L171164285 95433333
L171116666 95338095
L171116666 95242857
L171164285 95147619
L171211904 95100000
L171307142 95052380
L171545238 95052380
L171688095 95100000
" />
<path d="M172069047 95147619
L172116666 95100000
L172211904 95052380
L172450000 95052380
L172545238 95100000
L172592857 95147619
L172640476 95242857
L172640476 95338095
L172592857 95480952
L172021428 96052380
L172640476 96052380
" />
<path d="M173021428 95147619
L173069047 95100000
L173164285 95052380
L173402380 95052380
L173497619 95100000
L173545238 95147619
L173592857 95242857
L173592857 95338095
L173545238 95480952
L172973809 96052380
L173592857 96052380
" />
</g><text x="188250000.000000" y="96100000.000000"
textLength="3861667.000000" font-size="1333333.000000" lengthAdjust="spacingAndGlyphs"
text-anchor="middle" opacity="0">LS23</text>
<g class="stroked-text"><desc>LS23</desc>
<path d="M187130952 96052380
L186654761 96052380
L186654761 95052380
" />
<path d="M187416666 96004761
L187559523 96052380
L187797619 96052380
L187892857 96004761
L187940476 95957142
L187988095 95861904
L187988095 95766666
L187940476 95671428
L187892857 95623809
L187797619 95576190
L187607142 95528571
L187511904 95480952
L187464285 95433333
L187416666 95338095
L187416666 95242857
L187464285 95147619
L187511904 95100000
L187607142 95052380
L187845238 95052380
L187988095 95100000
" />
<path d="M188369047 95147619
L188416666 95100000
L188511904 95052380
L188750000 95052380
L188845238 95100000
L188892857 95147619
L188940476 95242857
L188940476 95338095
L188892857 95480952
L188321428 96052380
L188940476 96052380
" />
<path d="M189273809 95052380
L189892857 95052380
L189559523 95433333
L189702380 95433333
L189797619 95480952
L189845238 95528571
L189892857 95623809
L189892857 95861904
L189845238 95957142
L189797619 96004761
L189702380 96052380
L189416666 96052380
L189321428 96004761
L189273809 95957142
" />
</g><text x="163800000.000000" y="53500000.000000"
textLength="2909286.000000" font-size="1333333.000000" lengthAdjust="spacingAndGlyphs"
text-anchor="middle" opacity="0">LS4</text>
<g class="stroked-text"><desc>LS4</desc>
<path d="M163157142 53452380
L162680952 53452380
L162680952 52452380
" />
<path d="M163442857 53404761
L163585714 53452380
L163823809 53452380
L163919047 53404761
L163966666 53357142
L164014285 53261904
L164014285 53166666
L163966666 53071428
L163919047 53023809
L163823809 52976190
L163633333 52928571
L163538095 52880952
L163490476 52833333
L163442857 52738095
L163442857 52642857
L163490476 52547619
L163538095 52500000
L163633333 52452380
L163871428 52452380
L164014285 52500000
" />
<path d="M164871428 52785714
L164871428 53452380
" />
<path d="M164633333 52404761
L164395238 53119047
L165014285 53119047
" />
</g><text x="171950000.000000" y="124500000.000000"
textLength="3861667.000000" font-size="1333333.000000" lengthAdjust="spacingAndGlyphs"
text-anchor="middle" opacity="0">LS34</text>
<g class="stroked-text"><desc>LS34</desc>
<path d="M170830952 124452380
L170354761 124452380
L170354761 123452380
" />
<path d="M171116666 124404761
L171259523 124452380
L171497619 124452380
L171592857 124404761
L171640476 124357142
L171688095 124261904
L171688095 124166666
L171640476 124071428
L171592857 124023809
L171497619 123976190
L171307142 123928571
L171211904 123880952
L171164285 123833333
L171116666 123738095
L171116666 123642857
L171164285 123547619
L171211904 123500000
L171307142 123452380
L171545238 123452380
L171688095 123500000
" />
<path d="M172021428 123452380
L172640476 123452380
L172307142 123833333
L172450000 123833333
L172545238 123880952
L172592857 123928571
L172640476 124023809
L172640476 124261904
L172592857 124357142
L172545238 124404761
L172450000 124452380
L172164285 124452380
L172069047 124404761
L172021428 124357142
" />
<path d="M173497619 123785714
L173497619 124452380
" />
<path d="M173259523 123404761
L173021428 124119047
L173640476 124119047
" />
</g><text x="155650000.000000" y="96100000.000000"
textLength="3861667.000000" font-size="1333333.000000" lengthAdjust="spacingAndGlyphs"
text-anchor="middle" opacity="0">LS21</text>
<g class="stroked-text"><desc>LS21</desc>
<path d="M154530952 96052380
L154054761 96052380
L154054761 95052380
" />
<path d="M154816666 96004761
L154959523 96052380
L155197619 96052380
L155292857 96004761
L155340476 95957142
L155388095 95861904
L155388095 95766666
L155340476 95671428
L155292857 95623809
L155197619 95576190
L155007142 95528571
L154911904 95480952
L154864285 95433333
L154816666 95338095
L154816666 95242857
L154864285 95147619
L154911904 95100000
L155007142 95052380
L155245238 95052380
L155388095 95100000
" />
<path d="M155769047 95147619
L155816666 95100000
L155911904 95052380
L156150000 95052380
L156245238 95100000
L156292857 95147619
L156340476 95242857
L156340476 95338095
L156292857 95480952
L155721428 96052380
L156340476 96052380
" />
<path d="M157292857 96052380
L156721428 96052380
" />
<path d="M157007142 96052380
L157007142 95052380
L156911904 95195238
L156816666 95290476
L156721428 95338095
" />
</g><text x="196400000.000000" y="81900000.000000"
textLength="3861667.000000" font-size="1333333.000000" lengthAdjust="spacingAndGlyphs"
text-anchor="middle" opacity="0">LS18</text>
<g class="stroked-text"><desc>LS18</desc>
<path d="M195280952 81852380
L194804761 81852380
L194804761 80852380
" />
<path d="M195566666 81804761
L195709523 81852380
L195947619 81852380
L196042857 81804761
L196090476 81757142
L196138095 81661904
L196138095 81566666
L196090476 81471428
L196042857 81423809
L195947619 81376190
L195757142 81328571
L195661904 81280952
L195614285 81233333
L195566666 81138095
L195566666 81042857
L195614285 80947619
L195661904 80900000
L195757142 80852380
L195995238 80852380
L196138095 80900000
" />
<path d="M197090476 81852380
L196519047 81852380
" />
<path d="M196804761 81852380
L196804761 80852380
L196709523 80995238
L196614285 81090476
L196519047 81138095
" />
<path d="M197661904 81280952
L197566666 81233333
L197519047 81185714
L197471428 81090476
L197471428 81042857
L197519047 80947619
L197566666 80900000
L197661904 80852380
L197852380 80852380
L197947619 80900000
L197995238 80947619
L198042857 81042857
L198042857 81090476
L197995238 81185714
L197947619 81233333
L197852380 81280952
L197661904 81280952
L197566666 81328571
L197519047 81376190
L197471428 81471428
L197471428 81661904
L197519047 81757142
L197566666 81804761
L197661904 81852380
L197852380 81852380
L197947619 81804761
L197995238 81757142
L198042857 81661904
L198042857 81471428
L197995238 81376190
L197947619 81328571
L197852380 81280952
" />
</g><text x="188250000.000000" y="67700000.000000"
textLength="3861667.000000" font-size="1333333.000000" lengthAdjust="spacingAndGlyphs"
text-anchor="middle" opacity="0">LS11</text>
<g class="stroked-text"><desc>LS11</desc>
<path d="M187130952 67652380
L186654761 67652380
L186654761 66652380
" />
<path d="M187416666 67604761
L187559523 67652380
L187797619 67652380
L187892857 67604761
L187940476 67557142
L187988095 67461904
L187988095 67366666
L187940476 67271428
L187892857 67223809
L187797619 67176190
L187607142 67128571
L187511904 67080952
L187464285 67033333
L187416666 66938095
L187416666 66842857
L187464285 66747619
L187511904 66700000
L187607142 66652380
L187845238 66652380
L187988095 66700000
" />
<path d="M188940476 67652380
L188369047 67652380
" />
<path d="M188654761 67652380
L188654761 66652380
L188559523 66795238
L188464285 66890476
L188369047 66938095
" />
<path d="M189892857 67652380
L189321428 67652380
" />
<path d="M189607142 67652380
L189607142 66652380
L189511904 66795238
L189416666 66890476
L189321428 66938095
" />
</g><text x="163800000.000000" y="110300000.000000"
textLength="3861667.000000" font-size="1333333.000000" lengthAdjust="spacingAndGlyphs"
text-anchor="middle" opacity="0">LS28</text>
<g class="stroked-text"><desc>LS28</desc>
<path d="M162680952 110252380
L162204761 110252380
L162204761 109252380
" />
<path d="M162966666 110204761
L163109523 110252380
L163347619 110252380
L163442857 110204761
L163490476 110157142
L163538095 110061904
L163538095 109966666
L163490476 109871428
L163442857 109823809
L163347619 109776190
L163157142 109728571
L163061904 109680952
L163014285 109633333
L162966666 109538095
L162966666 109442857
L163014285 109347619
L163061904 109300000
L163157142 109252380
L163395238 109252380
L163538095 109300000
" />
<path d="M163919047 109347619
L163966666 109300000
L164061904 109252380
L164300000 109252380
L164395238 109300000
L164442857 109347619
L164490476 109442857
L164490476 109538095
L164442857 109680952
L163871428 110252380
L164490476 110252380
" />
<path d="M165061904 109680952
L164966666 109633333
L164919047 109585714
L164871428 109490476
L164871428 109442857
L164919047 109347619
L164966666 109300000
L165061904 109252380
L165252380 109252380
L165347619 109300000
L165395238 109347619
L165442857 109442857
L165442857 109490476
L165395238 109585714
L165347619 109633333
L165252380 109680952
L165061904 109680952
L164966666 109728571
L164919047 109776190
L164871428 109871428
L164871428 110061904
L164919047 110157142
L164966666 110204761
L165061904 110252380
L165252380 110252380
L165347619 110204761
L165395238 110157142
L165442857 110061904
L165442857 109871428
L165395238 109776190
L165347619 109728571
L165252380 109680952
" />
</g><text x="171950000.000000" y="67700000.000000"
textLength="3861667.000000" font-size="1333333.000000" lengthAdjust="spacingAndGlyphs"
text-anchor="middle" opacity="0">LS10</text>
<g class="stroked-text"><desc>LS10</desc>
<path d="M170830952 67652380
L170354761 67652380
L170354761 66652380
" />
<path d="M171116666 67604761
L171259523 67652380
L171497619 67652380
L171592857 67604761
L171640476 67557142
L171688095 67461904
L171688095 67366666
L171640476 67271428
L171592857 67223809
L171497619 67176190
L171307142 67128571
L171211904 67080952
L171164285 67033333
L171116666 66938095
L171116666 66842857
L171164285 66747619
L171211904 66700000
L171307142 66652380
L171545238 66652380
L171688095 66700000
" />
<path d="M172640476 67652380
L172069047 67652380
" />
<path d="M172354761 67652380
L172354761 66652380
L172259523 66795238
L172164285 66890476
L172069047 66938095
" />
<path d="M173259523 66652380
L173354761 66652380
L173450000 66700000
L173497619 66747619
L173545238 66842857
L173592857 67033333
L173592857 67271428
L173545238 67461904
L173497619 67557142
L173450000 67604761
L173354761 67652380
L173259523 67652380
L173164285 67604761
L173116666 67557142
L173069047 67461904
L173021428 67271428
L173021428 67033333
L173069047 66842857
L173116666 66747619
L173164285 66700000
L173259523 66652380
" />
</g><text x="123050000.000000" y="124500000.000000"
textLength="3861667.000000" font-size="1333333.000000" lengthAdjust="spacingAndGlyphs"
text-anchor="middle" opacity="0">LS31</text>
<g class="stroked-text"><desc>LS31</desc>
<path d="M121930952 124452380
L121454761 124452380
L121454761 123452380
" />
<path d="M122216666 124404761
L122359523 124452380
L122597619 124452380
L122692857 124404761
L122740476 124357142
L122788095 124261904
L122788095 124166666
L122740476 124071428
L122692857 124023809
L122597619 123976190
L122407142 123928571
L122311904 123880952
L122264285 123833333
L122216666 123738095
L122216666 123642857
L122264285 123547619
L122311904 123500000
L122407142 123452380
L122645238 123452380
L122788095 123500000
" />
<path d="M123121428 123452380
L123740476 123452380
L123407142 123833333
L123550000 123833333
L123645238 123880952
L123692857 123928571
L123740476 124023809
L123740476 124261904
L123692857 124357142
L123645238 124404761
L123550000 124452380
L123264285 124452380
L123169047 124404761
L123121428 124357142
" />
<path d="M124692857 124452380
L124121428 124452380
" />
<path d="M124407142 124452380
L124407142 123452380
L124311904 123595238
L124216666 123690476
L124121428 123738095
" />
</g><text x="131200000.000000" y="81900000.000000"
textLength="3861667.000000" font-size="1333333.000000" lengthAdjust="spacingAndGlyphs"
text-anchor="middle" opacity="0">LS14</text>
<g class="stroked-text"><desc>LS14</desc>
<path d="M130080952 81852380
L129604761 81852380
L129604761 80852380
" />
<path d="M130366666 81804761
L130509523 81852380
L130747619 81852380
L130842857 81804761
L130890476 81757142
L130938095 81661904
L130938095 81566666
L130890476 81471428
L130842857 81423809
L130747619 81376190
L130557142 81328571
L130461904 81280952
L130414285 81233333
L130366666 81138095
L130366666 81042857
L130414285 80947619
L130461904 80900000
L130557142 80852380
L130795238 80852380
L130938095 80900000
" />
<path d="M131890476 81852380
L131319047 81852380
" />
<path d="M131604761 81852380
L131604761 80852380
L131509523 80995238
L131414285 81090476
L131319047 81138095
" />
<path d="M132747619 81185714
L132747619 81852380
" />
<path d="M132509523 80804761
L132271428 81519047
L132890476 81519047
" />
</g><text x="147500000.000000" y="53500000.000000"
textLength="2909286.000000" font-size="1333333.000000" lengthAdjust="spacingAndGlyphs"
text-anchor="middle" opacity="0">LS3</text>
<g class="stroked-text"><desc>LS3</desc>
<path d="M146857142 53452380
L146380952 53452380
L146380952 52452380
" />
<path d="M147142857 53404761
L147285714 53452380
L147523809 53452380
L147619047 53404761
L147666666 53357142
L147714285 53261904
L147714285 53166666
L147666666 53071428
L147619047 53023809
L147523809 52976190
L147333333 52928571
L147238095 52880952
L147190476 52833333
L147142857 52738095
L147142857 52642857
L147190476 52547619
L147238095 52500000
L147333333 52452380
L147571428 52452380
L147714285 52500000
" />
<path d="M148047619 52452380
L148666666 52452380
L148333333 52833333
L148476190 52833333
L148571428 52880952
L148619047 52928571
L148666666 53023809
L148666666 53261904
L148619047 53357142
L148571428 53404761
L148476190 53452380
L148190476 53452380
L148095238 53404761
L148047619 53357142
" />
</g><text x="196400000.000000" y="110300000.000000"
textLength="3861667.000000" font-size="1333333.000000" lengthAdjust="spacingAndGlyphs"
text-anchor="middle" opacity="0">LS30</text>
<g class="stroked-text"><desc>LS30</desc>
<path d="M195280952 110252380
L194804761 110252380
L194804761 109252380
" />
<path d="M195566666 110204761
L195709523 110252380
L195947619 110252380
L196042857 110204761
L196090476 110157142
L196138095 110061904
L196138095 109966666
L196090476 109871428
L196042857 109823809
L195947619 109776190
L195757142 109728571
L195661904 109680952
L195614285 109633333
L195566666 109538095
L195566666 109442857
L195614285 109347619
L195661904 109300000
L195757142 109252380
L195995238 109252380
L196138095 109300000
" />
<path d="M196471428 109252380
L197090476 109252380
L196757142 109633333
L196900000 109633333
L196995238 109680952
L197042857 109728571
L197090476 109823809
L197090476 110061904
L197042857 110157142
L196995238 110204761
L196900000 110252380
L196614285 110252380
L196519047 110204761
L196471428 110157142
" />
<path d="M197709523 109252380
L197804761 109252380
L197900000 109300000
L197947619 109347619
L197995238 109442857
L198042857 109633333
L198042857 109871428
L197995238 110061904
L197947619 110157142
L197900000 110204761
L197804761 110252380
L197709523 110252380
L197614285 110204761
L197566666 110157142
L197519047 110061904
L197471428 109871428
L197471428 109633333
L197519047 109442857
L197566666 109347619
L197614285 109300000
L197709523 109252380
" />
</g><text x="163800000.000000" y="81900000.000000"
textLength="3861667.000000" font-size="1333333.000000" lengthAdjust="spacingAndGlyphs"
text-anchor="middle" opacity="0">LS16</text>
<g class="stroked-text"><desc>LS16</desc>
<path d="M162680952 81852380
L162204761 81852380
L162204761 80852380
" />
<path d="M162966666 81804761
L163109523 81852380
L163347619 81852380
L163442857 81804761
L163490476 81757142
L163538095 81661904
L163538095 81566666
L163490476 81471428
L163442857 81423809
L163347619 81376190
L163157142 81328571
L163061904 81280952
L163014285 81233333
L162966666 81138095
L162966666 81042857
L163014285 80947619
L163061904 80900000
L163157142 80852380
L163395238 80852380
L163538095 80900000
" />
<path d="M164490476 81852380
L163919047 81852380
" />
<path d="M164204761 81852380
L164204761 80852380
L164109523 80995238
L164014285 81090476
L163919047 81138095
" />
<path d="M165347619 80852380
L165157142 80852380
L165061904 80900000
L165014285 80947619
L164919047 81090476
L164871428 81280952
L164871428 81661904
L164919047 81757142
L164966666 81804761
L165061904 81852380
L165252380 81852380
L165347619 81804761
L165395238 81757142
L165442857 81661904
L165442857 81423809
L165395238 81328571
L165347619 81280952
L165252380 81233333
L165061904 81233333
L164966666 81280952
L164919047 81328571
L164871428 81423809
" />
</g><text x="114900000.000000" y="110300000.000000"
textLength="3861667.000000" font-size="1333333.000000" lengthAdjust="spacingAndGlyphs"
text-anchor="middle" opacity="0">LS25</text>
<g class="stroked-text"><desc>LS25</desc>
<path d="M113780952 110252380
L113304761 110252380
L113304761 109252380
" />
<path d="M114066666 110204761
L114209523 110252380
L114447619 110252380
L114542857 110204761
L114590476 110157142
L114638095 110061904
L114638095 109966666
L114590476 109871428
L114542857 109823809
L114447619 109776190
L114257142 109728571
L114161904 109680952
L114114285 109633333
L114066666 109538095
L114066666 109442857
L114114285 109347619
L114161904 109300000
L114257142 109252380
L114495238 109252380
L114638095 109300000
" />
<path d="M115019047 109347619
L115066666 109300000
L115161904 109252380
L115400000 109252380
L115495238 109300000
L115542857 109347619
L115590476 109442857
L115590476 109538095
L115542857 109680952
L114971428 110252380
L115590476 110252380
" />
<path d="M116495238 109252380
L116019047 109252380
L115971428 109728571
L116019047 109680952
L116114285 109633333
L116352380 109633333
L116447619 109680952
L116495238 109728571
L116542857 109823809
L116542857 110061904
L116495238 110157142
L116447619 110204761
L116352380 110252380
L116114285 110252380
L116019047 110204761
L115971428 110157142
" />
</g><text x="123050000.000000" y="67700000.000000"
textLength="2909286.000000" font-size="1333333.000000" lengthAdjust="spacingAndGlyphs"
text-anchor="middle" opacity="0">LS7</text>
<g class="stroked-text"><desc>LS7</desc>
<path d="M122407142 67652380
L121930952 67652380
L121930952 66652380
" />
<path d="M122692857 67604761
L122835714 67652380
L123073809 67652380
L123169047 67604761
L123216666 67557142
L123264285 67461904
L123264285 67366666
L123216666 67271428
L123169047 67223809
L123073809 67176190
L122883333 67128571
L122788095 67080952
L122740476 67033333
L122692857 66938095
L122692857 66842857
L122740476 66747619
L122788095 66700000
L122883333 66652380
L123121428 66652380
L123264285 66700000
" />
<path d="M123597619 66652380
L124264285 66652380
L123835714 67652380
" />
</g><text x="196400000.000000" y="53500000.000000"
textLength="2909286.000000" font-size="1333333.000000" lengthAdjust="spacingAndGlyphs"
text-anchor="middle" opacity="0">LS6</text>
<g class="stroked-text"><desc>LS6</desc>
<path d="M195757142 53452380
L195280952 53452380
L195280952 52452380
" />
<path d="M196042857 53404761
L196185714 53452380
L196423809 53452380
L196519047 53404761
L196566666 53357142
L196614285 53261904
L196614285 53166666
L196566666 53071428
L196519047 53023809
L196423809 52976190
L196233333 52928571
L196138095 52880952
L196090476 52833333
L196042857 52738095
L196042857 52642857
L196090476 52547619
L196138095 52500000
L196233333 52452380
L196471428 52452380
L196614285 52500000
" />
<path d="M197471428 52452380
L197280952 52452380
L197185714 52500000
L197138095 52547619
L197042857 52690476
L196995238 52880952
L196995238 53261904
L197042857 53357142
L197090476 53404761
L197185714 53452380
L197376190 53452380
L197471428 53404761
L197519047 53357142
L197566666 53261904
L197566666 53023809
L197519047 52928571
L197471428 52880952
L197376190 52833333
L197185714 52833333
L197090476 52880952
L197042857 52928571
L196995238 53023809
" />
</g><text x="139350000.000000" y="67700000.000000"
textLength="2909286.000000" font-size="1333333.000000" lengthAdjust="spacingAndGlyphs"
text-anchor="middle" opacity="0">LS8</text>
<g class="stroked-text"><desc>LS8</desc>
<path d="M138707142 67652380
L138230952 67652380
L138230952 66652380
" />
<path d="M138992857 67604761
L139135714 67652380
L139373809 67652380
L139469047 67604761
L139516666 67557142
L139564285 67461904
L139564285 67366666
L139516666 67271428
L139469047 67223809
L139373809 67176190
L139183333 67128571
L139088095 67080952
L139040476 67033333
L138992857 66938095
L138992857 66842857
L139040476 66747619
L139088095 66700000
L139183333 66652380
L139421428 66652380
L139564285 66700000
" />
<path d="M140135714 67080952
L140040476 67033333
L139992857 66985714
L139945238 66890476
L139945238 66842857
L139992857 66747619
L140040476 66700000
L140135714 66652380
L140326190 66652380
L140421428 66700000
L140469047 66747619
L140516666 66842857
L140516666 66890476
L140469047 66985714
L140421428 67033333
L140326190 67080952
L140135714 67080952
L140040476 67128571
L139992857 67176190
L139945238 67271428
L139945238 67461904
L139992857 67557142
L140040476 67604761
L140135714 67652380
L140326190 67652380
L140421428 67604761
L140469047 67557142
L140516666 67461904
L140516666 67271428
L140469047 67176190
L140421428 67128571
L140326190 67080952
" />
</g><text x="204550000.000000" y="124500000.000000"
textLength="3861667.000000" font-size="1333333.000000" lengthAdjust="spacingAndGlyphs"
text-anchor="middle" opacity="0">LS36</text>
<g class="stroked-text"><desc>LS36</desc>
<path d="M203430952 124452380
L202954761 124452380
L202954761 123452380
" />
<path d="M203716666 124404761
L203859523 124452380
L204097619 124452380
L204192857 124404761
L204240476 124357142
L204288095 124261904
L204288095 124166666
L204240476 124071428
L204192857 124023809
L204097619 123976190
L203907142 123928571
L203811904 123880952
L203764285 123833333
L203716666 123738095
L203716666 123642857
L203764285 123547619
L203811904 123500000
L203907142 123452380
L204145238 123452380
L204288095 123500000
" />
<path d="M204621428 123452380
L205240476 123452380
L204907142 123833333
L205050000 123833333
L205145238 123880952
L205192857 123928571
L205240476 124023809
L205240476 124261904
L205192857 124357142
L205145238 124404761
L205050000 124452380
L204764285 124452380
L204669047 124404761
L204621428 124357142
" />
<path d="M206097619 123452380
L205907142 123452380
L205811904 123500000
L205764285 123547619
L205669047 123690476
L205621428 123880952
L205621428 124261904
L205669047 124357142
L205716666 124404761
L205811904 124452380
L206002380 124452380
L206097619 124404761
L206145238 124357142
L206192857 124261904
L206192857 124023809
L206145238 123928571
L206097619 123880952
L206002380 123833333
L205811904 123833333
L205716666 123880952
L205669047 123928571
L205621428 124023809
" />
</g><text x="155650000.000000" y="124500000.000000"
textLength="3861667.000000" font-size="1333333.000000" lengthAdjust="spacingAndGlyphs"
text-anchor="middle" opacity="0">LS33</text>
<g class="stroked-text"><desc>LS33</desc>
<path d="M154530952 124452380
L154054761 124452380
L154054761 123452380
" />
<path d="M154816666 124404761
L154959523 124452380
L155197619 124452380
L155292857 124404761
L155340476 124357142
L155388095 124261904
L155388095 124166666
L155340476 124071428
L155292857 124023809
L155197619 123976190
L155007142 123928571
L154911904 123880952
L154864285 123833333
L154816666 123738095
L154816666 123642857
L154864285 123547619
L154911904 123500000
L155007142 123452380
L155245238 123452380
L155388095 123500000
" />
<path d="M155721428 123452380
L156340476 123452380
L156007142 123833333
L156150000 123833333
L156245238 123880952
L156292857 123928571
L156340476 124023809
L156340476 124261904
L156292857 124357142
L156245238 124404761
L156150000 124452380
L155864285 124452380
L155769047 124404761
L155721428 124357142
" />
<path d="M156673809 123452380
L157292857 123452380
L156959523 123833333
L157102380 123833333
L157197619 123880952
L157245238 123928571
L157292857 124023809
L157292857 124261904
L157245238 124357142
L157197619 124404761
L157102380 124452380
L156816666 124452380
L156721428 124404761
L156673809 124357142
" />
</g><text x="123050000.000000" y="96100000.000000"
textLength="3861667.000000" font-size="1333333.000000" lengthAdjust="spacingAndGlyphs"
text-anchor="middle" opacity="0">LS19</text>
<g class="stroked-text"><desc>LS19</desc>
<path d="M121930952 96052380
L121454761 96052380
L121454761 95052380
" />
<path d="M122216666 96004761
L122359523 96052380
L122597619 96052380
L122692857 96004761
L122740476 95957142
L122788095 95861904
L122788095 95766666
L122740476 95671428
L122692857 95623809
L122597619 95576190
L122407142 95528571
L122311904 95480952
L122264285 95433333
L122216666 95338095
L122216666 95242857
L122264285 95147619
L122311904 95100000
L122407142 95052380
L122645238 95052380
L122788095 95100000
" />
<path d="M123740476 96052380
L123169047 96052380
" />
<path d="M123454761 96052380
L123454761 95052380
L123359523 95195238
L123264285 95290476
L123169047 95338095
" />
<path d="M124216666 96052380
L124407142 96052380
L124502380 96004761
L124550000 95957142
L124645238 95814285
L124692857 95623809
L124692857 95242857
L124645238 95147619
L124597619 95100000
L124502380 95052380
L124311904 95052380
L124216666 95100000
L124169047 95147619
L124121428 95242857
L124121428 95480952
L124169047 95576190
L124216666 95623809
L124311904 95671428
L124502380 95671428
L124597619 95623809
L124645238 95576190
L124692857 95480952
" />
</g><text x="147500000.000000" y="110300000.000000"
textLength="3861667.000000" font-size="1333333.000000" lengthAdjust="spacingAndGlyphs"
text-anchor="middle" opacity="0">LS27</text>
<g class="stroked-text"><desc>LS27</desc>
<path d="M146380952 110252380
L145904761 110252380
L145904761 109252380
" />
<path d="M146666666 110204761
L146809523 110252380
L147047619 110252380
L147142857 110204761
L147190476 110157142
L147238095 110061904
L147238095 109966666
L147190476 109871428
L147142857 109823809
L147047619 109776190
L146857142 109728571
L146761904 109680952
L146714285 109633333
L146666666 109538095
L146666666 109442857
L146714285 109347619
L146761904 109300000
L146857142 109252380
L147095238 109252380
L147238095 109300000
" />
<path d="M147619047 109347619
L147666666 109300000
L147761904 109252380
L148000000 109252380
L148095238 109300000
L148142857 109347619
L148190476 109442857
L148190476 109538095
L148142857 109680952
L147571428 110252380
L148190476 110252380
" />
<path d="M148523809 109252380
L149190476 109252380
L148761904 110252380
" />
</g><text x="180100000.000000" y="81900000.000000"
textLength="3861667.000000" font-size="1333333.000000" lengthAdjust="spacingAndGlyphs"
text-anchor="middle" opacity="0">LS17</text>
<g class="stroked-text"><desc>LS17</desc>
<path d="M178980952 81852380
L178504761 81852380
L178504761 80852380
" />
<path d="M179266666 81804761
L179409523 81852380
L179647619 81852380
L179742857 81804761
L179790476 81757142
L179838095 81661904
L179838095 81566666
L179790476 81471428
L179742857 81423809
L179647619 81376190
L179457142 81328571
L179361904 81280952
L179314285 81233333
L179266666 81138095
L179266666 81042857
L179314285 80947619
L179361904 80900000
L179457142 80852380
L179695238 80852380
L179838095 80900000
" />
<path d="M180790476 81852380
L180219047 81852380
" />
<path d="M180504761 81852380
L180504761 80852380
L180409523 80995238
L180314285 81090476
L180219047 81138095
" />
<path d="M181123809 80852380
L181790476 80852380
L181361904 81852380
" />
</g><text x="147500000.000000" y="81900000.000000"
textLength="3861667.000000" font-size="1333333.000000" lengthAdjust="spacingAndGlyphs"
text-anchor="middle" opacity="0">LS15</text>
<g class="stroked-text"><desc>LS15</desc>
<path d="M146380952 81852380
L145904761 81852380
L145904761 80852380
" />
<path d="M146666666 81804761
L146809523 81852380
L147047619 81852380
L147142857 81804761
L147190476 81757142
L147238095 81661904
L147238095 81566666
L147190476 81471428
L147142857 81423809
L147047619 81376190
L146857142 81328571
L146761904 81280952
L146714285 81233333
L146666666 81138095
L146666666 81042857
L146714285 80947619
L146761904 80900000
L146857142 80852380
L147095238 80852380
L147238095 80900000
" />
<path d="M148190476 81852380
L147619047 81852380
" />
<path d="M147904761 81852380
L147904761 80852380
L147809523 80995238
L147714285 81090476
L147619047 81138095
" />
<path d="M149095238 80852380
L148619047 80852380
L148571428 81328571
L148619047 81280952
L148714285 81233333
L148952380 81233333
L149047619 81280952
L149095238 81328571
L149142857 81423809
L149142857 81661904
L149095238 81757142
L149047619 81804761
L148952380 81852380
L148714285 81852380
L148619047 81804761
L148571428 81757142
" />
</g><text x="139350000.000000" y="124500000.000000"
textLength="3861667.000000" font-size="1333333.000000" lengthAdjust="spacingAndGlyphs"
text-anchor="middle" opacity="0">LS32</text>
<g class="stroked-text"><desc>LS32</desc>
<path d="M138230952 124452380
L137754761 124452380
L137754761 123452380
" />
<path d="M138516666 124404761
L138659523 124452380
L138897619 124452380
L138992857 124404761
L139040476 124357142
L139088095 124261904
L139088095 124166666
L139040476 124071428
L138992857 124023809
L138897619 123976190
L138707142 123928571
L138611904 123880952
L138564285 123833333
L138516666 123738095
L138516666 123642857
L138564285 123547619
L138611904 123500000
L138707142 123452380
L138945238 123452380
L139088095 123500000
" />
<path d="M139421428 123452380
L140040476 123452380
L139707142 123833333
L139850000 123833333
L139945238 123880952
L139992857 123928571
L140040476 124023809
L140040476 124261904
L139992857 124357142
L139945238 124404761
L139850000 124452380
L139564285 124452380
L139469047 124404761
L139421428 124357142
" />
<path d="M140421428 123547619
L140469047 123500000
L140564285 123452380
L140802380 123452380
L140897619 123500000
L140945238 123547619
L140992857 123642857
L140992857 123738095
L140945238 123880952
L140373809 124452380
L140992857 124452380
" />
</g><g transform="rotate(-90.000000 107209209.000000 75701534.000000)">
<text x="107209209.000000" y="76201534.000000"
textLength="1909286.000000" font-size="1333333.000000" lengthAdjust="spacingAndGlyphs"
text-anchor="middle" opacity="0">J1</text>
</g>
<g class="stroked-text"><desc>J1</desc>
<path d="M106661589 76034867
L107375875 76034867
L107518732 76082486
L107613970 76177724
L107661589 76320581
L107661589 76415819
" />
<path d="M107661589 75034867
L107661589 75606295
" />
<path d="M107661589 75320581
L106661589 75320581
L106804447 75415819
L106899685 75511057
L106947304 75606295
" />
</g></g>
<g style="fill:#000000; fill-opacity:0.0; 
stroke:#000000; stroke-width:100000.000000; stroke-opacity:1; 
stroke-linecap:round; stroke-linejoin:round;">
<circle cx="204550000.000000" cy="97600000.000000" r="8050000.000000" /> 
<circle cx="155650000.000000" cy="69200000.000000" r="8050000.000000" /> 
<circle cx="180100000.000000" cy="111800000.000000" r="8050000.000000" /> 
<circle cx="131200000.000000" cy="111800000.000000" r="8050000.000000" /> 
<circle cx="139350000.000000" cy="97600000.000000" r="8050000.000000" /> 
<circle cx="204550000.000000" cy="69200000.000000" r="8050000.000000" /> 
<circle cx="114900000.000000" cy="55000000.000000" r="8050000.000000" /> 
<circle cx="131200000.000000" cy="55000000.000000" r="8050000.000000" /> 
<circle cx="114900000.000000" cy="83400000.000000" r="8050000.000000" /> 
<circle cx="180100000.000000" cy="55000000.000000" r="8050000.000000" /> 
<circle cx="188250000.000000" cy="126000000.000000" r="8050000.000000" /> 
<circle cx="171950000.000000" cy="97600000.000000" r="8050000.000000" /> 
<circle cx="188250000.000000" cy="97600000.000000" r="8050000.000000" /> 
<circle cx="163800000.000000" cy="55000000.000000" r="8050000.000000" /> 
<circle cx="171950000.000000" cy="126000000.000000" r="8050000.000000" /> 
<circle cx="155650000.000000" cy="97600000.000000" r="8050000.000000" /> 
<circle cx="196400000.000000" cy="83400000.000000" r="8050000.000000" /> 
<circle cx="188250000.000000" cy="69200000.000000" r="8050000.000000" /> 
<circle cx="163800000.000000" cy="111800000.000000" r="8050000.000000" /> 
<circle cx="171950000.000000" cy="69200000.000000" r="8050000.000000" /> 
<circle cx="123050000.000000" cy="126000000.000000" r="8050000.000000" /> 
<circle cx="131200000.000000" cy="83400000.000000" r="8050000.000000" /> 
<circle cx="147500000.000000" cy="55000000.000000" r="8050000.000000" /> 
<circle cx="196400000.000000" cy="111800000.000000" r="8050000.000000" /> 
<circle cx="163800000.000000" cy="83400000.000000" r="8050000.000000" /> 
<circle cx="114900000.000000" cy="111800000.000000" r="8050000.000000" /> 
<circle cx="123050000.000000" cy="69200000.000000" r="8050000.000000" /> 
<circle cx="196400000.000000" cy="55000000.000000" r="8050000.000000" /> 
<circle cx="139350000.000000" cy="69200000.000000" r="8050000.000000" /> 
<circle cx="204550000.000000" cy="126000000.000000" r="8050000.000000" /> 
<circle cx="155650000.000000" cy="126000000.000000" r="8050000.000000" /> 
<circle cx="123050000.000000" cy="97600000.000000" r="8050000.000000" /> 
<circle cx="147500000.000000" cy="111800000.000000" r="8050000.000000" /> 
<circle cx="180100000.000000" cy="83400000.000000" r="8050000.000000" /> 
<circle cx="147500000.000000" cy="83400000.000000" r="8050000.000000" /> 
<circle cx="139350000.000000" cy="126000000.000000" r="8050000.000000" /> 
</g>
<g style="fill:#000000; fill-opacity:0.0; 
stroke:#000000; stroke-width:120000.000000; stroke-opacity:1; 
stroke-linecap:round; stroke-linejoin:round;">
<path d="M103948209 74261534
L103948209 64141534
" />
<path d="M114109209 74501534
L114109209 74001534
" />
<path d="M113869209 74261534
L113869209 64141534
" />
<path d="M110232209 67928534
L110278209 67975534
" />
<path d="M111809209 74261534
L111809209 64141534
" />
<path d="M110448209 67735534
L110483209 67770534
" />
<path d="M113369209 74501534
L114109209 74501534
" />
<path d="M103948209 74261534
L113869209 74261534
" />
<path d="M103948209 64141534
L113869209 64141534
" />
<path d="M108140209 65426534
L108186209 65473534
" />
<path d="M107934209 65631534
L107970209 65666534
" />
<path d="M106908209 74261534
L106908209 64141534
" />
<path d="M113309209 74261534
L113309209 64141534
" />
<path d="M109893209.316196 70166533.290409 A1680501.000000 1680501.000000 0.0 0 0 108526166.859126 70166106.683325" />
<path d="M110744209.247038 72385534.110081 A1680501.000000 1680501.000000 0.0 0 0 110889462.095448 71672728.998364" />
<path d="M110889209.000000 71701534.000000 A1680000.000000 1680000.000000 0.0 0 0 110743965.144465 71018215.935680" />
<path d="M108525209.096157 73236533.784210 A1680494.000000 1680494.000000 0.0 0 0 109892251.060461 73236961.135911" />
<path d="M107674209.215790 71017534.096157 A1680494.000000 1680494.000000 0.0 0 0 107673781.864089 72384576.060461" />
<circle cx="109209209.000000" cy="66701534.000000" r="1680000.000000" /> 
<g >
</g>
<g >
</g>
<g >
</g>
<g >
</g>
<g >
</g>
<g >
</g>
<g >
</g>
<g >
</g>
<g >
</g>
<g >
</g>
<g >
</g>
<g >
</g>
<g >
</g>
<g >
</g>
<g >
</g>
<g >
</g>
<g >
</g>
<g >
</g>
<g >
</g>
<g >
</g>
<g >
</g>
<g >
</g>
<g >
</g>
<g >
</g>
<g >
</g>
<g >
</g>
<g >
</g>
<g >
</g>
<g >
</g>
<g >
</g>
<g >
</g>
<g >
</g>
<g >
</g>
<g >
</g>
<g >
</g>
<g >
</g>
<g >
</g>
<g >
</g>
<g >
</g>
<g >
</g>
</g> 
</svg>
