<?xml version="1.0" standalone="no"?>
 <!DOCTYPE svg PUBLIC "-//W3C//DTD SVG 1.1//EN" 
 "http://www.w3.org/Graphics/SVG/1.1/DTD/svg11.dtd"> 
<svg
  xmlns:svg="http://www.w3.org/2000/svg"
  xmlns="http://www.w3.org/2000/svg"
  xmlns:xlink="http://www.w3.org/1999/xlink"
  version="1.1"
  width="29.700220cm" height="21.000720cm" viewBox="0 0 297002200 210007200">
<title>SVG Picture created as ultrasonic array-Edge_Cuts.svg date 2023/03/09 12:59:56 </title>
  <desc>Picture generated by PCBNEW </desc>
<g style="fill:#000000; fill-opacity:1.000000;stroke:#000000; stroke-opacity:1.000000;
stroke-linecap:round; stroke-linejoin:round;"
 transform="translate(0 0) scale(1 1)">
</g>
<g style="fill:#000000; fill-opacity:0.0; 
stroke:#000000; stroke-width:0.000000; stroke-opacity:1; 
stroke-linecap:round; stroke-linejoin:round;">
</g>
<g style="fill:#000000; fill-opacity:0.0; 
stroke:#000000; stroke-width:200000.000000; stroke-opacity:1; 
stroke-linecap:round; stroke-linejoin:round;">
<path style="fill:#000000; fill-opacity:0.0; 
stroke:#000000; stroke-width:200000.000000; stroke-opacity:1; 
stroke-linecap:round; stroke-linejoin:round;fill:none"
d="M 208914250.000000,44565441.000000
209132451.000000,44567821.000000
209567192.000000,44605856.000000
209996964.000000,44681636.000000
210418495.000000,44794585.000000
210828579.000000,44943843.000000
211224093.000000,45128274.000000
211602028.000000,45346475.000000
211959507.000000,45596785.000000
212293810.000000,45877298.000000
212602393.000000,46185881.000000
212882906.000000,46520184.000000
213133216.000000,46877663.000000
213351417.000000,47255598.000000
213535848.000000,47651112.000000
213685106.000000,48061196.000000
213798055.000000,48482727.000000
213873835.000000,48912499.000000
213911870.000000,49347240.000000
213914250.000000,49565441.000000
213914250.000000,132565441.000000
213911870.000000,132783642.000000
213873835.000000,133218383.000000
213798055.000000,133648155.000000
213685106.000000,134069686.000000
213535848.000000,134479770.000000
213351417.000000,134875284.000000
213133216.000000,135253219.000000
212882906.000000,135610698.000000
212602393.000000,135945001.000000
212293810.000000,136253584.000000
211959507.000000,136534097.000000
211602028.000000,136784407.000000
211224093.000000,137002608.000000
210828579.000000,137187039.000000
210418495.000000,137336297.000000
209996964.000000,137449246.000000
209567192.000000,137525026.000000
209132451.000000,137563061.000000
208914250.000000,137565441.000000
107614250.000000,137565441.000000
107396049.000000,137563061.000000
106961308.000000,137525026.000000
106531536.000000,137449246.000000
106110005.000000,137336297.000000
105699921.000000,137187039.000000
105304407.000000,137002608.000000
104926472.000000,136784407.000000
104568993.000000,136534097.000000
104234690.000000,136253584.000000
103926107.000000,135945001.000000
103645594.000000,135610698.000000
103395284.000000,135253219.000000
103177083.000000,134875284.000000
102992652.000000,134479770.000000
102843394.000000,134069686.000000
102730445.000000,133648155.000000
102654665.000000,133218383.000000
102616630.000000,132783642.000000
102614250.000000,132565441.000000
102614250.000000,49565441.000000
102616630.000000,49347240.000000
102654665.000000,48912499.000000
102730445.000000,48482727.000000
102843394.000000,48061196.000000
102992652.000000,47651112.000000
103177083.000000,47255598.000000
103395284.000000,46877663.000000
103645594.000000,46520184.000000
103926107.000000,46185881.000000
104234690.000000,45877298.000000
104568993.000000,45596785.000000
104926472.000000,45346475.000000
105304407.000000,45128274.000000
105699921.000000,44943843.000000
106110005.000000,44794585.000000
106531536.000000,44681636.000000
106961308.000000,44605856.000000
107396049.000000,44567821.000000
107614250.000000,44565441.000000
Z" /> 
<g >
</g>
<g >
</g>
<g >
</g>
<g >
</g>
<g >
</g>
<g >
</g>
<g >
</g>
<g >
</g>
<g >
</g>
<g >
</g>
<g >
</g>
<g >
</g>
<g >
</g>
<g >
</g>
<g >
</g>
<g >
</g>
<g >
</g>
<g >
</g>
<g >
</g>
<g >
</g>
<g >
</g>
<g >
</g>
<g >
</g>
<g >
</g>
<g >
</g>
<g >
</g>
<g >
</g>
<g >
</g>
<g >
</g>
<g >
</g>
<g >
</g>
<g >
</g>
<g >
</g>
<g >
</g>
<g >
</g>
<g >
</g>
<g >
</g>
<g >
</g>
<g >
</g>
<g >
</g>
</g> 
</svg>
