%TF.GenerationSoftware,KiCad,Pcbnew,(7.0.0)*%
%TF.CreationDate,2023-03-09T18:18:53+01:00*%
%TF.ProjectId,ultrasonic array,756c7472-6173-46f6-9e69-632061727261,rev?*%
%TF.SameCoordinates,PX838a157PY7d6ad8a*%
%TF.FileFunction,Soldermask,Top*%
%TF.FilePolarity,Negative*%
%FSLAX46Y46*%
G04 Gerber Fmt 4.6, Leading zero omitted, Abs format (unit mm)*
G04 Created by KiCad (PCBNEW (7.0.0)) date 2023-03-09 18:18:53*
%MOMM*%
%LPD*%
G01*
G04 APERTURE LIST*
%ADD10C,3.000000*%
%ADD11R,3.000000X3.000000*%
G04 APERTURE END LIST*
D10*
%TO.C,LS24*%
X66620953Y28909642D03*
X66620953Y38909642D03*
%TD*%
%TO.C,LS9*%
X17720953Y57309642D03*
X17720953Y67309642D03*
%TD*%
%TO.C,LS29*%
X42170953Y14709642D03*
X42170953Y24709642D03*
%TD*%
%TO.C,LS26*%
X-6729047Y14709642D03*
X-6729047Y24709642D03*
%TD*%
%TO.C,LS20*%
X1420953Y28909642D03*
X1420953Y38909642D03*
%TD*%
%TO.C,LS12*%
X66620953Y57309642D03*
X66620953Y67309642D03*
%TD*%
%TO.C,LS1*%
X-23029047Y71509642D03*
X-23029047Y81509642D03*
%TD*%
%TO.C,LS2*%
X-6729047Y71509642D03*
X-6729047Y81509642D03*
%TD*%
%TO.C,LS13*%
X-23029047Y43109642D03*
X-23029047Y53109642D03*
%TD*%
%TO.C,LS5*%
X42170953Y71509642D03*
X42170953Y81509642D03*
%TD*%
%TO.C,LS35*%
X50320953Y509642D03*
X50320953Y10509642D03*
%TD*%
%TO.C,LS22*%
X34020953Y28909642D03*
X34020953Y38909642D03*
%TD*%
%TO.C,LS23*%
X50320953Y28909642D03*
X50320953Y38909642D03*
%TD*%
%TO.C,LS4*%
X25870953Y71509642D03*
X25870953Y81509642D03*
%TD*%
%TO.C,LS34*%
X34020953Y509642D03*
X34020953Y10509642D03*
%TD*%
%TO.C,LS21*%
X17720953Y28909642D03*
X17720953Y38909642D03*
%TD*%
%TO.C,LS18*%
X58470953Y43109642D03*
X58470953Y53109642D03*
%TD*%
%TO.C,LS11*%
X50320953Y57309642D03*
X50320953Y67309642D03*
%TD*%
%TO.C,LS28*%
X25870953Y14709642D03*
X25870953Y24709642D03*
%TD*%
%TO.C,LS10*%
X34020953Y57309642D03*
X34020953Y67309642D03*
%TD*%
%TO.C,LS31*%
X-14879047Y509642D03*
X-14879047Y10509642D03*
%TD*%
%TO.C,LS14*%
X-6729047Y43109642D03*
X-6729047Y53109642D03*
%TD*%
%TO.C,LS3*%
X9570953Y71509642D03*
X9570953Y81509642D03*
%TD*%
%TO.C,LS30*%
X58470953Y14709642D03*
X58470953Y24709642D03*
%TD*%
%TO.C,LS16*%
X25870953Y43109642D03*
X25870953Y53109642D03*
%TD*%
%TO.C,LS25*%
X-23029047Y14709642D03*
X-23029047Y24709642D03*
%TD*%
%TO.C,LS7*%
X-14879047Y57309642D03*
X-14879047Y67309642D03*
%TD*%
%TO.C,LS6*%
X58470953Y71509642D03*
X58470953Y81509642D03*
%TD*%
%TO.C,LS8*%
X1420953Y57309642D03*
X1420953Y67309642D03*
%TD*%
%TO.C,LS36*%
X66620953Y509642D03*
X66620953Y10509642D03*
%TD*%
%TO.C,LS33*%
X17720953Y509642D03*
X17720953Y10509642D03*
%TD*%
%TO.C,LS19*%
X-14879047Y28909642D03*
X-14879047Y38909642D03*
%TD*%
%TO.C,LS27*%
X9570953Y14709642D03*
X9570953Y24709642D03*
%TD*%
%TO.C,LS17*%
X42170953Y43109642D03*
X42170953Y53109642D03*
%TD*%
%TO.C,LS15*%
X9570953Y43109642D03*
X9570953Y53109642D03*
%TD*%
%TO.C,LS32*%
X1420953Y509642D03*
X1420953Y10509642D03*
%TD*%
D11*
%TO.C,J1*%
X-28719837Y59808107D03*
D10*
X-28719838Y64808108D03*
%TD*%
M02*
