%TF.GenerationSoftware,KiCad,Pcbnew,(7.0.0)*%
%TF.CreationDate,2023-03-09T18:18:53+01:00*%
%TF.ProjectId,ultrasonic array,756c7472-6173-46f6-9e69-632061727261,rev?*%
%TF.SameCoordinates,PX838a157PY7d6ad8a*%
%TF.FileFunction,Copper,L1,Top*%
%TF.FilePolarity,Positive*%
%FSLAX46Y46*%
G04 Gerber Fmt 4.6, Leading zero omitted, Abs format (unit mm)*
G04 Created by KiCad (PCBNEW (7.0.0)) date 2023-03-09 18:18:53*
%MOMM*%
%LPD*%
G01*
G04 APERTURE LIST*
%TA.AperFunction,ComponentPad*%
%ADD10C,3.000000*%
%TD*%
%TA.AperFunction,ComponentPad*%
%ADD11R,3.000000X3.000000*%
%TD*%
%TA.AperFunction,Conductor*%
%ADD12C,1.000000*%
%TD*%
G04 APERTURE END LIST*
D10*
%TO.P,LS24,1,1*%
%TO.N,/power1*%
X66620953Y28909642D03*
%TO.P,LS24,2,2*%
%TO.N,/power2*%
X66620953Y38909642D03*
%TD*%
%TO.P,LS9,1,1*%
%TO.N,/power1*%
X17720953Y57309642D03*
%TO.P,LS9,2,2*%
%TO.N,/power2*%
X17720953Y67309642D03*
%TD*%
%TO.P,LS29,1,1*%
%TO.N,/power1*%
X42170953Y14709642D03*
%TO.P,LS29,2,2*%
%TO.N,/power2*%
X42170953Y24709642D03*
%TD*%
%TO.P,LS26,1,1*%
%TO.N,/power1*%
X-6729047Y14709642D03*
%TO.P,LS26,2,2*%
%TO.N,/power2*%
X-6729047Y24709642D03*
%TD*%
%TO.P,LS20,1,1*%
%TO.N,/power1*%
X1420953Y28909642D03*
%TO.P,LS20,2,2*%
%TO.N,/power2*%
X1420953Y38909642D03*
%TD*%
%TO.P,LS12,1,1*%
%TO.N,/power1*%
X66620953Y57309642D03*
%TO.P,LS12,2,2*%
%TO.N,/power2*%
X66620953Y67309642D03*
%TD*%
%TO.P,LS1,1,1*%
%TO.N,/power1*%
X-23029047Y71509642D03*
%TO.P,LS1,2,2*%
%TO.N,/power2*%
X-23029047Y81509642D03*
%TD*%
%TO.P,LS2,1,1*%
%TO.N,/power1*%
X-6729047Y71509642D03*
%TO.P,LS2,2,2*%
%TO.N,/power2*%
X-6729047Y81509642D03*
%TD*%
%TO.P,LS13,1,1*%
%TO.N,/power1*%
X-23029047Y43109642D03*
%TO.P,LS13,2,2*%
%TO.N,/power2*%
X-23029047Y53109642D03*
%TD*%
%TO.P,LS5,1,1*%
%TO.N,/power1*%
X42170953Y71509642D03*
%TO.P,LS5,2,2*%
%TO.N,/power2*%
X42170953Y81509642D03*
%TD*%
%TO.P,LS35,1,1*%
%TO.N,/power1*%
X50320953Y509642D03*
%TO.P,LS35,2,2*%
%TO.N,/power2*%
X50320953Y10509642D03*
%TD*%
%TO.P,LS22,1,1*%
%TO.N,/power1*%
X34020953Y28909642D03*
%TO.P,LS22,2,2*%
%TO.N,/power2*%
X34020953Y38909642D03*
%TD*%
%TO.P,LS23,1,1*%
%TO.N,/power1*%
X50320953Y28909642D03*
%TO.P,LS23,2,2*%
%TO.N,/power2*%
X50320953Y38909642D03*
%TD*%
%TO.P,LS4,1,1*%
%TO.N,/power1*%
X25870953Y71509642D03*
%TO.P,LS4,2,2*%
%TO.N,/power2*%
X25870953Y81509642D03*
%TD*%
%TO.P,LS34,1,1*%
%TO.N,/power1*%
X34020953Y509642D03*
%TO.P,LS34,2,2*%
%TO.N,/power2*%
X34020953Y10509642D03*
%TD*%
%TO.P,LS21,1,1*%
%TO.N,/power1*%
X17720953Y28909642D03*
%TO.P,LS21,2,2*%
%TO.N,/power2*%
X17720953Y38909642D03*
%TD*%
%TO.P,LS18,1,1*%
%TO.N,/power1*%
X58470953Y43109642D03*
%TO.P,LS18,2,2*%
%TO.N,/power2*%
X58470953Y53109642D03*
%TD*%
%TO.P,LS11,1,1*%
%TO.N,/power1*%
X50320953Y57309642D03*
%TO.P,LS11,2,2*%
%TO.N,/power2*%
X50320953Y67309642D03*
%TD*%
%TO.P,LS28,1,1*%
%TO.N,/power1*%
X25870953Y14709642D03*
%TO.P,LS28,2,2*%
%TO.N,/power2*%
X25870953Y24709642D03*
%TD*%
%TO.P,LS10,1,1*%
%TO.N,/power1*%
X34020953Y57309642D03*
%TO.P,LS10,2,2*%
%TO.N,/power2*%
X34020953Y67309642D03*
%TD*%
%TO.P,LS31,1,1*%
%TO.N,/power1*%
X-14879047Y509642D03*
%TO.P,LS31,2,2*%
%TO.N,/power2*%
X-14879047Y10509642D03*
%TD*%
%TO.P,LS14,1,1*%
%TO.N,/power1*%
X-6729047Y43109642D03*
%TO.P,LS14,2,2*%
%TO.N,/power2*%
X-6729047Y53109642D03*
%TD*%
%TO.P,LS3,1,1*%
%TO.N,/power1*%
X9570953Y71509642D03*
%TO.P,LS3,2,2*%
%TO.N,/power2*%
X9570953Y81509642D03*
%TD*%
%TO.P,LS30,1,1*%
%TO.N,/power1*%
X58470953Y14709642D03*
%TO.P,LS30,2,2*%
%TO.N,/power2*%
X58470953Y24709642D03*
%TD*%
%TO.P,LS16,1,1*%
%TO.N,/power1*%
X25870953Y43109642D03*
%TO.P,LS16,2,2*%
%TO.N,/power2*%
X25870953Y53109642D03*
%TD*%
%TO.P,LS25,1,1*%
%TO.N,/power1*%
X-23029047Y14709642D03*
%TO.P,LS25,2,2*%
%TO.N,/power2*%
X-23029047Y24709642D03*
%TD*%
%TO.P,LS7,1,1*%
%TO.N,/power1*%
X-14879047Y57309642D03*
%TO.P,LS7,2,2*%
%TO.N,/power2*%
X-14879047Y67309642D03*
%TD*%
%TO.P,LS6,1,1*%
%TO.N,/power1*%
X58470953Y71509642D03*
%TO.P,LS6,2,2*%
%TO.N,/power2*%
X58470953Y81509642D03*
%TD*%
%TO.P,LS8,1,1*%
%TO.N,/power1*%
X1420953Y57309642D03*
%TO.P,LS8,2,2*%
%TO.N,/power2*%
X1420953Y67309642D03*
%TD*%
%TO.P,LS36,1,1*%
%TO.N,/power1*%
X66620953Y509642D03*
%TO.P,LS36,2,2*%
%TO.N,/power2*%
X66620953Y10509642D03*
%TD*%
%TO.P,LS33,1,1*%
%TO.N,/power1*%
X17720953Y509642D03*
%TO.P,LS33,2,2*%
%TO.N,/power2*%
X17720953Y10509642D03*
%TD*%
%TO.P,LS19,1,1*%
%TO.N,/power1*%
X-14879047Y28909642D03*
%TO.P,LS19,2,2*%
%TO.N,/power2*%
X-14879047Y38909642D03*
%TD*%
%TO.P,LS27,1,1*%
%TO.N,/power1*%
X9570953Y14709642D03*
%TO.P,LS27,2,2*%
%TO.N,/power2*%
X9570953Y24709642D03*
%TD*%
%TO.P,LS17,1,1*%
%TO.N,/power1*%
X42170953Y43109642D03*
%TO.P,LS17,2,2*%
%TO.N,/power2*%
X42170953Y53109642D03*
%TD*%
%TO.P,LS15,1,1*%
%TO.N,/power1*%
X9570953Y43109642D03*
%TO.P,LS15,2,2*%
%TO.N,/power2*%
X9570953Y53109642D03*
%TD*%
%TO.P,LS32,1,1*%
%TO.N,/power1*%
X1420953Y509642D03*
%TO.P,LS32,2,2*%
%TO.N,/power2*%
X1420953Y10509642D03*
%TD*%
D11*
%TO.P,J1,1,Pin_1*%
%TO.N,/power1*%
X-28719837Y59808107D03*
D10*
%TO.P,J1,2,Pin_2*%
%TO.N,/power2*%
X-28719838Y64808108D03*
%TD*%
D12*
%TO.N,/power1*%
X-23029047Y35652283D02*
X-23029047Y37059642D01*
X-28719838Y59808108D02*
X-23931875Y59808108D01*
X-22150367Y7780962D02*
X-14879047Y509642D01*
X-23029047Y71509642D02*
X58470953Y71509642D01*
X-23029047Y37059642D02*
X-23029047Y35852283D01*
X-23781228Y59657461D02*
X-23781228Y61361823D01*
X66620953Y57309642D02*
X-14879047Y57309642D01*
X-23029047Y43109642D02*
X-23029047Y37059642D01*
X-23781228Y57312075D02*
X-23781228Y59657461D01*
X-27929047Y20852283D02*
X-27929047Y28267001D01*
X-14879047Y57309642D02*
X-23778795Y57309642D01*
X-22150367Y33730962D02*
X-18207726Y29788321D01*
X-23781228Y62657461D02*
X-23781228Y70757461D01*
X-23778795Y57309642D02*
X-26050368Y55038069D01*
X-23778795Y57309642D02*
X-23781228Y57312075D01*
X-26050367Y46130962D02*
X-23029047Y43109642D01*
X-23029047Y14709642D02*
X-27050368Y18730963D01*
X-23029047Y14709642D02*
X-23029047Y9902283D01*
X-23029047Y14709642D02*
X58470953Y14709642D01*
X-23781228Y61361823D02*
X-23781228Y62657461D01*
X-23931875Y59808108D02*
X-23781228Y59657461D01*
X-14879047Y509642D02*
X66620953Y509642D01*
X-14879047Y28909642D02*
X66620953Y28909642D01*
X-23029047Y43109642D02*
X58470953Y43109642D01*
X-27050367Y30388322D02*
X-23907726Y33530963D01*
X-23781228Y70757461D02*
X-23029047Y71509642D01*
X-26929047Y52916749D02*
X-26929047Y48252283D01*
X-16086406Y28909642D02*
X-14879047Y28909642D01*
X-23029018Y9902283D02*
G75*
G03*
X-22150367Y7780962I2999971J-41D01*
G01*
X-26929018Y48252283D02*
G75*
G03*
X-26050367Y46130962I2999971J-41D01*
G01*
X-18207746Y29788301D02*
G75*
G03*
X-16086406Y28909642I2121299J2121341D01*
G01*
X-23907706Y33530943D02*
G75*
G03*
X-23029047Y35652283I-2121341J2121299D01*
G01*
X-27929018Y20852283D02*
G75*
G03*
X-27050368Y18730963I2999971J-41D01*
G01*
X-23029018Y35852283D02*
G75*
G03*
X-22150367Y33730962I2999971J-41D01*
G01*
X-27050387Y30388342D02*
G75*
G03*
X-27929047Y28267001I2121340J-2121300D01*
G01*
X-26050364Y55038065D02*
G75*
G03*
X-26929047Y52916749I2121317J-2121323D01*
G01*
%TO.N,/power2*%
X66620953Y47717001D02*
X66620953Y44959642D01*
X66620953Y10509642D02*
X-14879047Y10509642D01*
X67370701Y24709642D02*
X58470953Y24709642D01*
X66620953Y67309642D02*
X70192274Y63738321D01*
X-28929047Y65017317D02*
X-28719838Y64808108D01*
X58470953Y53109642D02*
X61228312Y53109642D01*
X-23029047Y81509642D02*
X58470953Y81509642D01*
X67370701Y24709642D02*
X66620953Y23959894D01*
X69242273Y26581214D02*
X67370701Y24709642D01*
X66620953Y38909642D02*
X69242274Y36288321D01*
X-14879047Y67309642D02*
X66620953Y67309642D01*
X-23029047Y53109642D02*
X58470953Y53109642D01*
X66620953Y44959642D02*
X66620953Y38909642D01*
X-23029047Y81509642D02*
X-28050368Y76488321D01*
X66620953Y38909642D02*
X-14879047Y38909642D01*
X58470953Y24709642D02*
X-23029047Y24709642D01*
X63349633Y52230962D02*
X65742274Y49838321D01*
X-28929047Y74367001D02*
X-28929047Y65017317D01*
X71070953Y61617001D02*
X71070953Y54752283D01*
X66620953Y72117001D02*
X66620953Y67309642D01*
X66620953Y47817001D02*
X66620953Y44959642D01*
X66620953Y23959894D02*
X66620953Y10509642D01*
X58470953Y81509642D02*
X65742274Y74238321D01*
X70120953Y34167001D02*
X70120953Y28702535D01*
X70192273Y52630962D02*
X67499632Y49938321D01*
X70120924Y34167001D02*
G75*
G03*
X69242274Y36288321I-2999971J41D01*
G01*
X70192293Y52630942D02*
G75*
G03*
X71070953Y54752283I-2121340J2121300D01*
G01*
X71070924Y61617001D02*
G75*
G03*
X70192274Y63738321I-2999971J41D01*
G01*
X66620924Y47717001D02*
G75*
G03*
X65742274Y49838321I-2999971J41D01*
G01*
X67499612Y49938341D02*
G75*
G03*
X66620953Y47817001I2121341J-2121299D01*
G01*
X-28050388Y76488341D02*
G75*
G03*
X-28929047Y74367001I2121341J-2121299D01*
G01*
X63349653Y52230982D02*
G75*
G03*
X61228312Y53109642I-2121300J-2121340D01*
G01*
X69242269Y26581218D02*
G75*
G03*
X70120953Y28702535I-2121316J2121324D01*
G01*
X66620924Y72117001D02*
G75*
G03*
X65742274Y74238321I-2999971J41D01*
G01*
%TD*%
M02*
