M48
; DRILL file {KiCad (7.0.0)} date Thu Mar  9 18:18:57 2023
; FORMAT={-:-/ absolute / inch / decimal}
; #@! TF.CreationDate,2023-03-09T18:18:57+01:00
; #@! TF.GenerationSoftware,Kicad,Pcbnew,(7.0.0)
; #@! TF.FileFunction,Plated,1,2,PTH
FMAT,2
INCH
; #@! TA.AperFunction,Plated,PTH,ComponentDrill
T1C0.0512
%
G90
G05
T1
X-1.1307Y2.5515
X-1.1307Y2.3546
X-0.9067Y3.209
X-0.9067Y2.8153
X-0.9067Y2.0909
X-0.9067Y1.6972
X-0.9067Y0.9728
X-0.9067Y0.5791
X-0.5858Y2.65
X-0.5858Y2.2563
X-0.5858Y1.5319
X-0.5858Y1.1382
X-0.5858Y0.4138
X-0.5858Y0.0201
X-0.2649Y3.209
X-0.2649Y2.8153
X-0.2649Y2.0909
X-0.2649Y1.6972
X-0.2649Y0.9728
X-0.2649Y0.5791
X0.0559Y2.65
X0.0559Y2.2563
X0.0559Y1.5319
X0.0559Y1.1382
X0.0559Y0.4138
X0.0559Y0.0201
X0.3768Y3.209
X0.3768Y2.8153
X0.3768Y2.0909
X0.3768Y1.6972
X0.3768Y0.9728
X0.3768Y0.5791
X0.6977Y2.65
X0.6977Y2.2563
X0.6977Y1.5319
X0.6977Y1.1382
X0.6977Y0.4138
X0.6977Y0.0201
X1.0185Y3.209
X1.0185Y2.8153
X1.0185Y2.0909
X1.0185Y1.6972
X1.0185Y0.9728
X1.0185Y0.5791
X1.3394Y2.65
X1.3394Y2.2563
X1.3394Y1.5319
X1.3394Y1.1382
X1.3394Y0.4138
X1.3394Y0.0201
X1.6603Y3.209
X1.6603Y2.8153
X1.6603Y2.0909
X1.6603Y1.6972
X1.6603Y0.9728
X1.6603Y0.5791
X1.9811Y2.65
X1.9811Y2.2563
X1.9811Y1.5319
X1.9811Y1.1382
X1.9811Y0.4138
X1.9811Y0.0201
X2.302Y3.209
X2.302Y2.8153
X2.302Y2.0909
X2.302Y1.6972
X2.302Y0.9728
X2.302Y0.5791
X2.6229Y2.65
X2.6229Y2.2563
X2.6229Y1.5319
X2.6229Y1.1382
X2.6229Y0.4138
X2.6229Y0.0201
T0
M30
